<svg width="21" height="22" fill="#8C8C8C" id="Capa_1" enable-background="new 0 0 512 512" viewBox="0 0 512 512" xmlns="http://www.w3.org/2000/svg"><path d="m512 121v-75c0-24.813-20.187-45-45-45h-422c-24.813 0-45 20.187-45 45v75zm-166-60h90c8.284 0 15 6.716 15 15s-6.716 15-15 15h-90c-8.284 0-15-6.716-15-15s6.716-15 15-15zm-150 0c8.284 0 15 6.716 15 15s-6.716 15-15 15-15-6.716-15-15 6.716-15 15-15zm-60 0c8.284 0 15 6.716 15 15s-6.716 15-15 15-15-6.716-15-15 6.716-15 15-15zm-60 0c8.284 0 15 6.716 15 15s-6.716 15-15 15-15-6.716-15-15 6.716-15 15-15z"/><path d="m0 151v315c0 24.813 20.187 45 45 45h422c24.813 0 45-20.187 45-45v-315zm175.37 213.287c6.47 5.175 7.518 14.614 2.343 21.083-5.174 6.468-14.615 7.518-21.083 2.342l-75-60c-7.499-5.997-7.504-17.424 0-23.426l75-60c6.466-5.175 15.907-4.127 21.083 2.342 5.175 6.469 4.127 15.909-2.343 21.083l-60.358 48.289zm139.417-147.378-90 210c-3.263 7.613-12.079 11.143-19.696 7.878-7.614-3.263-11.142-12.082-7.878-19.696l90-210c3.264-7.614 12.082-11.141 19.696-7.878s11.142 12.081 7.878 19.696zm115.583 110.804-75 60c-6.458 5.168-15.9 4.136-21.083-2.342-5.175-6.469-4.127-15.909 2.343-21.083l60.358-48.288-60.358-48.287c-6.47-5.175-7.518-14.614-2.343-21.083 5.174-6.469 14.614-7.518 21.083-2.342l75 60c7.499 5.997 7.504 17.423 0 23.425z"/></svg>