<svg width="21" height="22" fill="#8C8C8C" version="1.1" id="Capa_1" xmlns="http://www.w3.org/2000/svg" xmlns:xlink="http://www.w3.org/1999/xlink" x="0px" y="0px"
	viewBox="0 0 310.42 310.42" style="enable-background:new 0 0 310.42 310.42;"
	 xml:space="preserve">
<g>
	<g>
		<path d="M273.587,214.965c49.11-49.111,49.109-129.021,0-178.132c-49.111-49.111-129.021-49.111-178.131,0
			C53.792,78.497,47.482,140.462,76.51,188.85c0,0,2.085,3.496-0.731,6.312c-16.064,16.064-64.262,64.263-64.262,64.263
			c-12.791,12.79-15.837,30.675-4.494,42.02l1.953,1.951c11.344,11.345,29.23,8.301,42.02-4.49c0,0,48.096-48.097,64.129-64.128
			c2.95-2.951,6.447-0.866,6.447-0.866C169.958,262.938,231.923,256.629,273.587,214.965z M118.712,191.71
			c-36.288-36.288-36.287-95.332,0-131.62c36.288-36.287,95.332-36.288,131.619,0c36.288,36.287,36.288,95.332,0,131.62
			C214.043,227.997,154.999,227.997,118.712,191.71z"/>
		<g>
			<path d="M184.908,82.43c-38.02,0-68.841,37.92-68.841,44.115c0,6.012,30.82,44.114,68.841,44.114
				c38.02,0,68.841-37.93,68.841-44.114C253.749,120.371,222.929,82.43,184.908,82.43z M184.908,157.941
				c-17.341,0-31.397-14.058-31.397-31.397s14.057-31.397,31.397-31.397c17.34,0,31.396,14.057,31.396,31.397
				S202.248,157.941,184.908,157.941z"/>
			<circle cx="184.908" cy="126.545" r="15.994"/>
		</g>
	</g>
</g>
<g>
</g>
<g>
</g>
<g>
</g>
<g>
</g>
<g>
</g>
<g>
</g>
<g>
</g>
<g>
</g>
<g>
</g>
<g>
</g>
<g>
</g>
<g>
</g>
<g>
</g>
<g>
</g>
<g>
</g>
</svg>
