<svg width="21" height="22" fill="#8C8C8C" version="1.1" id="Capa_1" xmlns="http://www.w3.org/2000/svg" xmlns:xlink="http://www.w3.org/1999/xlink" x="0px" y="0px"
	 viewBox="0 0 471.04 471.04" style="enable-background:new 0 0 471.04 471.04;" xml:space="preserve">
<g>
	<g>
		<path d="M414.72,112.64h-49.152l-27.136-40.96c-10.24-15.36-28.16-24.576-46.592-24.576H179.2
			c-18.432,0-36.352,9.216-46.592,24.576l-27.136,40.96H56.32C25.088,112.64,0,137.728,0,168.96v198.656
			c0,31.232,25.088,56.32,56.32,56.32h358.4c31.232,0,56.32-25.088,56.32-56.32V168.96C471.04,137.728,445.952,112.64,414.72,112.64
			z M235.52,377.856c-70.144,0-126.976-56.832-126.976-126.976c0-70.144,56.832-126.464,126.976-126.464
			s126.976,56.832,126.976,126.976C362.496,321.024,305.664,377.856,235.52,377.856z M407.552,192c-0.512,0-1.024,0-2.048,0h-20.48
			c-9.216-0.512-16.384-8.192-15.872-17.408c0.512-8.704,7.168-15.36,15.872-15.872h20.48c9.216-0.512,16.896,6.656,17.408,15.872
			C423.424,183.808,416.768,191.488,407.552,192z"/>
	</g>
</g>
<g>
	<g>
		<path d="M235.52,180.736c-38.912,0-70.656,31.744-70.656,70.656s31.744,70.144,70.656,70.144s70.656-31.744,70.656-70.656
			C306.176,211.968,274.432,180.736,235.52,180.736z"/>
	</g>
</g>
<g>
</g>
<g>
</g>
<g>
</g>
<g>
</g>
<g>
</g>
<g>
</g>
<g>
</g>
<g>
</g>
<g>
</g>
<g>
</g>
<g>
</g>
<g>
</g>
<g>
</g>
<g>
</g>
<g>
</g>
</svg>
