<svg width="31" height="30" viewBox="0 0 31 30" fill="none" xmlns="http://www.w3.org/2000/svg">
    <g>
        <path d="M29.7728 9.37582H15.6396C12.481 9.37277 9.9178 11.8886 9.91464 14.995C9.91368 15.9599 10.1651 16.9088 10.6447 17.7504L3.5782 5.82595C8.72519 -0.725413 18.2979 -1.93286 24.9595 3.12901C27.0988 4.75462 28.7601 6.91059 29.7728 9.37582Z" fill="#F44336"/>
        <path d="M30.8912 15.0005C30.8842 23.2816 24.06 29.993 15.6396 29.9999C15.0019 30.0022 14.3649 29.9605 13.7332 29.8749L20.5964 17.8129C22.1694 15.1198 21.2317 11.6828 18.4993 10.1258C17.6342 9.63319 16.652 9.37439 15.6523 9.3758H29.7727C30.5149 11.1611 30.8949 13.0718 30.8912 15.0005Z" fill="#FFC107"/>
        <path d="M20.5964 17.8129L13.7332 29.8749H13.7205C5.3686 28.8371 -0.54651 21.3372 0.508709 13.1235C0.85026 10.4649 1.91019 7.94495 3.57821 5.82594L10.6448 17.7504L10.6829 17.8129C12.2587 20.5052 15.7554 21.4313 18.4929 19.8816C19.3674 19.3866 20.0931 18.6729 20.5964 17.8129Z" fill="#4CAF50"/>
        <path d="M20.5964 17.8129C19.0205 20.5052 15.5239 21.4313 12.7863 19.8816C11.9119 19.3866 11.1862 18.6729 10.6829 17.8129L10.6447 17.7504C9.10046 15.0405 10.0824 11.6125 12.8379 10.0938C13.6938 9.62207 14.6586 9.37482 15.6396 9.37575H15.6523C16.652 9.37435 17.6342 9.63314 18.4993 10.1257C21.2318 11.6828 22.1694 15.1198 20.5964 17.8129Z" fill="#F44336"/>
        <path d="M20.5964 17.8129C19.0205 20.5052 15.5239 21.4313 12.7863 19.8816C11.9119 19.3866 11.1862 18.6729 10.6829 17.8129L10.6447 17.7504C9.10046 15.0405 10.0824 11.6125 12.8379 10.0938C13.6938 9.62207 14.6586 9.37482 15.6396 9.37575H15.6523C16.652 9.37435 17.6342 9.63314 18.4993 10.1257C21.2318 11.6828 22.1694 15.1198 20.5964 17.8129Z" fill="#2196F3"/>
        <path d="M15.6181 21.2503C14.5101 21.2502 13.4216 20.963 12.4623 20.4178C11.4949 19.8676 10.6915 19.0771 10.1326 18.1255C8.37775 15.1363 9.41915 11.314 12.4586 9.5882C13.4257 9.03908 14.5229 8.75029 15.6397 8.75087C19.1494 8.74818 21.9968 11.5441 21.9994 14.9957C22.0003 16.0944 21.7066 17.1739 21.148 18.1255C20.0027 20.0619 17.8959 21.2524 15.6181 21.2503ZM15.6511 10.0008C13.8273 9.99125 12.1388 10.9459 11.2294 12.5007C9.82552 14.8947 10.6608 17.9548 13.0951 19.3354C15.5294 20.7161 18.6409 19.8946 20.0448 17.5005C21.4486 15.1092 20.6155 12.0514 18.184 10.6707C17.4141 10.2336 16.5412 10.0026 15.6523 10.0009H15.6511V10.0008Z" fill="#FAFAFA"/>
    </g>

</svg>
