<svg width="47" height="40" viewBox="0 0 47 40" fill="none" xmlns="http://www.w3.org/2000/svg">
    <g clip-path="url(#clip0)">
        <path d="M23.5 5.76167C22.6892 5.76167 22.0312 5.20167 22.0312 4.51167V1.25C22.0312 0.56 22.6892 0 23.5 0C24.3108 0 24.9688 0.56 24.9688 1.25V4.51167C24.9688 5.20167 24.3108 5.76167 23.5 5.76167Z" fill="#5286FF"/>
        <path d="M36.3682 10.2984C35.9922 10.2984 35.6162 10.1767 35.3303 9.93173C34.7565 9.44339 34.7565 8.65173 35.3303 8.16339L38.0406 5.85673C38.6144 5.3684 39.5446 5.3684 40.1184 5.85673C40.6922 6.34506 40.6922 7.13673 40.1184 7.62506L37.4081 9.93173C37.1202 10.1751 36.7462 10.2984 36.3682 10.2984Z" fill="#5286FF"/>
        <path d="M45.5313 21.25H41.7008C40.89 21.25 40.232 20.69 40.232 20C40.232 19.31 40.89 18.75 41.7008 18.75H45.5313C46.342 18.75 47 19.31 47 20C47 20.69 46.342 21.25 45.5313 21.25Z" fill="#5286FF"/>
        <path d="M39.0785 34.5084C38.7025 34.5084 38.3265 34.3867 38.0406 34.1417L35.3303 31.835C34.7565 31.3467 34.7565 30.555 35.3303 30.0667C35.9041 29.5784 36.8343 29.5784 37.4081 30.0667L40.1184 32.3734C40.6922 32.8617 40.6922 33.6534 40.1184 34.1417C39.8305 34.3867 39.4545 34.5084 39.0785 34.5084Z" fill="#5286FF"/>
        <path d="M23.5 40C22.6892 40 22.0312 39.44 22.0312 38.75V35.4883C22.0312 34.7983 22.6892 34.2383 23.5 34.2383C24.3108 34.2383 24.9688 34.7983 24.9688 35.4883V38.75C24.9688 39.44 24.3108 40 23.5 40Z" fill="#5286FF"/>
        <path d="M7.92145 34.5084C7.54545 34.5084 7.16945 34.3867 6.88353 34.1417C6.30974 33.6534 6.30974 32.8617 6.88353 32.3734L9.59386 30.0667C10.1677 29.5784 11.0979 29.5784 11.6717 30.0667C12.2454 30.555 12.2454 31.3467 11.6717 31.835L8.96132 34.1417C8.67345 34.3867 8.29745 34.5084 7.92145 34.5084Z" fill="#5286FF"/>
        <path d="M5.29925 21.25H1.46875C0.658 21.25 0 20.69 0 20C0 19.31 0.658 18.75 1.46875 18.75H5.29925C6.11 18.75 6.768 19.31 6.768 20C6.768 20.69 6.11 21.25 5.29925 21.25Z" fill="#5286FF"/>
        <path d="M10.6318 10.2984C10.2558 10.2984 9.87978 10.1767 9.59386 9.93173L6.88353 7.62506C6.30974 7.13673 6.30974 6.34506 6.88353 5.85673C7.45732 5.3684 8.38753 5.3684 8.96132 5.85673L11.6717 8.16339C12.2454 8.65173 12.2454 9.44339 11.6717 9.93173C11.3818 10.1751 11.0078 10.2984 10.6318 10.2984Z" fill="#5286FF"/>
        <path d="M21.195 33.3333C21.0266 33.3333 20.8563 33.3083 20.6918 33.2583C20.0435 33.0567 19.648 32.5 19.74 31.92L21.336 21.6667H15.1771C14.6248 21.6667 14.1176 21.4017 13.867 20.9817C13.6163 20.5617 13.6653 20.0567 13.9923 19.6783L24.7631 7.17832C25.1646 6.70999 25.8931 6.53665 26.5178 6.76499C27.1445 6.98999 27.5087 7.55165 27.3971 8.12165L25.7247 16.6667H31.8229C32.3595 16.6667 32.853 16.915 33.1115 17.3167C33.368 17.7167 33.3485 18.205 33.0606 18.59L22.4327 32.7566C22.1566 33.125 21.6846 33.3333 21.195 33.3333Z" fill="#5286FF"/>
    </g>
    <defs>
        <clipPath id="clip0">
            <rect width="47" height="40" fill="white"/>
        </clipPath>
    </defs>
</svg>
