
<svg id="Layer_1" enable-background="new 0 0 512 512" height="512" viewBox="0 0 512 512" width="512" xmlns="http://www.w3.org/2000/svg"><g><g fill="#45d987"><path d="m453.997 133.221h-73.463c-4.143 0-7.5 3.357-7.5 7.5s3.357 7.5 7.5 7.5h73.463c4.143 0 7.5-3.357 7.5-7.5s-3.357-7.5-7.5-7.5z"/><path d="m380.534 89.298h73.463c4.143 0 7.5-3.357 7.5-7.5s-3.357-7.5-7.5-7.5h-73.463c-4.143 0-7.5 3.357-7.5 7.5s3.358 7.5 7.5 7.5z"/><path d="m504.5 103.76h-123.966c-4.143 0-7.5 3.357-7.5 7.5s3.357 7.5 7.5 7.5h123.966c4.143 0 7.5-3.357 7.5-7.5s-3.357-7.5-7.5-7.5z"/><path d="m129.912 133.221h-71.909c-4.143 0-7.5 3.357-7.5 7.5s3.357 7.5 7.5 7.5h71.909c4.143 0 7.5-3.357 7.5-7.5s-3.357-7.5-7.5-7.5z"/><path d="m129.912 74.298h-71.909c-4.143 0-7.5 3.357-7.5 7.5s3.357 7.5 7.5 7.5h71.909c4.143 0 7.5-3.357 7.5-7.5s-3.357-7.5-7.5-7.5z"/><path d="m129.912 103.76h-122.412c-4.143 0-7.5 3.357-7.5 7.5s3.357 7.5 7.5 7.5h122.412c4.143 0 7.5-3.357 7.5-7.5s-3.357-7.5-7.5-7.5z"/></g><circle cx="255.538" cy="300.813" fill="#29cef6" r="211.187"/><path d="m255.538 89.626c-5.198 0-10.349.196-15.453.565 109.42 7.914 195.734 99.184 195.734 210.622s-86.315 202.708-195.734 210.622c5.104.369 10.255.565 15.453.565 116.635 0 211.187-94.552 211.187-211.187s-94.551-211.187-211.187-211.187z" fill="#22b5ed"/><path d="m271.92 104.462c-.01 24.849-4.758 49.688-13.894 72.8-6.855 17.306-16.104 33.574-23.102 50.819-21.571 51.209 1.408 66.09-9.115 85.235-6.937 11.058-23.811 10.215-35.26 3.915-25.26-13.894-36.061-43.974-54.744-65.936-14.49-17.029-33.862-29.196-49.472-45.207-3.71-3.802-7.893-8.725-11.726-14.254 36.976-61.249 104.175-102.213 180.932-102.213 4.912 0 9.783.164 14.614.504 1.294 3.967 1.808 8.746 1.767 14.337z" fill="#f78e36"/><path d="m270.152 90.126c-4.83-.339-9.701-.504-14.613-.504-5.471 0-10.891.215-16.256.624 1.267 3.944 1.773 8.68 1.732 14.216-.01 24.849-4.758 49.688-13.894 72.8-6.855 17.306-16.104 33.574-23.102 50.819-21.571 51.209 1.408 66.09-9.116 85.235-1.049 1.672-2.329 3.068-3.779 4.219 11.431 6.017 27.862 6.657 34.685-4.219 10.523-19.146-12.455-34.026 9.116-85.235 6.998-17.244 16.247-33.512 23.102-50.819 9.136-23.112 13.884-47.951 13.894-72.8.04-5.591-.474-10.37-1.769-14.336z" fill="#f86f1b"/><path d="m395.21 407.965c-3.432 15.271 1.13 30.727 5.549 46.163-23.267 22.054-51.548 38.856-82.944 48.537-7.04-12.836-12.075-27.593-19.423-40.305-13.123-22.712-34.92-40.408-43.501-65.206-8.427-24.366-1.624-53.316 16.782-71.362 29.916-29.34 84.814-21.951 117.032.298 12.558 8.674 22.383 22.855 21.684 38.096-.72 15.507-11.767 28.631-15.179 43.779z" fill="#f78e36"/><path d="m410.388 364.186c.699-15.24-9.126-29.422-21.684-38.096-21.131-14.593-52.019-22.792-79.215-18.429 17.736 2.564 34.968 9.216 48.31 18.429 12.558 8.674 22.383 22.856 21.684 38.096-.719 15.508-11.767 28.631-15.179 43.779-3.432 15.271 1.13 30.727 5.549 46.163-16.663 15.794-35.908 28.876-57.017 38.596 1.579 3.393 3.216 6.727 4.979 9.941 31.396-9.681 59.677-26.483 82.944-48.537-4.419-15.436-8.982-30.892-5.549-46.163 3.412-15.148 14.459-28.272 15.178-43.779z" fill="#f86f1b"/><path d="m448.628 215.142c-13.442 9.413-32.135 11.582-48.301 11.983-15.528.668-31.426.843-46.194-4.008-47.037-16.597-42.083-62.205-5.827-89.397 5.591-4.275 11.52-8.663 17.635-12.969 36.257 22.269 65.268 55.185 82.687 94.391z" fill="#f3f3f3"/><path d="m366.417 120.75c-5.13 3.613-10.117 7.28-14.895 10.893 31.652 23.688 56.432 56.048 70.822 93.559 9.667-1.669 19.073-4.677 26.76-10.06-17.419-39.206-46.431-72.122-82.687-94.392z" fill="#e4e4e4"/><path d="m398.983 63.84h-285.628l17.729-53.281c2.102-6.294 8.16-10.559 14.99-10.559h220.459c6.83 0 12.888 4.265 14.989 10.559z" fill="#29cef6"/><path d="m381.232 10.559c-2.101-6.294-8.159-10.559-14.989-10.559h-30.905c6.83 0 12.888 4.265 14.989 10.559l17.462 53.281h30.905z" fill="#22b5ed"/><path d="m377.575 173.07h-243.122c-12.517 0-22.664-10.147-22.664-22.664v-78.293c0-12.517 10.147-22.664 22.664-22.664h243.123c12.517 0 22.664 10.147 22.664 22.664v78.294c-.001 12.516-10.148 22.663-22.665 22.663z" fill="#a9dbf5"/><path d="m377.575 49.449h-30.905c12.517 0 22.664 10.147 22.664 22.664v78.294c0 12.517-10.147 22.664-22.664 22.664h30.905c12.517 0 22.664-10.147 22.664-22.664v-78.294c0-12.517-10.147-22.664-22.664-22.664z" fill="#88c3e0"/><path d="m142.694 138.044v-53.569c0-2.276 1.845-4.121 4.121-4.121h218.398c2.276 0 4.121 1.845 4.121 4.121v53.569c0 2.276-1.845 4.121-4.121 4.121h-218.398c-2.276 0-4.121-1.845-4.121-4.121z" fill="#43809f"/><g fill="#f78e36"><path d="m190.075 113.32c-8.534 0-15.453-6.918-15.453-15.453v-17.513h30.905v17.513c.001 8.535-6.917 15.453-15.452 15.453z"/><path d="m241.591 113.32c-8.534 0-15.453-6.918-15.453-15.453v-17.513h30.905v17.513c.001 8.535-6.917 15.453-15.452 15.453z"/></g></g></svg>