
<svg id="Layer_1" enable-background="new 0 0 512 512" height="512" viewBox="0 0 512 512" width="512" xmlns="http://www.w3.org/2000/svg"><g><path d="m203.099 310.951v-54.075c0-29.169 23.731-52.9 52.901-52.9s52.901 23.731 52.901 52.9v54.075h30.905v-54.075c0-46.21-37.596-83.806-83.806-83.806s-83.806 37.596-83.806 83.806v54.075z" fill="#43809f"/><path d="m256 226.6c-8.534 0-15.453-6.918-15.453-15.453v-43.842h30.905v43.842c.001 8.535-6.918 15.453-15.452 15.453z" fill="#88c3e0"/><g fill="#45d987"><path d="m454.281 421.491h-57.435c-4.142 0-7.5 3.357-7.5 7.5s3.358 7.5 7.5 7.5h57.435c4.142 0 7.5-3.357 7.5-7.5s-3.358-7.5-7.5-7.5z"/><path d="m396.846 375.79h57.435c4.142 0 7.5-3.357 7.5-7.5s-3.358-7.5-7.5-7.5h-57.435c-4.142 0-7.5 3.357-7.5 7.5s3.358 7.5 7.5 7.5z"/><path d="m504.5 391.141h-107.654c-4.142 0-7.5 3.357-7.5 7.5s3.358 7.5 7.5 7.5h107.654c4.142 0 7.5-3.357 7.5-7.5s-3.358-7.5-7.5-7.5z"/><path d="m115.154 421.491h-57.435c-4.142 0-7.5 3.357-7.5 7.5s3.358 7.5 7.5 7.5h57.435c4.142 0 7.5-3.357 7.5-7.5s-3.358-7.5-7.5-7.5z"/><path d="m115.154 360.79h-57.435c-4.142 0-7.5 3.357-7.5 7.5s3.358 7.5 7.5 7.5h57.435c4.142 0 7.5-3.357 7.5-7.5s-3.358-7.5-7.5-7.5z"/><path d="m115.154 391.141h-107.654c-4.142 0-7.5 3.357-7.5 7.5s3.358 7.5 7.5 7.5h107.654c4.142 0 7.5-3.357 7.5-7.5s-3.358-7.5-7.5-7.5z"/></g><path d="m398.969 63.84h-285.628l17.729-53.281c2.102-6.294 8.16-10.559 14.99-10.559h220.459c6.83 0 12.888 4.265 14.989 10.559z" fill="#29cef6"/><path d="m381.218 10.559c-2.101-6.294-8.159-10.559-14.989-10.559h-30.905c6.83 0 12.888 4.265 14.989 10.559l17.462 53.281h30.905z" fill="#22b5ed"/><path d="m377.561 173.07h-243.122c-12.517 0-22.664-10.147-22.664-22.664v-78.293c0-12.517 10.147-22.664 22.664-22.664h243.123c12.517 0 22.664 10.147 22.664 22.664v78.294c-.001 12.516-10.148 22.663-22.665 22.663z" fill="#a9dbf5"/><path d="m377.561 49.449h-30.905c12.517 0 22.664 10.147 22.664 22.664v78.294c0 12.517-10.147 22.664-22.664 22.664h30.905c12.517 0 22.664-10.147 22.664-22.664v-78.294c0-12.517-10.147-22.664-22.664-22.664z" fill="#88c3e0"/><path d="m142.68 138.044v-53.569c0-2.276 1.845-4.121 4.121-4.121h218.398c2.276 0 4.121 1.845 4.121 4.121v53.569c0 2.276-1.845 4.121-4.121 4.121h-218.398c-2.276 0-4.121-1.845-4.121-4.121z" fill="#43809f"/><path d="m190.061 113.32c-8.534 0-15.453-6.918-15.453-15.453v-17.513h30.905v17.513c.001 8.535-6.917 15.453-15.452 15.453z" fill="#f78e36"/><path d="m241.577 113.32c-8.534 0-15.453-6.918-15.453-15.453v-17.513h30.905v17.513c.001 8.535-6.917 15.453-15.452 15.453z" fill="#f78e36"/><path d="m369.32 512h-226.64c-19.344 0-35.026-15.682-35.026-35.026v-161.739c0-19.344 15.682-35.026 35.026-35.026h226.64c19.344 0 35.026 15.682 35.026 35.026v161.738c0 19.345-15.682 35.027-35.026 35.027z" fill="#ffc328"/><path d="m369.32 280.209h-30.905c19.344 0 35.026 15.682 35.026 35.026v161.738c0 19.345-15.682 35.026-35.026 35.026h30.905c19.344 0 35.026-15.682 35.026-35.026v-161.738c0-19.344-15.682-35.026-35.026-35.026z" fill="#ffb200"/><path d="m295.085 353.754c.879 15.899-7.744 29.879-20.716 36.781-1.809.962-2.917 2.866-2.917 4.914v56.371c0 8.528-6.918 15.442-15.453 15.442-8.534 0-15.453-6.914-15.453-15.442v-56.31c0-2.065-1.097-4.006-2.921-4.977-12.362-6.579-20.773-19.587-20.773-34.557 0-21.996 18.158-39.747 40.315-39.103 20.159.586 36.806 16.76 37.918 36.881z" fill="#2b6181"/></g></svg>