
<svg id="Layer_1" enable-background="new 0 0 512 512" height="512" viewBox="0 0 512 512" width="512" xmlns="http://www.w3.org/2000/svg"><g><path d="m398.969 402.77h-285.628l17.729-53.281c2.102-6.294 8.159-10.559 14.989-10.559h220.459c6.83 0 12.888 4.265 14.989 10.559z" fill="#29cef6"/><path d="m381.219 349.489c-2.102-6.294-8.159-10.559-14.989-10.559h-30.905c6.83 0 12.888 4.265 14.989 10.559l17.462 53.281h30.905z" fill="#22b5ed"/><path d="m377.561 512h-243.122c-12.517 0-22.664-10.147-22.664-22.664v-78.294c0-12.517 10.147-22.664 22.664-22.664h243.123c12.517 0 22.664 10.147 22.664 22.664v78.294c-.001 12.517-10.148 22.664-22.665 22.664z" fill="#a9dbf5"/><path d="m377.561 388.378h-30.905c12.517 0 22.664 10.147 22.664 22.664v78.294c0 12.517-10.147 22.664-22.664 22.664h30.905c12.517 0 22.664-10.147 22.664-22.664v-78.294c0-12.517-10.147-22.664-22.664-22.664z" fill="#88c3e0"/><path d="m142.68 476.974v-53.569c0-2.276 1.845-4.121 4.121-4.121h218.398c2.276 0 4.121 1.845 4.121 4.121v53.569c0 2.276-1.845 4.121-4.121 4.121h-218.398c-2.276 0-4.121-1.845-4.121-4.121z" fill="#43809f"/><path d="m190.061 452.25c-8.534 0-15.453-6.918-15.453-15.453v-17.513h30.905v17.513c.001 8.534-6.917 15.453-15.452 15.453z" fill="#f78e36"/><path d="m241.577 452.25c-8.534 0-15.453-6.918-15.453-15.453v-17.513h30.905v17.513c.001 8.534-6.917 15.453-15.452 15.453z" fill="#f78e36"/><path d="m416 160c0 13.6-17.715 24.69-21.068 37.233-3.469 12.978 6.225 31.421-.349 42.783-6.669 11.526-27.549 12.309-36.904 21.664-9.354 9.354-10.137 30.235-21.664 36.904-11.363 6.574-29.805-3.12-42.783.349-12.541 3.352-23.632 21.067-37.232 21.067s-24.69-17.715-37.233-21.068c-12.978-3.469-31.421 6.225-42.783-.349-11.526-6.669-12.309-27.549-21.664-36.904-9.354-9.354-30.235-10.137-36.903-21.664-6.574-11.363 3.12-29.805-.349-42.783-3.353-12.541-21.068-23.632-21.068-37.232s17.715-24.69 21.068-37.233c3.469-12.978-6.225-31.421.349-42.783 6.669-11.526 27.549-12.309 36.904-21.664 9.354-9.354 10.137-30.235 21.664-36.903 11.363-6.574 29.805 3.12 42.783-.349 12.541-3.353 23.632-21.068 37.232-21.068s24.69 17.715 37.233 21.068c12.978 3.469 31.421-6.225 42.783.349 11.526 6.669 12.309 27.549 21.664 36.904 9.354 9.354 30.235 10.137 36.904 21.664 6.574 11.363-3.12 29.805.349 42.783 3.352 12.541 21.067 23.632 21.067 37.232z" fill="#ffc328"/><g><path d="m394.932 197.233c3.353-12.543 21.068-23.633 21.068-37.233s-17.715-24.691-21.068-37.234c-3.469-12.978 6.226-31.42-.349-42.783-6.669-11.526-27.549-12.309-36.903-21.664-9.354-9.354-10.137-30.235-21.664-36.904-8.163-4.723-19.979-1.05-30.799.107 11.361 6.777 12.188 27.489 21.495 36.797 9.354 9.354 30.235 10.137 36.903 21.664 6.574 11.363-3.12 29.805.349 42.783 3.352 12.543 21.068 23.634 21.068 37.234s-17.715 24.69-21.068 37.233c-3.469 12.978 6.225 31.421-.349 42.783-6.669 11.526-27.549 12.309-36.904 21.664-9.307 9.307-10.134 30.019-21.494 36.796 10.82 1.157 22.636 4.83 30.799.107 11.526-6.669 12.309-27.549 21.664-36.903 9.354-9.354 30.235-10.137 36.904-21.664 6.574-11.362-3.12-29.805.348-42.783z" fill="#ffb200"/></g><path d="m264.145 85.062 18.482 37.441c1.323 2.68 3.881 4.538 6.839 4.968l41.327 6.004c7.45 1.082 10.425 10.236 5.034 15.49l-29.905 29.144c-2.141 2.086-3.118 5.092-2.612 8.038l7.06 41.152c1.273 7.419-6.516 13.076-13.179 9.573l-36.964-19.429c-2.646-1.391-5.807-1.391-8.454 0l-36.964 19.429c-6.664 3.503-14.452-2.155-13.179-9.573l7.06-41.152c.505-2.946-.472-5.952-2.612-8.038l-29.905-29.144c-5.391-5.254-2.416-14.408 5.034-15.49l41.327-6.004c2.959-.43 5.516-2.288 6.839-4.968l18.482-37.441c3.332-6.749 12.958-6.749 16.29 0z" fill="#f78e36"/></g></svg>