<svg width="12" height="13" viewBox="0 0 12 13" fill="none" xmlns="http://www.w3.org/2000/svg">
    <path d="M11.0792 4.87665L8.00132 2.50244C7.98207 2.48674 7.94847 2.45117 7.94847 2.39168C7.94847 2.33218 7.98207 2.29651 7.99393 2.28604L11.0798 -0.0939332C11.2564 -0.230438 11.3576 -0.441071 11.3576 -0.671463C11.3576 -1.07275 11.0389 -1.40002 10.6474 -1.40002H1.55642C1.24223 -1.40002 0.988276 -1.13866 0.988276 -0.816727V12.0167C0.988276 12.3386 1.24223 12.6 1.55642 12.6C1.87062 12.6 2.12467 12.3386 2.12467 12.0167V6.18327H10.6474C11.0389 6.18327 11.3576 5.85611 11.3576 5.45418C11.3576 5.22368 11.2559 5.01369 11.0792 4.87665Z" fill="white"/>
</svg>
