<svg width="193" height="30" viewBox="0 0 193 30" fill="none" xmlns="http://www.w3.org/2000/svg">
<rect width="30" height="30" rx="15" fill="white"/>
<path d="M6.80424 8.03571C6.25738 8.03571 5.89282 8.40027 5.89282 8.94713V16.2386C5.89282 16.7855 6.25738 17.15 6.80424 17.15H8.62713V8.03571H6.80424Z" fill="#111122"/>
<path d="M8.62671 8.03571V17.15L12.2328 16.2386V8.94713L8.62671 8.03571Z" fill="#111122"/>
<path d="M20.3802 22.6187H14.9116V30H20.3802V22.6187Z" fill="#111122"/>
<path d="M27.5807 18.3349C27.3984 12.3195 23.8438 8.03571 19.4689 8.03571H15.6409L13.0889 8.94713V16.2386L14.6383 17.7881C14.8206 17.9704 14.9118 18.1526 14.9118 18.4261V21.7072H20.3804V18.2438C20.3804 18.1526 20.3804 17.9703 20.4715 17.8792L21.0184 16.7855C21.2007 16.4209 21.4741 16.2386 21.8387 16.2386C23.8438 16.3298 25.7578 17.0589 27.2161 18.5172C27.3073 18.7906 27.6718 18.6084 27.5807 18.3349Z" fill="#111122"/>
<rect width="30" height="30" rx="2" fill="#5971FF"/>
<path d="M5.0186 8.03571C4.47174 8.03571 4.10718 8.40027 4.10718 8.94713V16.2386C4.10718 16.7855 4.47174 17.15 5.0186 17.15H6.84149V8.03571H5.0186Z" fill="white"/>
<path d="M6.84106 8.03571V17.15L10.4472 16.2386V8.94713L6.84106 8.03571Z" fill="white"/>
<path d="M18.5946 21.9643H13.0356V30H18.5946V21.9643Z" fill="white"/>
<path d="M25.7951 18.3349C25.6128 12.3195 22.0582 8.03571 17.6833 8.03571H13.8552L11.3032 8.94713V16.2386L12.8527 17.7881C13.035 17.9704 13.1261 18.1526 13.1261 18.4261V21.7072H18.5947V18.2438C18.5947 18.1526 18.5947 17.9703 18.6859 17.8792L19.2327 16.7855C19.415 16.4209 19.6884 16.2386 20.053 16.2386C22.0582 16.3298 23.9722 17.0589 25.4305 18.5172C25.6249 18.75 25.7951 18.6221 25.7951 18.3349Z" fill="white"/>
<path d="M58.9709 12.7086C57.9125 11.4081 56.6051 10.7579 55.0487 10.7579C54.3639 10.7579 53.7257 10.8833 53.1343 11.134C52.5584 11.3846 52.0604 11.7293 51.6401 12.168C51.2199 12.5911 50.8853 13.1003 50.6362 13.6957C50.4028 14.291 50.286 14.9334 50.286 15.6228C50.286 16.3279 50.4028 16.9781 50.6362 17.5734C50.8853 18.1688 51.2199 18.6859 51.6401 19.1246C52.0759 19.5633 52.5818 19.908 53.1576 20.1586C53.7335 20.4093 54.3561 20.5347 55.0254 20.5347C56.4884 20.5347 57.8036 19.908 58.9709 18.6545V24.1069L58.504 24.2714C57.8036 24.5221 57.1499 24.7023 56.5429 24.812C55.9359 24.9373 55.3366 25 54.7452 25C53.5312 25 52.3639 24.7728 51.2432 24.3184C50.1382 23.8484 49.1576 23.1982 48.3016 22.3678C47.4611 21.5217 46.7841 20.5268 46.2704 19.3831C45.7568 18.2237 45.5 16.9624 45.5 15.5993C45.5 14.2362 45.749 12.9906 46.2471 11.8625C46.7607 10.7188 47.4378 9.73952 48.2782 8.92479C49.1343 8.0944 50.1226 7.45202 51.2432 6.99765C52.3639 6.52761 53.539 6.2926 54.7686 6.2926C55.4689 6.2926 56.1538 6.37094 56.823 6.52761C57.5079 6.66863 58.2238 6.89581 58.9709 7.20917V12.7086Z" fill="#2B2B39"/>
<path d="M61.4688 12.4501H65.6945V14.4242C66.1459 13.7035 66.6984 13.1551 67.3521 12.7791C68.0058 12.3874 68.7685 12.1915 69.6401 12.1915C69.749 12.1915 69.8658 12.1915 69.9903 12.1915C70.1304 12.1915 70.286 12.2072 70.4572 12.2385V16.3043C69.8969 16.0223 69.2899 15.8813 68.6362 15.8813C67.6556 15.8813 66.9163 16.179 66.4183 16.7744C65.9358 17.3541 65.6945 18.208 65.6945 19.3361V24.5065H61.4688V12.4501Z" fill="#2B2B39"/>
<path d="M76.5698 12.4501V19.2421C76.5698 20.7305 77.2857 21.4747 78.7177 21.4747C80.1496 21.4747 80.8655 20.7305 80.8655 19.2421V12.4501H85.0912V20.0646C85.0912 21.6941 84.5543 22.9162 83.4803 23.7309C82.422 24.5456 80.8344 24.953 78.7177 24.953C76.6009 24.953 75.0056 24.5456 73.9316 23.7309C72.8733 22.9162 72.3441 21.6941 72.3441 20.0646V12.4501H76.5698Z" fill="#2B2B39"/>
<path d="M95.8994 15.5523C95.1212 15.1449 94.3585 14.9412 93.6114 14.9412C93.2223 14.9412 92.9033 15.0196 92.6542 15.1763C92.4208 15.3329 92.304 15.5445 92.304 15.8108C92.304 15.9518 92.3196 16.0693 92.3507 16.1633C92.3974 16.2417 92.483 16.32 92.6075 16.3984C92.7476 16.4767 92.9422 16.5472 93.1912 16.6099C93.4558 16.6725 93.7982 16.7509 94.2184 16.8449C95.3858 17.0799 96.2574 17.5029 96.8333 18.114C97.4091 18.7094 97.6971 19.4771 97.6971 20.4172C97.6971 21.1222 97.557 21.7568 97.2768 22.3208C96.9967 22.8848 96.6076 23.3627 96.1095 23.7544C95.6115 24.1304 95.0122 24.4203 94.3118 24.624C93.6114 24.8433 92.841 24.953 92.0005 24.953C90.3818 24.953 88.7865 24.4908 87.2145 23.5664L88.7554 20.5582C89.9383 21.3729 91.0589 21.7803 92.1173 21.7803C92.5064 21.7803 92.8254 21.6941 93.0745 21.5217C93.3235 21.3494 93.448 21.13 93.448 20.8637C93.448 20.707 93.4247 20.5817 93.378 20.4877C93.3468 20.378 93.269 20.284 93.1445 20.2056C93.02 20.1116 92.8332 20.0333 92.5842 19.9706C92.3507 19.8923 92.0394 19.8139 91.6503 19.7356C90.3429 19.4693 89.4246 19.0776 88.8954 18.5605C88.3818 18.0278 88.125 17.2993 88.125 16.3749C88.125 15.7011 88.2495 15.0979 88.4986 14.5652C88.7476 14.0168 89.1056 13.5546 89.5725 13.1786C90.0394 12.8026 90.5997 12.5127 91.2534 12.309C91.9227 12.1054 92.662 12.0035 93.4714 12.0035C94.7943 12.0035 96.0784 12.262 97.3235 12.7791L95.8994 15.5523Z" fill="#2B2B39"/>
<path d="M99.84 5H104.066V13.9777C104.642 13.2726 105.225 12.8026 105.817 12.5676C106.408 12.3169 107.101 12.1915 107.895 12.1915C109.404 12.1915 110.54 12.6146 111.303 13.4606C112.081 14.291 112.47 15.4191 112.47 16.8449V24.5065H108.245V18.4195C108.245 17.8085 108.198 17.3149 108.105 16.9389C108.011 16.5629 107.856 16.273 107.638 16.0693C107.264 15.7403 106.813 15.5758 106.284 15.5758C105.568 15.5758 105.015 15.7951 104.626 16.2338C104.253 16.6569 104.066 17.2679 104.066 18.067V24.5065H99.84V5Z" fill="#2B2B39"/>
<path d="M124.098 16.7274C123.958 16.132 123.67 15.6541 123.235 15.2938C122.799 14.9334 122.27 14.7532 121.647 14.7532C120.993 14.7532 120.456 14.9256 120.036 15.2703C119.632 15.615 119.375 16.1007 119.266 16.7274H124.098ZM119.149 19.1951C119.149 21.0282 120.005 21.9448 121.717 21.9448C122.635 21.9448 123.328 21.5687 123.795 20.8167H127.881C127.056 23.5742 124.993 24.953 121.694 24.953C120.682 24.953 119.756 24.8042 118.916 24.5065C118.075 24.1931 117.351 23.7544 116.744 23.1904C116.153 22.6263 115.694 21.9526 115.367 21.1692C115.04 20.3858 114.877 19.5084 114.877 18.537C114.877 17.5343 115.032 16.6334 115.344 15.8343C115.655 15.0196 116.098 14.3302 116.674 13.7662C117.25 13.2021 117.943 12.7712 118.752 12.4736C119.577 12.1602 120.503 12.0035 121.53 12.0035C122.542 12.0035 123.453 12.1602 124.262 12.4736C125.071 12.7712 125.756 13.2099 126.316 13.7897C126.877 14.3694 127.305 15.0823 127.6 15.9283C127.896 16.7587 128.044 17.6988 128.044 18.7485V19.1951H119.149Z" fill="#2B2B39"/>
<path d="M130.459 12.4501H134.685V14.4242C135.137 13.7035 135.689 13.1551 136.343 12.7791C136.996 12.3874 137.759 12.1915 138.631 12.1915C138.74 12.1915 138.856 12.1915 138.981 12.1915C139.121 12.1915 139.277 12.2072 139.448 12.2385V16.3043C138.888 16.0223 138.281 15.8813 137.627 15.8813C136.646 15.8813 135.907 16.179 135.409 16.7744C134.926 17.3541 134.685 18.208 134.685 19.3361V24.5065H130.459V12.4501Z" fill="#2B2B39"/>
<path d="M139.665 22.2503C139.665 21.8743 139.736 21.5217 139.876 21.1927C140.016 20.848 140.21 20.5503 140.459 20.2996C140.708 20.049 140.996 19.8531 141.323 19.7121C141.665 19.5711 142.023 19.5006 142.397 19.5006C142.771 19.5006 143.121 19.5711 143.448 19.7121C143.79 19.8531 144.086 20.049 144.335 20.2996C144.584 20.5503 144.778 20.848 144.918 21.1927C145.058 21.5217 145.129 21.8743 145.129 22.2503C145.129 22.6263 145.058 22.9867 144.918 23.3314C144.778 23.6604 144.584 23.9503 144.335 24.2009C144.086 24.4516 143.79 24.6475 143.448 24.7885C143.121 24.9295 142.771 25 142.397 25C142.023 25 141.665 24.9295 141.323 24.7885C140.996 24.6475 140.708 24.4516 140.459 24.2009C140.21 23.9503 140.016 23.6604 139.876 23.3314C139.736 22.9867 139.665 22.6263 139.665 22.2503Z" fill="#2B2B39"/>
<path d="M151.732 18.443C151.732 18.8347 151.802 19.2029 151.942 19.5476C152.082 19.8766 152.269 20.1665 152.502 20.4172C152.751 20.6678 153.039 20.8637 153.366 21.0047C153.709 21.1457 154.074 21.2162 154.463 21.2162C154.837 21.2162 155.187 21.1457 155.514 21.0047C155.856 20.8637 156.144 20.6678 156.378 20.4172C156.627 20.1665 156.821 19.8766 156.962 19.5476C157.117 19.2186 157.195 18.866 157.195 18.49C157.195 18.114 157.117 17.7615 156.962 17.4324C156.821 17.0877 156.627 16.7901 156.378 16.5394C156.144 16.2887 155.856 16.0928 155.514 15.9518C155.187 15.8108 154.837 15.7403 154.463 15.7403C154.09 15.7403 153.732 15.8108 153.39 15.9518C153.063 16.0928 152.775 16.2887 152.526 16.5394C152.292 16.7901 152.098 17.0799 151.942 17.4089C151.802 17.7223 151.732 18.067 151.732 18.443ZM157.055 5H161.304V24.5065H157.055V23.1669C156.152 24.3106 154.93 24.8825 153.39 24.8825C152.518 24.8825 151.716 24.718 150.985 24.389C150.253 24.0599 149.615 23.6056 149.07 23.0259C148.526 22.4461 148.098 21.7646 147.786 20.9812C147.491 20.1978 147.343 19.3517 147.343 18.443C147.343 17.5813 147.483 16.7665 147.763 15.9988C148.059 15.2154 148.471 14.5339 149 13.9542C149.53 13.3745 150.16 12.9201 150.891 12.5911C151.639 12.2464 152.456 12.074 153.343 12.074C154.837 12.074 156.074 12.5989 157.055 13.6486V5Z" fill="#2B2B39"/>
<path d="M172.935 16.7274C172.794 16.132 172.507 15.6541 172.071 15.2938C171.635 14.9334 171.106 14.7532 170.483 14.7532C169.829 14.7532 169.292 14.9256 168.872 15.2703C168.468 15.615 168.211 16.1007 168.102 16.7274H172.935ZM167.985 19.1951C167.985 21.0282 168.841 21.9448 170.553 21.9448C171.472 21.9448 172.164 21.5687 172.631 20.8167H176.717C175.892 23.5742 173.829 24.953 170.53 24.953C169.518 24.953 168.592 24.8042 167.752 24.5065C166.911 24.1931 166.187 23.7544 165.58 23.1904C164.989 22.6263 164.53 21.9526 164.203 21.1692C163.876 20.3858 163.713 19.5084 163.713 18.537C163.713 17.5343 163.868 16.6334 164.18 15.8343C164.491 15.0196 164.934 14.3302 165.51 13.7662C166.086 13.2021 166.779 12.7712 167.588 12.4736C168.413 12.1602 169.339 12.0035 170.366 12.0035C171.378 12.0035 172.289 12.1602 173.098 12.4736C173.907 12.7712 174.592 13.2099 175.152 13.7897C175.713 14.3694 176.141 15.0823 176.437 15.9283C176.732 16.7587 176.88 17.6988 176.88 18.7485V19.1951H167.985Z" fill="#2B2B39"/>
<path d="M182.041 12.4501L184.889 18.631L187.784 12.4501H192.5L186.266 24.5065H183.442L177.278 12.4501H182.041Z" fill="#2B2B39"/>
</svg>
