<svg width="23" height="23" viewBox="0 0 23 23" fill="none" xmlns="http://www.w3.org/2000/svg">
    <path d="M21.9993 12.4761C21.3324 11.6416 20.48 11.1007 19.4416 10.853C19.7693 10.3579 19.9327 9.80686 19.9327 9.19995C19.9327 8.35338 19.6332 7.63071 19.0344 7.03168C18.4356 6.43287 17.7129 6.13333 16.8663 6.13333C16.1076 6.13333 15.4448 6.38092 14.8779 6.8761C14.407 5.72605 13.654 4.8037 12.6199 4.10902C11.5858 3.41412 10.4458 3.06671 9.19982 3.06671C7.50688 3.06671 6.06132 3.66582 4.8634 4.86374C3.66539 6.06137 3.06658 7.50702 3.06658 9.20008C3.06658 9.30388 3.07459 9.47561 3.09053 9.7151C2.14822 10.1544 1.3976 10.8132 0.838433 11.6915C0.279478 12.5702 0 13.5283 0 14.5667C0 16.0442 0.52518 17.3077 1.57525 18.3579C2.62535 19.4084 3.88919 19.9333 5.36659 19.9333H18.4C19.6696 19.9333 20.7537 19.4839 21.6522 18.5856C22.5507 17.6874 23 16.6033 23 15.3333C22.9998 14.2632 22.6663 13.3109 21.9993 12.4761ZM15.2135 12.9373L11.0088 17.1423C10.937 17.2139 10.8451 17.25 10.7332 17.25C10.6215 17.25 10.5296 17.2139 10.4577 17.1423L6.24115 12.9255C6.16928 12.8537 6.13341 12.7618 6.13341 12.65C6.13341 12.5462 6.17117 12.4563 6.24703 12.3805C6.32305 12.3046 6.41272 12.2667 6.51652 12.2667H9.19986V8.05015C9.19986 7.94635 9.23783 7.85648 9.31365 7.78049C9.38955 7.70476 9.47933 7.66687 9.58314 7.66687H11.8834C11.9873 7.66687 12.0767 7.70463 12.153 7.78049C12.2287 7.85648 12.2666 7.94635 12.2666 8.05015V12.2667H14.9499C15.0618 12.2667 15.1536 12.3026 15.2253 12.3744C15.2972 12.4462 15.3328 12.5381 15.3328 12.6499C15.3328 12.7462 15.2932 12.8416 15.2135 12.9373Z" fill="white"/>
</svg>
