<svg width="24" height="24" viewBox="0 0 24 24" fill="none" xmlns="http://www.w3.org/2000/svg">
    <path d="M0.1 12C0.1 5.43816 5.43816 0.1 12 0.1C18.5618 0.1 23.9 5.43816 23.9 12C23.9 18.5618 18.5618 23.9 12 23.9C5.43816 23.9 0.1 18.5618 0.1 12ZM13.0999 17.25V13.0999H17.25C17.8573 13.0999 18.3499 12.6073 18.3499 12C18.3499 11.3927 17.8573 10.9001 17.25 10.9001H13.0999V6.75C13.0999 6.14271 12.6073 5.65006 12 5.65006C11.3927 5.65006 10.9001 6.14271 10.9001 6.75V10.9001H6.75C6.14271 10.9001 5.65006 11.3927 5.65006 12C5.65006 12.6073 6.14271 13.0999 6.75 13.0999H10.9001V17.25C10.9001 17.8573 11.3927 18.3499 12 18.3499C12.6073 18.3499 13.0999 17.8573 13.0999 17.25Z" fill="#5B76F7" stroke="#3A4EAC" stroke-width="0.2"/>
</svg>
