<svg width="37" height="37" viewBox="0 0 37 37" fill="none" xmlns="http://www.w3.org/2000/svg">
    <g clip-path="url(#clip0)">
        <path d="M32.375 1.54165H4.625C2.07508 1.54165 0 3.61673 0 6.16665V30.8333C0 33.3832 2.07508 35.4583 4.625 35.4583H32.375C34.9249 35.4583 37 33.3832 37 30.8333V6.16665C37 3.61673 34.9249 1.54165 32.375 1.54165Z" fill="#607D8B"/>
        <path d="M32.375 32.375H4.62504C3.77558 32.375 3.08337 31.6843 3.08337 30.8333V9.25H33.9167V30.8333C33.9167 31.6843 33.2245 32.375 32.375 32.375Z" fill="#1C1F26"/>
        <path d="M24.2085 22.3064C24.2378 22.0674 24.281 21.83 24.281 21.5833C24.281 21.3351 24.2378 21.0993 24.2085 20.8603L25.596 19.8089C25.9059 19.5745 25.9922 19.1444 25.798 18.8083L24.5508 16.65C24.3565 16.3139 23.9418 16.1736 23.5841 16.3247L21.9854 17C21.5954 16.704 21.1807 16.4403 20.7228 16.2492L20.51 14.5518C20.4623 14.1648 20.1354 13.875 19.7469 13.875H17.254C16.8655 13.875 16.5372 14.1648 16.4894 14.5502L16.2766 16.2476C15.8188 16.4388 15.404 16.7024 15.014 16.9984L13.4153 16.3232C13.0561 16.1736 12.6414 16.3139 12.4471 16.65L11.1999 18.8083C11.0057 19.1444 11.092 19.5745 11.4019 19.8089L12.7894 20.8603C12.7616 21.0993 12.7185 21.3351 12.7185 21.5833C12.7185 21.8315 12.7616 22.0674 12.7909 22.3064L11.4034 23.3578C11.0935 23.5921 11.0072 24.0223 11.2015 24.3583L12.4487 26.5167C12.6429 26.8528 13.0576 26.993 13.4153 26.842L15.014 26.1667C15.404 26.4627 15.8188 26.7263 16.2766 26.9175L16.4894 28.6149C16.5372 29.0018 16.864 29.2917 17.2525 29.2917H19.7454C20.1339 29.2917 20.4623 29.0018 20.51 28.6164L20.7228 26.919C21.1807 26.7279 21.5954 26.4643 21.9854 26.1683L23.5841 26.8435C23.9418 26.9946 24.3565 26.8543 24.5508 26.5182L25.798 24.3599C25.9922 24.0238 25.9059 23.5937 25.596 23.3593L24.2085 22.3064Z" fill="#4CAF50"/>
        <path d="M18.5 24.6667C16.7964 24.6667 15.4166 23.2853 15.4166 21.5833C15.4166 19.8813 16.7964 18.5 18.5 18.5C20.2035 18.5 21.5833 19.8813 21.5833 21.5833C21.5833 23.2853 20.2035 24.6667 18.5 24.6667Z" fill="#1C1F26"/>
        <path d="M18.5 1.54165H4.625C2.07508 1.54165 0 3.61673 0 6.16665V30.8333C0 33.3832 2.07508 35.4583 4.625 35.4583H18.5V32.375H4.625C3.77554 32.375 3.08333 31.6843 3.08333 30.8333V9.24998H18.5V1.54165Z" fill="#546D79"/>
        <path d="M18.5 9.25H3.08337V30.8333C3.08337 31.6843 3.77558 32.375 4.62504 32.375H18.5V29.2917H17.2528C16.8643 29.2917 16.536 29.0018 16.4882 28.6164L16.2754 26.919C15.8175 26.7279 15.4028 26.4643 15.0128 26.1683L13.4141 26.8435C13.317 26.8851 13.2152 26.9036 13.115 26.9036C12.8467 26.9036 12.5877 26.7633 12.4459 26.5182L11.1987 24.3599C11.0045 24.0238 11.0908 23.5937 11.4007 23.3593L12.7882 22.3079C12.762 22.0674 12.7188 21.8315 12.7188 21.5833C12.7188 21.3351 12.762 21.0992 12.7912 20.8603L11.4037 19.8089C11.0939 19.5745 11.0075 19.1444 11.2018 18.8083L12.449 16.65C12.5908 16.4049 12.8483 16.2646 13.1181 16.2646C13.2183 16.2646 13.32 16.2846 13.4172 16.3247L15.0159 17C15.4059 16.704 15.8206 16.4403 16.2785 16.2492L16.4912 14.5518C16.5375 14.1648 16.8643 13.875 17.2528 13.875H18.5V9.25Z" fill="#1C1F26"/>
        <path d="M18.5 13.875H17.2528C16.8643 13.875 16.5359 14.1648 16.4882 14.5502L16.2754 16.2476C15.8175 16.4388 15.4028 16.7024 15.0128 16.9984L13.4141 16.3232C13.3169 16.2815 13.2152 16.263 13.115 16.263C12.8467 16.263 12.5877 16.4033 12.4459 16.6485L11.1987 18.8068C11.0044 19.1429 11.0908 19.573 11.4007 19.8073L12.7882 20.8588C12.7619 21.0993 12.7188 21.3351 12.7188 21.5833C12.7188 21.8315 12.7619 22.0674 12.7912 22.3064L11.4037 23.3578C11.0939 23.5921 11.0075 24.0223 11.2018 24.3583L12.449 26.5167C12.5908 26.7618 12.8498 26.9021 13.1181 26.9021C13.2183 26.9021 13.32 26.882 13.4172 26.842L15.0159 26.1667C15.4059 26.4627 15.8206 26.7263 16.2785 26.9175L16.4912 28.6149C16.5375 29.0018 16.8643 29.2917 17.2528 29.2917H18.5V24.6667C16.7965 24.6667 15.4167 23.2853 15.4167 21.5833C15.4167 19.8813 16.7965 18.5 18.5 18.5V13.875Z" fill="#429846"/>
        <path d="M18.5 18.5C16.7964 18.5 15.4166 19.8813 15.4166 21.5833C15.4166 23.2869 16.7964 24.6667 18.5 24.6667V18.5Z" fill="#1C1F26"/>
    </g>
    <defs>
        <clipPath id="clip0">
            <rect width="37" height="37" fill="white"/>
        </clipPath>
    </defs>
</svg>
