<svg width="38" height="38" viewBox="0 0 38 38" fill="none" xmlns="http://www.w3.org/2000/svg">
    <path d="M18.5 15.236C18.1723 15.236 17.9062 14.97 17.9062 14.6423V13.0938C17.9062 12.766 18.1723 12.5 18.5 12.5C18.8277 12.5 19.0938 12.766 19.0938 13.0938V14.6423C19.0938 14.97 18.8277 15.236 18.5 15.236Z" fill="#B6C2FF"/>
    <path d="M23.7029 17.3914C23.5509 17.3914 23.3989 17.3333 23.2826 17.2181C23.051 16.9865 23.051 16.6101 23.2826 16.3785L24.3786 15.2824C24.6102 15.0509 24.9866 15.0509 25.2182 15.2824C25.4497 15.514 25.4497 15.8904 25.2182 16.122L24.1221 17.2181C24.0069 17.3333 23.8549 17.3914 23.7029 17.3914Z" fill="#B6C2FF"/>
    <path d="M27.4064 22.5938H25.8579C25.5302 22.5938 25.2642 22.3277 25.2642 22C25.2642 21.6723 25.5302 21.4062 25.8579 21.4062H27.4064C27.7342 21.4062 28.0002 21.6723 28.0002 22C28.0002 22.3277 27.7342 22.5938 27.4064 22.5938Z" fill="#B6C2FF"/>
    <path d="M24.7973 28.891C24.6453 28.891 24.4933 28.8328 24.3769 28.7176L23.2809 27.6215C23.0493 27.39 23.0493 27.0135 23.2809 26.782C23.5124 26.5504 23.8889 26.5504 24.1204 26.782L25.2165 27.878C25.448 28.1096 25.448 28.486 25.2165 28.7176C25.1013 28.834 24.9493 28.891 24.7973 28.891Z" fill="#B6C2FF"/>
    <path d="M12.2024 28.891C12.0504 28.891 11.8984 28.8328 11.7821 28.7176C11.5505 28.486 11.5505 28.1096 11.7821 27.878L12.8781 26.782C13.1097 26.5504 13.4861 26.5504 13.7177 26.782C13.9493 27.0135 13.9493 27.39 13.7177 27.6215L12.6216 28.7176C12.5053 28.834 12.3544 28.891 12.2024 28.891Z" fill="#B6C2FF"/>
    <path d="M11.1423 22.5938H9.59375C9.266 22.5938 9 22.3277 9 22C9 21.6723 9.266 21.4062 9.59375 21.4062H11.1423C11.47 21.4062 11.736 21.6723 11.736 22C11.736 22.3277 11.47 22.5938 11.1423 22.5938Z" fill="#B6C2FF"/>
    <path d="M13.298 17.3914C13.146 17.3914 12.994 17.3333 12.8776 17.2181L11.7816 16.122C11.55 15.8904 11.55 15.514 11.7816 15.2824C12.0131 15.0509 12.3896 15.0509 12.6211 15.2824L13.7172 16.3785C13.9488 16.6101 13.9488 16.9865 13.7172 17.2181C13.602 17.3333 13.45 17.3914 13.298 17.3914Z" fill="#B6C2FF"/>
    <path d="M20.875 29.125V30.1142C20.875 30.8742 20.2492 31.5 19.4892 31.5H17.5096C16.8458 31.5 16.125 30.9929 16.125 29.885V29.125H20.875Z" fill="#5B76F7"/>
    <path d="M21.9912 17.6931C20.6932 16.6398 18.9832 16.2289 17.3124 16.5852C15.2141 17.021 13.5124 18.731 13.0766 20.8281C12.6337 22.981 13.4412 25.1185 15.1666 26.4248C15.6333 26.7727 15.9587 27.3118 16.0691 27.9365V27.9448C16.0857 27.9376 16.1095 27.9376 16.1249 27.9376H20.8749C20.8904 27.9376 20.8987 27.9376 20.9141 27.946V27.9376C21.0246 27.3356 21.3808 26.7822 21.9271 26.3547C23.2654 25.2943 24.0408 23.7102 24.0408 22.0002C24.042 20.3222 23.2974 18.7547 21.9912 17.6931ZM21.4687 22.3956C21.1445 22.3956 20.8749 22.126 20.8749 21.8018C20.8749 20.5989 19.9012 19.6252 18.6982 19.6252C18.3741 19.6252 18.1045 19.3556 18.1045 19.0314C18.1045 18.7072 18.3741 18.4377 18.6982 18.4377C20.5507 18.4377 22.0624 19.9493 22.0624 21.8018C22.0624 22.1272 21.7929 22.3956 21.4687 22.3956Z" fill="#5B76F7"/>
    <path d="M16.0693 27.9375H16.1251C16.1097 27.9375 16.086 27.9375 16.0693 27.9458V27.9375Z" fill="black"/>
    <path d="M20.9142 27.9375V27.9458C20.8988 27.9375 20.8904 27.9375 20.875 27.9375H20.9142Z" fill="black"/>
</svg>
