<svg width="98" height="79" viewBox="0 0 98 79" fill="none" xmlns="http://www.w3.org/2000/svg">
    <path d="M13.0738 72.8907C12.2569 72.8907 11.595 72.2359 11.595 71.4285V54.8591C11.595 54.0515 12.257 53.3969 13.0738 53.3969C13.8907 53.3969 14.5526 54.0516 14.5526 54.8591V71.4285C14.5526 72.2359 13.8905 72.8907 13.0738 72.8907ZM13.0738 37.624C12.2569 37.624 11.595 36.9692 11.595 36.1618V25.9427C11.595 25.135 12.257 24.4805 13.0738 24.4805C13.8907 24.4805 14.5526 25.1352 14.5526 25.9427V36.1618C14.5526 36.9694 13.8905 37.624 13.0738 37.624Z" fill="#6F6571" />
    <path fill-rule="evenodd" clip-rule="evenodd" d="M0.99493 25.9427H13.0738H25.147C25.6948 25.9427 26.1419 25.5006 26.1419 24.9589V1.07758C26.1419 0.535934 25.6948 0.09375 25.147 0.09375H0.99493C0.447125 0.09375 0 0.535934 0 1.07758V24.9589C0 25.5006 0.447125 25.9427 0.99493 25.9427Z" fill="#9FD4FE" />
    <path fill-rule="evenodd" clip-rule="evenodd" d="M13.0736 54.8589H16.5783C17.003 54.8589 17.3496 54.5162 17.3496 54.0962V36.9244C17.3496 36.5043 17.003 36.1616 16.5783 36.1616H13.0736H9.56342C9.13869 36.1616 8.79761 36.5043 8.79761 36.9244V54.0962C8.79761 54.5162 9.1385 54.8589 9.56342 54.8589H13.0736Z" fill="#ECEAEC" />
    <path fill-rule="evenodd" clip-rule="evenodd" d="M0.844102 78.9062H25.298C25.7619 78.9062 26.1421 78.5304 26.1421 78.0717V75.1645C26.1421 73.1086 24.443 71.4283 22.3635 71.4283H13.0738H3.77855C1.69911 71.4285 0 73.1086 0 75.1645V78.0717C0 78.5304 0.380133 78.9062 0.844102 78.9062Z" fill="#ECEAEC" />
    <path fill-rule="evenodd" clip-rule="evenodd" d="M26.142 24.9589V1.07758C26.142 0.535934 25.6948 0.09375 25.147 0.09375H21.771C22.3133 0.09375 22.7604 0.535934 22.7604 1.07758V24.9589C22.7604 25.5006 22.3133 25.9427 21.771 25.9427H25.147C25.6948 25.9427 26.142 25.5006 26.142 24.9589Z" fill="#72BFFC" />
    <path fill-rule="evenodd" clip-rule="evenodd" d="M17.3495 54.0964V36.9246C17.3495 36.5046 17.0028 36.1619 16.5781 36.1619H13.1965C13.6213 36.1619 13.9679 36.5046 13.9679 36.9246V54.0964C13.9679 54.5165 13.6213 54.8592 13.1965 54.8592H16.5781C17.003 54.859 17.3495 54.5165 17.3495 54.0964Z" fill="#DAD8DB" />
    <path fill-rule="evenodd" clip-rule="evenodd" d="M26.1421 75.1645C26.1421 73.1086 24.4429 71.4283 22.3635 71.4283H18.9819C21.0612 71.4283 22.7605 73.1084 22.7605 75.1645V78.0717C22.7605 78.5304 22.3859 78.9062 21.9164 78.9062H25.298C25.7619 78.9062 26.1421 78.5304 26.1421 78.0717V75.1645Z" fill="#DAD8DB" />
    <path fill-rule="evenodd" clip-rule="evenodd" d="M29.3113 44.9771H37.5167V30.7566H29.3113C28.8697 30.7566 28.512 31.1103 28.512 31.5415V44.1924C28.512 44.6234 28.8697 44.9771 29.3113 44.9771Z" fill="#FFA95F" />
    <path fill-rule="evenodd" clip-rule="evenodd" d="M88.9951 44.9771H97.2005C97.6421 44.9771 97.9998 44.6234 97.9998 44.1922V31.5412C97.9998 31.1102 97.6421 30.7563 97.2005 30.7563H88.9951V44.9771Z" fill="#FFA95F" />
    <path fill-rule="evenodd" clip-rule="evenodd" d="M40.3278 78.9063H45.9062C47.2085 78.9063 48.2704 77.8507 48.2704 76.5685V67.311H37.9634V76.5685C37.9634 77.8507 39.0255 78.9063 40.3278 78.9063Z" fill="#6F6571" />
    <path fill-rule="evenodd" clip-rule="evenodd" d="M79.6777 78.9063H86.1838C87.4861 78.9063 88.548 77.8507 88.548 76.5685V67.311H88.5425H77.3132V76.5685C77.3132 77.8507 78.3809 78.9063 79.6777 78.9063Z" fill="#6F6571" />
    <path fill-rule="evenodd" clip-rule="evenodd" d="M37.9634 69.262H48.2704V72.9152H37.9634V69.262Z" fill="#5D5360" />
    <path fill-rule="evenodd" clip-rule="evenodd" d="M77.3132 72.9152H88.5425H88.548V69.262H88.5425H84.5572H77.3132V72.9152Z" fill="#5D5360" />
    <path fill-rule="evenodd" clip-rule="evenodd" d="M88.5425 69.2619H88.548C89.8783 69.2619 90.9683 68.1841 90.9683 66.8687V46.6571H35.5432V66.8687C35.5432 68.1841 36.6331 69.2619 37.9634 69.2619H88.5425Z" fill="#FFE07D" />
    <path fill-rule="evenodd" clip-rule="evenodd" d="M45.9343 62.8618C48.1812 62.8618 50.0034 61.1043 50.0034 58.9322C50.0034 56.7656 48.1812 55.0026 45.9343 55.0026C43.6818 55.0026 41.8596 56.7656 41.8596 58.9322C41.8594 61.1043 43.6816 62.8618 45.9343 62.8618Z" fill="#9FD4FE" />
    <path fill-rule="evenodd" clip-rule="evenodd" d="M53.7874 69.262H72.7301L68.8845 60.6456C68.6945 60.2146 68.4877 59.7889 68.0014 59.7889H58.5105C58.0241 59.7889 57.8174 60.2145 57.6273 60.6456L53.7874 69.262Z" fill="#6F6571" />
    <path fill-rule="evenodd" clip-rule="evenodd" d="M80.5776 62.8618C82.8301 62.8618 84.6523 61.1043 84.6523 58.9322C84.6523 56.7656 82.8301 55.0026 80.5776 55.0026C78.3307 55.0026 76.5085 56.7656 76.5085 58.9322C76.5085 61.1043 78.3307 62.8618 80.5776 62.8618Z" fill="#9FD4FE" />
    <path fill-rule="evenodd" clip-rule="evenodd" d="M35.5432 29.0376H90.9683V16.9781C90.9683 15.6628 89.8785 14.585 88.548 14.585H37.9634C36.6331 14.585 35.5432 15.6628 35.5432 16.9781V29.0376Z" fill="#FFE07D" />
    <path fill-rule="evenodd" clip-rule="evenodd" d="M90.9685 27.0868V16.9781C90.9685 15.6628 89.8787 14.585 88.5482 14.585H84.5574C85.8876 14.585 86.9775 15.6628 86.9775 16.9781V27.0868H90.9685Z" fill="#FFC269" />
    <path fill-rule="evenodd" clip-rule="evenodd" d="M90.9686 66.8688V48.6082H86.9778V66.8688C86.9778 68.1842 85.8879 69.262 84.5576 69.262H88.5429H88.5484C89.8785 69.262 90.9686 68.1842 90.9686 66.8688Z" fill="#FFC269" />
    <path fill-rule="evenodd" clip-rule="evenodd" d="M50.0034 58.9323C50.0034 56.7657 48.1812 55.0027 45.9343 55.0027C45.5038 55.0027 45.0902 55.069 44.7047 55.1851C46.1412 55.7931 47.1417 57.1748 47.1417 58.7885C47.1417 60.5406 45.9456 62.0327 44.2966 62.5302C44.7996 62.7458 45.353 62.8618 45.9343 62.8618C48.1812 62.8618 50.0034 61.1042 50.0034 58.9323Z" fill="#72BFFC" />
    <path fill-rule="evenodd" clip-rule="evenodd" d="M84.6523 58.9323C84.6523 56.7657 82.8301 55.0027 80.5777 55.0027C80.1529 55.0027 79.7393 55.069 79.3536 55.1851C80.7901 55.7931 81.7906 57.1748 81.7906 58.7885C81.7906 60.5406 80.5945 62.0327 78.9456 62.5302C79.4486 62.7458 80.0019 62.8618 80.5777 62.8618C82.8303 62.8618 84.6523 61.1042 84.6523 58.9323Z" fill="#72BFFC" />
    <path fill-rule="evenodd" clip-rule="evenodd" d="M35.5432 48.6081H90.9683V47.1459V44.977L89.2457 37.8473L90.9683 30.7565V28.549V27.0868H35.5432V30.7565V44.977V48.6081Z" fill="#9FD4FE" />
    <path fill-rule="evenodd" clip-rule="evenodd" d="M90.9686 27.0868H86.9775V30.7565V44.977V48.6081H90.9686V28.549V27.0868Z" fill="#72BFFC" />
    <path d="M45.9343 64.3242C42.872 64.3242 40.3806 61.9055 40.3806 58.9324C40.3806 55.9593 42.872 53.5405 45.9343 53.5405C48.9933 53.5405 51.4822 55.9593 51.4822 58.9324C51.4822 61.9055 48.9933 64.3242 45.9343 64.3242ZM45.9343 56.4649C44.5029 56.4649 43.3384 57.5717 43.3384 58.9322C43.3384 60.2926 44.5031 61.3996 45.9343 61.3996C47.3625 61.3996 48.5244 60.2928 48.5244 58.9322C48.5244 57.5717 47.3625 56.4649 45.9343 56.4649Z" fill="#ECEAEC" />
    <path d="M80.5777 64.3242C77.5186 64.3242 75.0298 61.9055 75.0298 58.9324C75.0298 55.9593 77.5186 53.5405 80.5777 53.5405C83.64 53.5405 86.1314 55.9593 86.1314 58.9324C86.1314 61.9055 83.64 64.3242 80.5777 64.3242ZM80.5777 56.4649C79.1494 56.4649 77.9876 57.5717 77.9876 58.9322C77.9876 60.2926 79.1494 61.3996 80.5777 61.3996C82.009 61.3996 83.1736 60.2928 83.1736 58.9322C83.1736 57.5717 82.009 56.4649 80.5777 56.4649Z" fill="#ECEAEC" />
    <path d="M73.4234 22.3037H53.4187C52.6018 22.3037 51.9399 21.6489 51.9399 20.8415C51.9399 20.034 52.602 19.3793 53.4187 19.3793H73.4234C74.2403 19.3793 74.9022 20.034 74.9022 20.8415C74.9022 21.6489 74.2401 22.3037 73.4234 22.3037Z" fill="#6F6571" />
    <path d="M17.9198 11.3053H8.22221C7.40529 11.3053 6.74341 10.6505 6.74341 9.84306C6.74341 9.03542 7.40548 8.38086 8.22221 8.38086H17.9198C18.7367 8.38086 19.3986 9.03561 19.3986 9.84306C19.3986 10.6507 18.7365 11.3053 17.9198 11.3053Z" fill="#6F6571" />
    <path d="M17.9198 16.8211H8.22221C7.40529 16.8211 6.74341 16.1664 6.74341 15.3589C6.74341 14.5513 7.40548 13.8967 8.22221 13.8967H17.9198C18.7367 13.8967 19.3986 14.5515 19.3986 15.3589C19.3986 16.1664 18.7365 16.8211 17.9198 16.8211Z" fill="#6F6571" />
    <path d="M47.4084 50.0707C47.1504 50.0707 46.8891 50.0041 46.6516 49.8639C45.9503 49.4499 45.7214 48.5521 46.14 47.8587L50.1084 41.2873C50.5274 40.5939 51.436 40.3677 52.1363 40.7815C52.8377 41.1954 53.0666 42.0932 52.648 42.7866L48.6795 49.358C48.4026 49.8163 47.9118 50.0707 47.4084 50.0707Z" fill="#6F6571" />
    <path d="M75.0149 50.0707C74.7568 50.0707 74.4956 50.0041 74.258 49.8639C73.5567 49.4499 73.3278 48.5521 73.7464 47.8587L77.7148 41.2873C78.1336 40.5939 79.0422 40.3677 79.7428 40.7815C80.4441 41.1954 80.673 42.0932 80.2544 42.7866L76.286 49.358C76.0092 49.8163 75.5183 50.0707 75.0149 50.0707Z" fill="#6F6571" />
    <path d="M90.9686 47.1459H64.7349V28.549H90.9684C91.7854 28.549 92.4472 27.8943 92.4472 27.0868C92.4472 26.2794 91.7852 25.6246 90.9684 25.6246H35.5435C34.7266 25.6246 34.0647 26.2794 34.0647 27.0868C34.0647 27.8943 34.7268 28.549 35.5435 28.549H61.7771V47.1459H35.5435C34.7266 47.1459 34.0647 47.8007 34.0647 48.6081C34.0647 49.4156 34.7268 50.0703 35.5435 50.0703H90.9684C91.7854 50.0703 92.4472 49.4156 92.4472 48.6081C92.4472 47.8007 91.7854 47.1459 90.9686 47.1459Z" fill="#ECEAEC" />
</svg>
