<svg width="1330" height="204" viewBox="0 0 1330 204" fill="none" xmlns="http://www.w3.org/2000/svg">
    <path d="M119 93C114.583 93 111 89.419 111 85V69C111 64.5809 114.583 61 119 61C123.417 61 127 64.5809 127 69V85C127 89.4195 123.417 93 119 93Z" fill="#5D5F66"/>
    <path d="M204.06 13H156.18C155.276 13 154.371 13.16 153.52 13.4265C151.073 14.3331 149.104 16.4132 148.413 19.0799L133.996 77.0002H126.92C109.311 77.0002 95 91.347 95 109V133C95 137.427 98.5644 141 102.98 141H220.02C224.436 141 228 137.427 228 133V37.0004C228 23.774 217.254 13 204.06 13Z" fill="#FF658B"/>
    <path d="M228 36.9996V133C228 137.427 224.459 141 220.071 141H154V13.4265C154.846 13.1596 155.744 13 156.643 13H204.214C217.323 12.9995 228 23.7736 228 36.9996Z" fill="#FF527C"/>
    <path d="M204.294 125H103.706C81.7764 125 64 142.684 64 164.5C64 186.316 81.7764 204 103.706 204H204.294C226.224 204 244 186.316 244 164.5C244 142.684 226.223 125 204.294 125Z" fill="#5D5F66"/>
    <path d="M204.294 125H154V204H204.294C226.224 204 244 186.316 244 164.5C244 142.684 226.223 125 204.294 125Z" fill="#55575C"/>
    <path d="M204.214 141H103.786C90.6493 141 80 151.521 80 164.5C80 177.479 90.6493 188 103.786 188H204.214C217.351 188 228 177.479 228 164.5C228 151.521 217.351 141 204.214 141Z" fill="#DBDFE3"/>
    <path d="M204.214 141H154V188H204.214C217.351 188 228 177.479 228 164.5C228 151.521 217.351 141 204.214 141Z" fill="#CAD1D7"/>
    <path d="M40.0044 204H8.00799C1.87127 204 -1.97712 197.414 1.06106 192.124L65.0539 80.9925C69.1304 73.945 80 76.8326 80 84.9303V164.31C80 186.197 62.0589 204 40.0044 204Z" fill="#FF3C79"/>
    <path d="M103.5 204C81.6847 204 64 186.315 64 164.5C64 142.685 81.6847 125 103.5 125C125.315 125 143 142.685 143 164.5C143 186.316 125.315 204 103.5 204Z" fill="#5D5F66"/>
    <path d="M143 164.5C143 142.684 125.092 125 103 125V204C125.091 204 143 186.316 143 164.5Z" fill="#55575C"/>
    <path d="M103.5 188C90.5214 188 80 177.479 80 164.5C80 151.521 90.5214 141 103.5 141C116.479 141 127 151.521 127 164.5C127 177.479 116.479 188 103.5 188Z" fill="#DBDFE3"/>
    <path d="M127 164.5C127 151.521 116.255 141 103 141V188C116.255 188 127 177.479 127 164.5Z" fill="#CAD1D7"/>
    <path d="M103 172C98.5819 172 95 168.418 95 164C95 159.582 98.5819 156 103 156C107.418 156 111 159.582 111 164C111 168.419 107.418 172 103 172Z" fill="#5D5F66"/>
    <path d="M111 164C111 159.582 107.418 156 103 156V172C107.418 172 111 168.419 111 164Z" fill="#55575C"/>
    <path d="M204 204C181.909 204 164 186.315 164 164.5C164 142.685 181.909 125 204 125C226.091 125 244 142.685 244 164.5C244 186.316 226.091 204 204 204Z" fill="#5D5F66"/>
    <path d="M237.238 169.238C237.238 150.328 221.909 135 203 135V203.476C221.909 203.476 237.238 188.147 237.238 169.238Z" fill="#55575C"/>
    <path d="M209.762 190.476C198.417 190.476 189.219 181.279 189.219 169.933C189.219 158.588 198.417 149.391 209.762 149.391C221.107 149.391 230.305 158.588 230.305 169.933C230.305 181.279 221.108 190.476 209.762 190.476Z" fill="#DBDFE3"/>
    <path d="M230.305 169.933C230.305 158.588 221.108 149.391 209.762 149.391V190.476C221.108 190.476 230.305 181.279 230.305 169.933Z" fill="#CAD1D7"/>
    <path d="M209.762 176.781C205.98 176.781 202.914 173.715 202.914 169.933C202.914 166.151 205.98 163.085 209.762 163.085C213.543 163.085 216.609 166.151 216.609 169.933C216.609 173.715 213.544 176.781 209.762 176.781Z" fill="#5D5F66"/>
    <path d="M216.609 169.933C216.609 166.151 213.543 163.085 209.762 163.085V176.781C213.544 176.781 216.609 173.715 216.609 169.933Z" fill="#55575C"/>
    <path d="M196 69V37C196 32.5819 192.477 29 188.131 29H162.781L151 77H188.131C192.477 77 196 73.4186 196 69Z" fill="white"/>
    <path d="M479.056 81.704C472.347 73.5147 464.059 69.42 454.192 69.42C449.851 69.42 445.805 70.2093 442.056 71.788C438.405 73.3667 435.248 75.5373 432.584 78.3C429.92 80.964 427.799 84.1707 426.22 87.92C424.74 91.6693 424 95.7147 424 100.056C424 104.496 424.74 108.591 426.22 112.34C427.799 116.089 429.92 119.345 432.584 122.108C435.347 124.871 438.553 127.041 442.204 128.62C445.855 130.199 449.801 130.988 454.044 130.988C463.319 130.988 471.656 127.041 479.056 119.148V153.484L476.096 154.52C471.656 156.099 467.512 157.233 463.664 157.924C459.816 158.713 456.017 159.108 452.268 159.108C444.572 159.108 437.172 157.677 430.068 154.816C423.063 151.856 416.847 147.761 411.42 142.532C406.092 137.204 401.8 130.939 398.544 123.736C395.288 116.435 393.66 108.492 393.66 99.908C393.66 91.324 395.239 83.48 398.396 76.376C401.652 69.1733 405.944 63.0067 411.272 57.876C416.699 52.6467 422.964 48.6013 430.068 45.74C437.172 42.78 444.621 41.3 452.416 41.3C456.856 41.3 461.197 41.7933 465.44 42.78C469.781 43.668 474.32 45.0987 479.056 47.072V81.704ZM494.891 80.076H521.679V92.508C524.54 87.9693 528.043 84.516 532.187 82.148C536.331 79.6813 541.166 78.448 546.691 78.448C547.382 78.448 548.122 78.448 548.911 78.448C549.799 78.448 550.786 78.5467 551.871 78.744V104.348C548.319 102.572 544.471 101.684 540.327 101.684C534.111 101.684 529.424 103.559 526.267 107.308C523.208 110.959 521.679 116.336 521.679 123.44V156H494.891V80.076ZM590.62 80.076V122.848C590.62 132.221 595.159 136.908 604.236 136.908C613.314 136.908 617.852 132.221 617.852 122.848V80.076H644.64V128.028C644.64 138.289 641.236 145.985 634.428 151.116C627.719 156.247 617.655 158.812 604.236 158.812C590.818 158.812 580.704 156.247 573.896 151.116C567.187 145.985 563.832 138.289 563.832 128.028V80.076H590.62ZM713.156 99.612C708.223 97.0467 703.388 95.764 698.652 95.764C696.185 95.764 694.163 96.2573 692.584 97.244C691.104 98.2307 690.364 99.5627 690.364 101.24C690.364 102.128 690.463 102.868 690.66 103.46C690.956 103.953 691.499 104.447 692.288 104.94C693.176 105.433 694.409 105.877 695.988 106.272C697.665 106.667 699.836 107.16 702.5 107.752C709.9 109.232 715.425 111.896 719.076 115.744C722.727 119.493 724.552 124.328 724.552 130.248C724.552 134.688 723.664 138.684 721.888 142.236C720.112 145.788 717.645 148.797 714.488 151.264C711.331 153.632 707.532 155.457 703.092 156.74C698.652 158.121 693.768 158.812 688.44 158.812C678.179 158.812 668.065 155.901 658.1 150.08L667.868 131.136C675.367 136.267 682.471 138.832 689.18 138.832C691.647 138.832 693.669 138.289 695.248 137.204C696.827 136.119 697.616 134.737 697.616 133.06C697.616 132.073 697.468 131.284 697.172 130.692C696.975 130.001 696.481 129.409 695.692 128.916C694.903 128.324 693.719 127.831 692.14 127.436C690.66 126.943 688.687 126.449 686.22 125.956C677.932 124.279 672.111 121.812 668.756 118.556C665.5 115.201 663.872 110.613 663.872 104.792C663.872 100.549 664.661 96.7507 666.24 93.396C667.819 89.9427 670.088 87.032 673.048 84.664C676.008 82.296 679.56 80.4707 683.704 79.188C687.947 77.9053 692.633 77.264 697.764 77.264C706.151 77.264 714.291 78.892 722.184 82.148L713.156 99.612ZM738.137 33.16H764.925V89.696C768.576 85.256 772.276 82.296 776.025 80.816C779.774 79.2373 784.165 78.448 789.197 78.448C798.768 78.448 805.97 81.112 810.805 86.44C815.738 91.6693 818.205 98.7733 818.205 107.752V156H791.417V117.668C791.417 113.82 791.121 110.712 790.529 108.344C789.937 105.976 788.95 104.151 787.569 102.868C785.201 100.796 782.34 99.76 778.985 99.76C774.446 99.76 770.944 101.141 768.477 103.904C766.109 106.568 764.925 110.416 764.925 115.448V156H738.137V33.16ZM891.918 107.012C891.03 103.263 889.205 100.253 886.442 97.984C883.68 95.7147 880.325 94.58 876.378 94.58C872.234 94.58 868.83 95.6653 866.166 97.836C863.601 100.007 861.973 103.065 861.282 107.012H891.918ZM860.542 122.552C860.542 134.096 865.969 139.868 876.822 139.868C882.644 139.868 887.034 137.5 889.994 132.764H915.894C910.665 150.129 897.592 158.812 876.674 158.812C870.261 158.812 864.39 157.875 859.062 156C853.734 154.027 849.146 151.264 845.298 147.712C841.549 144.16 838.638 139.917 836.566 134.984C834.494 130.051 833.458 124.525 833.458 118.408C833.458 112.093 834.445 106.42 836.418 101.388C838.392 96.2573 841.204 91.916 844.854 88.364C848.505 84.812 852.896 82.0987 858.026 80.224C863.256 78.2507 869.126 77.264 875.638 77.264C882.052 77.264 887.824 78.2507 892.954 80.224C898.085 82.0987 902.426 84.8613 905.978 88.512C909.53 92.1627 912.244 96.652 914.118 101.98C915.993 107.209 916.93 113.129 916.93 119.74V122.552H860.542ZM932.242 80.076H959.03V92.508C961.892 87.9693 965.394 84.516 969.538 82.148C973.682 79.6813 978.517 78.448 984.042 78.448C984.733 78.448 985.473 78.448 986.262 78.448C987.15 78.448 988.137 78.5467 989.222 78.744V104.348C985.67 102.572 981.822 101.684 977.678 101.684C971.462 101.684 966.776 103.559 963.618 107.308C960.56 110.959 959.03 116.336 959.03 123.44V156H932.242V80.076ZM990.602 141.792C990.602 139.424 991.046 137.204 991.934 135.132C992.822 132.961 994.055 131.087 995.634 129.508C997.212 127.929 999.038 126.696 1001.11 125.808C1003.28 124.92 1005.55 124.476 1007.92 124.476C1010.29 124.476 1012.51 124.92 1014.58 125.808C1016.75 126.696 1018.62 127.929 1020.2 129.508C1021.78 131.087 1023.01 132.961 1023.9 135.132C1024.79 137.204 1025.23 139.424 1025.23 141.792C1025.23 144.16 1024.79 146.429 1023.9 148.6C1023.01 150.672 1021.78 152.497 1020.2 154.076C1018.62 155.655 1016.75 156.888 1014.58 157.776C1012.51 158.664 1010.29 159.108 1007.92 159.108C1005.55 159.108 1003.28 158.664 1001.11 157.776C999.038 156.888 997.212 155.655 995.634 154.076C994.055 152.497 992.822 150.672 991.934 148.6C991.046 146.429 990.602 144.16 990.602 141.792ZM1067.09 117.816C1067.09 120.283 1067.54 122.601 1068.43 124.772C1069.31 126.844 1070.5 128.669 1071.98 130.248C1073.56 131.827 1075.38 133.06 1077.45 133.948C1079.63 134.836 1081.94 135.28 1084.41 135.28C1086.78 135.28 1089 134.836 1091.07 133.948C1093.24 133.06 1095.07 131.827 1096.55 130.248C1098.13 128.669 1099.36 126.844 1100.25 124.772C1101.23 122.7 1101.73 120.48 1101.73 118.112C1101.73 115.744 1101.23 113.524 1100.25 111.452C1099.36 109.281 1098.13 107.407 1096.55 105.828C1095.07 104.249 1093.24 103.016 1091.07 102.128C1089 101.24 1086.78 100.796 1084.41 100.796C1082.04 100.796 1079.77 101.24 1077.6 102.128C1075.53 103.016 1073.71 104.249 1072.13 105.828C1070.65 107.407 1069.41 109.232 1068.43 111.304C1067.54 113.277 1067.09 115.448 1067.09 117.816ZM1100.84 33.16H1127.77V156H1100.84V147.564C1095.12 154.767 1087.37 158.368 1077.6 158.368C1072.08 158.368 1067 157.332 1062.36 155.26C1057.72 153.188 1053.68 150.327 1050.22 146.676C1046.77 143.025 1044.06 138.733 1042.08 133.8C1040.21 128.867 1039.27 123.539 1039.27 117.816C1039.27 112.389 1040.16 107.259 1041.93 102.424C1043.81 97.4907 1046.42 93.1987 1049.78 89.548C1053.13 85.8973 1057.13 83.036 1061.77 80.964C1066.5 78.7933 1071.68 77.708 1077.31 77.708C1086.78 77.708 1094.62 81.0133 1100.84 87.624V33.16ZM1201.5 107.012C1200.62 103.263 1198.79 100.253 1196.03 97.984C1193.27 95.7147 1189.91 94.58 1185.96 94.58C1181.82 94.58 1178.42 95.6653 1175.75 97.836C1173.19 100.007 1171.56 103.065 1170.87 107.012H1201.5ZM1170.13 122.552C1170.13 134.096 1175.55 139.868 1186.41 139.868C1192.23 139.868 1196.62 137.5 1199.58 132.764H1225.48C1220.25 150.129 1207.18 158.812 1186.26 158.812C1179.85 158.812 1173.98 157.875 1168.65 156C1163.32 154.027 1158.73 151.264 1154.88 147.712C1151.13 144.16 1148.22 139.917 1146.15 134.984C1144.08 130.051 1143.04 124.525 1143.04 118.408C1143.04 112.093 1144.03 106.42 1146 101.388C1147.98 96.2573 1150.79 91.916 1154.44 88.364C1158.09 84.812 1162.48 82.0987 1167.61 80.224C1172.84 78.2507 1178.71 77.264 1185.22 77.264C1191.64 77.264 1197.41 78.2507 1202.54 80.224C1207.67 82.0987 1212.01 84.8613 1215.56 88.512C1219.12 92.1627 1221.83 96.652 1223.7 101.98C1225.58 107.209 1226.52 113.129 1226.52 119.74V122.552H1170.13ZM1259.23 80.076L1277.29 119L1295.64 80.076H1325.54L1286.02 156H1268.11L1229.04 80.076H1259.23Z" fill="#3D3F45"/>
    <path d="M119 93C114.583 93 111 89.419 111 85V69C111 64.5809 114.583 61 119 61C123.417 61 127 64.5809 127 69V85C127 89.4195 123.417 93 119 93Z" fill="#5D5F66"/>
    <path d="M204.06 13H156.18C155.276 13 154.371 13.16 153.52 13.4265C151.073 14.3331 149.104 16.4132 148.413 19.0799L133.996 77.0002H126.92C109.311 77.0002 95 91.347 95 109V133C95 137.427 98.5644 141 102.98 141H220.02C224.436 141 228 137.427 228 133V37.0004C228 23.774 217.254 13 204.06 13Z" fill="#FF3C79"/>
    <path d="M228 36.9996V133C228 137.427 224.459 141 220.071 141H154V13.4265C154.846 13.1596 155.744 13 156.643 13H204.214C217.323 12.9995 228 23.7736 228 36.9996Z" fill="#EC2E6A"/>
    <path d="M204.294 125H103.706C81.7764 125 64 142.684 64 164.5C64 186.316 81.7764 204 103.706 204H204.294C226.224 204 244 186.316 244 164.5C244 142.684 226.223 125 204.294 125Z" fill="#5D5F66"/>
    <path d="M204.294 125H154V204H204.294C226.224 204 244 186.316 244 164.5C244 142.684 226.223 125 204.294 125Z" fill="#55575C"/>
    <path d="M204.214 141H103.786C90.6493 141 80 151.521 80 164.5C80 177.479 90.6493 188 103.786 188H204.214C217.351 188 228 177.479 228 164.5C228 151.521 217.351 141 204.214 141Z" fill="#DBDFE3"/>
    <path d="M204.214 141H154V188H204.214C217.351 188 228 177.479 228 164.5C228 151.521 217.351 141 204.214 141Z" fill="#CAD1D7"/>
    <path d="M103.5 204C81.6847 204 64 186.315 64 164.5C64 142.685 81.6847 125 103.5 125C125.315 125 143 142.685 143 164.5C143 186.316 125.315 204 103.5 204Z" fill="#5D5F66"/>
    <path d="M143 164.5C143 142.684 125.092 125 103 125V204C125.091 204 143 186.316 143 164.5Z" fill="#55575C"/>
    <path d="M103.5 188C90.5214 188 80 177.479 80 164.5C80 151.521 90.5214 141 103.5 141C116.479 141 127 151.521 127 164.5C127 177.479 116.479 188 103.5 188Z" fill="#DBDFE3"/>
    <path d="M127 164.5C127 151.521 116.255 141 103 141V188C116.255 188 127 177.479 127 164.5Z" fill="#CAD1D7"/>
    <path d="M103 172C98.5819 172 95 168.418 95 164C95 159.582 98.5819 156 103 156C107.418 156 111 159.582 111 164C111 168.419 107.418 172 103 172Z" fill="#5D5F66"/>
    <path d="M111 164C111 159.582 107.418 156 103 156V172C107.418 172 111 168.419 111 164Z" fill="#55575C"/>
    <path d="M204 204C181.909 204 164 186.315 164 164.5C164 142.685 181.909 125 204 125C226.091 125 244 142.685 244 164.5C244 186.316 226.091 204 204 204Z" fill="#5D5F66"/>
    <path d="M244 164.5C244 143.237 228.33 126 209 126V203C228.33 203 244 185.763 244 164.5Z" fill="#55575C"/>
    <path d="M209.762 190.476C198.417 190.476 189.219 181.279 189.219 169.933C189.219 158.588 198.417 149.391 209.762 149.391C221.107 149.391 230.305 158.588 230.305 169.933C230.305 181.279 221.108 190.476 209.762 190.476Z" fill="#DBDFE3"/>
    <path d="M230.305 169.933C230.305 158.588 221.108 149.391 209.762 149.391V190.476C221.108 190.476 230.305 181.279 230.305 169.933Z" fill="#CAD1D7"/>
    <path d="M209.762 176.781C205.98 176.781 202.914 173.715 202.914 169.933C202.914 166.151 205.98 163.085 209.762 163.085C213.543 163.085 216.609 166.151 216.609 169.933C216.609 173.715 213.544 176.781 209.762 176.781Z" fill="#5D5F66"/>
    <path d="M216.609 169.933C216.609 166.151 213.543 163.085 209.762 163.085V176.781C213.544 176.781 216.609 173.715 216.609 169.933Z" fill="#55575C"/>
    <path d="M196 69V37C196 32.5819 192.477 29 188.131 29H162.781L151 77H188.131C192.477 77 196 73.4186 196 69Z" fill="white"/>
</svg>
