<svg width="21" height="22" viewBox="0 0 18 19" fill="none" xmlns="http://www.w3.org/2000/svg">
    <g clip-path="url(#clip0)">
        <path d="M15.7928 3.52581C15.6772 3.26151 15.3811 3.14644 15.1316 3.26882L13.4443 4.09602C13.1946 4.2184 13.086 4.53181 13.2016 4.79612C13.2858 4.98871 13.4658 5.10202 13.6538 5.10202C13.7239 5.10202 13.7951 5.0863 13.8628 5.05308L15.5501 4.22588C15.7997 4.10354 15.9083 3.79012 15.7928 3.52581Z" fill="#8C8C8C"/>
        <path d="M13.3354 2.96927L14.0426 1.08595C14.1442 0.815315 14.0194 0.508683 13.7638 0.401104C13.508 0.293456 13.2185 0.425714 13.117 0.696312L12.4099 2.57967C12.3083 2.8503 12.4331 3.15693 12.6887 3.26451C12.7491 3.28993 12.8113 3.30195 12.8725 3.30195C13.0705 3.30195 13.2579 3.17602 13.3354 2.96927Z" fill="#8C8C8C"/>
        <path d="M16.3501 6.52161L14.6045 5.84324C14.3462 5.74283 14.0601 5.88314 13.9654 6.15659C13.8706 6.42999 14.0031 6.73297 14.2613 6.83334L16.0068 7.51171C16.0634 7.53372 16.1214 7.54416 16.1784 7.54416C16.3813 7.54416 16.572 7.41184 16.646 7.19837C16.7407 6.92496 16.6082 6.62198 16.3501 6.52161Z" fill="#8C8C8C"/>
        <path d="M7.0968 7.71151C7.40854 7.71151 7.66125 7.31801 7.66125 6.8326C7.66125 6.3472 7.40854 5.9537 7.0968 5.9537C6.78506 5.9537 6.53235 6.3472 6.53235 6.8326C6.53235 7.31801 6.78506 7.71151 7.0968 7.71151Z" fill="#8C8C8C"/>
        <path d="M2.05029 11.0162V13.3029C2.05401 14.6825 2.54521 15.9614 3.43342 16.904C4.3209 17.8458 5.52238 18.3639 6.81679 18.3638C6.82163 18.3638 6.82665 18.3638 6.83146 18.3638H7.36271H7.36414C8.66602 18.3599 9.86866 17.839 10.7505 16.8973C11.6313 15.9565 12.1144 14.6789 12.1107 13.3013V11.0162H2.05029Z" fill="#8C8C8C"/>
        <path d="M11.2161 3.39305C10.6831 2.91303 9.9784 2.64901 9.232 2.64901C9.22881 2.64901 9.22555 2.64901 9.2224 2.64901H7.59546V5.00055C8.21237 5.25873 8.65795 5.98213 8.65795 6.83255C8.65795 7.68297 8.21237 8.40638 7.59546 8.66456V9.96142H12.1111V5.42484C12.1089 4.6324 11.7911 3.91082 11.2161 3.39305Z" fill="#8C8C8C"/>
        <path d="M5.53663 6.83231C5.53663 5.98189 5.98221 5.25849 6.59912 5.0003V2.64877H4.97075C3.32897 2.65376 2.04615 3.87437 2.05033 5.42608V9.96118H6.59912V8.66432C5.98221 8.4061 5.53663 7.6827 5.53663 6.83231Z" fill="#8C8C8C"/>
    </g>
    <defs>
        <clipPath id="clip0">
            <rect width="17" height="18" fill="white" transform="translate(0.863281 0.36377)"/>
        </clipPath>
    </defs>
</svg>
