<svg width="15" height="15" viewBox="0 0 15 15" fill="none" xmlns="http://www.w3.org/2000/svg">
    <path d="M7.5 15C3.35786 15 0 11.6421 0 7.5C0 3.35786 3.35786 0 7.5 0C11.6421 0 15 3.35786 15 7.5C15 11.6421 11.6421 15 7.5 15Z" fill="#FFC265"/>
    <path d="M7.5 14.1835C11.5051 14.1835 14.7768 11.044 14.9888 7.0918C14.9961 7.22697 15 7.36306 15 7.50005C15 11.6422 11.6421 15.0001 7.5 15.0001C3.35786 15.0001 0 11.6422 0 7.50005C0 7.36306 0.00392628 7.22697 0.0111628 7.0918C0.223213 11.044 3.49485 14.1835 7.5 14.1835Z" fill="#FFB541"/>
    <path d="M7.50021 13.784C4.02966 13.784 1.21623 10.9706 1.21623 7.50004C1.21623 4.0295 4.02966 1.21606 7.50021 1.21606C10.9707 1.21606 13.7842 4.0295 13.7842 7.50004C13.7842 10.9706 10.9707 13.784 7.50021 13.784Z" fill="#FFE9C8"/>
    <path d="M7.50021 12.9675C10.8335 12.9675 13.5602 10.372 13.7706 7.0918C13.7793 7.22683 13.7842 7.36285 13.7842 7.50005C13.7842 10.9706 10.9707 13.784 7.50021 13.784C4.02967 13.784 1.21623 10.9706 1.21623 7.50005C1.21623 7.36285 1.22113 7.2268 1.2298 7.0918C1.44021 10.372 4.16687 12.9675 7.50021 12.9675Z" fill="#FFDCA7"/>
    <path d="M5.13008 10.3235H9.86961C10.1202 10.3235 10.3232 10.1205 10.3232 9.86992V5.13039C10.3232 4.87984 10.1202 4.67676 9.86961 4.67676H5.13008C4.87954 4.67676 4.67645 4.87984 4.67645 5.13039V9.86992C4.67645 10.1204 4.87957 10.3235 5.13008 10.3235Z" fill="#FF4755"/>
    <path d="M5.13008 9.77907H9.86961C10.1202 9.77907 10.3232 9.57599 10.3232 9.32544V9.8698C10.3232 10.1204 10.1202 10.3234 9.86961 10.3234H5.13008C4.87954 10.3234 4.67645 10.1204 4.67645 9.8698V9.32544C4.67645 9.57599 4.87957 9.77907 5.13008 9.77907Z" fill="#FC2B3A"/>
</svg>
