<svg width="19" height="19" viewBox="0 0 19 19" fill="none" xmlns="http://www.w3.org/2000/svg">
    <path d="M16.2175 2.78246C14.4232 0.988186 12.0375 0 9.5 0C6.96246 0 4.57681 0.988186 2.78246 2.78246C0.988186 4.57681 0 6.96246 0 9.5C0 12.0375 0.988186 14.4232 2.78246 16.2175C4.57681 18.0118 6.96246 19 9.5 19C12.0375 19 14.4232 18.0118 16.2175 16.2175C18.0118 14.4232 19 12.0375 19 9.5C19 6.96246 18.0118 4.57681 16.2175 2.78246ZM9.5 2.59766C10.6254 2.59766 11.541 3.51326 11.541 4.63867C11.541 5.76409 10.6254 6.67969 9.5 6.67969C8.37458 6.67969 7.45898 5.76409 7.45898 4.63867C7.45898 3.51326 8.37458 2.59766 9.5 2.59766ZM12.0977 15.5859H6.90234V14.4727H8.01562V8.90625H6.90234V7.79297H10.9844V14.4727H12.0977V15.5859Z" fill="#656565"/>
</svg>
