<svg width="17" height="17" viewBox="0 0 17 17" fill="none" xmlns="http://www.w3.org/2000/svg">
    <path d="M8.5 13.3975C8.95844 13.3975 9.33008 13.0258 9.33008 12.5674C9.33008 12.1089 8.95844 11.7373 8.5 11.7373C8.04156 11.7373 7.66992 12.1089 7.66992 12.5674C7.66992 13.0258 8.04156 13.3975 8.5 13.3975Z" fill="#636363"/>
    <path d="M8.5 0C3.80229 0 0 3.80166 0 8.5C0 13.1977 3.80166 17 8.5 17C13.1977 17 17 13.1983 17 8.5C17 3.80229 13.1983 0 8.5 0ZM8.5 15.6719C4.53631 15.6719 1.32812 12.4642 1.32812 8.5C1.32812 4.53631 4.53578 1.32812 8.5 1.32812C12.4637 1.32812 15.6719 4.53578 15.6719 8.5C15.6719 12.4637 12.4642 15.6719 8.5 15.6719Z" fill="#636363"/>
    <path d="M8.5 4.2666C7.03534 4.2666 5.84375 5.4582 5.84375 6.92285C5.84375 7.28961 6.14105 7.58691 6.50781 7.58691C6.87457 7.58691 7.17188 7.28961 7.17188 6.92285C7.17188 6.19052 7.76767 5.59473 8.5 5.59473C9.23233 5.59473 9.82812 6.19052 9.82812 6.92285C9.82812 7.65518 9.23233 8.25098 8.5 8.25098C8.13324 8.25098 7.83594 8.54828 7.83594 8.91504V10.5752C7.83594 10.942 8.13324 11.2393 8.5 11.2393C8.86676 11.2393 9.16406 10.942 9.16406 10.5752V9.49506C10.3084 9.19946 11.1562 8.15831 11.1562 6.92285C11.1562 5.4582 9.96466 4.2666 8.5 4.2666Z" fill="#636363"/>
</svg>
