<svg width="35" height="35" viewBox="0 0 35 35" fill="none" xmlns="http://www.w3.org/2000/svg">
    <g clip-path="url(#clip0)">
        <path d="M22.5672 19.9606H12.3863C12.1792 19.9606 11.977 19.8979 11.8062 19.7807C11.1989 19.3639 10.6902 18.9219 10.2509 18.4293C9.265 17.3233 8.63753 16.0348 8.38604 14.5995C8.13434 13.1631 8.32342 11.9279 8.52631 11.1447C8.92908 9.59006 9.90594 8.09005 11.3514 6.80701C14.2012 4.27758 15.2319 0.778535 15.2419 0.743535C15.319 0.47543 15.5022 0.249365 15.749 0.119141C15.9957 -0.0110839 16.285 -0.0359667 16.5499 0.0514649C16.6408 0.0815431 18.7886 0.81374 19.8771 3.09633C20.6164 4.64658 20.6893 6.49297 20.0965 8.59775C20.2925 8.58688 20.5023 8.54546 20.7084 8.45208C21.2307 8.21535 21.5516 7.72679 21.5258 7.20739C21.506 6.80899 21.719 6.43534 22.0718 6.24934C22.4246 6.0634 22.8532 6.09888 23.1707 6.34032C24.1936 7.11846 25.994 8.81008 26.5588 11.3969C27.2458 14.5435 25.9111 17.8314 23.1582 19.7731C22.9853 19.8951 22.7789 19.9606 22.5672 19.9606Z" fill="#FFB454"/>
        <path d="M23.1708 6.34022C22.8532 6.09878 22.4246 6.0633 22.0718 6.24924C21.7189 6.43524 21.506 6.8089 21.5258 7.20729C21.5516 7.72669 21.2308 8.21525 20.7084 8.45198C20.5023 8.54536 20.2925 8.58679 20.0966 8.59766C20.6893 6.49287 20.6164 4.64648 19.8771 3.09623C19.2393 1.75885 18.2383 0.954326 17.5001 0.510742V19.9605H22.5672C22.7789 19.9605 22.9853 19.895 23.1582 19.773C25.9111 17.8313 27.2458 14.5434 26.5588 11.3968C25.994 8.80998 24.1936 7.11829 23.1708 6.34022Z" fill="#FF7038"/>
        <path d="M19.8347 19.9606H15.1655C14.8008 19.9606 14.4635 19.7669 14.2797 19.4518C13.4487 18.027 13.5481 16.2644 14.533 14.9612L16.682 12.1174C16.8758 11.8609 17.1786 11.7102 17.5001 11.7102C17.8215 11.7102 18.1243 11.8609 18.3181 12.1174L20.4671 14.9613C21.4519 16.2644 21.5513 18.0271 20.7204 19.4518C20.5367 19.7669 20.1994 19.9606 19.8347 19.9606Z" fill="#FFE278"/>
        <path d="M19.8346 19.9606C20.1993 19.9606 20.5366 19.7669 20.7204 19.4518C21.5514 18.027 21.452 16.2644 20.4671 14.9613L18.3181 12.1174C18.1243 11.8609 17.8215 11.7102 17.5001 11.7102V19.9606H19.8346Z" fill="#FFB454"/>
        <path d="M30.4883 35H4.51172C2.81552 35 1.43555 33.62 1.43555 31.9238V20.9863C1.43555 19.2901 2.81552 17.9102 4.51172 17.9102H30.4883C32.1845 17.9102 33.5645 19.2901 33.5645 20.9863V31.9238C33.5645 33.62 32.1845 35 30.4883 35Z" fill="#F4F4F6"/>
        <path d="M30.4883 17.9102H17.5V35H30.4883C32.1845 35 33.5645 33.62 33.5645 31.9238V20.9863C33.5645 19.2901 32.1845 17.9102 30.4883 17.9102Z" fill="#E2DFF4"/>
        <path d="M4.51172 19.9609C3.94632 19.9609 3.48633 20.4209 3.48633 20.9863V31.9238C3.48633 32.4892 3.94632 32.9492 4.51172 32.9492H30.4883C31.0537 32.9492 31.5137 32.4892 31.5137 31.9238V20.9863C31.5137 20.4209 31.0537 19.9609 30.4883 19.9609H4.51172Z" fill="#FF7038"/>
        <path d="M30.4883 19.9609H17.5V32.9492H30.4883C31.0537 32.9492 31.5137 32.4892 31.5137 31.9238V20.9863C31.5137 20.4209 31.0537 19.9609 30.4883 19.9609Z" fill="#FF1F3D"/>
        <path d="M9.69918 28.8419C9.69726 28.8419 9.69521 28.8419 9.6933 28.8419C9.22948 28.8445 8.74078 28.8464 8.33069 28.8472V23.0371C8.33069 22.4708 7.87159 22.0117 7.3053 22.0117C6.73901 22.0117 6.27991 22.4708 6.27991 23.0371V29.8673C6.27991 30.3668 6.63982 30.7936 7.13208 30.8779C7.2059 30.8906 7.25471 30.8991 8.01801 30.8991C8.38626 30.8991 8.92097 30.8971 9.70471 30.8927C10.271 30.8895 10.7275 30.4279 10.7244 29.8616C10.7212 29.2972 10.2628 28.8419 9.69918 28.8419Z" fill="#F4F4F6"/>
        <path d="M13.1173 22.0117C12.551 22.0117 12.0919 22.4708 12.0919 23.0371V29.873C12.0919 30.4393 12.551 30.8984 13.1173 30.8984C13.6836 30.8984 14.1427 30.4393 14.1427 29.873V23.0371C14.1427 22.4708 13.6836 22.0117 13.1173 22.0117Z" fill="#F4F4F6"/>
        <path d="M27.6947 28.8477H25.8397V27.4805H27.4823C28.0486 27.4805 28.5077 27.0214 28.5077 26.4551C28.5077 25.8888 28.0486 25.4297 27.4823 25.4297H25.8397V24.0625H27.6947C28.2609 24.0625 28.7201 23.6034 28.7201 23.0371C28.7201 22.4708 28.2609 22.0117 27.6947 22.0117H24.8143C24.248 22.0117 23.7889 22.4708 23.7889 23.0371V29.873C23.7889 30.4393 24.248 30.8984 24.8143 30.8984H27.6947C28.2609 30.8984 28.7201 30.4393 28.7201 29.873C28.7201 29.3068 28.2609 28.8477 27.6947 28.8477Z" fill="#E2DFF4"/>
        <path d="M21.7194 22.0765C21.1823 21.8979 20.6016 22.1889 20.4231 22.7264L19 27.0101L17.5041 22.7008C17.3185 22.1659 16.7343 21.8829 16.1992 22.0683C15.6642 22.2541 15.3811 22.8383 15.5668 23.3733L17.904 30.1066C17.9048 30.1089 17.9056 30.1112 17.9065 30.1136C18.0736 30.5839 18.5196 30.8984 19.0181 30.8984C19.0208 30.8984 19.0235 30.8984 19.0261 30.8983C19.5279 30.8949 19.9735 30.5734 20.135 30.0984C20.1358 30.0962 20.1365 30.094 20.1373 30.0916L22.3693 23.3729C22.5477 22.8355 22.2568 22.2551 21.7194 22.0765Z" fill="#F4F4F6"/>
        <path d="M21.7195 22.0766C21.1823 21.8981 20.6017 22.189 20.4231 22.7265L19 27.0103L17.5042 22.701C17.5029 22.6974 17.5012 22.6942 17.5 22.6906V28.9428L17.904 30.1067C17.9048 30.1091 17.9056 30.1113 17.9065 30.1137C18.0735 30.584 18.5196 30.8985 19.0181 30.8985C19.0208 30.8985 19.0235 30.8985 19.0261 30.8985C19.5279 30.8951 19.9735 30.5736 20.135 30.0985C20.1357 30.0963 20.1365 30.0941 20.1372 30.0918L22.3693 23.373C22.5478 22.8356 22.2569 22.2552 21.7195 22.0766Z" fill="#E2DFF4"/>
    </g>
    <defs>
        <clipPath id="clip0">
            <rect width="35" height="35" fill="white"/>
        </clipPath>
    </defs>
</svg>
