<svg width="18" height="18" viewBox="0 0 512 512" fill="none" xmlns="http://www.w3.org/2000/svg">
    <path d="M256 0C114.836 0 0 114.836 0 256C0 397.164 114.836 512 256 512C397.164 512 512 397.164 512 256C512 114.836 397.164 0 256 0ZM256 405.332C244.223 405.332 234.668 395.777 234.668 384C234.668 372.223 244.223 362.668 256 362.668C267.777 362.668 277.332 372.223 277.332 384C277.332 395.777 267.777 405.332 256 405.332V405.332ZM289.77 269.695C282.219 273.172 277.332 280.789 277.332 289.09V298.668C277.332 310.441 267.797 320 256 320C244.203 320 234.668 310.441 234.668 298.668V289.09C234.668 264.191 249.301 241.367 271.895 230.934C293.633 220.93 309.332 194.367 309.332 181.332C309.332 151.938 285.418 128 256 128C226.582 128 202.668 151.938 202.668 181.332C202.668 193.109 193.129 202.668 181.332 202.668C169.535 202.668 160 193.109 160 181.332C160 128.406 203.07 85.332 256 85.332C308.93 85.332 352 128.406 352 181.332C352 210.156 326.996 252.523 289.77 269.695Z" fill="#636363"/>
</svg>
