<svg width="19" height="19" viewBox="0 0 19 19" fill="none" xmlns="http://www.w3.org/2000/svg">
    <path d="M16.9643 0H2.03571C0.911419 0 0 0.911419 0 2.03571V16.9643C0 18.0886 0.911419 19 2.03571 19H16.9643C18.0886 19 19 18.0886 19 16.9643V2.03571C19 0.911419 18.0886 0 16.9643 0ZM6.10714 14.9286H4.07143C3.69665 14.9286 3.39284 14.6248 3.39284 14.25C3.39284 13.8752 3.69665 13.5714 4.07143 13.5714H6.10714C6.48192 13.5714 6.78572 13.8752 6.78572 14.25C6.78572 14.6248 6.48192 14.9286 6.10714 14.9286ZM6.10714 10.1786H4.07143C3.69665 10.1786 3.39284 9.87476 3.39284 9.49998C3.39284 9.1252 3.69665 8.8214 4.07143 8.8214H6.10714C6.48192 8.8214 6.78572 9.1252 6.78572 9.49998C6.78572 9.87476 6.48192 10.1786 6.10714 10.1786ZM6.10714 5.42855H4.07143C3.69665 5.42855 3.39284 5.12475 3.39284 4.74997C3.39284 4.37519 3.69665 4.07143 4.07143 4.07143H6.10714C6.48192 4.07143 6.78572 4.37523 6.78572 4.75001C6.78572 5.12479 6.48192 5.42855 6.10714 5.42855ZM14.9286 14.9286H8.82144C8.44666 14.9286 8.14285 14.6248 8.14285 14.25C8.14285 13.8752 8.44666 13.5714 8.82144 13.5714H14.9286C15.3034 13.5714 15.6072 13.8752 15.6072 14.25C15.6072 14.6248 15.3033 14.9286 14.9286 14.9286ZM14.9286 10.1786H8.82144C8.44666 10.1786 8.14285 9.87476 8.14285 9.49998C8.14285 9.1252 8.44666 8.8214 8.82144 8.8214H14.9286C15.3034 8.8214 15.6072 9.1252 15.6072 9.49998C15.6072 9.87476 15.3033 10.1786 14.9286 10.1786ZM14.9286 5.42855H8.82144C8.44666 5.42855 8.14285 5.12475 8.14285 4.74997C8.14285 4.37519 8.44666 4.07139 8.82144 4.07139H14.9286C15.3034 4.07139 15.6072 4.37519 15.6072 4.74997C15.6072 5.12475 15.3033 5.42855 14.9286 5.42855Z" fill="#636363"/>
</svg>
