<svg width="1598" height="867" viewBox="0 0 1598 867" fill="none" xmlns="http://www.w3.org/2000/svg">
<g clip-path="url(#clip0)">
<rect width="1598" height="867" fill="url(#paint0_radial)"/>
<rect width="1598" height="867" fill="url(#paint1_radial)"/>
<g opacity="0.1">
<path fill-rule="evenodd" clip-rule="evenodd" d="M987.478 1152.43C1054.55 1267.72 1005.97 1347.41 1003.45 1443.1C1000.78 1544.91 1054.63 1682.92 972.308 1729.51C888.408 1777.01 730.238 1749.32 582.958 1681.14C448.518 1618.91 365.18 1474.15 235.658 1388.51C78.4583 1284.56 -116.613 1270.45 -239.825 1137.12C-363.545 1003.24 -390.011 848.728 -351.871 752.748C-315.727 661.795 -145.762 693.301 -47.4778 653.087C51.9932 612.398 74.8762 476.354 226.204 516.241C377.304 556.066 511.968 720.996 651.018 837.198C773.358 939.435 919.328 1035.26 987.478 1152.43Z" stroke="#EBF1FF"/>
<path fill-rule="evenodd" clip-rule="evenodd" d="M916.919 1149.81C976.449 1252.17 933.319 1322.92 931.089 1407.87C928.709 1498.26 976.529 1620.78 903.439 1662.15C828.959 1704.32 688.528 1679.74 557.768 1619.21C438.422 1563.96 364.432 1435.44 249.44 1359.41C109.878 1267.12 -63.3055 1254.59 -172.693 1136.22C-282.532 1017.37 -306.028 880.199 -272.167 794.983C-240.079 714.236 -89.1845 742.206 -1.92746 706.506C86.3845 670.374 106.701 549.595 241.049 585.006C375.197 620.362 494.749 766.787 618.198 869.952C726.808 960.717 856.409 1045.79 916.919 1149.81Z" stroke="#EBF1FF"/>
<path fill-rule="evenodd" clip-rule="evenodd" d="M843.989 1147.11C895.749 1236.1 858.249 1297.6 856.309 1371.46C854.239 1450.05 895.809 1556.57 832.269 1592.54C767.519 1629.2 645.429 1607.82 531.749 1555.19C427.986 1507.16 363.66 1395.43 263.687 1329.34C142.352 1249.11 -8.2134 1238.2 -103.313 1135.3C-198.807 1031.97 -219.235 912.705 -189.796 838.625C-161.896 768.423 -30.7114 792.741 45.1496 761.703C121.928 730.29 139.59 625.285 256.392 656.071C373.018 686.81 476.959 814.111 584.279 903.802C678.709 982.713 791.379 1056.68 843.989 1147.11Z" stroke="#EBF1FF"/>
<path fill-rule="evenodd" clip-rule="evenodd" d="M776.379 1144.61C820.929 1221.2 788.659 1274.15 786.989 1337.71C785.209 1405.37 820.989 1497.04 766.299 1528C710.559 1559.56 605.469 1541.15 507.619 1495.86C418.312 1454.52 362.943 1358.35 276.893 1301.44C172.459 1232.4 42.8587 1223.01 -38.9993 1134.44C-121.194 1045.5 -138.777 942.845 -113.441 879.082C-89.4283 818.657 23.4896 839.587 88.7856 812.872C154.872 785.833 170.074 695.452 270.61 721.95C370.998 748.409 460.459 857.981 552.839 935.181C634.119 1003.1 731.099 1066.77 776.379 1144.61Z" stroke="#EBF1FF"/>
<path fill-rule="evenodd" clip-rule="evenodd" d="M705.978 1142C743.018 1205.69 716.188 1249.71 714.798 1302.57C713.318 1358.83 743.068 1435.05 697.588 1460.8C651.248 1487.03 563.868 1471.73 482.498 1434.08C408.236 1399.69 362.198 1319.73 290.643 1272.42C203.802 1215 96.0432 1207.2 27.9742 1133.54C-40.3728 1059.59 -54.9938 974.23 -33.9258 921.209C-13.9588 870.965 79.9352 888.369 134.23 866.151C189.181 843.668 201.822 768.514 285.42 790.549C368.892 812.549 443.286 903.661 520.096 967.854C587.688 1024.34 668.328 1077.28 705.978 1142Z" stroke="#EBF1FF"/>
<path fill-rule="evenodd" clip-rule="evenodd" d="M2107.42 403.827C2154.1 484.072 2120.28 539.537 2118.53 606.137C2116.67 676.994 2154.15 773.048 2096.86 805.476C2038.46 838.537 1928.38 819.268 1825.87 771.81C1732.3 728.501 1674.29 627.747 1584.15 568.142C1474.74 495.794 1338.97 485.97 1253.21 393.169C1167.1 299.989 1148.68 192.451 1175.23 125.649C1200.38 62.3459 1318.68 84.2735 1387.08 56.2851C1456.32 27.965 1472.24 -66.7219 1577.57 -38.9603C1682.73 -11.2421 1776.46 103.549 1873.24 184.426C1958.39 255.583 2059.98 322.28 2107.42 403.827Z" stroke="#EBF1FF"/>
<path fill-rule="evenodd" clip-rule="evenodd" d="M2058.31 402.007C2099.74 473.246 2069.72 522.492 2068.17 581.617C2066.51 644.53 2099.79 729.802 2048.92 758.597C1997.08 787.942 1899.35 770.834 1808.34 728.708C1725.27 690.252 1673.77 600.805 1593.74 547.888C1496.6 483.656 1376.07 474.932 1299.93 392.549C1223.48 309.826 1207.13 214.355 1230.7 155.045C1253.03 98.845 1358.06 118.312 1418.79 93.4648C1480.25 68.317 1494.39 -15.7459 1587.9 8.90032C1681.27 33.5086 1764.47 135.42 1850.4 207.223C1925.99 270.396 2016.19 329.61 2058.31 402.007Z" stroke="#EBF1FF"/>
<path fill-rule="evenodd" clip-rule="evenodd" d="M2007.55 400.127C2043.57 462.062 2017.47 504.868 2016.12 556.275C2014.68 610.972 2043.61 685.11 1999.39 710.145C1954.32 735.659 1869.35 720.782 1790.23 684.152C1718.01 650.721 1673.24 572.959 1603.66 526.956C1519.21 471.115 1414.41 463.528 1348.22 391.904C1281.76 319.985 1267.54 236.98 1288.03 185.42C1307.45 136.559 1398.75 153.484 1451.55 131.882C1504.99 110.019 1517.28 36.9348 1598.58 58.3618C1679.75 79.7562 1752.09 168.358 1826.79 230.783C1892.51 285.705 1970.93 337.186 2007.55 400.127Z" stroke="#EBF1FF"/>
<path fill-rule="evenodd" clip-rule="evenodd" d="M1960.49 398.384C1991.5 451.694 1969.04 488.545 1967.87 532.786C1966.63 579.873 1991.54 643.68 1953.47 665.226C1914.68 687.188 1841.54 674.382 1773.43 642.858C1711.27 614.081 1672.74 547.147 1612.85 507.543C1540.16 459.486 1449.96 452.954 1392.98 391.306C1335.78 329.407 1323.54 257.957 1341.17 213.578C1357.89 171.522 1436.48 186.089 1481.92 167.496C1527.92 148.676 1538.5 85.7709 1608.47 104.214C1678.34 122.629 1740.61 198.891 1804.9 252.623C1861.48 299.897 1928.97 344.208 1960.49 398.384Z" stroke="#EBF1FF"/>
<path fill-rule="evenodd" clip-rule="evenodd" d="M1911.49 396.569C1937.27 440.897 1918.6 471.537 1917.63 508.329C1916.6 547.481 1937.31 600.533 1905.65 618.456C1873.4 636.712 1812.58 626.065 1755.95 599.856C1704.26 575.923 1672.22 520.268 1622.42 487.343C1561.98 447.376 1486.97 441.946 1439.6 390.684C1392.03 339.209 1381.85 279.801 1396.52 242.898C1410.41 207.928 1475.76 220.042 1513.55 204.578C1551.8 188.93 1560.6 136.622 1618.78 151.959C1676.88 167.271 1728.66 230.685 1782.12 275.363C1829.16 314.675 1885.29 351.521 1911.49 396.569Z" stroke="#EBF1FF"/>
</g>
</g>
<defs>
<radialGradient id="paint0_radial" cx="0" cy="0" r="1" gradientUnits="userSpaceOnUse" gradientTransform="translate(826 434) rotate(153.99) scale(853.994 423.238)">
<stop stop-color="#171B1D"/>
<stop offset="1" stop-color="#161A1D"/>
<stop offset="1" stop-color="#252933"/>
</radialGradient>
<radialGradient id="paint1_radial" cx="0" cy="0" r="1" gradientUnits="userSpaceOnUse" gradientTransform="translate(799 433.5) rotate(152.822) scale(710.44 1309.44)">
<stop stop-color="#14171A"/>
<stop offset="1" stop-color="#0E0E0F"/>
</radialGradient>
<clipPath id="clip0">
<rect width="1598" height="867" fill="white"/>
</clipPath>
</defs>
</svg>
