<svg width="1598" height="867" viewBox="0 0 1598 867" fill="none" xmlns="http://www.w3.org/2000/svg">
<g opacity="0.1">
<path fill-rule="evenodd" clip-rule="evenodd" d="M978.478 986.427C1045.55 1101.72 996.968 1181.41 994.448 1277.1C991.778 1378.91 1045.63 1516.92 963.308 1563.51C879.408 1611.01 721.238 1583.32 573.958 1515.14C439.518 1452.91 356.18 1308.15 226.658 1222.51C69.4583 1118.56 -125.613 1104.45 -248.825 971.115C-372.545 837.236 -399.011 682.728 -360.871 586.748C-324.727 495.795 -154.762 527.301 -56.4778 487.087C42.9932 446.398 65.8762 310.354 217.204 350.241C368.304 390.066 502.968 554.996 642.018 671.198C764.358 773.435 910.328 869.263 978.478 986.427Z" stroke="#EBF1FF"/>
<path fill-rule="evenodd" clip-rule="evenodd" d="M907.918 983.813C967.448 1086.17 924.318 1156.92 922.088 1241.87C919.708 1332.26 967.528 1454.78 894.438 1496.15C819.958 1538.32 679.528 1513.74 548.768 1453.21C429.422 1397.96 355.432 1269.44 240.44 1193.41C100.878 1101.12 -72.306 1088.59 -181.694 970.224C-291.533 851.369 -315.029 714.199 -281.168 628.983C-249.08 548.236 -98.185 576.206 -10.9279 540.506C77.384 504.374 97.7 383.595 232.049 419.006C366.196 454.362 485.749 600.787 609.198 703.952C717.808 794.717 847.408 879.795 907.918 983.813Z" stroke="#EBF1FF"/>
<path fill-rule="evenodd" clip-rule="evenodd" d="M834.988 981.112C886.748 1070.1 849.248 1131.6 847.308 1205.46C845.238 1284.05 886.808 1390.57 823.268 1426.54C758.518 1463.2 636.428 1441.82 522.748 1389.19C418.985 1341.16 354.659 1229.43 254.686 1163.34C133.351 1083.11 -17.2139 1072.2 -112.314 969.297C-207.808 865.965 -228.236 746.705 -198.797 672.625C-170.897 602.423 -39.7119 626.741 36.1491 595.703C112.927 564.29 130.589 459.285 247.391 490.071C364.017 520.81 467.958 648.111 575.278 737.802C669.708 816.713 782.378 890.679 834.988 981.112Z" stroke="#EBF1FF"/>
<path fill-rule="evenodd" clip-rule="evenodd" d="M767.378 978.607C811.928 1055.2 779.658 1108.15 777.988 1171.71C776.208 1239.37 811.988 1331.04 757.298 1362C701.558 1393.56 596.468 1375.15 498.618 1329.86C409.311 1288.52 353.942 1192.35 267.892 1135.44C163.458 1066.4 33.8582 1057.01 -47.9998 968.438C-130.195 879.503 -147.778 776.846 -122.442 713.082C-98.4288 652.657 14.4892 673.587 79.7852 646.872C145.871 619.833 161.073 529.452 261.609 555.95C361.997 582.409 451.458 691.981 543.838 769.182C625.118 837.103 722.098 900.769 767.378 978.607Z" stroke="#EBF1FF"/>
<path fill-rule="evenodd" clip-rule="evenodd" d="M696.978 976C734.018 1039.69 707.188 1083.71 705.798 1136.57C704.318 1192.83 734.068 1269.05 688.588 1294.8C642.248 1321.03 554.868 1305.73 473.498 1268.08C399.236 1233.69 353.198 1153.73 281.643 1106.42C194.802 1049 87.0432 1041.2 18.9742 967.544C-49.3728 893.587 -63.9938 808.23 -42.9258 755.209C-22.9588 704.965 70.9352 722.369 125.23 700.151C180.181 677.668 192.822 602.514 276.42 624.549C359.892 646.549 434.286 737.661 511.096 801.854C578.688 858.336 659.328 911.275 696.978 976Z" stroke="#EBF1FF"/>
<path fill-rule="evenodd" clip-rule="evenodd" d="M2098.42 237.827C2145.1 318.072 2111.28 373.537 2109.53 440.137C2107.67 510.994 2145.15 607.048 2087.86 639.476C2029.46 672.537 1919.38 653.268 1816.87 605.81C1723.3 562.501 1665.29 461.747 1575.15 402.142C1465.74 329.794 1329.97 319.97 1244.21 227.169C1158.1 133.989 1139.68 26.4512 1166.23 -40.3512C1191.38 -103.654 1309.68 -81.7265 1378.08 -109.715C1447.32 -138.035 1463.24 -232.722 1568.57 -204.96C1673.73 -177.242 1767.46 -62.4506 1864.24 18.4265C1949.39 89.5833 2050.98 156.28 2098.42 237.827Z" stroke="#EBF1FF"/>
<path fill-rule="evenodd" clip-rule="evenodd" d="M2049.31 236.007C2090.74 307.246 2060.72 356.492 2059.17 415.617C2057.51 478.53 2090.79 563.802 2039.92 592.597C1988.09 621.942 1890.35 604.834 1799.34 562.708C1716.27 524.252 1664.77 434.805 1584.74 381.888C1487.6 317.656 1367.07 308.932 1290.93 226.549C1214.49 143.826 1198.13 48.3551 1221.7 -10.9549C1244.03 -67.155 1349.06 -47.6884 1409.79 -72.5352C1471.25 -97.6831 1485.39 -181.746 1578.9 -157.1C1672.27 -132.491 1755.48 -30.5798 1841.4 41.2233C1916.99 104.396 2007.19 163.61 2049.31 236.007Z" stroke="#EBF1FF"/>
<path fill-rule="evenodd" clip-rule="evenodd" d="M1998.55 234.127C2034.57 296.062 2008.47 338.868 2007.12 390.275C2005.68 444.972 2034.61 519.11 1990.39 544.145C1945.32 569.658 1860.35 554.782 1781.23 518.152C1709.01 484.721 1664.24 406.959 1594.65 360.956C1510.21 305.115 1405.41 297.528 1339.22 225.904C1272.76 153.985 1258.54 70.9794 1279.03 19.4194C1298.45 -29.441 1389.75 -12.5159 1442.55 -34.1181C1495.99 -55.9816 1508.28 -129.065 1589.58 -107.638C1670.75 -86.2439 1743.09 2.35778 1817.79 64.7831C1883.51 119.705 1961.93 171.186 1998.55 234.127Z" stroke="#EBF1FF"/>
<path fill-rule="evenodd" clip-rule="evenodd" d="M1951.49 232.384C1982.5 285.694 1960.04 322.545 1958.87 366.786C1957.64 413.873 1982.54 477.68 1944.47 499.226C1905.68 521.188 1832.54 508.382 1764.43 476.858C1702.27 448.081 1663.74 381.147 1603.85 341.543C1531.16 293.486 1440.96 286.954 1383.98 225.306C1326.78 163.407 1314.54 91.9573 1332.17 47.5778C1348.89 5.52197 1427.48 20.0892 1472.92 1.49563C1518.92 -17.3239 1529.5 -80.2291 1599.47 -61.7865C1669.34 -43.371 1731.61 32.8913 1795.91 86.6232C1852.48 133.897 1919.97 178.208 1951.49 232.384Z" stroke="#EBF1FF"/>
<path fill-rule="evenodd" clip-rule="evenodd" d="M1902.49 230.569C1928.27 274.897 1909.6 305.537 1908.63 342.329C1907.6 381.481 1928.31 434.533 1896.65 452.455C1864.4 470.712 1803.58 460.065 1746.95 433.856C1695.26 409.923 1663.22 354.268 1613.42 321.343C1552.98 281.376 1477.97 275.946 1430.6 224.684C1383.03 173.209 1372.85 113.801 1387.52 76.8983C1401.41 41.9282 1466.76 54.0416 1504.55 38.5778C1542.8 22.9297 1551.6 -29.3778 1609.78 -14.0414C1667.88 1.27051 1719.66 64.6846 1773.12 109.363C1820.16 148.675 1876.29 185.521 1902.49 230.569Z" stroke="#EBF1FF"/>
</g>
</svg>
