<svg width="17" height="17" viewBox="0 0 17 17" fill="none" xmlns="http://www.w3.org/2000/svg">
    <path d="M8.5 0C3.80564 0 0 3.80558 0 8.5C0 13.1944 3.80564 17 8.5 17C13.1944 17 17 13.1944 17 8.5C17 3.80558 13.1944 0 8.5 0ZM11.4378 8.95057L7.18781 11.6068C7.10182 11.6605 7.00403 11.6875 6.90625 11.6875C6.81766 11.6875 6.72895 11.6655 6.64866 11.6208C6.47979 11.5272 6.375 11.3495 6.375 11.1562V5.84375C6.375 5.65051 6.47979 5.4728 6.64866 5.37917C6.81753 5.28501 7.02402 5.29072 7.18781 5.39318L11.4378 8.04943C11.5931 8.14672 11.6875 8.31688 11.6875 8.5C11.6875 8.68312 11.5931 8.85331 11.4378 8.95057Z" fill="#5B76F7"/>
</svg>
