
<svg width="189" height="26" viewBox="0 0 189 26" fill="none" xmlns="http://www.w3.org/2000/svg">
    <rect width="25.0649" height="25.0649" rx="12.5325" fill="white"/>
    <path d="M5.68492 6.71381C5.22802 6.71381 4.92343 7.0184 4.92343 7.4753V13.5673C4.92343 14.0242 5.22802 14.3288 5.68492 14.3288H7.20794V6.71381H5.68492Z" fill="#2B2B39"/>
    <path d="M7.20764 6.71381V14.3288L10.2205 13.5673V7.4753L7.20764 6.71381Z" fill="#2B2B39"/>
    <path d="M17.0278 18.8978H12.4587V25.0649H17.0278V18.8978Z" fill="#2B2B39"/>
    <path d="M23.0437 15.3188C22.8914 10.2929 19.9216 6.71381 16.2664 6.71381H13.068L10.9359 7.4753V13.5673L12.2304 14.8619C12.3827 15.0142 12.4589 15.1665 12.4589 15.3949V18.1363H17.0279V15.2426C17.0279 15.1665 17.0279 15.0142 17.104 14.938L17.5609 14.0242C17.7132 13.7196 17.9417 13.5673 18.2463 13.5673C19.9216 13.6435 21.5207 14.2527 22.7392 15.4711C22.8153 15.6995 23.1199 15.5472 23.0437 15.3188Z" fill="#2B2B39"/>
    <rect width="25.0649" height="25.0649" rx="2" fill="#5971FF"/>
    <path d="M4.19304 6.71381C3.73614 6.71381 3.43155 7.0184 3.43155 7.4753V13.5673C3.43155 14.0242 3.73614 14.3288 4.19304 14.3288H5.71606V6.71381H4.19304Z" fill="white"/>
    <path d="M5.71573 6.71381V14.3288L8.72862 13.5673V7.4753L5.71573 6.71381Z" fill="white"/>
    <path d="M15.5358 18.3511H10.8913V25.065H15.5358V18.3511Z" fill="white"/>
    <path d="M21.5518 15.3188C21.3995 10.2929 18.4296 6.71381 14.7744 6.71381H11.5761L9.44388 7.4753V13.5673L10.7384 14.8619C10.8908 15.0142 10.9669 15.1665 10.9669 15.3949V18.1363H15.5359V15.2426C15.5359 15.1665 15.5359 15.0142 15.6121 14.938L16.069 14.0242C16.2213 13.7196 16.4497 13.5673 16.7543 13.5673C18.4296 13.6435 20.0288 14.2527 21.2472 15.4711C21.4096 15.6656 21.5518 15.5587 21.5518 15.3188Z" fill="white"/>
    <path d="M49.2701 10.618C48.3858 9.53148 47.2935 8.98823 45.9931 8.98823C45.4209 8.98823 44.8877 9.09295 44.3936 9.3024C43.9124 9.51185 43.4963 9.79984 43.1452 10.1664C42.7941 10.5198 42.5145 10.9453 42.3064 11.4427C42.1114 11.9401 42.0139 12.4768 42.0139 13.0528C42.0139 13.6419 42.1114 14.1851 42.3064 14.6826C42.5145 15.18 42.7941 15.612 43.1452 15.9785C43.5093 16.3451 43.9319 16.6331 44.4131 16.8425C44.8942 17.0519 45.4144 17.1567 45.9736 17.1567C47.1959 17.1567 48.2948 16.6331 49.2701 15.5858V20.1413L48.8799 20.2787C48.2948 20.4882 47.7486 20.6387 47.2414 20.7304C46.7343 20.8351 46.2336 20.8874 45.7395 20.8874C44.7252 20.8874 43.7499 20.6976 42.8136 20.318C41.8903 19.9253 41.0711 19.382 40.3558 18.6883C39.6536 17.9814 39.088 17.1501 38.6588 16.1945C38.2297 15.2258 38.0151 14.172 38.0151 13.0332C38.0151 11.8943 38.2232 10.8536 38.6393 9.91111C39.0685 8.9555 39.6341 8.13735 40.3363 7.45665C41.0516 6.76285 41.8773 6.22615 42.8136 5.84652C43.7499 5.45381 44.7317 5.25745 45.759 5.25745C46.3442 5.25745 46.9163 5.3229 47.4755 5.45381C48.0477 5.57162 48.6459 5.76143 49.2701 6.02324V10.618Z" fill="#2B2B39"/>
    <path d="M51.357 10.402H54.8876V12.0514C55.2647 11.4492 55.7264 10.9911 56.2725 10.6769C56.8187 10.3496 57.4559 10.186 58.1841 10.186C58.2751 10.186 58.3727 10.186 58.4767 10.186C58.5937 10.186 58.7238 10.1991 58.8668 10.2253V13.6222C58.3987 13.3866 57.8915 13.2688 57.3454 13.2688C56.5261 13.2688 55.9084 13.5175 55.4923 14.015C55.0892 14.4993 54.8876 15.2127 54.8876 16.1553V20.4751H51.357V10.402Z" fill="#2B2B39"/>
    <path d="M63.9739 10.402V16.0767C63.9739 17.3203 64.5721 17.9421 65.7684 17.9421C66.9648 17.9421 67.563 17.3203 67.563 16.0767V10.402H71.0935V16.764C71.0935 18.1254 70.6449 19.1464 69.7476 19.8271C68.8634 20.5078 67.537 20.8482 65.7684 20.8482C63.9999 20.8482 62.667 20.5078 61.7697 19.8271C60.8854 19.1464 60.4433 18.1254 60.4433 16.764V10.402H63.9739Z" fill="#2B2B39"/>
    <path d="M80.1237 12.9939C79.4735 12.6536 78.8363 12.4834 78.2121 12.4834C77.887 12.4834 77.6205 12.5488 77.4124 12.6797C77.2173 12.8106 77.1198 12.9874 77.1198 13.2099C77.1198 13.3277 77.1328 13.4259 77.1588 13.5044C77.1978 13.5699 77.2694 13.6353 77.3734 13.7008C77.4904 13.7662 77.653 13.8252 77.861 13.8775C78.0821 13.9299 78.3682 13.9953 78.7193 14.0739C79.6946 14.2702 80.4228 14.6237 80.904 15.1342C81.3851 15.6316 81.6257 16.2731 81.6257 17.0585C81.6257 17.6476 81.5086 18.1777 81.2746 18.649C81.0405 19.1202 80.7154 19.5195 80.2993 19.8468C79.8831 20.1609 79.3825 20.4031 78.7973 20.5733C78.2121 20.7565 77.5684 20.8482 76.8662 20.8482C75.5138 20.8482 74.1809 20.462 72.8675 19.6897L74.1549 17.1763C75.1432 17.857 76.0795 18.1974 76.9638 18.1974C77.2889 18.1974 77.5554 18.1254 77.7635 17.9814C77.9716 17.8374 78.0756 17.6541 78.0756 17.4316C78.0756 17.3007 78.0561 17.1959 78.0171 17.1174C77.9911 17.0258 77.9261 16.9472 77.822 16.8818C77.718 16.8032 77.5619 16.7378 77.3539 16.6854C77.1588 16.62 76.8987 16.5545 76.5736 16.4891C75.4813 16.2665 74.7141 15.9393 74.2719 15.5073C73.8428 15.0622 73.6282 14.4535 73.6282 13.6812C73.6282 13.1183 73.7323 12.6143 73.9403 12.1692C74.1484 11.711 74.4475 11.3249 74.8376 11.0107C75.2277 10.6965 75.6959 10.4544 76.242 10.2842C76.8012 10.114 77.4189 10.0289 78.0951 10.0289C79.2004 10.0289 80.2733 10.2449 81.3136 10.6769L80.1237 12.9939Z" fill="#2B2B39"/>
    <path d="M83.4161 4.17749H86.9467V11.6783C87.4278 11.0892 87.9155 10.6965 88.4096 10.5002C88.9038 10.2907 89.4825 10.186 90.1457 10.186C91.407 10.186 92.3563 10.5394 92.9935 11.2463C93.6437 11.9401 93.9688 12.8826 93.9688 14.0739V20.4751H90.4382V15.3895C90.4382 14.8789 90.3992 14.4666 90.3212 14.1524C90.2432 13.8382 90.1131 13.5961 89.9311 13.4259C89.619 13.151 89.2419 13.0135 88.7997 13.0135C88.2016 13.0135 87.7399 13.1968 87.4148 13.5633C87.1027 13.9168 86.9467 14.4273 86.9467 15.0949V20.4751H83.4161V4.17749Z" fill="#2B2B39"/>
    <path d="M103.684 13.9757C103.567 13.4783 103.326 13.079 102.962 12.7779C102.598 12.4768 102.156 12.3263 101.636 12.3263C101.09 12.3263 100.641 12.4703 100.29 12.7583C99.9519 13.0463 99.7373 13.4521 99.6463 13.9757H103.684ZM99.5487 16.0374C99.5487 17.569 100.264 18.3348 101.694 18.3348C102.462 18.3348 103.04 18.0206 103.43 17.3923H106.844C106.155 19.6962 104.432 20.8482 101.675 20.8482C100.83 20.8482 100.056 20.7238 99.3537 20.4751C98.6515 20.2133 98.0468 19.8468 97.5396 19.3755C97.0455 18.9042 96.6619 18.3414 96.3888 17.6868C96.1157 17.0323 95.9791 16.2992 95.9791 15.4876C95.9791 14.6498 96.1092 13.8971 96.3693 13.2295C96.6293 12.5488 97 11.9729 97.4811 11.5016C97.9623 11.0303 98.5409 10.6704 99.2171 10.4216C99.9063 10.1598 100.68 10.0289 101.538 10.0289C102.384 10.0289 103.144 10.1598 103.821 10.4216C104.497 10.6704 105.069 11.0369 105.537 11.5212C106.005 12.0056 106.363 12.6012 106.61 13.3081C106.857 14.0019 106.98 14.7873 106.98 15.6644V16.0374H99.5487Z" fill="#2B2B39"/>
    <path d="M108.999 10.402H112.529V12.0514C112.906 11.4492 113.368 10.9911 113.914 10.6769C114.46 10.3496 115.097 10.186 115.826 10.186C115.917 10.186 116.014 10.186 116.118 10.186C116.235 10.186 116.365 10.1991 116.508 10.2253V13.6222C116.04 13.3866 115.533 13.2688 114.987 13.2688C114.168 13.2688 113.55 13.5175 113.134 14.015C112.731 14.4993 112.529 15.2127 112.529 16.1553V20.4751H108.999V10.402Z" fill="#2B2B39"/>
    <path d="M116.69 18.5901C116.69 18.2759 116.749 17.9814 116.866 17.7065C116.983 17.4185 117.145 17.1698 117.353 16.9603C117.561 16.7509 117.802 16.5872 118.075 16.4694C118.361 16.3516 118.66 16.2927 118.972 16.2927C119.284 16.2927 119.577 16.3516 119.85 16.4694C120.136 16.5872 120.383 16.7509 120.591 16.9603C120.799 17.1698 120.962 17.4185 121.079 17.7065C121.196 17.9814 121.255 18.2759 121.255 18.5901C121.255 18.9042 121.196 19.2053 121.079 19.4933C120.962 19.7682 120.799 20.0104 120.591 20.2198C120.383 20.4293 120.136 20.5929 119.85 20.7107C119.577 20.8285 119.284 20.8874 118.972 20.8874C118.66 20.8874 118.361 20.8285 118.075 20.7107C117.802 20.5929 117.561 20.4293 117.353 20.2198C117.145 20.0104 116.983 19.7682 116.866 19.4933C116.749 19.2053 116.69 18.9042 116.69 18.5901Z" fill="#2B2B39"/>
    <path d="M126.772 15.4091C126.772 15.7364 126.83 16.044 126.947 16.332C127.064 16.6069 127.22 16.849 127.415 17.0585C127.623 17.2679 127.864 17.4316 128.137 17.5494C128.423 17.6672 128.729 17.7261 129.054 17.7261C129.366 17.7261 129.659 17.6672 129.932 17.5494C130.218 17.4316 130.458 17.2679 130.653 17.0585C130.861 16.849 131.024 16.6069 131.141 16.332C131.271 16.0571 131.336 15.7625 131.336 15.4484C131.336 15.1342 131.271 14.8397 131.141 14.5648C131.024 14.2768 130.861 14.0281 130.653 13.8186C130.458 13.6092 130.218 13.4455 129.932 13.3277C129.659 13.2099 129.366 13.151 129.054 13.151C128.742 13.151 128.443 13.2099 128.157 13.3277C127.884 13.4455 127.643 13.6092 127.435 13.8186C127.24 14.0281 127.077 14.2702 126.947 14.5451C126.83 14.8069 126.772 15.0949 126.772 15.4091ZM131.219 4.17749H134.769V20.4751H131.219V19.3559C130.465 20.3115 129.444 20.7893 128.157 20.7893C127.428 20.7893 126.759 20.6518 126.148 20.3769C125.536 20.102 125.003 19.7224 124.548 19.2381C124.093 18.7537 123.735 18.1843 123.475 17.5297C123.228 16.8752 123.105 16.1683 123.105 15.4091C123.105 14.6891 123.222 14.0084 123.456 13.367C123.703 12.7125 124.047 12.143 124.49 11.6587C124.932 11.1743 125.458 10.7947 126.069 10.5198C126.694 10.2318 127.376 10.0878 128.118 10.0878C129.366 10.0878 130.4 10.5264 131.219 11.4034V4.17749Z" fill="#2B2B39"/>
    <path d="M144.486 13.9757C144.369 13.4783 144.129 13.079 143.765 12.7779C143.401 12.4768 142.958 12.3263 142.438 12.3263C141.892 12.3263 141.444 12.4703 141.092 12.7583C140.754 13.0463 140.54 13.4521 140.449 13.9757H144.486ZM140.351 16.0374C140.351 17.569 141.066 18.3348 142.497 18.3348C143.264 18.3348 143.843 18.0206 144.233 17.3923H147.646C146.957 19.6962 145.234 20.8482 142.477 20.8482C141.632 20.8482 140.858 20.7238 140.156 20.4751C139.454 20.2133 138.849 19.8468 138.342 19.3755C137.848 18.9042 137.464 18.3414 137.191 17.6868C136.918 17.0323 136.782 16.2992 136.782 15.4876C136.782 14.6498 136.912 13.8971 137.172 13.2295C137.432 12.5488 137.802 11.9729 138.284 11.5016C138.765 11.0303 139.343 10.6704 140.02 10.4216C140.709 10.1598 141.483 10.0289 142.341 10.0289C143.186 10.0289 143.947 10.1598 144.623 10.4216C145.299 10.6704 145.871 11.0369 146.34 11.5212C146.808 12.0056 147.165 12.6012 147.412 13.3081C147.659 14.0019 147.783 14.7873 147.783 15.6644V16.0374H140.351Z" fill="#2B2B39"/>
    <path d="M152.095 10.402L154.474 15.5662L156.893 10.402H160.833L155.625 20.4751H153.265L148.115 10.402H152.095Z" fill="#2B2B39"/>
    <path d="M171.38 17.888C171.38 16.997 170.874 16.315 170.027 16.04C170.423 15.699 170.632 15.237 170.632 14.676C170.632 13.554 169.763 12.74 168.454 12.74H165.913V20H169.026C170.445 20 171.38 19.109 171.38 17.888ZM168.344 13.763C169.059 13.763 169.466 14.126 169.466 14.731C169.466 15.336 169.059 15.721 168.344 15.721H167.057V13.763H168.344ZM170.203 17.855C170.203 18.548 169.73 18.977 168.927 18.977H167.057V16.722H168.927C169.73 16.722 170.203 17.162 170.203 17.855ZM177.498 17.679C177.553 17.426 177.586 17.184 177.586 16.953C177.586 15.545 176.519 14.478 175.089 14.478C173.56 14.445 172.262 15.754 172.295 17.305C172.295 18.9 173.549 20.121 175.199 20.121C176.024 20.121 176.739 19.835 177.355 19.252L176.805 18.46C176.321 18.889 175.793 19.098 175.232 19.098C174.308 19.098 173.615 18.559 173.472 17.679H177.498ZM173.494 16.777C173.67 15.974 174.286 15.457 175.045 15.457C175.804 15.457 176.42 15.952 176.431 16.777H173.494ZM182.121 19.021C181.802 19.054 181.571 19.076 181.406 19.076C180.702 19.076 180.339 18.834 180.339 18.141V15.6H181.945V14.599H180.339V13.18H179.173V14.599H178.293V15.6H179.173V18.24C179.173 19.505 179.921 20.121 181.164 20.121C181.439 20.121 181.758 20.077 182.121 20V19.021ZM187.582 16.733C187.582 15.281 186.702 14.478 185.371 14.478C184.436 14.478 183.633 14.852 183.094 15.633L183.765 16.315C184.216 15.776 184.656 15.512 185.261 15.512C185.998 15.512 186.416 15.919 186.416 16.667V17.019H184.887C183.666 17.019 182.896 17.624 182.896 18.559C182.896 19.494 183.644 20.121 184.777 20.121C185.514 20.121 186.108 19.868 186.504 19.395V20H187.582V16.733ZM186.416 17.954C186.416 18.691 185.8 19.23 185.019 19.23C184.458 19.23 184.073 18.966 184.073 18.515C184.073 18.075 184.414 17.855 185.03 17.855H186.416V17.954Z" fill="#2B2B39"/>
</svg>
