<svg width="16" height="15" viewBox="0 0 16 15" fill="none" xmlns="http://www.w3.org/2000/svg">
    <g clip-path="url(#clip0)">
        <path d="M3.51071 13.7423C3.54596 14.4484 4.12707 14.9999 4.8385 14.9999H10.2286C10.94 14.9999 11.5212 14.4484 11.5564 13.7423L12.3328 4.85278H2.73431L3.51071 13.7423ZM8.863 7.05867H9.7493V11.9116H8.863V7.05867ZM7.09041 7.05867H7.97671V11.9116H7.09041V7.05867ZM5.31781 7.05867H6.20411V11.9116H5.31781V7.05867Z" fill="#D94467"/>
        <path d="M9.74926 2.20588V1.32353C9.74926 0.593765 9.1529 0 8.41982 0H6.64722C5.91419 0 5.31777 0.593765 5.31777 1.32353V2.20588H1.77258V3.97059H13.2945V2.20588H9.74926ZM6.20407 2.20588V1.32353C6.20407 1.08026 6.4029 0.882353 6.64722 0.882353H8.41982C8.6642 0.882353 8.86297 1.08026 8.86297 1.32353V2.20588H6.20407Z" fill="#D94467"/>
    </g>
    <defs>
        <clipPath id="clip0">
            <rect width="15.0671" height="15" fill="white"/>
        </clipPath>
    </defs>
</svg>
