<svg width="13" height="13" viewBox="0 0 13 13" fill="none" xmlns="http://www.w3.org/2000/svg">
    <path d="M6.42432 7.26172C6.845 7.26172 7.18604 6.92069 7.18604 6.5C7.18604 6.07931 6.845 5.73828 6.42432 5.73828C6.00363 5.73828 5.6626 6.07931 5.6626 6.5C5.6626 6.92069 6.00363 7.26172 6.42432 7.26172Z" fill="#656565"/>
    <path d="M6.42432 9.95312C8.32836 9.95312 9.87744 8.40404 9.87744 6.5C9.87744 4.59596 8.32836 3.04688 6.42432 3.04688C4.52027 3.04688 2.97119 4.59596 2.97119 6.5C2.97119 8.40404 4.52027 9.95312 6.42432 9.95312ZM6.42432 4.97656C7.26434 4.97656 7.94775 5.65998 7.94775 6.5C7.94775 7.34002 7.26434 8.02344 6.42432 8.02344C5.58429 8.02344 4.90088 7.34002 4.90088 6.5C4.90088 5.65998 5.58429 4.97656 6.42432 4.97656Z" fill="#656565"/>
    <path d="M12.1628 6.5C12.1628 6.37564 12.1587 6.2499 12.1506 6.12445L12.8491 5.48519L12.8087 5.27592C12.7576 5.01125 12.6896 4.74731 12.6064 4.49145C12.5233 4.23559 12.4232 3.98204 12.3089 3.73778L12.2186 3.54476L11.2781 3.4382C11.1444 3.22677 10.9965 3.02346 10.8362 2.83085L11.0256 1.90275L10.87 1.75721C10.6732 1.57318 10.4629 1.39963 10.2452 1.24142C10.0275 1.08324 9.79743 0.936914 9.5615 0.806559L9.37496 0.703498L8.55225 1.16967C8.31926 1.07664 8.07965 0.998842 7.83639 0.937244L7.44468 0.0762734L7.23318 0.0500449C6.96561 0.016834 6.69355 0 6.42454 0C6.15553 0 5.88346 0.016834 5.6159 0.0500449L5.40439 0.0762734L5.01269 0.937244C4.76943 0.998867 4.52984 1.07664 4.29683 1.16967L3.47412 0.703498L3.28758 0.806559C3.05165 0.936914 2.82161 1.08321 2.60394 1.2414C2.38613 1.39963 2.17593 1.57318 1.97912 1.75721L1.8235 1.90275L2.01292 2.83085C1.85258 3.02352 1.70465 3.22677 1.57099 3.43822L0.6305 3.54476L0.54016 3.73778C0.425902 3.98194 0.325813 4.23551 0.242658 4.4914C0.159479 4.74739 0.0914316 5.01135 0.0403711 5.27597L0 5.48519L0.698521 6.12445C0.690371 6.2499 0.686258 6.37564 0.686258 6.5C0.686258 6.62439 0.690371 6.75007 0.698521 6.87555L2.53948e-05 7.51481L0.0403965 7.72403C0.091457 7.98868 0.159479 8.25261 0.242684 8.50858C0.325812 8.76449 0.425928 9.01804 0.540186 9.26222L0.630525 9.45524L1.57102 9.56178C1.7047 9.77323 1.8526 9.97648 2.01294 10.1691L1.82353 11.0973L1.97915 11.2428C2.17595 11.4268 2.38616 11.6004 2.60394 11.7586C2.82163 11.9168 3.05167 12.0631 3.2876 12.1934L3.47415 12.2965L4.29686 11.8303C4.52989 11.9234 4.76945 12.0012 5.01272 12.0628L5.40442 12.9237L5.6159 12.9499C5.88339 12.9832 6.15542 13 6.42454 13C6.69365 13 6.96569 12.9832 7.23321 12.9499L7.44468 12.9237L7.83639 12.0628C8.07965 12.0011 8.31929 11.9234 8.55225 11.8303L9.37496 12.2965L9.5615 12.1934C9.79743 12.0631 10.0275 11.9168 10.2451 11.7586C10.4629 11.6004 10.6732 11.4268 10.87 11.2428L11.0256 11.0973L10.8362 10.1691C10.9965 9.97653 11.1444 9.77323 11.2781 9.5618L12.2186 9.45524L12.3089 9.26222C12.4232 9.01799 12.5233 8.76444 12.6064 8.5086C12.6895 8.25269 12.7576 7.98873 12.8087 7.72408L12.8491 7.51484L12.1506 6.87555C12.1587 6.75007 12.1628 6.62439 12.1628 6.5ZM2.2097 6.5C2.2097 4.17595 4.10048 2.28516 6.42454 2.28516C8.74859 2.28516 10.6394 4.17595 10.6394 6.5C10.6394 8.82405 8.74859 10.7148 6.42454 10.7148C4.10048 10.7148 2.2097 8.82405 2.2097 6.5Z" fill="#656565"/>
</svg>
