<svg width="18" height="18" viewBox="0 0 18 18" fill="none" xmlns="http://www.w3.org/2000/svg">
    <path d="M9 0C4.0371 0 0 4.03748 0 9C0 13.9625 4.0371 18 9 18C13.9629 18 18 13.9625 18 9C18 4.03748 13.9629 0 9 0ZM12.5779 9.31532L7.3279 12.6903C7.26638 12.7302 7.19532 12.75 7.12501 12.75C7.06349 12.75 7.00123 12.7346 6.94557 12.7042C6.82471 12.6383 6.75 12.5123 6.75 12.375V5.625C6.75 5.48768 6.82471 5.36168 6.94557 5.29576C7.06423 5.23058 7.2129 5.23459 7.3279 5.30968L12.5779 8.68468C12.6848 8.75352 12.75 8.87256 12.75 9C12.75 9.12744 12.6848 9.24645 12.5779 9.31532Z" fill="black"/>
</svg>
