<svg width="15" height="15" viewBox="0 0 15 15" fill="none" xmlns="http://www.w3.org/2000/svg">
    <path d="M7.49998 0C3.35786 0 0 3.35786 0 7.49998C0 11.6421 3.35786 15 7.49998 15C11.6421 15 15 11.6421 15 7.49998C14.9956 3.35971 11.6403 0.00442592 7.49998 0ZM10.6585 7.73895C10.6066 7.8431 10.5222 7.92754 10.418 7.97946V7.98213L6.13231 10.125C5.86764 10.2572 5.54589 10.1499 5.41362 9.88524C5.37601 9.81 5.35665 9.72694 5.35712 9.64285V5.35715C5.35699 5.06127 5.59671 4.82133 5.89259 4.82117C5.9758 4.82114 6.05789 4.84048 6.13231 4.87768L10.418 7.02054C10.6828 7.1525 10.7905 7.47415 10.6585 7.73895Z" fill="#222121"/>
</svg>
