<svg width="28" height="28" viewBox="0 0 28 28" fill="none" xmlns="http://www.w3.org/2000/svg">
    <path d="M7.875 12.8333C7.392 12.8333 7 13.2253 7 13.7083V20.125C7 20.608 7.392 21 7.875 21C8.358 21 8.75 20.608 8.75 20.125V13.7083C8.75 13.2253 8.358 12.8333 7.875 12.8333Z" fill="#5286FF"/>
    <path d="M13.7084 12.8333H10.7917C10.3087 12.8333 9.91669 13.2253 9.91669 13.7083V15.75C9.91669 16.8758 10.8325 17.7917 11.9584 17.7917H12.5417C12.7027 17.7917 12.8334 17.9223 12.8334 18.0833V18.9583C12.8334 19.1193 12.7027 19.25 12.5417 19.25H10.7917C10.3087 19.25 9.91669 19.642 9.91669 20.125C9.91669 20.608 10.3087 21 10.7917 21H12.5417C13.6675 21 14.5834 20.0842 14.5834 18.9583V18.0833C14.5834 16.9575 13.6675 16.0417 12.5417 16.0417H11.9584C11.7974 16.0417 11.6667 15.911 11.6667 15.75V14.5833H13.7084C14.1914 14.5833 14.5834 14.1913 14.5834 13.7083C14.5834 13.2253 14.1914 12.8333 13.7084 12.8333Z" fill="#5286FF"/>
    <path d="M18.375 16.0417H16.625C16.142 16.0417 15.75 16.4337 15.75 16.9167C15.75 17.3997 16.142 17.7917 16.625 17.7917H18.375C18.536 17.7917 18.6667 17.9223 18.6667 18.0833V18.9583C18.6667 19.1193 18.536 19.25 18.375 19.25H16.625C16.142 19.25 15.75 19.642 15.75 20.125C15.75 20.608 16.142 21 16.625 21H18.375C19.5008 21 20.4167 20.0842 20.4167 18.9583V18.0833C20.4167 16.9575 19.5008 16.0417 18.375 16.0417Z" fill="#5286FF"/>
    <path d="M18.375 12.8333H16.625C16.142 12.8333 15.75 13.2253 15.75 13.7083C15.75 14.1913 16.142 14.5833 16.625 14.5833H18.375C18.536 14.5833 18.6667 14.714 18.6667 14.875V15.75C18.6667 15.911 18.536 16.0416 18.375 16.0416H16.625C16.142 16.0416 15.75 16.4336 15.75 16.9166C15.75 17.3996 16.142 17.7916 16.625 17.7916H18.375C19.5008 17.7916 20.4167 16.8758 20.4167 15.75V14.875C20.4167 13.7491 19.5008 12.8333 18.375 12.8333Z" fill="#5286FF"/>
    <path d="M24.5 28H3.5C1.57033 28 0 26.4297 0 24.5V3.5C0 1.57033 1.57033 0 3.5 0H24.5C26.4297 0 28 1.57033 28 3.5V24.5C28 26.4297 26.4297 28 24.5 28ZM23.3333 3.5H10.5C10.5 2.856 9.97733 2.33333 9.33333 2.33333C8.68933 2.33333 8.16667 2.856 8.16667 3.5H4.66667C4.02267 3.5 3.5 4.02267 3.5 4.66667C3.5 5.31067 4.02267 5.83333 4.66667 5.83333H8.16667C8.16667 6.47733 8.68933 7 9.33333 7C9.97733 7 10.5 6.47733 10.5 5.83333H23.3333C23.9773 5.83333 24.5 5.31067 24.5 4.66667C24.5 4.02267 23.9773 3.5 23.3333 3.5ZM25.6667 9.33333H2.33333V24.5C2.33333 25.1428 2.85717 25.6667 3.5 25.6667H24.5C25.1428 25.6667 25.6667 25.1428 25.6667 24.5V9.33333Z" fill="#5286FF"/>
</svg>
