<svg width="129" height="79" viewBox="0 0 129 79" fill="none" xmlns="http://www.w3.org/2000/svg">
<mask id="mask0" mask-type="alpha" maskUnits="userSpaceOnUse" x="0" y="0" width="129" height="79">
<rect width="129" height="79" fill="#C4C4C4"/>
</mask>
<g mask="url(#mask0)">
<rect x="75" y="28" width="93" height="94" rx="46.5" fill="#6583FE"/>
<rect x="75" y="28" width="93" height="94" rx="46.5" stroke="#6583FE"/>
<path d="M8.88 3.2H11.68V13H8.88V9.388H6.5V13H3.7V3.2H6.5V6.672H8.88V3.2ZM17.7129 6H20.3029V13H17.7129V12.37C17.2649 12.9207 16.6396 13.196 15.8369 13.196C14.8942 13.196 14.1242 12.846 13.5269 12.146C12.9296 11.446 12.6309 10.564 12.6309 9.5C12.6309 8.436 12.9296 7.554 13.5269 6.854C14.1242 6.154 14.8942 5.804 15.8369 5.804C16.6396 5.804 17.2649 6.07933 17.7129 6.63V6ZM15.5569 10.438C15.7902 10.69 16.0936 10.816 16.4669 10.816C16.8402 10.816 17.1389 10.69 17.3629 10.438C17.5962 10.186 17.7129 9.87333 17.7129 9.5C17.7129 9.12667 17.5962 8.814 17.3629 8.562C17.1389 8.31 16.8402 8.184 16.4669 8.184C16.0936 8.184 15.7902 8.31 15.5569 8.562C15.3329 8.814 15.2209 9.12667 15.2209 9.5C15.2209 9.87333 15.3329 10.186 15.5569 10.438ZM25.9791 6H28.8491L26.1891 13H23.5291L20.8691 6H23.7391L24.8591 9.5L25.9791 6ZM31.368 10.382C31.592 10.8487 32.068 11.082 32.796 11.082C33.2254 11.082 33.622 10.9327 33.986 10.634L35.68 12.062C34.98 12.818 33.9907 13.196 32.712 13.196C31.5174 13.196 30.556 12.8507 29.828 12.16C29.1094 11.46 28.75 10.5827 28.75 9.528C28.75 8.464 29.1 7.57733 29.8 6.868C30.5094 6.15867 31.4007 5.804 32.474 5.804C33.538 5.804 34.4107 6.154 35.092 6.854C35.7827 7.54467 36.128 8.41733 36.128 9.472C36.128 9.78 36.0907 10.0833 36.016 10.382H31.368ZM31.326 8.716H33.678C33.5194 8.156 33.1414 7.876 32.544 7.876C31.9374 7.876 31.5314 8.156 31.326 8.716ZM43.7548 5.3C43.4188 5.272 43.1528 5.32333 42.9568 5.454C42.7701 5.58467 42.6768 5.76667 42.6768 6H43.7548V8.464H42.6768V13H40.0868V8.464H39.2748V6H40.0868C40.0868 4.992 40.3994 4.222 41.0248 3.69C41.6501 3.14867 42.5601 2.91067 43.7548 2.976V5.3ZM46.5575 10.382C46.7815 10.8487 47.2575 11.082 47.9855 11.082C48.4148 11.082 48.8115 10.9327 49.1755 10.634L50.8695 12.062C50.1695 12.818 49.1802 13.196 47.9015 13.196C46.7068 13.196 45.7455 12.8507 45.0175 12.16C44.2988 11.46 43.9395 10.5827 43.9395 9.528C43.9395 8.464 44.2895 7.57733 44.9895 6.868C45.6988 6.15867 46.5902 5.804 47.6635 5.804C48.7275 5.804 49.6002 6.154 50.2815 6.854C50.9722 7.54467 51.3175 8.41733 51.3175 9.472C51.3175 9.78 51.2802 10.0833 51.2055 10.382H46.5575ZM46.5155 8.716H48.8675C48.7088 8.156 48.3308 7.876 47.7335 7.876C47.1268 7.876 46.7208 8.156 46.5155 8.716ZM54.4188 10.382C54.6428 10.8487 55.1188 11.082 55.8468 11.082C56.2762 11.082 56.6728 10.9327 57.0368 10.634L58.7308 12.062C58.0308 12.818 57.0415 13.196 55.7628 13.196C54.5682 13.196 53.6068 12.8507 52.8788 12.16C52.1602 11.46 51.8008 10.5827 51.8008 9.528C51.8008 8.464 52.1508 7.57733 52.8508 6.868C53.5602 6.15867 54.4515 5.804 55.5248 5.804C56.5888 5.804 57.4615 6.154 58.1428 6.854C58.8335 7.54467 59.1788 8.41733 59.1788 9.472C59.1788 9.78 59.1415 10.0833 59.0668 10.382H54.4188ZM54.3768 8.716H56.7288C56.5702 8.156 56.1922 7.876 55.5948 7.876C54.9882 7.876 54.5822 8.156 54.3768 8.716ZM64.7442 3.2H67.3342V13H64.7442V12.37C64.2962 12.9207 63.6708 13.196 62.8682 13.196C61.9255 13.196 61.1555 12.846 60.5582 12.146C59.9608 11.446 59.6622 10.564 59.6622 9.5C59.6622 8.436 59.9608 7.554 60.5582 6.854C61.1555 6.154 61.9255 5.804 62.8682 5.804C63.6708 5.804 64.2962 6.07933 64.7442 6.63V3.2ZM62.5882 10.438C62.8215 10.69 63.1248 10.816 63.4982 10.816C63.8715 10.816 64.1702 10.69 64.3942 10.438C64.6275 10.186 64.7442 9.87333 64.7442 9.5C64.7442 9.12667 64.6275 8.814 64.3942 8.562C64.1702 8.31 63.8715 8.184 63.4982 8.184C63.1248 8.184 62.8215 8.31 62.5882 8.562C62.3642 8.814 62.2522 9.12667 62.2522 9.5C62.2522 9.87333 62.3642 10.186 62.5882 10.438ZM72.9264 5.804C73.8691 5.804 74.6391 6.154 75.2364 6.854C75.8337 7.554 76.1324 8.436 76.1324 9.5C76.1324 10.564 75.8337 11.446 75.2364 12.146C74.6391 12.846 73.8691 13.196 72.9264 13.196C72.1237 13.196 71.4984 12.9207 71.0504 12.37V13H68.4604V3.2H71.0504V6.63C71.4984 6.07933 72.1237 5.804 72.9264 5.804ZM71.3864 10.438C71.6197 10.69 71.9231 10.816 72.2964 10.816C72.6697 10.816 72.9684 10.69 73.1924 10.438C73.4257 10.186 73.5424 9.87333 73.5424 9.5C73.5424 9.12667 73.4257 8.814 73.1924 8.562C72.9684 8.31 72.6697 8.184 72.2964 8.184C71.9231 8.184 71.6197 8.31 71.3864 8.562C71.1624 8.814 71.0504 9.12667 71.0504 9.5C71.0504 9.87333 71.1624 10.186 71.3864 10.438ZM81.7246 6H84.3146V13H81.7246V12.37C81.2766 12.9207 80.6513 13.196 79.8486 13.196C78.906 13.196 78.136 12.846 77.5386 12.146C76.9413 11.446 76.6426 10.564 76.6426 9.5C76.6426 8.436 76.9413 7.554 77.5386 6.854C78.136 6.154 78.906 5.804 79.8486 5.804C80.6513 5.804 81.2766 6.07933 81.7246 6.63V6ZM79.5686 10.438C79.802 10.69 80.1053 10.816 80.4786 10.816C80.852 10.816 81.1506 10.69 81.3746 10.438C81.608 10.186 81.7246 9.87333 81.7246 9.5C81.7246 9.12667 81.608 8.814 81.3746 8.562C81.1506 8.31 80.852 8.184 80.4786 8.184C80.1053 8.184 79.802 8.31 79.5686 8.562C79.3446 8.814 79.2326 9.12667 79.2326 9.5C79.2326 9.87333 79.3446 10.186 79.5686 10.438ZM88.8435 13.196C87.7702 13.196 86.8788 12.846 86.1695 12.146C85.4602 11.4367 85.1055 10.5547 85.1055 9.5C85.1055 8.44533 85.4602 7.568 86.1695 6.868C86.8788 6.15867 87.7702 5.804 88.8435 5.804C89.5342 5.804 90.1642 5.972 90.7335 6.308C91.3122 6.63467 91.7555 7.078 92.0635 7.638L89.8795 8.884C89.6462 8.492 89.3008 8.296 88.8435 8.296C88.5168 8.296 88.2415 8.41267 88.0175 8.646C87.8028 8.87 87.6955 9.15467 87.6955 9.5C87.6955 9.84533 87.8028 10.1347 88.0175 10.368C88.2415 10.592 88.5168 10.704 88.8435 10.704C89.3288 10.704 89.6742 10.5033 89.8795 10.102L92.0635 11.362C91.7555 11.9313 91.3122 12.3793 90.7335 12.706C90.1642 13.0327 89.5342 13.196 88.8435 13.196ZM99.8406 13H96.9706L95.2906 10.2V13H92.7006V3.2H95.2906V8.716L96.7606 6H99.7006L97.5726 9.5L99.8406 13Z" fill="#6583FE"/>
<g clip-path="url(#clip0)">
<path d="M62.099 58.0404C61.8864 58.0404 61.6717 57.999 61.4668 57.914C60.8511 57.6586 60.4534 57.0632 60.4534 56.3973V52.6271C56.8598 52.6271 53.4814 51.2278 50.9404 48.6867C48.3993 46.1457 47 42.7672 47 39.1737V37.8613C47 37.4082 47.3672 37.041 47.8203 37.041C48.2734 37.041 48.6406 37.4082 48.6406 37.8613V39.1737C48.6406 45.6873 53.9398 50.9865 60.4533 50.9865C61.358 50.9865 62.0941 51.7224 62.0941 52.6271V56.3973V56.3978C62.0954 56.3985 62.097 56.3991 62.0984 56.3996C62.0989 56.3989 62.0995 56.3985 62.1002 56.3978L66.1181 52.3884C66.2737 52.2331 66.3594 52.0265 66.3594 51.8068C66.3594 51.587 66.2737 51.3805 66.1181 51.2252L62.1002 47.2156C62.0995 47.215 62.0989 47.2145 62.0982 47.2139C62.097 47.2143 62.0954 47.215 62.0941 47.2156V47.2161V48.1152C62.0941 48.5683 61.7267 48.9355 61.2738 48.9355C60.8207 48.9355 60.4534 48.5683 60.4534 48.1152V47.2161C60.4534 46.5502 60.8511 45.9549 61.4668 45.6995C62.0832 45.4438 62.7867 45.583 63.259 46.0544L67.2769 50.0638C67.7432 50.5291 68 51.1481 68 51.8068C68 52.4655 67.7432 53.0844 67.2769 53.5496L63.259 57.5591C62.9439 57.8737 62.5255 58.0404 62.099 58.0404V58.0404Z" fill="#2F2F2F"/>
</g>
<path d="M6.612 29.156C5.828 29.156 5.156 28.972 4.596 28.604C4.044 28.236 3.656 27.732 3.432 27.092L4.392 26.54C4.72 27.556 5.468 28.064 6.636 28.064C7.212 28.064 7.652 27.948 7.956 27.716C8.26 27.476 8.412 27.16 8.412 26.768C8.412 26.368 8.26 26.068 7.956 25.868C7.652 25.668 7.144 25.456 6.432 25.232C6.08 25.12 5.812 25.032 5.628 24.968C5.444 24.896 5.212 24.792 4.932 24.656C4.66 24.512 4.456 24.368 4.32 24.224C4.184 24.072 4.06 23.876 3.948 23.636C3.844 23.396 3.792 23.124 3.792 22.82C3.792 22.092 4.048 21.516 4.56 21.092C5.072 20.66 5.696 20.444 6.432 20.444C7.096 20.444 7.672 20.612 8.16 20.948C8.656 21.284 9.028 21.728 9.276 22.28L8.34 22.82C7.98 21.956 7.344 21.524 6.432 21.524C5.976 21.524 5.608 21.636 5.328 21.86C5.048 22.084 4.908 22.388 4.908 22.772C4.908 23.14 5.04 23.42 5.304 23.612C5.568 23.804 6.024 24.004 6.672 24.212C6.904 24.284 7.068 24.336 7.164 24.368C7.26 24.4 7.408 24.456 7.608 24.536C7.816 24.616 7.968 24.68 8.064 24.728C8.16 24.776 8.288 24.844 8.448 24.932C8.616 25.02 8.74 25.104 8.82 25.184C8.9 25.264 8.992 25.364 9.096 25.484C9.208 25.596 9.288 25.712 9.336 25.832C9.384 25.952 9.424 26.092 9.456 26.252C9.496 26.404 9.516 26.568 9.516 26.744C9.516 27.48 9.248 28.068 8.712 28.508C8.176 28.94 7.476 29.156 6.612 29.156ZM13.7175 22.844C14.4215 22.844 14.9855 23.068 15.4095 23.516C15.8335 23.956 16.0455 24.556 16.0455 25.316V29H15.0015V25.376C15.0015 24.888 14.8695 24.512 14.6055 24.248C14.3415 23.976 13.9775 23.84 13.5135 23.84C12.9935 23.84 12.5735 24.004 12.2535 24.332C11.9335 24.652 11.7735 25.148 11.7735 25.82V29H10.7295V20.6H11.7735V23.864C12.1975 23.184 12.8455 22.844 13.7175 22.844ZM22.4709 23H23.5149V29H22.4709V27.968C21.9509 28.76 21.1949 29.156 20.2029 29.156C19.3629 29.156 18.6469 28.852 18.0549 28.244C17.4629 27.628 17.1669 26.88 17.1669 26C17.1669 25.12 17.4629 24.376 18.0549 23.768C18.6469 23.152 19.3629 22.844 20.2029 22.844C21.1949 22.844 21.9509 23.24 22.4709 24.032V23ZM20.3349 28.148C20.9429 28.148 21.4509 27.944 21.8589 27.536C22.2669 27.12 22.4709 26.608 22.4709 26C22.4709 25.392 22.2669 24.884 21.8589 24.476C21.4509 24.06 20.9429 23.852 20.3349 23.852C19.7349 23.852 19.2309 24.06 18.8229 24.476C18.4149 24.884 18.2109 25.392 18.2109 26C18.2109 26.608 18.4149 27.12 18.8229 27.536C19.2309 27.944 19.7349 28.148 20.3349 28.148ZM26.1407 24.008C26.4847 23.264 27.1087 22.892 28.0127 22.892V23.984C27.5007 23.96 27.0607 24.096 26.6927 24.392C26.3247 24.688 26.1407 25.164 26.1407 25.82V29H25.0967V23H26.1407V24.008ZM29.4381 26.48C29.5421 27.016 29.7861 27.432 30.1701 27.728C30.5621 28.024 31.0421 28.172 31.6101 28.172C32.4021 28.172 32.9781 27.88 33.3381 27.296L34.2261 27.8C33.6421 28.704 32.7621 29.156 31.5861 29.156C30.6341 29.156 29.8581 28.86 29.2581 28.268C28.6661 27.668 28.3701 26.912 28.3701 26C28.3701 25.096 28.6621 24.344 29.2461 23.744C29.8301 23.144 30.5861 22.844 31.5141 22.844C32.3941 22.844 33.1101 23.156 33.6621 23.78C34.2221 24.396 34.5021 25.14 34.5021 26.012C34.5021 26.164 34.4901 26.32 34.4661 26.48H29.4381ZM31.5141 23.828C30.9541 23.828 30.4901 23.988 30.1221 24.308C29.7541 24.62 29.5261 25.04 29.4381 25.568H33.4461C33.3581 25 33.1341 24.568 32.7741 24.272C32.4141 23.976 31.9941 23.828 31.5141 23.828ZM45.7702 23H46.8622L45.0022 29H43.9342L42.5302 24.56L41.1262 29H40.0582L38.1982 23H39.2902L40.6102 27.56L42.0262 23H43.0342L44.4502 27.572L45.7702 23ZM48.4645 21.908C48.2645 21.908 48.0965 21.84 47.9605 21.704C47.8245 21.568 47.7565 21.404 47.7565 21.212C47.7565 21.02 47.8245 20.856 47.9605 20.72C48.0965 20.576 48.2645 20.504 48.4645 20.504C48.6565 20.504 48.8205 20.576 48.9565 20.72C49.0925 20.856 49.1605 21.02 49.1605 21.212C49.1605 21.404 49.0925 21.568 48.9565 21.704C48.8205 21.84 48.6565 21.908 48.4645 21.908ZM47.9365 29V23H48.9805V29H47.9365ZM53.8373 24.008H52.2413V27.26C52.2413 27.556 52.2973 27.768 52.4093 27.896C52.5293 28.016 52.7093 28.08 52.9492 28.088C53.1892 28.088 53.4853 28.08 53.8373 28.064V29C52.9253 29.12 52.2573 29.048 51.8333 28.784C51.4093 28.512 51.1973 28.004 51.1973 27.26V24.008H50.0093V23H51.1973V21.632L52.2413 21.32V23H53.8373V24.008ZM58.0613 22.844C58.7653 22.844 59.3293 23.068 59.7533 23.516C60.1773 23.956 60.3893 24.556 60.3893 25.316V29H59.3453V25.376C59.3453 24.888 59.2133 24.512 58.9493 24.248C58.6853 23.976 58.3213 23.84 57.8573 23.84C57.3373 23.84 56.9173 24.004 56.5973 24.332C56.2773 24.652 56.1173 25.148 56.1173 25.82V29H55.0732V20.6H56.1173V23.864C56.5413 23.184 57.1893 22.844 58.0613 22.844ZM68.9867 23H70.0307V29H68.9867V28.136C68.5627 28.816 67.9147 29.156 67.0427 29.156C66.3387 29.156 65.7747 28.936 65.3507 28.496C64.9267 28.048 64.7147 27.444 64.7147 26.684V23H65.7587V26.624C65.7587 27.112 65.8907 27.492 66.1547 27.764C66.4187 28.028 66.7827 28.16 67.2467 28.16C67.7667 28.16 68.1867 28 68.5067 27.68C68.8267 27.352 68.9867 26.852 68.9867 26.18V23ZM72.5084 24.62C72.5084 24.852 72.6244 25.04 72.8564 25.184C73.0884 25.32 73.3684 25.432 73.6964 25.52C74.0244 25.6 74.3524 25.696 74.6804 25.808C75.0084 25.912 75.2884 26.096 75.5204 26.36C75.7524 26.616 75.8684 26.948 75.8684 27.356C75.8684 27.9 75.6564 28.336 75.2324 28.664C74.8164 28.992 74.2804 29.156 73.6244 29.156C73.0404 29.156 72.5404 29.028 72.1244 28.772C71.7084 28.516 71.4124 28.176 71.2364 27.752L72.1364 27.236C72.2324 27.524 72.4124 27.752 72.6764 27.92C72.9404 28.088 73.2564 28.172 73.6244 28.172C73.9684 28.172 74.2524 28.108 74.4764 27.98C74.7004 27.844 74.8124 27.636 74.8124 27.356C74.8124 27.124 74.6964 26.94 74.4644 26.804C74.2324 26.66 73.9524 26.548 73.6244 26.468C73.2964 26.38 72.9684 26.28 72.6404 26.168C72.3124 26.056 72.0324 25.872 71.8004 25.616C71.5684 25.36 71.4524 25.032 71.4524 24.632C71.4524 24.112 71.6524 23.684 72.0524 23.348C72.4604 23.012 72.9684 22.844 73.5764 22.844C74.0644 22.844 74.4964 22.956 74.8724 23.18C75.2564 23.396 75.5444 23.7 75.7364 24.092L74.8604 24.584C74.6444 24.072 74.2164 23.816 73.5764 23.816C73.2804 23.816 73.0284 23.888 72.8204 24.032C72.6124 24.168 72.5084 24.364 72.5084 24.62Z" fill="#2F2F2F"/>
<g clip-path="url(#clip1)">
<path d="M111.031 52.8603L109.122 53.3538C109.208 54.0319 109.335 54.7258 109.517 55.4297C109.699 56.1336 109.924 56.8022 110.177 57.4371L112.086 56.9436C113.212 56.6525 113.891 55.5 113.6 54.3741C113.309 53.2483 112.157 52.5692 111.031 52.8603Z" fill="white"/>
<path d="M111.994 45.351C110.012 45.8633 108.895 48.55 109.004 51.9323L110.679 51.4992C112.555 51.0142 114.476 52.1461 114.961 54.0223C115.446 55.8985 114.315 57.8197 112.438 58.3047L110.763 58.7378C112.307 61.7489 114.586 63.5577 116.568 63.0455C119.199 62.3653 120.353 57.8412 119.09 52.9551C117.827 48.0689 114.625 44.6709 111.994 45.351Z" fill="white"/>
<path d="M107.042 62.8923L107.148 63.3025C107.245 63.678 107.019 64.062 106.643 64.159L105.963 64.335L105.622 63.0166C105.409 63.053 105.195 63.0814 104.985 63.1357C103.731 63.4598 102.888 63.6776 101.527 64.0294L102.759 68.7933C103.05 69.9191 104.202 70.5982 105.328 70.3071C106.454 70.0161 107.133 68.8635 106.842 67.7377L106.314 65.6961L106.995 65.5201C108.079 65.2398 108.74 64.1599 108.528 63.0747C108.037 62.971 107.541 62.9 107.042 62.8923Z" fill="white"/>
<path d="M108.446 47.7492L106.471 49.7699C105.371 50.8941 103.937 51.725 102.415 52.165C101.281 53.649 100.802 55.6062 101.305 57.5526C101.808 59.499 103.176 60.9787 104.887 61.7272C106.431 61.3749 108.089 61.4062 109.596 61.8566L112.303 62.6668C110.564 61.4464 108.965 58.9121 108.156 55.7816C107.347 52.6511 107.517 49.6592 108.446 47.7492Z" fill="white"/>
<path d="M100.455 52.6901L99.6244 52.9049C96.9975 53.584 95.2895 56.189 95.7938 58.7015C96.3728 61.5365 99.1832 63.1834 101.856 62.4924L102.918 62.2179C101.504 61.2013 100.413 59.7198 99.944 57.9045C99.4747 56.0892 99.7106 54.2648 100.455 52.6901Z" fill="white"/>
</g>
</g>
<defs>
<clipPath id="clip0">
<rect width="21" height="21" fill="white" transform="translate(47 37)"/>
</clipPath>
<clipPath id="clip1">
<rect width="24" height="24" fill="white" transform="translate(93.3784 49.3853) rotate(-14.4942)"/>
</clipPath>
</defs>
</svg>
