<svg width="28" height="28" viewBox="0 0 28 28" fill="none" xmlns="http://www.w3.org/2000/svg">
    <path d="M0.557669 12.1334L3.5 9.38703V2.33453C3.5 1.69053 4.02267 1.16786 4.66667 1.16786H8.16667C8.81067 1.16786 9.33333 1.69053 9.33333 2.33453V3.93053L13.2032 0.31503C13.6523 -0.102636 14.3477 -0.103803 14.7957 0.31503L27.4715 12.1614C27.8122 12.502 28 12.9489 28 13.4179C28 14.3827 27.2148 15.1679 26.25 15.1679H24.5V25.0845C24.5 26.6922 23.191 28.0012 21.5833 28.0012H6.41667C4.809 28.0012 3.5 26.6922 3.5 25.0845V15.1679H1.75C0.785168 15.1679 0 14.3827 0 13.4179C0 12.9489 0.187836 12.502 0.557669 12.1334ZM7.875 19.2512H10.5875L12.0832 21.7432C12.474 22.393 13.4482 22.2717 13.6698 21.5507L15.4093 15.897L16.7405 18.2269C16.8957 18.4999 17.1862 18.6679 17.5 18.6679H20.125C20.608 18.6679 21 18.2759 21 17.7929C21 17.3099 20.608 16.9179 20.125 16.9179H18.0075L15.9262 13.2755C15.5447 12.607 14.553 12.726 14.3302 13.4517L12.5743 19.1602L11.8335 17.9259C11.676 17.6622 11.3913 17.5012 11.0833 17.5012H7.875C7.392 17.5012 7 17.8932 7 18.3762C7 18.8592 7.392 19.2512 7.875 19.2512Z" fill="#FB4359"/>
</svg>
