<svg width="19" height="18" viewBox="0 0 19 18" fill="none" xmlns="http://www.w3.org/2000/svg">
    <path d="M18.3032 5.62549H9.5003C7.53289 5.62366 5.9364 7.13313 5.93443 8.997C5.93384 9.57592 6.09043 10.1453 6.38919 10.6503L1.98773 3.49557C5.19358 -0.435247 11.156 -1.15971 15.3052 1.8774C16.6377 2.85277 17.6725 4.14636 18.3032 5.62549Z" fill="#F44336"/>
    <path d="M19 9.00034C18.9956 13.969 14.745 17.9958 9.50037 17.9999C9.10317 18.0013 8.70638 17.9763 8.31293 17.925L12.5877 10.6878C13.5675 9.07192 12.9835 7.00971 11.2815 6.07547C10.7427 5.77993 10.1309 5.62465 9.50828 5.62549H18.3033C18.7656 6.69665 19.0023 7.84312 19 9.00034Z" fill="#FFC107"/>
    <path d="M12.5877 10.6878L8.31294 17.925H8.30504C3.10298 17.3023 -0.581294 12.8024 0.0759579 7.87412C0.288696 6.27898 0.94888 4.76701 1.98782 3.49561L6.38928 10.6503L6.41303 10.6878C7.39456 12.3032 9.57249 12.8588 11.2776 11.929C11.8223 11.632 12.2743 11.2038 12.5877 10.6878Z" fill="#4CAF50"/>
    <path d="M12.5876 10.6877C11.6061 12.303 9.42818 12.8587 7.72308 11.9289C7.17845 11.6319 6.72644 11.2036 6.41291 10.6877L6.38917 10.6502C5.4273 9.02423 6.03891 6.96743 7.75517 6.05619C8.28826 5.77316 8.88922 5.62481 9.50028 5.62537H9.50818C10.1308 5.62453 10.7426 5.7798 11.2814 6.07535C12.9834 7.00962 13.5674 9.07183 12.5876 10.6877Z" fill="#F44336"/>
    <path d="M12.5876 10.6877C11.6061 12.303 9.42818 12.8587 7.72308 11.9289C7.17845 11.6319 6.72644 11.2036 6.41291 10.6877L6.38917 10.6502C5.4273 9.02423 6.03891 6.96743 7.75517 6.05619C8.28826 5.77316 8.88922 5.62481 9.50028 5.62537H9.50818C10.1308 5.62453 10.7426 5.7798 11.2814 6.07535C12.9834 7.00962 13.5674 9.07183 12.5876 10.6877Z" fill="#2196F3"/>
    <path d="M9.48688 12.7503C8.79676 12.7502 8.1188 12.5779 7.52125 12.2508C6.91874 11.9206 6.41834 11.4463 6.07019 10.8754C4.97719 9.08184 5.62583 6.78849 7.51899 5.75301C8.12136 5.42354 8.80477 5.25026 9.50035 5.25061C11.6864 5.24899 13.4599 6.92657 13.4616 8.99753C13.4621 9.65675 13.2792 10.3044 12.9313 10.8754C12.2179 12.0372 10.9057 12.7515 9.48688 12.7503ZM9.50744 6.00057C8.37146 5.99484 7.31976 6.56761 6.75335 7.50051C5.87894 8.93693 6.39923 10.773 7.91545 11.6013C9.43167 12.4297 11.3697 11.9368 12.2441 10.5004C13.1185 9.06559 12.5996 7.23091 11.0851 6.40249C10.6056 6.14024 10.0619 6.00166 9.50822 6.0006H9.50744V6.00057Z" fill="#FAFAFA"/>
</svg>
