<svg width="19" height="18" viewBox="0 0 19 18" fill="none"
     xmlns="http://www.w3.org/2000/svg">
    <path d="M9.5 18C14.7467 18 19 13.9706 19 9C19 4.02944 14.7467 0 9.5 0C4.25329 0 0 4.02944 0 9C0 13.9706 4.25329 18 9.5 18Z" fill="#1DA2F8"/>
    <path d="M9.50001 1.33211C9.43603 1.33211 9.38416 1.28296 9.38416 1.22235V0.720109C9.38416 0.6595 9.43603 0.610352 9.50001 0.610352C9.56399 0.610352 9.61586 0.6595 9.61586 0.720109V1.22235C9.61586 1.28296 9.56399 1.33211 9.50001 1.33211Z" fill="#F2F2F2"/>
    <path d="M9.50001 17.3897C9.43603 17.3897 9.38416 17.3406 9.38416 17.28V16.7777C9.38416 16.7171 9.43603 16.668 9.50001 16.668C9.56399 16.668 9.61586 16.7171 9.61586 16.7777V17.28C9.61586 17.3406 9.56399 17.3897 9.50001 17.3897Z" fill="#F2F2F2"/>
    <path d="M8.0743 1.45034C8.01908 1.45034 7.97021 1.41286 7.9603 1.3596L7.86823 0.864985C7.85713 0.80529 7.89922 0.748337 7.96219 0.73786C8.02539 0.727454 8.08536 0.767216 8.09642 0.826911L8.18849 1.32152C8.19958 1.38122 8.1575 1.43817 8.09452 1.44865C8.0877 1.44974 8.08098 1.45034 8.0743 1.45034Z" fill="#F2F2F2"/>
    <path d="M11.0177 17.264C10.9624 17.264 10.9136 17.2265 10.9037 17.1732L10.8116 16.6786C10.8005 16.6189 10.8426 16.562 10.9055 16.5515C10.9687 16.5409 11.0287 16.5808 11.0398 16.6405L11.1318 17.1351C11.1429 17.1948 11.1009 17.2518 11.0379 17.2622C11.0311 17.2634 11.0243 17.264 11.0177 17.264Z" fill="#F2F2F2"/>
    <path d="M6.6922 1.80111C6.64489 1.80111 6.60047 1.77341 6.58336 1.72887L6.40201 1.25693C6.38019 1.19994 6.41117 1.13697 6.47129 1.11623C6.53122 1.0956 6.59791 1.12485 6.61973 1.18183L6.80104 1.65377C6.82294 1.71076 6.79191 1.77372 6.7318 1.79447C6.71873 1.79897 6.70537 1.80111 6.6922 1.80111Z" fill="#F2F2F2"/>
    <path d="M12.4893 16.8904C12.442 16.8904 12.3976 16.8627 12.3805 16.8181L12.1992 16.3462C12.1773 16.2892 12.2083 16.2262 12.2684 16.2055C12.3283 16.1848 12.395 16.2141 12.4168 16.2711L12.5982 16.743C12.62 16.8 12.589 16.863 12.5289 16.8837C12.5158 16.8882 12.5025 16.8904 12.4893 16.8904Z" fill="#F2F2F2"/>
    <path d="M5.39521 2.37417C5.35517 2.37417 5.31625 2.35448 5.29476 2.31925L5.02969 1.8843C4.99774 1.83181 5.01666 1.7647 5.0721 1.73439C5.12743 1.70395 5.19835 1.72205 5.23037 1.77454L5.49545 2.20949C5.5274 2.26198 5.50847 2.3291 5.45303 2.3594C5.43485 2.36942 5.41488 2.37417 5.39521 2.37417Z" fill="#F2F2F2"/>
    <path d="M13.8702 16.2804C13.8301 16.2804 13.7912 16.2607 13.7697 16.2255L13.5047 15.7905C13.4727 15.7381 13.4916 15.6709 13.5471 15.6406C13.6024 15.6102 13.6733 15.6283 13.7054 15.6808L13.9704 16.1157C14.0024 16.1682 13.9834 16.2353 13.928 16.2656C13.9098 16.2757 13.8899 16.2804 13.8702 16.2804Z" fill="#F2F2F2"/>
    <path d="M4.22293 3.15171C4.1899 3.15171 4.15702 3.13839 4.13412 3.11251L3.79335 2.7278C3.7522 2.68136 3.75862 2.61213 3.80767 2.57315C3.85662 2.53423 3.92973 2.54024 3.97088 2.58668L4.31166 2.9714C4.35281 3.01784 4.34639 3.08706 4.29733 3.12605C4.27566 3.14331 4.24924 3.15171 4.22293 3.15171Z" fill="#F2F2F2"/>
    <path d="M15.118 15.4526C15.085 15.4526 15.0521 15.4393 15.0292 15.4134L14.6885 15.0287C14.6473 14.9822 14.6538 14.913 14.7028 14.874C14.7518 14.8352 14.8249 14.8411 14.866 14.8876L15.2067 15.2723C15.2479 15.3187 15.2415 15.3879 15.1924 15.4269C15.1708 15.4442 15.1443 15.4526 15.118 15.4526Z" fill="#F2F2F2"/>
    <path d="M3.21096 4.11036C3.18469 4.11036 3.15823 4.10196 3.1366 4.08469L2.73051 3.76185C2.68145 3.72286 2.67507 3.65368 2.71619 3.6072C2.75734 3.56072 2.83045 3.55475 2.87939 3.59367L3.28548 3.91651C3.33454 3.95549 3.34092 4.02468 3.2998 4.07116C3.27687 4.097 3.24399 4.11036 3.21096 4.11036Z" fill="#F2F2F2"/>
    <path d="M16.1952 14.432C16.1689 14.432 16.1425 14.4236 16.1208 14.4064L15.7147 14.0835C15.6657 14.0445 15.6593 13.9753 15.7004 13.9289C15.7416 13.8824 15.8146 13.8764 15.8637 13.9153L16.2697 14.2382C16.3187 14.2772 16.3251 14.3463 16.284 14.3928C16.2611 14.4187 16.2282 14.432 16.1952 14.432Z" fill="#F2F2F2"/>
    <path d="M2.39006 5.22092C2.37043 5.22092 2.3505 5.21617 2.33225 5.20619L1.87313 4.95507C1.81769 4.92476 1.79876 4.85765 1.83071 4.80516C1.86274 4.7527 1.93339 4.7346 1.98898 4.76501L2.4481 5.01613C2.50354 5.04644 2.52247 5.11355 2.49052 5.16604C2.46907 5.20123 2.43014 5.22092 2.39006 5.22092Z" fill="#F2F2F2"/>
    <path d="M17.0689 13.2498C17.0492 13.2498 17.0293 13.245 17.011 13.235L16.552 12.9839C16.4965 12.9536 16.4776 12.8865 16.5095 12.834C16.5415 12.7815 16.6124 12.7634 16.6678 12.7939L17.1269 13.045C17.1823 13.0753 17.2013 13.1424 17.1693 13.1949C17.1478 13.2301 17.1089 13.2498 17.0689 13.2498Z" fill="#F2F2F2"/>
    <path d="M1.78545 6.44968C1.77227 6.44968 1.75891 6.44753 1.74585 6.44303L1.24766 6.27126C1.1875 6.25052 1.15652 6.18755 1.17841 6.13056C1.20023 6.07358 1.26688 6.04433 1.32685 6.06496L1.82504 6.23674C1.8852 6.25748 1.91618 6.32044 1.89429 6.37743C1.87718 6.42197 1.83276 6.44968 1.78545 6.44968Z" fill="#F2F2F2"/>
    <path d="M17.7129 11.9417C17.6997 11.9417 17.6864 11.9396 17.6732 11.9351L17.1751 11.7633C17.115 11.7426 17.084 11.6796 17.1059 11.6226C17.1277 11.5656 17.1942 11.5364 17.2544 11.557L17.7526 11.7288C17.8127 11.7495 17.8436 11.8125 17.8217 11.8695C17.8046 11.9141 17.7601 11.9417 17.7129 11.9417Z" fill="#F2F2F2"/>
    <path d="M1.41515 7.75926C1.40847 7.75926 1.40172 7.7587 1.39493 7.75758L0.872837 7.67035C0.809825 7.65981 0.76778 7.60289 0.778876 7.54323C0.789971 7.48357 0.849792 7.44374 0.9131 7.45418L1.43519 7.5414C1.4982 7.55195 1.54025 7.60886 1.52915 7.66852C1.51924 7.72179 1.47037 7.75926 1.41515 7.75926Z" fill="#F2F2F2"/>
    <path d="M18.1073 10.5477C18.1006 10.5477 18.0938 10.5472 18.087 10.546L17.565 10.4588C17.502 10.4483 17.4599 10.3913 17.471 10.3317C17.4821 10.272 17.5419 10.2322 17.6052 10.2426L18.1273 10.3299C18.1903 10.3404 18.2324 10.3973 18.2213 10.457C18.2114 10.5102 18.1625 10.5477 18.1073 10.5477Z" fill="#F2F2F2"/>
    <path d="M1.29025 9.10977H0.760143C0.696166 9.10977 0.644287 9.06062 0.644287 9.00002C0.644287 8.93941 0.696166 8.89026 0.760143 8.89026H1.29025C1.35423 8.89026 1.40611 8.93941 1.40611 9.00002C1.40611 9.06062 1.35423 9.10977 1.29025 9.10977Z" fill="#F2F2F2"/>
    <path d="M18.24 9.10977H17.7098C17.6459 9.10977 17.594 9.06062 17.594 9.00002C17.594 8.93941 17.6459 8.89026 17.7098 8.89026H18.24C18.304 8.89026 18.3559 8.93941 18.3559 9.00002C18.3559 9.06062 18.304 9.10977 18.24 9.10977Z" fill="#F2F2F2"/>
    <path d="M0.892876 10.5476C0.837657 10.5476 0.788784 10.5101 0.778876 10.4569C0.76778 10.3972 0.809825 10.3402 0.872837 10.3297L1.39493 10.2425C1.45816 10.2321 1.51809 10.2718 1.52915 10.3316C1.54025 10.3912 1.4982 10.4482 1.43519 10.4587L0.9131 10.5459C0.906272 10.547 0.899518 10.5476 0.892876 10.5476Z" fill="#F2F2F2"/>
    <path d="M17.585 7.75926C17.5298 7.75926 17.4809 7.72179 17.471 7.66853C17.4599 7.60887 17.502 7.55188 17.565 7.5414L18.0871 7.45418C18.1502 7.44374 18.2102 7.4835 18.2213 7.54323C18.2324 7.60289 18.1903 7.65988 18.1273 7.67036L17.6053 7.75758C17.5984 7.7587 17.5917 7.75926 17.585 7.75926Z" fill="#F2F2F2"/>
    <path d="M1.28713 11.9417C1.23981 11.9417 1.19539 11.914 1.17829 11.8695C1.15639 11.8125 1.18741 11.7495 1.24753 11.7288L1.74572 11.557C1.80566 11.5364 1.87234 11.5657 1.89416 11.6226C1.91606 11.6796 1.88503 11.7426 1.82492 11.7633L1.32672 11.9351C1.3137 11.9396 1.30034 11.9417 1.28713 11.9417Z" fill="#F2F2F2"/>
    <path d="M17.2147 6.44967C17.1674 6.44967 17.123 6.42197 17.1059 6.37743C17.084 6.32044 17.115 6.25747 17.1751 6.23673L17.6732 6.06496C17.7335 6.04432 17.7999 6.07361 17.8217 6.13056C17.8436 6.18755 17.8126 6.25051 17.7526 6.27126L17.2544 6.44303C17.2412 6.44753 17.2279 6.44967 17.2147 6.44967Z" fill="#F2F2F2"/>
    <path d="M1.93117 13.2498C1.89113 13.2498 1.8522 13.2301 1.83071 13.1949C1.79876 13.1424 1.81769 13.0753 1.87313 13.045L2.33225 12.7938C2.38772 12.7634 2.45845 12.7815 2.49052 12.834C2.52247 12.8865 2.50354 12.9536 2.4481 12.9839L1.98898 13.235C1.97073 13.245 1.95083 13.2498 1.93117 13.2498Z" fill="#F2F2F2"/>
    <path d="M16.6101 5.22095C16.5701 5.22095 16.5312 5.20127 16.5097 5.16604C16.4777 5.11355 16.4966 5.04644 16.5521 5.01613L17.0112 4.76501C17.0665 4.7346 17.1374 4.7527 17.1694 4.80516C17.2014 4.85765 17.1825 4.92476 17.127 4.95506L16.6679 5.20619C16.6497 5.21621 16.6297 5.22095 16.6101 5.22095Z" fill="#F2F2F2"/>
    <path d="M2.805 14.432C2.77198 14.432 2.7391 14.4187 2.7162 14.3928C2.67505 14.3464 2.68147 14.2771 2.73053 14.2381L3.13661 13.9153C3.18556 13.8764 3.25867 13.8824 3.29982 13.9288C3.34097 13.9753 3.33455 14.0445 3.2855 14.0835L2.87941 14.4063C2.85774 14.4236 2.83131 14.432 2.805 14.432Z" fill="#F2F2F2"/>
    <path d="M15.7891 4.11035C15.7561 4.11035 15.7232 4.09702 15.7003 4.07115C15.6592 4.0247 15.6656 3.95552 15.7146 3.91649L16.1207 3.59365C16.1697 3.55474 16.2428 3.56075 16.2839 3.60719C16.3251 3.65363 16.3187 3.72282 16.2696 3.76184L15.8636 4.08468C15.8418 4.10191 15.8154 4.11035 15.7891 4.11035Z" fill="#F2F2F2"/>
    <path d="M3.88203 15.4525C3.85575 15.4525 3.82929 15.4441 3.80766 15.4268C3.7586 15.3878 3.75222 15.3187 3.79333 15.2722L4.13411 14.8875C4.1753 14.841 4.24841 14.835 4.29732 14.8739C4.34637 14.9129 4.35276 14.9821 4.31164 15.0286L3.97086 15.4133C3.94793 15.4392 3.91505 15.4525 3.88203 15.4525Z" fill="#F2F2F2"/>
    <path d="M14.7772 3.15171C14.7509 3.15171 14.7244 3.14331 14.7028 3.12605C14.6537 3.08706 14.6474 3.01787 14.6885 2.9714L15.0292 2.58668C15.0704 2.54024 15.1435 2.53423 15.1924 2.57315C15.2415 2.61213 15.2479 2.68136 15.2067 2.7278L14.866 3.11251C14.8431 3.13839 14.8102 3.15171 14.7772 3.15171Z" fill="#F2F2F2"/>
    <path d="M5.12992 16.2804C5.11029 16.2804 5.09036 16.2756 5.0721 16.2657C5.01666 16.2353 4.99774 16.1682 5.02969 16.1157L5.29476 15.6808C5.32678 15.6283 5.39744 15.6102 5.45303 15.6406C5.50847 15.6709 5.5274 15.7381 5.49545 15.7905L5.23037 16.2255C5.20889 16.2607 5.16996 16.2804 5.12992 16.2804Z" fill="#F2F2F2"/>
    <path d="M13.6049 2.37415C13.5853 2.37415 13.5653 2.3694 13.5471 2.35942C13.4916 2.32911 13.4727 2.262 13.5047 2.20951L13.7697 1.77456C13.8018 1.72207 13.8724 1.70393 13.928 1.73441C13.9834 1.76471 14.0024 1.83183 13.9704 1.88431L13.7054 2.31927C13.6839 2.35446 13.6449 2.37415 13.6049 2.37415Z" fill="#F2F2F2"/>
    <path d="M6.5109 16.8904C6.49773 16.8904 6.48437 16.8882 6.47131 16.8837C6.41115 16.863 6.38017 16.8 6.40203 16.7431L6.58338 16.2711C6.60527 16.2141 6.67177 16.1848 6.73182 16.2055C6.79197 16.2263 6.82296 16.2892 6.80106 16.3462L6.61975 16.8181C6.60264 16.8627 6.55818 16.8904 6.5109 16.8904Z" fill="#F2F2F2"/>
    <path d="M12.308 1.80112C12.2948 1.80112 12.2815 1.79897 12.2684 1.79447C12.2083 1.77373 12.1773 1.71076 12.1992 1.65378L12.3805 1.18184C12.4023 1.12481 12.4689 1.0956 12.5289 1.11624C12.5891 1.13698 12.6201 1.19994 12.5982 1.25693L12.4168 1.72887C12.3998 1.77345 12.3553 1.80112 12.308 1.80112Z" fill="#F2F2F2"/>
    <path d="M7.98254 17.2639C7.97586 17.2639 7.9691 17.2634 7.96231 17.2622C7.89934 17.2517 7.85726 17.1948 7.86835 17.1351L7.96042 16.6405C7.97152 16.5808 8.03134 16.541 8.09464 16.5515C8.15762 16.562 8.1997 16.6189 8.18861 16.6786L8.09654 17.1732C8.08659 17.2264 8.03776 17.2639 7.98254 17.2639Z" fill="#F2F2F2"/>
    <path d="M10.9258 1.45032C10.9191 1.45032 10.9123 1.44976 10.9056 1.44863C10.8426 1.43808 10.8005 1.3812 10.8116 1.32151L10.9037 0.826892C10.9148 0.767232 10.9746 0.727505 11.0379 0.737841C11.1009 0.748388 11.1429 0.805271 11.1318 0.864966L11.0398 1.35958C11.0298 1.41281 10.981 1.45032 10.9258 1.45032Z" fill="#F2F2F2"/>
    <path d="M8.85931 2.17343C8.79986 2.17343 8.74928 2.13036 8.74405 2.07327L8.62288 0.761203C8.61732 0.700805 8.66445 0.647578 8.7282 0.642305C8.79203 0.636785 8.84814 0.681715 8.85367 0.742078L8.97483 2.05414C8.98039 2.11454 8.93327 2.16777 8.86951 2.17304C8.8661 2.17329 8.86265 2.17343 8.85931 2.17343Z" fill="#F2F2F2"/>
    <path d="M10.2617 17.3582C10.2022 17.3582 10.1516 17.3152 10.1464 17.2581L10.0252 15.946C10.0197 15.8856 10.0668 15.8324 10.1305 15.8271C10.1947 15.8216 10.2504 15.8665 10.256 15.9269L10.3772 17.239C10.3827 17.2994 10.3356 17.3526 10.2719 17.3579C10.2684 17.3581 10.265 17.3582 10.2617 17.3582Z" fill="#F2F2F2"/>
    <path d="M7.59771 2.38428C7.54653 2.38428 7.49974 2.35194 7.4859 2.30293L7.12605 1.03073C7.1095 0.972161 7.14612 0.912009 7.20795 0.896329C7.26973 0.880333 7.3333 0.915384 7.34982 0.973919L7.70966 2.24612C7.72622 2.30469 7.68959 2.36484 7.62776 2.38052C7.61774 2.38309 7.60761 2.38428 7.59771 2.38428Z" fill="#F2F2F2"/>
    <path d="M11.7621 17.1076C11.7109 17.1076 11.6641 17.0753 11.6503 17.0263L11.2905 15.7541C11.2739 15.6955 11.3106 15.6354 11.3724 15.6197C11.4344 15.6038 11.4977 15.6387 11.5142 15.6973L11.8741 16.9695C11.8906 17.028 11.854 17.0882 11.7922 17.1039C11.782 17.1064 11.772 17.1076 11.7621 17.1076Z" fill="#F2F2F2"/>
    <path d="M6.39404 2.79932C6.35039 2.79932 6.30861 2.77584 6.28898 2.73593L5.70143 1.54224C5.67441 1.48732 5.69946 1.422 5.75742 1.39641C5.81535 1.37082 5.88441 1.39455 5.91139 1.4495L6.49894 2.64319C6.52596 2.69811 6.50091 2.76343 6.44295 2.78902C6.42714 2.79602 6.41044 2.79932 6.39404 2.79932Z" fill="#F2F2F2"/>
    <path d="M13.1938 16.6139C13.1502 16.6139 13.1084 16.5904 13.0887 16.5505L12.5012 15.3568C12.4742 15.3019 12.4993 15.2366 12.5572 15.211C12.6152 15.1854 12.6842 15.2092 12.7112 15.2641L13.2987 16.4578C13.3257 16.5127 13.3007 16.578 13.2427 16.6036C13.2269 16.6106 13.2102 16.6139 13.1938 16.6139Z" fill="#F2F2F2"/>
    <path d="M5.28462 3.40622C5.2481 3.40622 5.21214 3.38991 5.18958 3.35943L4.39214 2.28052C4.35551 2.23084 4.3682 2.16243 4.4206 2.12766C4.47322 2.09282 4.54533 2.10502 4.58199 2.15463L5.37943 3.23354C5.41606 3.28321 5.40337 3.35163 5.35097 3.3864C5.33071 3.39979 5.30751 3.40622 5.28462 3.40622Z" fill="#F2F2F2"/>
    <path d="M14.5132 15.8923C14.4767 15.8923 14.4407 15.876 14.4182 15.8455L13.6208 14.7666C13.5841 14.7169 13.5968 14.6485 13.6492 14.6137C13.7019 14.5789 13.774 14.5911 13.8106 14.6407L14.608 15.7196C14.6446 15.7693 14.6319 15.8377 14.5795 15.8725C14.5593 15.8859 14.5361 15.8923 14.5132 15.8923Z" fill="#F2F2F2"/>
    <path d="M4.30299 4.18637C4.27338 4.18637 4.24369 4.17565 4.22109 4.15424L3.23803 3.22288C3.19279 3.18006 3.19279 3.11052 3.23803 3.06766C3.28327 3.02481 3.35659 3.02481 3.40187 3.06766L4.38493 3.99899C4.43017 4.04181 4.43017 4.11135 4.38493 4.1542C4.36229 4.17561 4.33268 4.18637 4.30299 4.18637Z" fill="#F2F2F2"/>
    <path d="M15.6801 14.9645C15.6505 14.9645 15.6208 14.9538 15.5982 14.9324L14.6151 14.0011C14.5699 13.9583 14.5699 13.8887 14.6151 13.8459C14.6603 13.803 14.7337 13.803 14.7789 13.8459L15.762 14.7772C15.8072 14.82 15.8072 14.8895 15.762 14.9324C15.7394 14.9538 15.7097 14.9645 15.6801 14.9645Z" fill="#F2F2F2"/>
    <path d="M3.4794 5.1161C3.45647 5.1161 3.43331 5.10967 3.41305 5.09624L2.27424 4.3408C2.22184 4.30606 2.20915 4.23762 2.24578 4.18794C2.28255 4.13826 2.35465 4.12621 2.40716 4.16097L3.54598 4.91638C3.59838 4.95111 3.61107 5.01956 3.57444 5.06924C3.55188 5.09975 3.51592 5.1161 3.4794 5.1161Z" fill="#F2F2F2"/>
    <path d="M16.6592 13.859C16.6363 13.859 16.6132 13.8525 16.5929 13.8391L15.454 13.0837C15.4017 13.049 15.389 12.9805 15.4256 12.9308C15.4624 12.8812 15.5344 12.8691 15.587 12.9039L16.7258 13.6593C16.7782 13.694 16.7909 13.7625 16.7543 13.8122C16.7317 13.8426 16.6958 13.859 16.6592 13.859Z" fill="#F2F2F2"/>
    <path d="M2.83893 6.16712C2.82253 6.16712 2.8059 6.16381 2.79006 6.15678L1.53008 5.60019C1.47204 5.57459 1.44699 5.50927 1.47401 5.45436C1.50102 5.39944 1.57001 5.37571 1.62794 5.40127L2.88795 5.95787C2.94599 5.98346 2.97104 6.04878 2.94402 6.10369C2.92435 6.14363 2.88257 6.16712 2.83893 6.16712Z" fill="#F2F2F2"/>
    <path d="M17.4211 12.6091C17.4047 12.6091 17.388 12.6058 17.3722 12.5988L16.1122 12.0422C16.0542 12.0166 16.0291 11.9513 16.0562 11.8964C16.0832 11.8415 16.1522 11.8177 16.2101 11.8433L17.4701 12.3999C17.5281 12.4255 17.5532 12.4908 17.5261 12.5457C17.5065 12.5857 17.4647 12.6091 17.4211 12.6091Z" fill="#F2F2F2"/>
    <path d="M2.40088 7.30781C2.39101 7.30781 2.38092 7.30661 2.37082 7.30401L1.02791 6.96313C0.966047 6.94745 0.92942 6.88726 0.946008 6.82873C0.962521 6.77019 1.02594 6.73528 1.08788 6.75114L2.43079 7.09202C2.49265 7.10769 2.52928 7.16788 2.51269 7.22642C2.49881 7.27543 2.45198 7.30781 2.40088 7.30781Z" fill="#F2F2F2"/>
    <path d="M17.9421 11.2528C17.9323 11.2528 17.9222 11.2516 17.9121 11.249L16.5692 10.9081C16.5073 10.8924 16.4707 10.8322 16.4873 10.7737C16.5038 10.7151 16.5672 10.6803 16.6291 10.6961L17.972 11.037C18.0339 11.0527 18.0705 11.1128 18.054 11.1714C18.0401 11.2205 17.9933 11.2528 17.9421 11.2528Z" fill="#F2F2F2"/>
    <path d="M2.17842 8.50294C2.175 8.50294 2.17163 8.5028 2.16817 8.50249L0.783216 8.3877C0.719499 8.38243 0.67237 8.32924 0.677937 8.2688C0.683466 8.2084 0.739835 8.16358 0.803441 8.16903L2.1884 8.28381C2.25212 8.28909 2.29924 8.34228 2.29368 8.40271C2.28848 8.45988 2.2379 8.50294 2.17842 8.50294Z" fill="#F2F2F2"/>
    <path d="M18.2069 9.83141C18.2036 9.83141 18.2001 9.83127 18.1967 9.83095L16.8117 9.71617C16.7479 9.7109 16.7008 9.65771 16.7064 9.59727C16.712 9.53691 16.7677 9.49219 16.8319 9.4975L18.2168 9.61228C18.2806 9.61756 18.3278 9.67075 18.3222 9.73118C18.3169 9.78838 18.2663 9.83141 18.2069 9.83141Z" fill="#F2F2F2"/>
    <path d="M0.793198 9.83146C0.733749 9.83146 0.683169 9.78839 0.677937 9.7313C0.67237 9.6709 0.719499 9.61767 0.783216 9.6124L2.16817 9.49761C2.23293 9.49234 2.28815 9.53706 2.29368 9.59739C2.29925 9.65779 2.25212 9.71101 2.1884 9.71629L0.803441 9.83107C0.799989 9.83132 0.796538 9.83146 0.793198 9.83146Z" fill="#F2F2F2"/>
    <path d="M16.8218 8.50291C16.7623 8.50291 16.7117 8.45984 16.7065 8.40275C16.7009 8.34235 16.7481 8.28912 16.8118 8.28385L18.1968 8.16906C18.2609 8.16337 18.3167 8.20851 18.3223 8.26884C18.3278 8.32924 18.2807 8.38246 18.217 8.38774L16.832 8.50252C16.8285 8.50277 16.8251 8.50291 16.8218 8.50291Z" fill="#F2F2F2"/>
    <path d="M1.05793 11.2528C1.00675 11.2528 0.959956 11.2205 0.946115 11.1714C0.929564 11.1129 0.966191 11.0527 1.02801 11.037L2.37093 10.6961C2.43257 10.6802 2.49621 10.7152 2.5128 10.7737C2.52935 10.8323 2.49272 10.8924 2.4309 10.9081L1.08798 11.249C1.07796 11.2516 1.0678 11.2528 1.05793 11.2528Z" fill="#F2F2F2"/>
    <path d="M16.5993 7.30777C16.5481 7.30777 16.5013 7.27542 16.4875 7.22642C16.4709 7.16785 16.5076 7.10769 16.5694 7.09201L17.9123 6.75114C17.9741 6.73528 18.0376 6.77019 18.0542 6.82873C18.0707 6.8873 18.0341 6.94745 17.9723 6.96313L16.6294 7.30401C16.6193 7.30654 16.6092 7.30777 16.5993 7.30777Z" fill="#F2F2F2"/>
    <path d="M1.57894 12.6091C1.5353 12.6091 1.49352 12.5857 1.47389 12.5457C1.44687 12.4908 1.47192 12.4255 1.52996 12.3999L2.78997 11.8433C2.84767 11.8177 2.91685 11.8415 2.9439 11.8964C2.97095 11.9513 2.94587 12.0166 2.88783 12.0422L1.62782 12.5988C1.61204 12.6058 1.59534 12.6091 1.57894 12.6091Z" fill="#F2F2F2"/>
    <path d="M16.1612 6.1672C16.1176 6.1672 16.0758 6.14372 16.0562 6.10381C16.0291 6.0489 16.0542 5.98358 16.1122 5.95799L17.3721 5.40139C17.4301 5.37584 17.4991 5.39957 17.5261 5.45448C17.5531 5.50939 17.5281 5.57471 17.4701 5.60031L16.2101 6.1569C16.1943 6.1639 16.1777 6.1672 16.1612 6.1672Z" fill="#F2F2F2"/>
    <path d="M2.34081 13.859C2.3043 13.859 2.26834 13.8427 2.24578 13.8122C2.20915 13.7625 2.22184 13.6941 2.27424 13.6593L3.41305 12.9039C3.46567 12.8691 3.53778 12.8813 3.57444 12.9309C3.61107 12.9805 3.59838 13.049 3.54598 13.0837L2.40716 13.8391C2.38694 13.8525 2.36375 13.859 2.34081 13.859Z" fill="#F2F2F2"/>
    <path d="M15.5206 5.11616C15.4841 5.11616 15.4481 5.09985 15.4256 5.06937C15.389 5.01969 15.4016 4.95128 15.454 4.91651L16.5929 4.16111C16.6455 4.12627 16.7175 4.13847 16.7543 4.18807C16.7909 4.23775 16.7782 4.30616 16.7258 4.34093L15.587 5.09633C15.5667 5.10969 15.5436 5.11616 15.5206 5.11616Z" fill="#F2F2F2"/>
    <path d="M3.32005 14.9645C3.29044 14.9645 3.26075 14.9538 3.23815 14.9324C3.19291 14.8896 3.19291 14.82 3.23815 14.7772L4.22122 13.8459C4.26645 13.803 4.33978 13.803 4.38505 13.8459C4.43029 13.8887 4.43029 13.9582 4.38505 14.0011L3.40199 14.9324C3.37935 14.9538 3.34966 14.9645 3.32005 14.9645Z" fill="#F2F2F2"/>
    <path d="M14.6971 4.18634C14.6675 4.18634 14.6378 4.17561 14.6152 4.1542C14.57 4.11138 14.57 4.04184 14.6152 3.99899L15.5983 3.06766C15.6435 3.02481 15.7169 3.02481 15.7621 3.06766C15.8074 3.11048 15.8074 3.18002 15.7621 3.22288L14.7791 4.1542C14.7564 4.17558 14.7267 4.18634 14.6971 4.18634Z" fill="#F2F2F2"/>
    <path d="M4.48695 15.8923C4.46402 15.8923 4.44086 15.8859 4.4206 15.8724C4.3682 15.8377 4.35551 15.7693 4.39214 15.7196L5.18958 14.6407C5.22636 14.5911 5.29846 14.5789 5.35097 14.6137C5.40337 14.6484 5.41606 14.7169 5.37943 14.7666L4.58199 15.8455C4.55939 15.876 4.5235 15.8923 4.48695 15.8923Z" fill="#F2F2F2"/>
    <path d="M13.7156 3.40613C13.6927 3.40613 13.6695 3.39969 13.6492 3.38626C13.5968 3.35153 13.5841 3.28308 13.6208 3.2334L14.4182 2.15449C14.4549 2.10482 14.5271 2.09276 14.5796 2.12753C14.632 2.16226 14.6447 2.23071 14.608 2.28039L13.8107 3.3593C13.7881 3.38981 13.7521 3.40613 13.7156 3.40613Z" fill="#F2F2F2"/>
    <path d="M5.80639 16.614C5.78999 16.614 5.77332 16.6107 5.75744 16.6037C5.69948 16.5781 5.67439 16.5128 5.70144 16.4579L6.28899 15.2642C6.31597 15.2093 6.38503 15.1855 6.44296 15.2111C6.50093 15.2367 6.52601 15.302 6.49896 15.3569L5.91141 16.5506C5.89181 16.5906 5.85003 16.614 5.80639 16.614Z" fill="#F2F2F2"/>
    <path d="M12.6061 2.79923C12.5897 2.79923 12.573 2.79593 12.5571 2.7889C12.4992 2.7633 12.4741 2.69798 12.5011 2.64307L13.0886 1.44937C13.1156 1.39442 13.1847 1.37069 13.2426 1.39629C13.3006 1.42188 13.3257 1.4872 13.2986 1.54212L12.7111 2.73581C12.6914 2.77578 12.6496 2.79923 12.6061 2.79923Z" fill="#F2F2F2"/>
    <path d="M7.23814 17.1075C7.22827 17.1075 7.21814 17.1063 7.20808 17.1037C7.14622 17.0881 7.1096 17.0279 7.12618 16.9693L7.48603 15.6971C7.50258 15.6387 7.56619 15.6037 7.6279 15.6195C7.68976 15.6352 7.72639 15.6954 7.7098 15.7539L7.34995 17.0261C7.33611 17.0752 7.28928 17.1075 7.23814 17.1075Z" fill="#F2F2F2"/>
    <path d="M11.4024 2.38418C11.3926 2.38418 11.3825 2.38299 11.3724 2.38039C11.3105 2.36471 11.2739 2.30452 11.2905 2.24598L11.6503 0.973785C11.6669 0.915249 11.7301 0.880234 11.7922 0.896195C11.854 0.911874 11.8907 0.972062 11.8741 1.0306L11.5143 2.3028C11.5004 2.3518 11.4536 2.38418 11.4024 2.38418Z" fill="#F2F2F2"/>
    <path d="M8.73841 17.3582C8.73507 17.3582 8.73162 17.358 8.7282 17.3577C8.66445 17.3525 8.61728 17.2992 8.62289 17.2388L8.74405 15.9268C8.74958 15.8664 8.80576 15.8215 8.86952 15.827C8.93327 15.8323 8.98044 15.8855 8.97483 15.9459L8.85367 17.258C8.8484 17.3151 8.79786 17.3582 8.73841 17.3582Z" fill="#F2F2F2"/>
    <path d="M10.1408 2.17338C10.1374 2.17338 10.134 2.17324 10.1305 2.17293C10.0668 2.16765 10.0196 2.11446 10.0252 2.05403L10.1464 0.741961C10.1519 0.681598 10.2075 0.636633 10.2719 0.642188C10.3356 0.647461 10.3828 0.700653 10.3772 0.761086L10.256 2.07315C10.2508 2.13035 10.2002 2.17338 10.1408 2.17338Z" fill="#F2F2F2"/>
    <path d="M10.6478 10.0874L15.767 3.06299L8.35236 7.91276L3.23315 14.9372L10.6478 10.0874Z" fill="#F2F2F2"/>
    <path d="M10.6478 10.0874L15.767 3.06299L3.23315 14.9372L10.6478 10.0874Z" fill="#CCCCCC"/>
    <path d="M10.6477 10.0874L15.7669 3.06299L8.35229 7.91276L10.6477 10.0874Z" fill="#FF525D"/>
    <path d="M10.6477 10.0874L15.7669 3.06299L9.5 9.00007L10.6477 10.0874Z" fill="#EF4152"/>
</svg>
