<svg width="20" height="20" viewBox="0 0 20 20" fill="none" xmlns="http://www.w3.org/2000/svg">
<g clip-path="url(#clip0)">
<path d="M0.0521297 7.67191C0.183054 7.26693 0.542255 6.97929 0.967222 6.94099L6.73977 6.41684L9.02239 1.07414C9.1907 0.682593 9.57401 0.429138 9.9999 0.429138C10.4258 0.429138 10.8091 0.682593 10.9774 1.07506L13.26 6.41684L19.0335 6.94099C19.4577 6.98021 19.816 7.26693 19.9477 7.67191C20.0794 8.07689 19.9577 8.52108 19.6368 8.80109L15.2735 12.6278L16.5601 18.2955C16.6543 18.7122 16.4925 19.143 16.1468 19.3929C15.9609 19.5272 15.7435 19.5956 15.5242 19.5956C15.3351 19.5956 15.1476 19.5446 14.9793 19.4439L9.9999 16.4679L5.02235 19.4439C4.65811 19.663 4.19897 19.643 3.85395 19.3929C3.50803 19.1422 3.34644 18.7113 3.44058 18.2955L4.72724 12.6278L0.363874 8.80185C0.0429745 8.52108 -0.0795574 8.07765 0.0521297 7.67191Z" fill="#FFC107"/>
</g>
<defs>
<clipPath id="clip0">
<rect width="20" height="20" fill="white" transform="matrix(-1 0 0 1 20 0)"/>
</clipPath>
</defs>
</svg>
