<svg width="24" height="24" viewBox="0 0 24 24" fill="none" xmlns="http://www.w3.org/2000/svg">
    <g clip-path="url(#clip0)">
        <path d="M14.8853 2.13412L15.4009 0.974156C15.5562 0.624797 15.3988 0.215625 15.0494 0.0603748C14.7 -0.094969 14.2909 0.0624373 14.1356 0.411844L13.3953 2.07759H10.6028L9.86245 0.411797C9.7072 0.0624373 9.29803 -0.094969 8.94867 0.0603279C8.59931 0.215578 8.44195 0.62475 8.5972 0.974109L9.11273 2.13408C7.73456 2.40455 6.69141 3.62123 6.69141 5.0775V6.23133H17.3067V5.0775C17.3067 3.62133 16.2635 2.40455 14.8853 2.13412Z" fill="white"/>
        <path d="M23.3063 12.2318H19.1525V10.7923C21.2423 10.4594 22.8448 8.6447 22.8448 6.46257V5.53951C22.8448 5.1572 22.5348 4.84721 22.1525 4.84721C21.7702 4.84721 21.4602 5.1572 21.4602 5.53951V6.46257C21.4602 7.87848 20.4739 9.06756 19.1525 9.38106V8.77028C19.1525 8.13404 18.6349 7.61645 17.9987 7.61645H12.691V15.6933C12.691 16.0756 12.381 16.3856 11.9987 16.3856C11.6164 16.3856 11.3064 16.0756 11.3064 15.6933V7.6164H5.99878C5.36255 7.6164 4.84495 8.134 4.84495 8.77023V9.38101C3.52355 9.06751 2.5373 7.87843 2.5373 6.46253V5.53946C2.5373 5.15715 2.22731 4.84717 1.845 4.84717C1.46269 4.84717 1.1527 5.15715 1.1527 5.53946V6.46253C1.1527 8.64465 2.75512 10.4593 4.845 10.7923V12.2317H0.691076C0.308764 12.2317 -0.0012207 12.5417 -0.0012207 12.924C-0.0012207 13.3063 0.308764 13.6163 0.691076 13.6163H4.8449V15.0557C2.75503 15.3887 1.15261 17.2034 1.15261 19.3855V20.3086C1.15261 20.6909 1.46259 21.0009 1.8449 21.0009C2.22722 21.0009 2.5372 20.6909 2.5372 20.3086V19.3855C2.5372 17.9696 3.52345 16.7805 4.84486 16.467V16.847C4.8449 20.7917 8.05411 24.0009 11.9987 24.0009C15.9433 24.0009 19.1525 20.7917 19.1525 16.8471V16.4671C20.4739 16.7806 21.4601 17.9697 21.4601 19.3856V20.3087C21.4601 20.691 21.7701 21.0009 22.1524 21.0009C22.5347 21.0009 22.8447 20.691 22.8447 20.3087V19.3856C22.8447 17.2035 21.2423 15.3888 19.1524 15.0558V13.6164H23.3062C23.6886 13.6164 23.9985 13.3064 23.9985 12.9241C23.9985 12.5418 23.6886 12.2318 23.3063 12.2318Z" fill="white"/>
    </g>
    <defs>
        <clipPath id="clip0">
            <rect width="24" height="24" fill="white"/>
        </clipPath>
    </defs>
</svg>
