<svg width="20" height="20" viewBox="0 0 20 20" fill="none" xmlns="http://www.w3.org/2000/svg">
    <path d="M10 20C15.5228 20 20 15.5228 20 10C20 4.47715 15.5228 0 10 0C4.47715 0 0 4.47715 0 10C0 15.5228 4.47715 20 10 20Z" fill="#F1F3F4"/>
    <path d="M1.67697 12.1168C3.12027 12.1168 3.12027 11.1821 4.56357 11.1821C6.00687 11.1821 6.00687 12.1168 7.45017 12.1168C8.89346 12.1168 8.89346 11.1821 10.3368 11.1821C11.7801 11.1821 11.7801 12.1168 13.2234 12.1168C14.6667 12.1168 14.6667 11.1821 16.11 11.1821C17.4777 11.1821 17.5464 12.0206 18.7698 12.11C19.8694 7.27147 16.8385 2.46048 12 1.36769C7.16151 0.274911 2.35738 3.29897 1.25773 8.13058C0.962193 9.42955 0.962193 10.7835 1.25085 12.0825C1.39518 12.1031 1.53951 12.1168 1.68384 12.1168H1.67697Z" fill="#304FFE"/>
    <path d="M9.13401 2.26804H11.4708V4.43299H9.13401V2.26804Z" fill="#FFD54F"/>
    <path d="M9.13401 2.26804H9.95875V4.43299H9.13401V2.26804Z" fill="#FFF176"/>
    <path d="M9.93815 3.49141C10.2418 3.49141 10.488 3.1837 10.488 2.80412C10.488 2.42454 10.2418 2.11684 9.93815 2.11684C9.63449 2.11684 9.38832 2.42454 9.38832 2.80412C9.38832 3.1837 9.63449 3.49141 9.93815 3.49141Z" fill="#FFF176"/>
    <path d="M9.07904 2.02062C9.07904 1.35395 9.62199 0.810997 10.2887 0.810997C10.9553 0.810997 11.4983 1.35395 11.4983 2.02062" fill="#F4511E"/>
    <path d="M10.2955 0.810997C10.9553 0.810997 11.4914 1.34708 11.4914 2.01375V2.02062H10.2955V0.810997Z" fill="#E64A19"/>
    <path d="M8.99656 1.97938H11.567C11.6564 1.97938 11.7251 2.04811 11.7251 2.13746C11.7251 2.2268 11.6564 2.29553 11.567 2.29553H8.99656C8.90721 2.29553 8.83849 2.2268 8.83849 2.13746C8.83849 2.04811 8.91409 1.97938 8.99656 1.97938Z" fill="#F4511E"/>
    <path d="M8.79726 11.0997L9.13403 4.41237H11.4708L11.7732 10.7698L8.79726 11.0997Z" fill="#C5CAE9"/>
    <path d="M9.04467 6.0756L8.95532 7.93127L11.5945 6.70103L11.5051 4.92783L9.04467 6.0756Z" fill="#FF7043"/>
    <path d="M8.8591 9.75945L8.76288 11.6151L11.7732 10.2131L11.6838 8.43986L8.8591 9.75945Z" fill="#FF7043"/>
    <path d="M8.77664 3.42955H11.7938V4.41924H8.77664V3.42955Z" fill="#E64A19"/>
    <path d="M8.77664 3.42955H10.756V4.41924H8.77664V3.42955Z" fill="#F4511E"/>
    <path opacity="0.5" d="M10.2612 3.42955C10.2612 3.78694 9.92441 4.0756 9.51891 4.0756C9.11341 4.0756 8.77664 3.78694 8.77664 3.42955" fill="#FFE082"/>
    <path d="M14.0893 3.15464C14.1718 3.15464 14.2474 3.17526 14.3161 3.20275C14.3377 2.98903 14.4307 2.78883 14.5801 2.63446C14.7295 2.4801 14.9266 2.38059 15.1394 2.35199C15.3523 2.32339 15.5687 2.36738 15.7535 2.47685C15.9383 2.58632 16.0808 2.75488 16.1581 2.95532C16.3276 2.95532 16.4902 3.02267 16.61 3.14253C16.7299 3.2624 16.7972 3.42498 16.7972 3.5945C16.7972 3.76402 16.7299 3.9266 16.61 4.04646C16.4902 4.16633 16.3276 4.23367 16.1581 4.23367H14.0893C13.7869 4.23367 13.5464 3.99312 13.5464 3.69072C13.5464 3.38831 13.7869 3.15464 14.0893 3.15464Z" fill="#2979FF"/>
    <path d="M7.93815 8.32302C8.00688 8.32302 8.06874 8.33677 8.13059 8.36426C8.17183 7.91753 8.56358 7.5945 9.00345 7.62887C9.31273 7.65636 9.58077 7.86254 9.69073 8.1512C9.99314 8.13746 10.2474 8.36426 10.2612 8.66667C10.2749 8.96907 10.0481 9.22337 9.74572 9.23711H7.94503C7.69073 9.23024 7.49142 9.01031 7.50516 8.76289C7.50516 8.52234 7.6976 8.3299 7.93815 8.32302Z" fill="#448AFF"/>
    <path d="M12.433 2.19244C12.4861 2.19244 12.5292 2.14936 12.5292 2.09622C12.5292 2.04308 12.4861 2 12.433 2C12.3799 2 12.3368 2.04308 12.3368 2.09622C12.3368 2.14936 12.3799 2.19244 12.433 2.19244Z" fill="#FDD835"/>
    <path d="M13.2921 7.73883C13.387 7.73883 13.4639 7.6619 13.4639 7.56701C13.4639 7.47211 13.387 7.39519 13.2921 7.39519C13.1972 7.39519 13.1203 7.47211 13.1203 7.56701C13.1203 7.6619 13.1972 7.73883 13.2921 7.73883Z" fill="#FFF9C4"/>
    <path d="M3.05156 6.19244C3.14645 6.19244 3.22338 6.11551 3.22338 6.02062C3.22338 5.92572 3.14645 5.8488 3.05156 5.8488C2.95666 5.8488 2.87974 5.92572 2.87974 6.02062C2.87974 6.11551 2.95666 6.19244 3.05156 6.19244Z" fill="#FFF9C4"/>
    <path d="M5.80759 9.13402C5.90248 9.13402 5.97941 9.05709 5.97941 8.9622C5.97941 8.8673 5.90248 8.79038 5.80759 8.79038C5.71269 8.79038 5.63577 8.8673 5.63577 8.9622C5.63577 9.05709 5.71269 9.13402 5.80759 9.13402Z" fill="#FFF9C4"/>
    <path d="M12.5636 5.0378C12.6585 5.0378 12.7354 4.96087 12.7354 4.86598C12.7354 4.77108 12.6585 4.69416 12.5636 4.69416C12.4687 4.69416 12.3918 4.77108 12.3918 4.86598C12.3918 4.96087 12.4687 5.0378 12.5636 5.0378Z" fill="#FFF9C4"/>
    <path d="M16.1237 9.38831C16.2186 9.38831 16.2955 9.31139 16.2955 9.21649C16.2955 9.1216 16.2186 9.04467 16.1237 9.04467C16.0288 9.04467 15.9519 9.1216 15.9519 9.21649C15.9519 9.31139 16.0288 9.38831 16.1237 9.38831Z" fill="#FFF9C4"/>
    <path d="M2.68728 9.94501C2.74042 9.94501 2.7835 9.90194 2.7835 9.8488C2.7835 9.79565 2.74042 9.75257 2.68728 9.75257C2.63414 9.75257 2.59106 9.79565 2.59106 9.8488C2.59106 9.90194 2.63414 9.94501 2.68728 9.94501Z" fill="#FDD835"/>
    <path d="M3.58764 7.97938C3.64078 7.97938 3.68386 7.9363 3.68386 7.88316C3.68386 7.83002 3.64078 7.78694 3.58764 7.78694C3.5345 7.78694 3.49142 7.83002 3.49142 7.88316C3.49142 7.9363 3.5345 7.97938 3.58764 7.97938Z" fill="#FDD835"/>
    <path d="M4.19243 7.47079C4.24558 7.47079 4.28865 7.42771 4.28865 7.37457C4.28865 7.32143 4.24558 7.27835 4.19243 7.27835C4.13929 7.27835 4.09621 7.32143 4.09621 7.37457C4.09621 7.42771 4.13929 7.47079 4.19243 7.47079Z" fill="#FDD835"/>
    <path d="M6.74226 5.19587C6.7954 5.19587 6.83848 5.15279 6.83848 5.09965C6.83848 5.04651 6.7954 5.00343 6.74226 5.00343C6.68912 5.00343 6.64604 5.04651 6.64604 5.09965C6.64604 5.15279 6.68912 5.19587 6.74226 5.19587Z" fill="#FDD835"/>
    <path d="M14.8041 5.47079C14.8572 5.47079 14.9003 5.42771 14.9003 5.37457C14.9003 5.32143 14.8572 5.27835 14.8041 5.27835C14.751 5.27835 14.7079 5.32143 14.7079 5.37457C14.7079 5.42771 14.751 5.47079 14.8041 5.47079Z" fill="#FDD835"/>
    <path d="M18.6323 9.53952C18.6854 9.53952 18.7285 9.49644 18.7285 9.4433C18.7285 9.39016 18.6854 9.34708 18.6323 9.34708C18.5791 9.34708 18.5361 9.39016 18.5361 9.4433C18.5361 9.49644 18.5791 9.53952 18.6323 9.53952Z" fill="#FDD835"/>
    <path d="M5.12715 4.90034C5.18029 4.90034 5.22337 4.85726 5.22337 4.80412C5.22337 4.75098 5.18029 4.7079 5.12715 4.7079C5.07401 4.7079 5.03093 4.75098 5.03093 4.80412C5.03093 4.85726 5.07401 4.90034 5.12715 4.90034Z" fill="#FDD835"/>
    <path d="M13.7319 9.58075C13.7851 9.58075 13.8282 9.53768 13.8282 9.48453C13.8282 9.43139 13.7851 9.38831 13.7319 9.38831C13.6788 9.38831 13.6357 9.43139 13.6357 9.48453C13.6357 9.53768 13.6788 9.58075 13.7319 9.58075Z" fill="#FDD835"/>
    <path d="M16.6804 7.14089C16.7335 7.14089 16.7766 7.09781 16.7766 7.04467C16.7766 6.99153 16.7335 6.94845 16.6804 6.94845C16.6272 6.94845 16.5842 6.99153 16.5842 7.04467C16.5842 7.09781 16.6272 7.14089 16.6804 7.14089Z" fill="#FDD835"/>
    <path opacity="0.5" d="M9.17525 2.23368C9.17525 2.23368 4.6048 1.5945 4.59106 1.5945C2.80412 2.76289 1.97937 4 1.567 4.61856L9.16838 3.50515L9.17525 2.23368Z" fill="#FFE082"/>
    <path opacity="0.5" d="M11.5601 4.41237H10.378V10.4674L11.8007 11.0997L11.5601 4.41237Z" fill="#304FFE"/>
    <path d="M7.47077 12.1375C8.91407 12.1375 8.91407 11.2028 10.3574 11.2028C11.8007 11.2028 11.8007 12.1375 13.244 12.1375C14.4673 12.1375 14.6529 11.4639 15.567 11.2577C14.323 10.5773 12.4673 10.1443 10.3917 10.1443C8.31613 10.1443 6.43297 10.5842 5.18899 11.2715C6.06871 11.4845 6.26115 12.1375 7.47077 12.1375Z" fill="#00C853"/>
    <path d="M7.47767 12.1237C8.92097 12.1237 8.92097 11.189 10.3643 11.189H10.3918L10.378 10.1581C8.31616 10.1581 6.46049 10.5842 5.22337 11.2577C6.08248 11.4777 6.28179 12.1237 7.47767 12.1237Z" fill="#64DD17"/>
</svg>
