<svg width="13" height="15" viewBox="0 0 13 15" fill="none" xmlns="http://www.w3.org/2000/svg">
    <g clip-path="url(#clip0)">
        <path d="M1.32812 6.5625C0.596063 6.5625 0 7.26375 0 8.12499V13.125C0 13.9862 0.596063 14.6875 1.32812 14.6875H2.92187C3.22097 14.6875 3.49614 14.5687 3.71874 14.3712V6.5625H1.32812Z" fill="#14A83D"/>
        <path d="M12.75 8.90624C12.75 8.53062 12.6236 8.18061 12.4041 7.92248C12.6522 7.60311 12.7787 7.17497 12.7441 6.72936C12.682 5.93498 12.0737 5.31248 11.3586 5.31248H8.07712C8.23968 4.73184 8.49998 3.66749 8.49998 2.81249C8.49998 1.45687 7.5209 0.3125 6.90623 0.3125C6.35427 0.3125 5.96007 0.678125 5.94309 0.693125C5.88041 0.75251 5.84375 0.84251 5.84375 0.93749V3.05686L4.31375 6.95624L4.25 6.99436V13.6931C4.68243 13.9331 5.22961 14.0625 5.57812 14.0625H10.4545C11.033 14.0625 11.5393 13.6037 11.6583 12.9706C11.7194 12.645 11.6838 12.3169 11.5621 12.0319C11.9547 11.7994 12.2187 11.3237 12.2187 10.7812C12.2187 10.56 12.1757 10.3481 12.0939 10.1562C12.4865 9.92375 12.75 9.44812 12.75 8.90624Z" fill="#14A83D"/>
    </g>
    <defs>
        <clipPath id="clip0">
            <rect width="12.75" height="15" fill="white"/>
        </clipPath>
    </defs>
</svg>
