<svg width="1082" height="168" viewBox="0 0 1082 168" fill="none" xmlns="http://www.w3.org/2000/svg">
<rect width="168" height="168" rx="15" fill="white"/>
<path d="M38.104 45C35.0415 45 33 47.0415 33 50.104V90.9364C33 93.9988 35.0415 96.0403 38.104 96.0403H48.3121V45H38.104Z" fill="#111122"/>
<path d="M48.3096 45V96.0403L68.5038 90.9364V50.104L48.3096 45Z" fill="#111122"/>
<path d="M114.13 126.665H83.5059V168H114.13V126.665Z" fill="#111122"/>
<path d="M154.452 102.676C153.431 68.9891 133.525 45 109.026 45H87.5891L73.2979 50.104V90.9364L81.9748 99.6133C82.9957 100.634 83.506 101.655 83.506 103.186V121.561H114.13V102.165C114.13 101.655 114.13 100.634 114.641 100.124L117.703 93.9988C118.724 91.9573 120.255 90.9364 122.297 90.9364C133.525 91.4467 144.244 95.53 152.411 103.696C152.921 105.228 154.962 104.207 154.452 102.676Z" fill="#111122"/>
<rect width="168" height="168" rx="15" fill="#5971FF"/>
<path d="M38.104 45C35.0415 45 33 47.0415 33 50.104V90.9364C33 93.9988 35.0415 96.0403 38.104 96.0403H48.3121V45H38.104Z" fill="white"/>
<path d="M48.3096 45V96.0403L68.5038 90.9364V50.104L48.3096 45Z" fill="white"/>
<path d="M114.13 126.665H83.5059V168H114.13V126.665Z" fill="white"/>
<path d="M154.452 102.676C153.431 68.9891 133.525 45 109.026 45H87.5891L73.2979 50.104V90.9364L81.9748 99.6133C82.9957 100.634 83.506 101.655 83.506 103.186V121.561H114.13V102.165C114.13 101.655 114.13 100.634 114.641 100.124L117.703 93.9988C118.724 91.9573 120.255 90.9364 122.297 90.9364C133.525 91.4467 144.244 95.53 152.411 103.696C152.921 105.228 154.962 104.207 154.452 102.676Z" fill="white"/>
<path d="M378.929 62.47C373.356 55.6428 366.472 52.2291 358.277 52.2291C354.671 52.2291 351.311 52.8872 348.197 54.2033C345.165 55.5194 342.542 57.329 340.33 59.6322C338.117 61.8531 336.355 64.5264 335.044 67.6522C333.815 70.7779 333.2 74.1504 333.2 77.7697C333.2 81.4712 333.815 84.8848 335.044 88.0106C336.355 91.1363 338.117 93.8508 340.33 96.1539C342.624 98.4571 345.288 100.267 348.32 101.583C351.352 102.899 354.63 103.557 358.154 103.557C365.857 103.557 372.782 100.267 378.929 93.6862V122.311L376.47 123.175C372.782 124.491 369.34 125.437 366.144 126.013C362.948 126.671 359.793 127 356.679 127C350.287 127 344.14 125.807 338.24 123.422C332.421 120.954 327.258 117.541 322.751 113.181C318.326 108.739 314.761 103.516 312.057 97.5112C309.352 91.4242 308 84.8026 308 77.6463C308 70.49 309.311 63.9506 311.934 58.0282C314.638 52.0235 318.203 46.8825 322.628 42.6052C327.136 38.2456 332.339 34.8731 338.24 32.4877C344.14 30.02 350.328 28.7861 356.802 28.7861C360.49 28.7861 364.095 29.1974 367.619 30.02C371.225 30.7603 374.995 31.953 378.929 33.5981V62.47Z" fill="white"/>
<path d="M392.081 61.1128H414.33V71.4771C416.707 67.6933 419.616 64.8143 423.058 62.8402C426.5 60.7838 430.516 59.7556 435.105 59.7556C435.679 59.7556 436.293 59.7556 436.949 59.7556C437.686 59.7556 438.506 59.8378 439.407 60.0023V81.3478C436.457 79.8672 433.261 79.1269 429.819 79.1269C424.656 79.1269 420.763 80.6898 418.141 83.8155C415.601 86.859 414.33 91.342 414.33 97.2644V124.409H392.081V61.1128Z" fill="white"/>
<path d="M471.592 61.1128V96.7709C471.592 104.585 475.362 108.492 482.901 108.492C490.441 108.492 494.21 104.585 494.21 96.7709V61.1128H516.46V101.089C516.46 109.644 513.633 116.06 507.978 120.337C502.405 124.615 494.046 126.753 482.901 126.753C471.756 126.753 463.356 124.615 457.701 120.337C452.129 116.06 449.342 109.644 449.342 101.089V61.1128H471.592Z" fill="white"/>
<path d="M573.368 77.3995C569.271 75.2609 565.255 74.1915 561.321 74.1915C559.273 74.1915 557.593 74.6028 556.281 75.4254C555.052 76.2479 554.438 77.3584 554.438 78.7568C554.438 79.4971 554.519 80.114 554.683 80.6075C554.929 81.0188 555.38 81.4301 556.036 81.8414C556.773 82.2526 557.798 82.6228 559.109 82.9518C560.502 83.2808 562.305 83.6921 564.517 84.1857C570.664 85.4195 575.253 87.6404 578.285 90.8484C581.317 93.9742 582.834 98.0047 582.834 102.94C582.834 106.642 582.096 109.973 580.621 112.934C579.146 115.895 577.097 118.404 574.475 120.461C571.852 122.435 568.697 123.957 565.009 125.026C561.321 126.177 557.265 126.753 552.84 126.753C544.317 126.753 535.917 124.327 527.64 119.474L535.753 103.68C541.981 107.958 547.881 110.096 553.454 110.096C555.503 110.096 557.183 109.644 558.494 108.739C559.805 107.834 560.461 106.683 560.461 105.284C560.461 104.462 560.338 103.804 560.092 103.31C559.928 102.734 559.519 102.241 558.863 101.83C558.207 101.336 557.224 100.925 555.913 100.596C554.683 100.184 553.044 99.7732 550.996 99.3619C544.112 97.9636 539.277 95.9072 536.49 93.1927C533.786 90.396 532.434 86.5711 532.434 81.718C532.434 78.181 533.089 75.0141 534.401 72.2174C535.712 69.3384 537.597 66.9119 540.055 64.9377C542.514 62.9636 545.464 61.4418 548.906 60.3725C552.43 59.3032 556.322 58.7685 560.584 58.7685C567.55 58.7685 574.311 60.1257 580.867 62.8402L573.368 77.3995Z" fill="white"/>
<path d="M594.117 22H616.366V69.1328C619.399 65.4313 622.472 62.9636 625.586 61.7297C628.7 60.4136 632.347 59.7556 636.526 59.7556C644.476 59.7556 650.458 61.9765 654.474 66.4183C658.571 70.7779 660.62 76.7004 660.62 84.1857V124.409H638.37V92.4524C638.37 89.2444 638.124 86.6533 637.633 84.6792C637.141 82.7051 636.322 81.1833 635.174 80.114C633.207 78.3866 630.831 77.5229 628.044 77.5229C624.275 77.5229 621.366 78.6745 619.317 80.9777C617.35 83.1986 616.366 86.4066 616.366 90.6016V124.409H594.117V22Z" fill="white"/>
<path d="M721.845 83.5687C721.107 80.443 719.591 77.9342 717.297 76.0423C715.002 74.1504 712.216 73.2045 708.938 73.2045C705.496 73.2045 702.668 74.1093 700.456 75.9189C698.325 77.7286 696.973 80.2785 696.399 83.5687H721.845ZM695.785 96.5241C695.785 106.148 700.292 110.96 709.306 110.96C714.142 110.96 717.788 108.986 720.247 105.038H741.759C737.416 119.515 726.557 126.753 709.184 126.753C703.857 126.753 698.981 125.972 694.555 124.409C690.13 122.764 686.319 120.461 683.123 117.499C680.009 114.538 677.591 111.001 675.871 106.888C674.15 102.776 673.289 98.1692 673.289 93.0693C673.289 87.8049 674.109 83.0752 675.748 78.8801C677.387 74.6028 679.722 70.9835 682.754 68.0223C685.787 65.0611 689.433 62.7991 693.695 61.2362C698.038 59.5911 702.914 58.7685 708.323 58.7685C713.65 58.7685 718.444 59.5911 722.705 61.2362C726.967 62.7991 730.573 65.1022 733.523 68.1457C736.473 71.1892 738.727 74.9318 740.284 79.3737C741.841 83.7333 742.62 88.6686 742.62 94.1798V96.5241H695.785Z" fill="white"/>
<path d="M755.338 61.1128H777.587V71.4771C779.964 67.6933 782.873 64.8143 786.315 62.8402C789.757 60.7838 793.773 59.7556 798.362 59.7556C798.935 59.7556 799.55 59.7556 800.206 59.7556C800.943 59.7556 801.763 59.8378 802.664 60.0023V81.3478C799.714 79.8672 796.518 79.1269 793.076 79.1269C787.913 79.1269 784.02 80.6898 781.398 83.8155C778.858 86.859 777.587 91.342 777.587 97.2644V124.409H755.338V61.1128Z" fill="white"/>
<path d="M803.81 112.564C803.81 110.59 804.179 108.739 804.916 107.012C805.654 105.202 806.678 103.639 807.989 102.323C809.301 101.007 810.817 99.9788 812.538 99.2385C814.341 98.4982 816.226 98.1281 818.192 98.1281C820.159 98.1281 822.003 98.4982 823.724 99.2385C825.527 99.9788 827.084 101.007 828.395 102.323C829.706 103.639 830.731 105.202 831.468 107.012C832.206 108.739 832.575 110.59 832.575 112.564C832.575 114.538 832.206 116.43 831.468 118.24C830.731 119.967 829.706 121.489 828.395 122.805C827.084 124.121 825.527 125.149 823.724 125.89C822.003 126.63 820.159 127 818.192 127C816.226 127 814.341 126.63 812.538 125.89C810.817 125.149 809.301 124.121 807.989 122.805C806.678 121.489 805.654 119.967 804.916 118.24C804.179 116.43 803.81 114.538 803.81 112.564Z" fill="white"/>
<path d="M867.344 92.5758C867.344 94.6322 867.712 96.5652 868.45 98.3749C869.188 100.102 870.171 101.624 871.4 102.94C872.711 104.256 874.228 105.284 875.948 106.025C877.751 106.765 879.677 107.135 881.726 107.135C883.693 107.135 885.537 106.765 887.258 106.025C889.061 105.284 890.577 104.256 891.806 102.94C893.117 101.624 894.142 100.102 894.879 98.3749C895.699 96.6475 896.108 94.7967 896.108 92.8226C896.108 90.8484 895.699 88.9977 894.879 87.2703C894.142 85.4606 893.117 83.8978 891.806 82.5817C890.577 81.2656 889.061 80.2374 887.258 79.4971C885.537 78.7568 883.693 78.3866 881.726 78.3866C879.759 78.3866 877.874 78.7568 876.071 79.4971C874.351 80.2374 872.834 81.2656 871.523 82.5817C870.294 83.8978 869.27 85.4195 868.45 87.1469C867.712 88.792 867.344 90.6016 867.344 92.5758ZM895.371 22H917.743V124.409H895.371V117.376C890.618 123.381 884.185 126.383 876.071 126.383C871.482 126.383 867.262 125.519 863.41 123.792C859.558 122.065 856.198 119.679 853.33 116.636C850.462 113.592 848.208 110.014 846.569 105.901C845.012 101.788 844.234 97.3466 844.234 92.5758C844.234 88.0517 844.971 83.7744 846.446 79.7438C848.003 75.631 850.175 72.0529 852.961 69.0094C855.748 65.9659 859.067 63.5805 862.918 61.8531C866.852 60.0435 871.154 59.1387 875.826 59.1387C883.693 59.1387 890.208 61.8942 895.371 67.4054V22Z" fill="white"/>
<path d="M978.982 83.5687C978.244 80.443 976.728 77.9342 974.434 76.0423C972.139 74.1504 969.353 73.2045 966.075 73.2045C962.633 73.2045 959.805 74.1093 957.593 75.9189C955.462 77.7286 954.11 80.2785 953.536 83.5687H978.982ZM952.922 96.5241C952.922 106.148 957.429 110.96 966.443 110.96C971.279 110.96 974.925 108.986 977.384 105.038H998.896C994.553 119.515 983.694 126.753 966.32 126.753C960.994 126.753 956.118 125.972 951.692 124.409C947.267 122.764 943.456 120.461 940.26 117.499C937.146 114.538 934.728 111.001 933.007 106.888C931.286 102.776 930.426 98.1692 930.426 93.0693C930.426 87.8049 931.246 83.0752 932.885 78.8801C934.524 74.6028 936.859 70.9835 939.891 68.0223C942.924 65.0611 946.57 62.7991 950.832 61.2362C955.175 59.5911 960.051 58.7685 965.46 58.7685C970.787 58.7685 975.581 59.5911 979.842 61.2362C984.104 62.7991 987.71 65.1022 990.66 68.1457C993.61 71.1892 995.864 74.9318 997.421 79.3737C998.978 83.7333 999.756 88.6686 999.756 94.1798V96.5241H952.922Z" fill="white"/>
<path d="M1026.93 61.1128L1041.93 93.5629L1057.17 61.1128H1082L1049.18 124.409H1034.3L1001.85 61.1128H1026.93Z" fill="white"/>
</svg>
