<svg width="186" height="28" viewBox="0 0 186 28" fill="none" xmlns="http://www.w3.org/2000/svg">
    <path d="M65.188 11.5523C64.2304 10.4469 63.0475 9.89424 61.6393 9.89424C61.0197 9.89424 60.4423 10.0008 59.9072 10.2139C59.3862 10.4269 58.9356 10.7199 58.5554 11.0928C58.1751 11.4524 57.8724 11.8852 57.6471 12.3913C57.4358 12.8974 57.3302 13.4434 57.3302 14.0294C57.3302 14.6287 57.4358 15.1814 57.6471 15.6874C57.8724 16.1935 58.1751 16.633 58.5554 17.0059C58.9496 17.3788 59.4073 17.6718 59.9283 17.8848C60.4494 18.0979 61.0127 18.2045 61.6182 18.2045C62.9419 18.2045 64.1318 17.6718 65.188 16.6063V21.2409L64.7655 21.3807C64.1318 21.5938 63.5404 21.747 62.9912 21.8402C62.442 21.9467 61.8998 22 61.3647 22C60.2663 22 59.2102 21.8069 58.1963 21.4207C57.1964 21.0212 56.3093 20.4685 55.5348 19.7626C54.7743 19.0435 54.1618 18.1978 53.6971 17.2256C53.2324 16.2401 53 15.168 53 14.0094C53 12.8508 53.2253 11.792 53.6759 10.8331C54.1406 9.86095 54.7532 9.02859 55.5136 8.33607C56.2881 7.63024 57.1824 7.08421 58.1963 6.698C59.2102 6.29847 60.2734 6.09871 61.3858 6.09871C62.0195 6.09871 62.6391 6.1653 63.2447 6.29847C63.8643 6.41833 64.512 6.61144 65.188 6.87779V11.5523Z" fill="#2D3958"/>
    <path d="M67.448 11.3326H71.2712V13.0106C71.6796 12.398 72.1795 11.9318 72.771 11.6122C73.3624 11.2793 74.0524 11.1128 74.841 11.1128C74.9396 11.1128 75.0452 11.1128 75.1579 11.1128C75.2846 11.1128 75.4254 11.1261 75.5803 11.1528V14.6087C75.0734 14.369 74.5242 14.2491 73.9327 14.2491C73.0456 14.2491 72.3767 14.5022 71.926 15.0082C71.4895 15.501 71.2712 16.2268 71.2712 17.1857V21.5805H67.448V11.3326Z" fill="#2D3958"/>
    <path d="M81.1108 11.3326V17.1058C81.1108 18.3709 81.7585 19.0035 83.0541 19.0035C84.3496 19.0035 84.9974 18.3709 84.9974 17.1058V11.3326H88.8207V17.8049C88.8207 19.19 88.3348 20.2288 87.3632 20.9213C86.4056 21.6138 84.9692 21.96 83.0541 21.96C81.1389 21.96 79.6955 21.6138 78.7239 20.9213C77.7663 20.2288 77.2875 19.19 77.2875 17.8049V11.3326H81.1108Z" fill="#2D3958"/>
    <path d="M98.5994 13.9694C97.8953 13.6232 97.2053 13.4501 96.5294 13.4501C96.1773 13.4501 95.8887 13.5166 95.6634 13.6498C95.4521 13.783 95.3465 13.9628 95.3465 14.1892C95.3465 14.309 95.3606 14.4089 95.3888 14.4888C95.431 14.5554 95.5084 14.622 95.6211 14.6886C95.7478 14.7552 95.9239 14.8151 96.1492 14.8684C96.3886 14.9217 96.6984 14.9882 97.0786 15.0682C98.1347 15.2679 98.9233 15.6275 99.4444 16.1469C99.9654 16.653 100.226 17.3055 100.226 18.1046C100.226 18.7039 100.099 19.2432 99.8457 19.7227C99.5922 20.2021 99.2402 20.6083 98.7896 20.9412C98.3389 21.2609 97.7968 21.5072 97.1631 21.6804C96.5294 21.8668 95.8323 21.96 95.0719 21.96C93.6074 21.96 92.164 21.5672 90.7417 20.7814L92.1358 18.2244C93.206 18.917 94.2199 19.2632 95.1775 19.2632C95.5296 19.2632 95.8183 19.19 96.0436 19.0435C96.2689 18.897 96.3815 18.7105 96.3815 18.4841C96.3815 18.351 96.3604 18.2444 96.3182 18.1645C96.29 18.0713 96.2196 17.9914 96.1069 17.9248C95.9943 17.8449 95.8253 17.7783 95.6 17.725C95.3888 17.6584 95.1071 17.5919 94.7551 17.5253C93.5722 17.2989 92.7413 16.9659 92.2625 16.5264C91.7978 16.0736 91.5655 15.4544 91.5655 14.6686C91.5655 14.096 91.6781 13.5832 91.9035 13.1304C92.1288 12.6643 92.4527 12.2714 92.8751 11.9518C93.2976 11.6322 93.8045 11.3858 94.396 11.2127C95.0015 11.0396 95.6704 10.953 96.4027 10.953C97.5996 10.953 98.7614 11.1727 99.888 11.6122L98.5994 13.9694Z" fill="#2D3958"/>
    <path d="M102.165 5H105.988V12.631C106.509 12.0317 107.037 11.6322 107.572 11.4324C108.107 11.2193 108.734 11.1128 109.452 11.1128C110.818 11.1128 111.846 11.4724 112.536 12.1915C113.24 12.8974 113.592 13.8562 113.592 15.0682V21.5805H109.769V16.4066C109.769 15.8872 109.727 15.4677 109.642 15.1481C109.558 14.8284 109.417 14.5821 109.22 14.4089C108.882 14.1293 108.474 13.9894 107.995 13.9894C107.347 13.9894 106.847 14.1759 106.495 14.5488C106.157 14.9083 105.988 15.4277 105.988 16.1069V21.5805H102.165V5Z" fill="#2D3958"/>
    <path d="M124.113 14.9683C123.986 14.4622 123.726 14.056 123.331 13.7497C122.937 13.4434 122.458 13.2902 121.895 13.2902C121.304 13.2902 120.818 13.4367 120.438 13.7297C120.071 14.0227 119.839 14.4356 119.74 14.9683H124.113ZM119.635 17.0658C119.635 18.624 120.409 19.4031 121.958 19.4031C122.789 19.4031 123.416 19.0834 123.838 18.4442H127.535C126.788 20.7881 124.923 21.96 121.937 21.96C121.022 21.96 120.184 21.8335 119.424 21.5805C118.663 21.3141 118.008 20.9412 117.459 20.4618C116.924 19.9824 116.509 19.4097 116.213 18.7438C115.917 18.0779 115.769 17.3322 115.769 16.5065C115.769 15.6541 115.91 14.8884 116.192 14.2092C116.473 13.5166 116.875 12.9307 117.396 12.4512C117.917 11.9718 118.543 11.6056 119.276 11.3525C120.022 11.0862 120.86 10.953 121.789 10.953C122.705 10.953 123.528 11.0862 124.261 11.3525C124.993 11.6056 125.613 11.9785 126.12 12.4712C126.627 12.964 127.014 13.5699 127.281 14.2891C127.549 14.9949 127.683 15.794 127.683 16.6863V17.0658H119.635Z" fill="#2D3958"/>
    <path d="M129.868 11.3326H133.691V13.0106C134.1 12.398 134.6 11.9318 135.191 11.6122C135.783 11.2793 136.473 11.1128 137.261 11.1128C137.36 11.1128 137.465 11.1128 137.578 11.1128C137.705 11.1128 137.846 11.1261 138 11.1528V14.6087C137.493 14.369 136.944 14.2491 136.353 14.2491C135.466 14.2491 134.797 14.5022 134.346 15.0082C133.91 15.501 133.691 16.2268 133.691 17.1857V21.5805H129.868V11.3326Z" fill="#2D3958"/>
    <path d="M138.197 19.6628C138.197 19.3431 138.261 19.0435 138.387 18.7638C138.514 18.4708 138.69 18.2178 138.916 18.0047C139.141 17.7916 139.401 17.6251 139.697 17.5053C140.007 17.3854 140.331 17.3255 140.669 17.3255C141.007 17.3255 141.324 17.3854 141.619 17.5053C141.929 17.6251 142.197 17.7916 142.422 18.0047C142.647 18.2178 142.823 18.4708 142.95 18.7638C143.077 19.0435 143.14 19.3431 143.14 19.6628C143.14 19.9824 143.077 20.2887 142.95 20.5817C142.823 20.8613 142.647 21.1077 142.422 21.3208C142.197 21.5339 141.929 21.7004 141.619 21.8202C141.324 21.9401 141.007 22 140.669 22C140.331 22 140.007 21.9401 139.697 21.8202C139.401 21.7004 139.141 21.5339 138.916 21.3208C138.69 21.1077 138.514 20.8613 138.387 20.5817C138.261 20.2887 138.197 19.9824 138.197 19.6628Z" fill="#2D3958"/>
    <path d="M149.115 16.4266C149.115 16.7595 149.178 17.0725 149.305 17.3655C149.431 17.6451 149.6 17.8915 149.812 18.1046C150.037 18.3177 150.298 18.4841 150.593 18.604C150.903 18.7239 151.234 18.7838 151.586 18.7838C151.924 18.7838 152.241 18.7239 152.537 18.604C152.846 18.4841 153.107 18.3177 153.318 18.1046C153.543 17.8915 153.719 17.6451 153.846 17.3655C153.987 17.0858 154.057 16.7861 154.057 16.4665C154.057 16.1469 153.987 15.8472 153.846 15.5676C153.719 15.2746 153.543 15.0215 153.318 14.8085C153.107 14.5954 152.846 14.4289 152.537 14.309C152.241 14.1892 151.924 14.1293 151.586 14.1293C151.248 14.1293 150.924 14.1892 150.614 14.309C150.319 14.4289 150.058 14.5954 149.833 14.8085C149.622 15.0215 149.446 15.2679 149.305 15.5476C149.178 15.8139 149.115 16.1069 149.115 16.4266ZM153.931 5H157.775V21.5805H153.931V20.4418C153.114 21.414 152.008 21.9001 150.614 21.9001C149.826 21.9001 149.101 21.7603 148.439 21.4806C147.777 21.2009 147.199 20.8147 146.707 20.322C146.214 19.8292 145.826 19.2499 145.545 18.584C145.277 17.9181 145.143 17.199 145.143 16.4266C145.143 15.6941 145.27 15.0016 145.524 14.349C145.791 13.6831 146.164 13.1038 146.643 12.611C147.122 12.1183 147.692 11.7321 148.354 11.4524C149.03 11.1594 149.769 11.0129 150.572 11.0129C151.924 11.0129 153.043 11.4591 153.931 12.3514V5Z" fill="#2D3958"/>
    <path d="M168.298 14.9683C168.171 14.4622 167.911 14.056 167.516 13.7497C167.122 13.4434 166.643 13.2902 166.08 13.2902C165.489 13.2902 165.003 13.4367 164.623 13.7297C164.256 14.0227 164.024 14.4356 163.925 14.9683H168.298ZM163.82 17.0658C163.82 18.624 164.594 19.4031 166.143 19.4031C166.974 19.4031 167.601 19.0834 168.023 18.4442H171.72C170.974 20.7881 169.108 21.96 166.122 21.96C165.207 21.96 164.369 21.8335 163.609 21.5805C162.848 21.3141 162.193 20.9412 161.644 20.4618C161.109 19.9824 160.694 19.4097 160.398 18.7438C160.102 18.0779 159.954 17.3322 159.954 16.5065C159.954 15.6541 160.095 14.8884 160.377 14.2092C160.658 13.5166 161.06 12.9307 161.581 12.4512C162.102 11.9718 162.729 11.6056 163.461 11.3525C164.207 11.0862 165.045 10.953 165.974 10.953C166.89 10.953 167.714 11.0862 168.446 11.3525C169.178 11.6056 169.798 11.9785 170.305 12.4712C170.812 12.964 171.199 13.5699 171.466 14.2891C171.734 14.9949 171.868 15.794 171.868 16.6863V17.0658H163.82Z" fill="#2D3958"/>
    <path d="M176.537 11.3326L179.114 16.5864L181.733 11.3326H186L180.36 21.5805H177.804L172.228 11.3326H176.537Z" fill="#2D3958"/>
    <path d="M16.602 11.727C15.9858 11.727 15.4858 11.202 15.4858 10.5542V8.20868C15.4858 7.56087 15.9858 7.03592 16.602 7.03592C17.2182 7.03592 17.7181 7.56087 17.7181 8.20868V10.5542C17.7181 11.2021 17.2182 11.727 16.602 11.727Z" fill="#2D3958"/>
    <path d="M28.4699 0H21.7899C21.6638 0 21.5376 0.0234622 21.4188 0.062519C21.0774 0.195425 20.8028 0.500363 20.7063 0.891283L18.6949 9.38214H17.7077C15.251 9.38214 13.2544 11.4853 13.2544 14.0732V17.5915C13.2544 18.2404 13.7517 18.7642 14.3677 18.7642H30.6966C31.3126 18.7642 31.8099 18.2404 31.8099 17.5915V3.51835C31.81 1.57941 30.3107 0 28.4699 0Z" fill="#FF658B"/>
    <path d="M31.8097 3.51823V17.5915C31.8097 18.2404 31.3156 18.7642 30.7036 18.7642H21.4856V0.0625195C21.6036 0.0233921 21.729 2.34313e-09 21.8543 2.34313e-09H28.4912C30.3201 -7.02443e-05 31.8097 1.57936 31.8097 3.51823Z" fill="#FF527C"/>
    <path d="M28.5026 16.4185H14.469C11.4095 16.4185 8.92944 19.0109 8.92944 22.209C8.92944 25.4071 11.4095 27.9996 14.469 27.9996H28.5026C31.5621 27.9996 34.0422 25.4071 34.0422 22.209C34.0422 19.0109 31.562 16.4185 28.5026 16.4185Z" fill="#2D3958"/>
    <path d="M28.5024 16.4185H21.4856V27.9996H28.5024C31.5619 27.9996 34.0419 25.4071 34.0419 22.209C34.0419 19.0109 31.5618 16.4185 28.5024 16.4185Z" fill="#2D3958"/>
    <path d="M28.4911 18.7643H14.4798C12.6471 18.7643 11.1614 20.3067 11.1614 22.2093C11.1614 24.1119 12.6471 25.6543 14.4798 25.6543H28.4911C30.3239 25.6543 31.8096 24.1119 31.8096 22.2093C31.8097 20.3067 30.3239 18.7643 28.4911 18.7643Z" fill="#DBDFE3"/>
    <path d="M28.4912 18.7643H21.4856V25.6543H28.4912C30.324 25.6543 31.8097 24.1119 31.8097 22.2093C31.8098 20.3067 30.324 18.7643 28.4912 18.7643Z" fill="#CAD1D7"/>
    <path d="M5.58122 28.0002H1.11724C0.26107 28.0002 -0.275838 27.0347 0.148033 26.2593L9.07601 9.96788C9.64474 8.93475 11.1612 9.35805 11.1612 10.5451V22.1819C11.1612 25.3904 8.65815 28.0002 5.58122 28.0002Z" fill="#FF3C79"/>
    <path d="M14.4403 27.9996C11.3967 27.9996 8.92944 25.407 8.92944 22.209C8.92944 19.011 11.3967 16.4185 14.4403 16.4185C17.4839 16.4185 19.9511 19.0111 19.9511 22.209C19.9511 25.4071 17.4839 27.9996 14.4403 27.9996Z" fill="#2D3958"/>
    <path d="M19.9512 22.209C19.9512 19.0109 17.4528 16.4185 14.3706 16.4185V27.9996C17.4527 27.9996 19.9512 25.4071 19.9512 22.209Z" fill="#2D3958"/>
    <path d="M14.44 25.6543C12.6293 25.6543 11.1614 24.1119 11.1614 22.2093C11.1614 20.3067 12.6293 18.7643 14.44 18.7643C16.2507 18.7643 17.7186 20.3067 17.7186 22.2093C17.7186 24.1119 16.2507 25.6543 14.44 25.6543Z" fill="#DBDFE3"/>
    <path d="M17.719 22.2093C17.719 20.3067 16.2198 18.7643 14.3706 18.7643V25.6543C16.2198 25.6543 17.719 24.1119 17.719 22.2093Z" fill="#CAD1D7"/>
    <path d="M14.3705 23.3089C13.7541 23.3089 13.2544 22.7838 13.2544 22.1361C13.2544 21.4885 13.7541 20.9634 14.3705 20.9634C14.9869 20.9634 15.4866 21.4885 15.4866 22.1361C15.4866 22.7839 14.9869 23.3089 14.3705 23.3089Z" fill="#2D3958"/>
    <path d="M15.4867 22.1361C15.4867 21.4885 14.987 20.9634 14.3706 20.9634V23.3089C14.987 23.3089 15.4867 22.7839 15.4867 22.1361Z" fill="#2D3958"/>
    <path d="M28.4602 27.9996C25.3782 27.9996 22.8796 25.407 22.8796 22.209C22.8796 19.011 25.3782 16.4185 28.4602 16.4185C31.5423 16.4185 34.0408 19.0111 34.0408 22.209C34.0409 25.4071 31.5423 27.9996 28.4602 27.9996Z" fill="#2D3958"/>
    <path d="M33.0977 22.9038C33.0977 20.1318 30.9592 17.8847 28.321 17.8847V27.9229C30.9591 27.9229 33.0977 25.6759 33.0977 22.9038Z" fill="#2D3958"/>
    <path d="M29.263 26.0172C27.6801 26.0172 26.397 24.6689 26.397 23.0057C26.397 21.3426 27.6801 19.9943 29.263 19.9943C30.8458 19.9943 32.129 21.3426 32.129 23.0057C32.1291 24.6689 30.8459 26.0172 29.263 26.0172Z" fill="#DBDFE3"/>
    <path d="M32.1314 23.0057C32.1314 21.3426 30.8482 19.9943 29.2654 19.9943V26.0172C30.8482 26.0172 32.1314 24.6689 32.1314 23.0057Z" fill="#CAD1D7"/>
    <path d="M29.2649 24.0096C28.7373 24.0096 28.3096 23.5601 28.3096 23.0057C28.3096 22.4514 28.7373 22.0019 29.2649 22.0019C29.7925 22.0019 30.2202 22.4514 30.2202 23.0057C30.2202 23.5602 29.7926 24.0096 29.2649 24.0096Z" fill="#2D3958"/>
    <path d="M30.2207 23.0057C30.2207 22.4514 29.793 22.0019 29.2654 22.0019V24.0096C29.793 24.0096 30.2207 23.5602 30.2207 23.0057Z" fill="#2D3958"/>
    <path d="M27.3439 8.21004V3.51899C27.3439 2.87131 26.8523 2.34622 26.246 2.34622H22.7093L21.0657 9.3828H26.246C26.8523 9.3828 27.3439 8.85778 27.3439 8.21004Z" fill="white"/>
    <path d="M16.602 11.727C15.9858 11.727 15.4858 11.202 15.4858 10.5542V8.20868C15.4858 7.56087 15.9858 7.03592 16.602 7.03592C17.2182 7.03592 17.7181 7.56087 17.7181 8.20868V10.5542C17.7181 11.2021 17.2182 11.727 16.602 11.727Z" fill="#2D3958"/>
    <path d="M28.4699 0H21.7899C21.6638 0 21.5376 0.0234622 21.4188 0.062519C21.0774 0.195425 20.8028 0.500363 20.7063 0.891283L18.6949 9.38214H17.7077C15.251 9.38214 13.2544 11.4853 13.2544 14.0732V17.5915C13.2544 18.2404 13.7517 18.7642 14.3677 18.7642H30.6966C31.3126 18.7642 31.8099 18.2404 31.8099 17.5915V3.51835C31.81 1.57941 30.3107 0 28.4699 0Z" fill="#FF3C79"/>
    <path d="M31.8097 3.51823V17.5915C31.8097 18.2404 31.3156 18.7642 30.7036 18.7642H21.4856V0.0625195C21.6036 0.0233921 21.729 2.34313e-09 21.8543 2.34313e-09H28.4912C30.3201 -7.02443e-05 31.8097 1.57936 31.8097 3.51823Z" fill="#EC2E6A"/>
    <path d="M28.5026 16.4185H14.469C11.4095 16.4185 8.92944 19.0109 8.92944 22.209C8.92944 25.4071 11.4095 27.9996 14.469 27.9996H28.5026C31.5621 27.9996 34.0422 25.4071 34.0422 22.209C34.0422 19.0109 31.562 16.4185 28.5026 16.4185Z" fill="#2D3958"/>
    <path d="M28.5024 16.4185H21.4856V27.9996H28.5024C31.5619 27.9996 34.0419 25.4071 34.0419 22.209C34.0419 19.0109 31.5618 16.4185 28.5024 16.4185Z" fill="#2D3958"/>
    <path d="M28.4911 18.7643H14.4798C12.6471 18.7643 11.1614 20.3067 11.1614 22.2093C11.1614 24.1119 12.6471 25.6543 14.4798 25.6543H28.4911C30.3239 25.6543 31.8096 24.1119 31.8096 22.2093C31.8097 20.3067 30.3239 18.7643 28.4911 18.7643Z" fill="#DBDFE3"/>
    <path d="M28.4912 18.7643H21.4856V25.6543H28.4912C30.324 25.6543 31.8097 24.1119 31.8097 22.2093C31.8098 20.3067 30.324 18.7643 28.4912 18.7643Z" fill="#CAD1D7"/>
    <path d="M14.4403 27.9996C11.3967 27.9996 8.92944 25.407 8.92944 22.209C8.92944 19.011 11.3967 16.4185 14.4403 16.4185C17.4839 16.4185 19.9511 19.0111 19.9511 22.209C19.9511 25.4071 17.4839 27.9996 14.4403 27.9996Z" fill="#2D3958"/>
    <path d="M19.9512 22.209C19.9512 19.0109 17.4528 16.4185 14.3706 16.4185V27.9996C17.4527 27.9996 19.9512 25.4071 19.9512 22.209Z" fill="#2D3958"/>
    <path d="M14.44 25.6543C12.6293 25.6543 11.1614 24.1119 11.1614 22.2093C11.1614 20.3067 12.6293 18.7643 14.44 18.7643C16.2507 18.7643 17.7186 20.3067 17.7186 22.2093C17.7186 24.1119 16.2507 25.6543 14.44 25.6543Z" fill="#DBDFE3"/>
    <path d="M17.719 22.2093C17.719 20.3067 16.2198 18.7643 14.3706 18.7643V25.6543C16.2198 25.6543 17.719 24.1119 17.719 22.2093Z" fill="#CAD1D7"/>
    <path d="M14.3705 23.3089C13.7541 23.3089 13.2544 22.7838 13.2544 22.1361C13.2544 21.4885 13.7541 20.9634 14.3705 20.9634C14.9869 20.9634 15.4866 21.4885 15.4866 22.1361C15.4866 22.7839 14.9869 23.3089 14.3705 23.3089Z" fill="#2D3958"/>
    <path d="M15.4867 22.1361C15.4867 21.4885 14.987 20.9634 14.3706 20.9634V23.3089C14.987 23.3089 15.4867 22.7839 15.4867 22.1361Z" fill="#2D3958"/>
    <path d="M28.4602 27.9996C25.3782 27.9996 22.8796 25.407 22.8796 22.209C22.8796 19.011 25.3782 16.4185 28.4602 16.4185C31.5423 16.4185 34.0408 19.0111 34.0408 22.209C34.0409 25.4071 31.5423 27.9996 28.4602 27.9996Z" fill="#2D3958"/>
    <path d="M34.042 22.2096C34.042 19.0924 31.8558 16.5656 29.1589 16.5656V27.8535C31.8557 27.8535 34.042 25.3267 34.042 22.2096Z" fill="#2D3958"/>
    <path d="M29.263 26.0172C27.6801 26.0172 26.397 24.6689 26.397 23.0057C26.397 21.3426 27.6801 19.9943 29.263 19.9943C30.8458 19.9943 32.129 21.3426 32.129 23.0057C32.1291 24.6689 30.8459 26.0172 29.263 26.0172Z" fill="#DBDFE3"/>
    <path d="M32.1314 23.0057C32.1314 21.3426 30.8482 19.9943 29.2654 19.9943V26.0172C30.8482 26.0172 32.1314 24.6689 32.1314 23.0057Z" fill="#CAD1D7"/>
    <path d="M29.2649 24.0096C28.7373 24.0096 28.3096 23.5601 28.3096 23.0057C28.3096 22.4514 28.7373 22.0019 29.2649 22.0019C29.7925 22.0019 30.2202 22.4514 30.2202 23.0057C30.2202 23.5602 29.7926 24.0096 29.2649 24.0096Z" fill="#2D3958"/>
    <path d="M30.2207 23.0057C30.2207 22.4514 29.793 22.0019 29.2654 22.0019V24.0096C29.793 24.0096 30.2207 23.5602 30.2207 23.0057Z" fill="#2D3958"/>
    <path d="M27.3439 8.21004V3.51899C27.3439 2.87131 26.8523 2.34622 26.246 2.34622H22.7093L21.0657 9.3828H26.246C26.8523 9.3828 27.3439 8.85778 27.3439 8.21004Z" fill="white"/>
    <path d="M16.602 11.727C15.9858 11.727 15.4858 11.202 15.4858 10.5542V8.20868C15.4858 7.56087 15.9858 7.03592 16.602 7.03592C17.2182 7.03592 17.7181 7.56087 17.7181 8.20868V10.5542C17.7181 11.2021 17.2182 11.727 16.602 11.727Z" fill="#2D3958"/>
    <path d="M28.4699 0H21.7899C21.6638 0 21.5376 0.0234622 21.4188 0.062519C21.0774 0.195425 20.8028 0.500363 20.7063 0.891283L18.6949 9.38214H17.7077C15.251 9.38214 13.2544 11.4853 13.2544 14.0732V17.5915C13.2544 18.2404 13.7517 18.7642 14.3677 18.7642H30.6966C31.3126 18.7642 31.8099 18.2404 31.8099 17.5915V3.51835C31.81 1.57941 30.3107 0 28.4699 0Z" fill="#FF658B"/>
    <path d="M31.8097 3.51823V17.5915C31.8097 18.2404 31.3156 18.7642 30.7036 18.7642H21.4856V0.0625195C21.6036 0.0233921 21.729 2.34313e-09 21.8543 2.34313e-09H28.4912C30.3201 -7.02443e-05 31.8097 1.57936 31.8097 3.51823Z" fill="#FF527C"/>
    <path d="M28.5026 16.4185H14.469C11.4095 16.4185 8.92944 19.0109 8.92944 22.209C8.92944 25.4071 11.4095 27.9996 14.469 27.9996H28.5026C31.5621 27.9996 34.0422 25.4071 34.0422 22.209C34.0422 19.0109 31.562 16.4185 28.5026 16.4185Z" fill="#2D3958"/>
    <path d="M28.5024 16.4185H21.4856V27.9996H28.5024C31.5619 27.9996 34.0419 25.4071 34.0419 22.209C34.0419 19.0109 31.5618 16.4185 28.5024 16.4185Z" fill="#2D3958"/>
    <path d="M28.4911 18.7643H14.4798C12.6471 18.7643 11.1614 20.3067 11.1614 22.2093C11.1614 24.1119 12.6471 25.6543 14.4798 25.6543H28.4911C30.3239 25.6543 31.8096 24.1119 31.8096 22.2093C31.8097 20.3067 30.3239 18.7643 28.4911 18.7643Z" fill="#DBDFE3"/>
    <path d="M28.4912 18.7643H21.4856V25.6543H28.4912C30.324 25.6543 31.8097 24.1119 31.8097 22.2093C31.8098 20.3067 30.324 18.7643 28.4912 18.7643Z" fill="#CAD1D7"/>
    <path d="M5.58122 28.0002H1.11724C0.26107 28.0002 -0.275838 27.0347 0.148033 26.2593L9.07601 9.96788C9.64474 8.93475 11.1612 9.35805 11.1612 10.5451V22.1819C11.1612 25.3904 8.65815 28.0002 5.58122 28.0002Z" fill="#5286FF"/>
    <path d="M14.4403 27.9996C11.3967 27.9996 8.92944 25.407 8.92944 22.209C8.92944 19.011 11.3967 16.4185 14.4403 16.4185C17.4839 16.4185 19.9511 19.0111 19.9511 22.209C19.9511 25.4071 17.4839 27.9996 14.4403 27.9996Z" fill="#2D3958"/>
    <path d="M19.9512 22.209C19.9512 19.0109 17.4528 16.4185 14.3706 16.4185V27.9996C17.4527 27.9996 19.9512 25.4071 19.9512 22.209Z" fill="#2D3958"/>
    <path d="M14.44 25.6543C12.6293 25.6543 11.1614 24.1119 11.1614 22.2093C11.1614 20.3067 12.6293 18.7643 14.44 18.7643C16.2507 18.7643 17.7186 20.3067 17.7186 22.2093C17.7186 24.1119 16.2507 25.6543 14.44 25.6543Z" fill="#DBDFE3"/>
    <path d="M17.719 22.2093C17.719 20.3067 16.2198 18.7643 14.3706 18.7643V25.6543C16.2198 25.6543 17.719 24.1119 17.719 22.2093Z" fill="#CAD1D7"/>
    <path d="M14.3705 23.3089C13.7541 23.3089 13.2544 22.7838 13.2544 22.1361C13.2544 21.4885 13.7541 20.9634 14.3705 20.9634C14.9869 20.9634 15.4866 21.4885 15.4866 22.1361C15.4866 22.7839 14.9869 23.3089 14.3705 23.3089Z" fill="#2D3958"/>
    <path d="M15.4867 22.1361C15.4867 21.4885 14.987 20.9634 14.3706 20.9634V23.3089C14.987 23.3089 15.4867 22.7839 15.4867 22.1361Z" fill="#2D3958"/>
    <path d="M28.4602 27.9996C25.3782 27.9996 22.8796 25.407 22.8796 22.209C22.8796 19.011 25.3782 16.4185 28.4602 16.4185C31.5423 16.4185 34.0408 19.0111 34.0408 22.209C34.0409 25.4071 31.5423 27.9996 28.4602 27.9996Z" fill="#2D3958"/>
    <path d="M29.263 26.0172C27.6801 26.0172 26.397 24.6689 26.397 23.0057C26.397 21.3426 27.6801 19.9943 29.263 19.9943C30.8458 19.9943 32.129 21.3426 32.129 23.0057C32.1291 24.6689 30.8459 26.0172 29.263 26.0172Z" fill="#DBDFE3"/>
    <path d="M32.1314 23.0057C32.1314 21.3426 30.8482 19.9943 29.2654 19.9943V26.0172C30.8482 26.0172 32.1314 24.6689 32.1314 23.0057Z" fill="#CAD1D7"/>
    <path d="M29.2649 24.0096C28.7373 24.0096 28.3096 23.5601 28.3096 23.0057C28.3096 22.4514 28.7373 22.0019 29.2649 22.0019C29.7925 22.0019 30.2202 22.4514 30.2202 23.0057C30.2202 23.5602 29.7926 24.0096 29.2649 24.0096Z" fill="#2D3958"/>
    <path d="M30.2207 23.0057C30.2207 22.4514 29.793 22.0019 29.2654 22.0019V24.0096C29.793 24.0096 30.2207 23.5602 30.2207 23.0057Z" fill="#2D3958"/>
    <path d="M27.3439 8.21004V3.51899C27.3439 2.87131 26.8523 2.34622 26.246 2.34622H22.7093L21.0657 9.3828H26.246C26.8523 9.3828 27.3439 8.85778 27.3439 8.21004Z" fill="white"/>
    <path d="M16.602 11.727C15.9858 11.727 15.4858 11.202 15.4858 10.5542V8.20868C15.4858 7.56087 15.9858 7.03592 16.602 7.03592C17.2182 7.03592 17.7181 7.56087 17.7181 8.20868V10.5542C17.7181 11.2021 17.2182 11.727 16.602 11.727Z" fill="#2D3958"/>
    <path d="M28.4699 0H21.7899C21.6638 0 21.5376 0.0234622 21.4188 0.062519C21.0774 0.195425 20.8028 0.500363 20.7063 0.891283L18.6949 9.38214H17.7077C15.251 9.38214 13.2544 11.4853 13.2544 14.0732V17.5915C13.2544 18.2404 13.7517 18.7642 14.3677 18.7642H30.6966C31.3126 18.7642 31.8099 18.2404 31.8099 17.5915V3.51835C31.81 1.57941 30.3107 0 28.4699 0Z" fill="#5E8EFF"/>
    <path d="M31.8097 3.51823V17.5915C31.8097 18.2404 31.3156 18.7642 30.7036 18.7642H21.4856V0.0625195C21.6036 0.0233921 21.729 2.34313e-09 21.8543 2.34313e-09H28.4912C30.3201 -7.02443e-05 31.8097 1.57936 31.8097 3.51823Z" fill="#5286FF"/>
    <path d="M28.5026 16.4185H14.469C11.4095 16.4185 8.92944 19.0109 8.92944 22.209C8.92944 25.4071 11.4095 27.9996 14.469 27.9996H28.5026C31.5621 27.9996 34.0422 25.4071 34.0422 22.209C34.0422 19.0109 31.562 16.4185 28.5026 16.4185Z" fill="#2D3958"/>
    <path d="M28.5024 16.4185H21.4856V27.9996H28.5024C31.5619 27.9996 34.0419 25.4071 34.0419 22.209C34.0419 19.0109 31.5618 16.4185 28.5024 16.4185Z" fill="#2D3958"/>
    <path d="M28.4911 18.7643H14.4798C12.6471 18.7643 11.1614 20.3067 11.1614 22.2093C11.1614 24.1119 12.6471 25.6543 14.4798 25.6543H28.4911C30.3239 25.6543 31.8096 24.1119 31.8096 22.2093C31.8097 20.3067 30.3239 18.7643 28.4911 18.7643Z" fill="white"/>
    <path d="M28.4912 18.7643H21.4856V25.6543H28.4912C30.324 25.6543 31.8097 24.1119 31.8097 22.2093C31.8098 20.3067 30.324 18.7643 28.4912 18.7643Z" fill="white"/>
    <path d="M14.4403 27.9996C11.3967 27.9996 8.92944 25.407 8.92944 22.209C8.92944 19.011 11.3967 16.4185 14.4403 16.4185C17.4839 16.4185 19.9511 19.0111 19.9511 22.209C19.9511 25.4071 17.4839 27.9996 14.4403 27.9996Z" fill="#2D3958"/>
    <path d="M19.9512 22.209C19.9512 19.0109 17.4528 16.4185 14.3706 16.4185V27.9996C17.4527 27.9996 19.9512 25.4071 19.9512 22.209Z" fill="#2D3958"/>
    <path d="M14.44 25.6543C12.6293 25.6543 11.1614 24.1119 11.1614 22.2093C11.1614 20.3067 12.6293 18.7643 14.44 18.7643C16.2507 18.7643 17.7186 20.3067 17.7186 22.2093C17.7186 24.1119 16.2507 25.6543 14.44 25.6543Z" fill="white"/>
    <path d="M17.719 22.2093C17.719 20.3067 16.2198 18.7643 14.3706 18.7643V25.6543C16.2198 25.6543 17.719 24.1119 17.719 22.2093Z" fill="white"/>
    <path d="M14.3705 23.3089C13.7541 23.3089 13.2544 22.7838 13.2544 22.1361C13.2544 21.4885 13.7541 20.9634 14.3705 20.9634C14.9869 20.9634 15.4866 21.4885 15.4866 22.1361C15.4866 22.7839 14.9869 23.3089 14.3705 23.3089Z" fill="#2D3958"/>
    <path d="M28.4602 27.9996C25.3782 27.9996 22.8796 25.407 22.8796 22.209C22.8796 19.011 25.3782 16.4185 28.4602 16.4185C31.5423 16.4185 34.0408 19.0111 34.0408 22.209C34.0409 25.4071 31.5423 27.9996 28.4602 27.9996Z" fill="#2D3958"/>
    <path d="M34.0423 22.1357C34.0423 18.9781 31.5438 16.4185 28.4617 16.4185V27.853C31.5437 27.853 34.0423 25.2933 34.0423 22.1357Z" fill="#2D3958"/>
    <path d="M28.8096 25.6543C26.9989 25.6543 25.531 24.1119 25.531 22.2093C25.531 20.3067 26.9989 18.7643 28.8096 18.7643C30.6203 18.7643 32.0882 20.3067 32.0882 22.2093C32.0882 24.1119 30.6203 25.6543 28.8096 25.6543Z" fill="white"/>
    <path d="M27.3439 8.21004V3.51899C27.3439 2.87131 26.8523 2.34622 26.246 2.34622H22.7093L21.0657 9.3828H26.246C26.8523 9.3828 27.3439 8.85778 27.3439 8.21004Z" fill="white"/>
    <path d="M28.7406 23.4551C28.1242 23.4551 27.6245 22.93 27.6245 22.2824C27.6245 21.6347 28.1242 21.1096 28.7406 21.1096C29.357 21.1096 29.8568 21.6347 29.8568 22.2824C29.8568 22.9301 29.357 23.4551 28.7406 23.4551Z" fill="#2D3958"/>
</svg>
