<svg width="194" height="32" viewBox="0 0 194 32" fill="none" xmlns="http://www.w3.org/2000/svg">
    <path d="M77.466 12.5783C76.5424 11.4254 75.4014 10.8489 74.043 10.8489C73.4454 10.8489 72.8885 10.96 72.3723 11.1823C71.8697 11.4045 71.435 11.7101 71.0683 12.0991C70.7015 12.4741 70.4095 12.9255 70.1922 13.4534C69.9884 13.9812 69.8865 14.5507 69.8865 15.1619C69.8865 15.787 69.9884 16.3634 70.1922 16.8913C70.4095 17.4191 70.7015 17.8775 71.0683 18.2664C71.4486 18.6554 71.8901 18.961 72.3927 19.1832C72.8952 19.4054 73.4386 19.5166 74.0227 19.5166C75.2995 19.5166 76.4473 18.961 77.466 17.8497V22.6836L77.0585 22.8294C76.4473 23.0517 75.8768 23.2114 75.347 23.3087C74.8173 23.4198 74.2943 23.4754 73.7782 23.4754C72.7187 23.4754 71.6999 23.2739 70.7219 22.8711C69.7575 22.4544 68.9017 21.878 68.1547 21.1418C67.4212 20.3917 66.8303 19.5096 66.382 18.4956C65.9338 17.4677 65.7097 16.3495 65.7097 15.1411C65.7097 13.9326 65.927 12.8283 66.3617 11.8282C66.8099 10.8142 67.4008 9.94604 68.1343 9.22373C68.8814 8.48754 69.7439 7.91803 70.7219 7.51521C71.6999 7.09849 72.7255 6.89014 73.7985 6.89014C74.4098 6.89014 75.0075 6.95959 75.5915 7.09849C76.1892 7.22351 76.814 7.42492 77.466 7.70273V12.5783Z" fill="white"/>
    <path d="M79.646 12.3491H83.3339V14.0993C83.7278 13.4603 84.21 12.9742 84.7805 12.6408C85.351 12.2935 86.0166 12.1199 86.7773 12.1199C86.8723 12.1199 86.9742 12.1199 87.0829 12.1199C87.2051 12.1199 87.341 12.1338 87.4904 12.1616V15.7661C87.0014 15.5161 86.4716 15.3911 85.9011 15.3911C85.0454 15.3911 84.4002 15.655 83.9655 16.1829C83.5444 16.6968 83.3339 17.4538 83.3339 18.4539V23.0378H79.646V12.3491Z" fill="white"/>
    <path d="M92.825 12.3491V18.3706C92.825 19.6902 93.4498 20.35 94.6995 20.35C95.9492 20.35 96.574 19.6902 96.574 18.3706V12.3491H100.262V19.0999C100.262 20.5445 99.7932 21.6279 98.856 22.3502C97.9323 23.0725 96.5468 23.4337 94.6995 23.4337C92.8521 23.4337 91.4599 23.0725 90.5226 22.3502C89.5989 21.6279 89.1371 20.5445 89.1371 19.0999V12.3491H92.825Z" fill="white"/>
    <path d="M109.694 15.0994C109.015 14.7383 108.35 14.5577 107.698 14.5577C107.358 14.5577 107.08 14.6271 106.862 14.766C106.659 14.9049 106.557 15.0925 106.557 15.3286C106.557 15.4536 106.57 15.5578 106.597 15.6411C106.638 15.7106 106.713 15.78 106.822 15.8495C106.944 15.9189 107.114 15.9814 107.331 16.037C107.562 16.0926 107.861 16.162 108.227 16.2454C109.246 16.4537 110.007 16.8288 110.509 17.3705C111.012 17.8983 111.263 18.579 111.263 19.4124C111.263 20.0375 111.141 20.6 110.897 21.1001C110.652 21.6001 110.312 22.0238 109.878 22.3711C109.443 22.7044 108.92 22.9614 108.309 23.142C107.698 23.3365 107.025 23.4337 106.292 23.4337C104.879 23.4337 103.487 23.0239 102.115 22.2044L103.46 19.5374C104.492 20.2597 105.47 20.6209 106.394 20.6209C106.733 20.6209 107.012 20.5445 107.229 20.3917C107.446 20.2389 107.555 20.0444 107.555 19.8083C107.555 19.6694 107.535 19.5582 107.494 19.4749C107.467 19.3777 107.399 19.2943 107.29 19.2249C107.181 19.1415 107.018 19.0721 106.801 19.0165C106.597 18.9471 106.326 18.8776 105.986 18.8082C104.845 18.572 104.044 18.2248 103.582 17.7664C103.134 17.2941 102.91 16.6482 102.91 15.8287C102.91 15.2314 103.018 14.6966 103.235 14.2243C103.453 13.7381 103.765 13.3284 104.173 12.995C104.58 12.6616 105.069 12.4047 105.64 12.2241C106.224 12.0435 106.869 11.9532 107.575 11.9532C108.73 11.9532 109.851 12.1824 110.937 12.6408L109.694 15.0994Z" fill="white"/>
    <path d="M113.133 5.74417H116.821V13.7034C117.324 13.0783 117.833 12.6616 118.349 12.4533C118.866 12.231 119.47 12.1199 120.163 12.1199C121.48 12.1199 122.472 12.4949 123.138 13.245C123.817 13.9812 124.156 14.9813 124.156 16.2454V23.0378H120.468V17.6414C120.468 17.0996 120.428 16.6621 120.346 16.3287C120.265 15.9953 120.129 15.7384 119.939 15.5578C119.613 15.2661 119.219 15.1202 118.757 15.1202C118.132 15.1202 117.65 15.3147 117.31 15.7036C116.984 16.0787 116.821 16.6204 116.821 17.3288V23.0378H113.133V5.74417Z" fill="white"/>
    <path d="M134.304 16.1412C134.182 15.6133 133.931 15.1897 133.55 14.8702C133.17 14.5507 132.708 14.391 132.165 14.391C131.594 14.391 131.126 14.5438 130.759 14.8494C130.406 15.155 130.182 15.5856 130.087 16.1412H134.304ZM129.985 18.3289C129.985 19.9541 130.732 20.7667 132.226 20.7667C133.028 20.7667 133.632 20.4333 134.04 19.7666H137.605C136.885 22.2113 135.085 23.4337 132.206 23.4337C131.323 23.4337 130.515 23.3017 129.781 23.0378C129.048 22.76 128.416 22.3711 127.886 21.871C127.37 21.371 126.969 20.7737 126.684 20.0791C126.399 19.3846 126.256 18.6067 126.256 17.7455C126.256 16.8565 126.392 16.0578 126.664 15.3494C126.935 14.6271 127.323 14.0159 127.825 13.5159C128.328 13.0158 128.932 12.6338 129.638 12.3699C130.358 12.0921 131.167 11.9532 132.063 11.9532C132.946 11.9532 133.741 12.0921 134.447 12.3699C135.153 12.6338 135.751 13.0228 136.24 13.5367C136.729 14.0507 137.103 14.6827 137.361 15.4328C137.619 16.169 137.748 17.0024 137.748 17.9331V18.3289H129.985Z" fill="white"/>
    <path d="M139.856 12.3491H143.544V14.0993C143.938 13.4603 144.42 12.9742 144.99 12.6408C145.561 12.2935 146.226 12.1199 146.987 12.1199C147.082 12.1199 147.184 12.1199 147.293 12.1199C147.415 12.1199 147.551 12.1338 147.7 12.1616V15.7661C147.211 15.5161 146.681 15.3911 146.111 15.3911C145.255 15.3911 144.61 15.655 144.175 16.1829C143.754 16.6968 143.544 17.4538 143.544 18.4539V23.0378H139.856V12.3491Z" fill="white"/>
    <path d="M147.89 21.0376C147.89 20.7042 147.951 20.3917 148.073 20.1C148.196 19.7944 148.365 19.5305 148.583 19.3082C148.8 19.086 149.051 18.9123 149.337 18.7873C149.636 18.6623 149.948 18.5998 150.274 18.5998C150.6 18.5998 150.906 18.6623 151.191 18.7873C151.49 18.9123 151.748 19.086 151.965 19.3082C152.182 19.5305 152.352 19.7944 152.474 20.1C152.597 20.3917 152.658 20.7042 152.658 21.0376C152.658 21.371 152.597 21.6904 152.474 21.996C152.352 22.2877 152.182 22.5447 151.965 22.7669C151.748 22.9892 151.49 23.1628 151.191 23.2878C150.906 23.4128 150.6 23.4754 150.274 23.4754C149.948 23.4754 149.636 23.4128 149.337 23.2878C149.051 23.1628 148.8 22.9892 148.583 22.7669C148.365 22.5447 148.196 22.2877 148.073 21.996C147.951 21.6904 147.89 21.371 147.89 21.0376Z" fill="white"/>
    <path d="M158.421 17.6622C158.421 18.0095 158.482 18.3359 158.604 18.6415C158.726 18.9332 158.889 19.1901 159.093 19.4124C159.31 19.6346 159.562 19.8083 159.847 19.9333C160.146 20.0583 160.465 20.1208 160.805 20.1208C161.131 20.1208 161.436 20.0583 161.722 19.9333C162.02 19.8083 162.272 19.6346 162.475 19.4124C162.693 19.1901 162.863 18.9332 162.985 18.6415C163.121 18.3498 163.189 18.0372 163.189 17.7039C163.189 17.3705 163.121 17.058 162.985 16.7663C162.863 16.4607 162.693 16.1967 162.475 15.9745C162.272 15.7523 162.02 15.5786 161.722 15.4536C161.436 15.3286 161.131 15.2661 160.805 15.2661C160.479 15.2661 160.166 15.3286 159.867 15.4536C159.582 15.5786 159.331 15.7523 159.114 15.9745C158.91 16.1967 158.74 16.4537 158.604 16.7454C158.482 17.0232 158.421 17.3288 158.421 17.6622ZM163.066 5.74417H166.775V23.0378H163.066V21.8502C162.278 22.8642 161.212 23.3712 159.867 23.3712C159.107 23.3712 158.407 23.2253 157.769 22.9336C157.13 22.6419 156.573 22.2391 156.098 21.7252C155.623 21.2112 155.249 20.607 154.977 19.9125C154.719 19.2179 154.59 18.4678 154.59 17.6622C154.59 16.8982 154.713 16.1759 154.957 15.4953C155.215 14.8008 155.575 14.1965 156.037 13.6826C156.499 13.1686 157.049 12.7658 157.687 12.4741C158.339 12.1685 159.052 12.0157 159.827 12.0157C161.131 12.0157 162.211 12.481 163.066 13.4117V5.74417Z" fill="white"/>
    <path d="M176.925 16.1412C176.803 15.6133 176.551 15.1897 176.171 14.8702C175.791 14.5507 175.329 14.391 174.785 14.391C174.215 14.391 173.746 14.5438 173.38 14.8494C173.026 15.155 172.802 15.5856 172.707 16.1412H176.925ZM172.605 18.3289C172.605 19.9541 173.352 20.7667 174.847 20.7667C175.648 20.7667 176.252 20.4333 176.66 19.7666H180.226C179.506 22.2113 177.706 23.4337 174.826 23.4337C173.943 23.4337 173.135 23.3017 172.402 23.0378C171.668 22.76 171.036 22.3711 170.507 21.871C169.99 21.371 169.59 20.7737 169.305 20.0791C169.019 19.3846 168.877 18.6067 168.877 17.7455C168.877 16.8565 169.012 16.0578 169.284 15.3494C169.556 14.6271 169.943 14.0159 170.446 13.5159C170.948 13.0158 171.553 12.6338 172.259 12.3699C172.979 12.0921 173.787 11.9532 174.684 11.9532C175.566 11.9532 176.361 12.0921 177.067 12.3699C177.774 12.6338 178.371 13.0228 178.86 13.5367C179.349 14.0507 179.723 14.6827 179.981 15.4328C180.239 16.169 180.368 17.0024 180.368 17.9331V18.3289H172.605Z" fill="white"/>
    <path d="M184.872 12.3491L187.358 17.8289L189.884 12.3491H194L188.56 23.0378H186.094L180.715 12.3491H184.872Z" fill="white"/>
    <path d="M18.8448 13.3113C18.1454 13.3113 17.5779 12.7155 17.5779 11.9801V9.31776C17.5779 8.58244 18.1454 7.98657 18.8448 7.98657C19.5442 7.98657 20.1117 8.58244 20.1117 9.31776V11.9801C20.1117 12.7156 19.5442 13.3113 18.8448 13.3113Z" fill="#2D3958"/>
    <path d="M32.3161 0H24.7338C24.5906 0 24.4473 0.0266317 24.3125 0.0709647C23.925 0.221825 23.6133 0.567957 23.5037 1.01169L21.2206 10.6496H20.1001C17.3115 10.6496 15.0452 13.0369 15.0452 15.9743V19.9679C15.0452 20.7045 15.6096 21.2991 16.3089 21.2991H34.8436C35.5429 21.2991 36.1073 20.7045 36.1073 19.9679V3.99364C36.1074 1.79278 34.4056 0 32.3161 0Z" fill="#FF658B"/>
    <path d="M36.1068 3.99351V19.9679C36.1068 20.7045 35.546 21.2991 34.8512 21.2991H24.388V0.0709653C24.5219 0.0265521 24.6642 2.65967e-09 24.8065 2.65967e-09H32.34C34.4159 -7.97337e-05 36.1068 1.79271 36.1068 3.99351Z" fill="#FF527C"/>
    <path d="M32.3536 18.6367H16.4242C12.9514 18.6367 10.1363 21.5794 10.1363 25.2095C10.1363 28.8396 12.9514 31.7822 16.4242 31.7822H32.3536C35.8264 31.7822 38.6415 28.8396 38.6415 25.2095C38.6415 21.5794 35.8263 18.6367 32.3536 18.6367Z" fill="#2D3958"/>
    <path d="M32.3527 18.6367H24.388V31.7822H32.3527C35.8255 31.7822 38.6406 28.8396 38.6406 25.2095C38.6406 21.5794 35.8254 18.6367 32.3527 18.6367Z" fill="#2D3958"/>
    <path d="M32.3398 21.2989H16.4357C14.3554 21.2989 12.6689 23.0497 12.6689 25.2093C12.6689 27.3689 14.3554 29.1197 16.4357 29.1197H32.3398C34.4201 29.1197 36.1065 27.3689 36.1065 25.2093C36.1066 23.0497 34.4202 21.2989 32.3398 21.2989Z" fill="#DBDFE3"/>
    <path d="M32.34 21.2989H24.388V29.1197H32.34C34.4203 29.1197 36.1068 27.3689 36.1068 25.2093C36.1069 23.0497 34.4204 21.2989 32.34 21.2989Z" fill="#CAD1D7"/>
    <path d="M6.33519 31.7822H1.26816C0.296338 31.7822 -0.313101 30.6863 0.168031 29.8061L10.3021 11.3138C10.9476 10.1412 12.669 10.6216 12.669 11.9691V25.1778C12.669 28.8198 9.82778 31.7822 6.33519 31.7822Z" fill="#FF3C79"/>
    <path d="M16.3916 31.7822C12.9369 31.7822 10.1363 28.8394 10.1363 25.2095C10.1363 21.5794 12.9369 18.6367 16.3916 18.6367C19.8463 18.6367 22.6469 21.5795 22.6469 25.2095C22.6469 28.8396 19.8463 31.7822 16.3916 31.7822Z" fill="#2D3958"/>
    <path d="M22.6469 25.2095C22.6469 21.5794 19.8109 18.6367 16.3124 18.6367V31.7822C19.8108 31.7822 22.6469 28.8396 22.6469 25.2095Z" fill="#2D3958"/>
    <path d="M16.3904 29.1197C14.3351 29.1197 12.6689 27.3689 12.6689 25.2093C12.6689 23.0497 14.3351 21.2989 16.3904 21.2989C18.4458 21.2989 20.112 23.0497 20.112 25.2093C20.112 27.3689 18.4458 29.1197 16.3904 29.1197Z" fill="#DBDFE3"/>
    <path d="M20.1131 25.2093C20.1131 23.0497 18.4114 21.2989 16.3124 21.2989V29.1197C18.4114 29.1197 20.1131 27.3689 20.1131 25.2093Z" fill="#CAD1D7"/>
    <path d="M16.3121 26.4583C15.6124 26.4583 15.0452 25.8622 15.0452 25.1271C15.0452 24.3919 15.6124 23.7959 16.3121 23.7959C17.0117 23.7959 17.579 24.3919 17.579 25.1271C17.579 25.8623 17.0117 26.4583 16.3121 26.4583Z" fill="#2D3958"/>
    <path d="M17.5793 25.1271C17.5793 24.3919 17.012 23.7959 16.3124 23.7959V26.4583C17.012 26.4583 17.5793 25.8623 17.5793 25.1271Z" fill="#2D3958"/>
    <path d="M32.3049 31.7822C28.8064 31.7822 25.9704 28.8394 25.9704 25.2095C25.9704 21.5794 28.8065 18.6367 32.3049 18.6367C35.8033 18.6367 38.6394 21.5795 38.6394 25.2095C38.6395 28.8396 35.8033 31.7822 32.3049 31.7822Z" fill="#2D3958"/>
    <path d="M37.5689 25.9979C37.5689 22.8513 35.1415 20.3007 32.1469 20.3007V31.695C35.1413 31.695 37.5689 29.1444 37.5689 25.9979Z" fill="#2D3958"/>
    <path d="M33.2169 29.5321C31.4202 29.5321 29.9637 28.0016 29.9637 26.1138C29.9637 24.2259 31.4202 22.6955 33.2169 22.6955C35.0135 22.6955 36.4701 24.2259 36.4701 26.1138C36.4701 28.0016 35.0136 29.5321 33.2169 29.5321Z" fill="#DBDFE3"/>
    <path d="M36.4721 26.1138C36.4721 24.2259 35.0156 22.6955 33.2189 22.6955V29.5321C35.0156 29.5321 36.4721 28.0016 36.4721 26.1138Z" fill="#CAD1D7"/>
    <path d="M33.2181 27.253C32.6192 27.253 32.1337 26.7429 32.1337 26.1136C32.1337 25.4843 32.6192 24.9742 33.2181 24.9742C33.8169 24.9742 34.3024 25.4843 34.3024 26.1136C34.3024 26.7429 33.817 27.253 33.2181 27.253Z" fill="#2D3958"/>
    <path d="M34.3033 26.1136C34.3033 25.4843 33.8178 24.9742 33.2189 24.9742V27.253C33.8179 27.253 34.3033 26.7429 34.3033 26.1136Z" fill="#2D3958"/>
    <path d="M31.0382 9.31838V3.99361C31.0382 3.25844 30.4802 2.66241 29.792 2.66241H25.7775L23.9119 10.6496H29.792C30.4802 10.6496 31.0382 10.0536 31.0382 9.31838Z" fill="white"/>
    <path d="M18.8448 13.3113C18.1454 13.3113 17.5779 12.7155 17.5779 11.9801V9.31776C17.5779 8.58244 18.1454 7.98657 18.8448 7.98657C19.5442 7.98657 20.1117 8.58244 20.1117 9.31776V11.9801C20.1117 12.7156 19.5442 13.3113 18.8448 13.3113Z" fill="#2D3958"/>
    <path d="M32.3161 0H24.7338C24.5906 0 24.4473 0.0266317 24.3125 0.0709647C23.925 0.221825 23.6133 0.567957 23.5037 1.01169L21.2206 10.6496H20.1001C17.3115 10.6496 15.0452 13.0369 15.0452 15.9743V19.9679C15.0452 20.7045 15.6096 21.2991 16.3089 21.2991H34.8436C35.5429 21.2991 36.1073 20.7045 36.1073 19.9679V3.99364C36.1074 1.79278 34.4056 0 32.3161 0Z" fill="#FF3C79"/>
    <path d="M36.1068 3.99351V19.9679C36.1068 20.7045 35.546 21.2991 34.8512 21.2991H24.388V0.0709653C24.5219 0.0265521 24.6642 2.65966e-09 24.8065 2.65966e-09H32.34C34.4159 -7.97336e-05 36.1068 1.79271 36.1068 3.99351Z" fill="#EC2E6A"/>
    <path d="M32.3536 18.6367H16.4242C12.9514 18.6367 10.1363 21.5794 10.1363 25.2095C10.1363 28.8396 12.9514 31.7822 16.4242 31.7822H32.3536C35.8264 31.7822 38.6415 28.8396 38.6415 25.2095C38.6415 21.5794 35.8263 18.6367 32.3536 18.6367Z" fill="#2D3958"/>
    <path d="M32.3527 18.6367H24.388V31.7822H32.3527C35.8255 31.7822 38.6406 28.8396 38.6406 25.2095C38.6406 21.5794 35.8254 18.6367 32.3527 18.6367Z" fill="#2D3958"/>
    <path d="M32.3398 21.2989H16.4357C14.3554 21.2989 12.6689 23.0497 12.6689 25.2093C12.6689 27.3689 14.3554 29.1197 16.4357 29.1197H32.3398C34.4201 29.1197 36.1065 27.3689 36.1065 25.2093C36.1066 23.0497 34.4202 21.2989 32.3398 21.2989Z" fill="#DBDFE3"/>
    <path d="M32.34 21.2989H24.388V29.1197H32.34C34.4203 29.1197 36.1068 27.3689 36.1068 25.2093C36.1069 23.0497 34.4204 21.2989 32.34 21.2989Z" fill="#CAD1D7"/>
    <path d="M16.3916 31.7822C12.9369 31.7822 10.1363 28.8394 10.1363 25.2095C10.1363 21.5794 12.9369 18.6367 16.3916 18.6367C19.8463 18.6367 22.6469 21.5795 22.6469 25.2095C22.6469 28.8396 19.8463 31.7822 16.3916 31.7822Z" fill="#2D3958"/>
    <path d="M22.6469 25.2095C22.6469 21.5794 19.8109 18.6367 16.3124 18.6367V31.7822C19.8108 31.7822 22.6469 28.8396 22.6469 25.2095Z" fill="#2D3958"/>
    <path d="M16.3904 29.1197C14.3351 29.1197 12.6689 27.3689 12.6689 25.2093C12.6689 23.0497 14.3351 21.2989 16.3904 21.2989C18.4458 21.2989 20.112 23.0497 20.112 25.2093C20.112 27.3689 18.4458 29.1197 16.3904 29.1197Z" fill="#DBDFE3"/>
    <path d="M20.1131 25.2093C20.1131 23.0497 18.4114 21.2989 16.3124 21.2989V29.1197C18.4114 29.1197 20.1131 27.3689 20.1131 25.2093Z" fill="#CAD1D7"/>
    <path d="M16.3121 26.4583C15.6124 26.4583 15.0452 25.8622 15.0452 25.1271C15.0452 24.3919 15.6124 23.7959 16.3121 23.7959C17.0117 23.7959 17.579 24.3919 17.579 25.1271C17.579 25.8623 17.0117 26.4583 16.3121 26.4583Z" fill="#2D3958"/>
    <path d="M17.5793 25.1271C17.5793 24.3919 17.012 23.7959 16.3124 23.7959V26.4583C17.012 26.4583 17.5793 25.8623 17.5793 25.1271Z" fill="#2D3958"/>
    <path d="M32.3049 31.7822C28.8064 31.7822 25.9704 28.8394 25.9704 25.2095C25.9704 21.5794 28.8065 18.6367 32.3049 18.6367C35.8033 18.6367 38.6394 21.5795 38.6394 25.2095C38.6395 28.8396 35.8033 31.7822 32.3049 31.7822Z" fill="#2D3958"/>
    <path d="M38.6405 25.2097C38.6405 21.6715 36.159 18.8033 33.0978 18.8033V31.616C36.1589 31.616 38.6405 28.7479 38.6405 25.2097Z" fill="#2D3958"/>
    <path d="M33.2169 29.5321C31.4202 29.5321 29.9637 28.0016 29.9637 26.1138C29.9637 24.2259 31.4202 22.6955 33.2169 22.6955C35.0135 22.6955 36.4701 24.2259 36.4701 26.1138C36.4701 28.0016 35.0136 29.5321 33.2169 29.5321Z" fill="#DBDFE3"/>
    <path d="M36.4721 26.1138C36.4721 24.2259 35.0156 22.6955 33.2189 22.6955V29.5321C35.0156 29.5321 36.4721 28.0016 36.4721 26.1138Z" fill="#CAD1D7"/>
    <path d="M33.2181 27.253C32.6192 27.253 32.1337 26.7429 32.1337 26.1136C32.1337 25.4843 32.6192 24.9742 33.2181 24.9742C33.8169 24.9742 34.3024 25.4843 34.3024 26.1136C34.3024 26.7429 33.817 27.253 33.2181 27.253Z" fill="#2D3958"/>
    <path d="M34.3033 26.1136C34.3033 25.4843 33.8178 24.9742 33.2189 24.9742V27.253C33.8179 27.253 34.3033 26.7429 34.3033 26.1136Z" fill="#2D3958"/>
    <path d="M31.0382 9.31838V3.99361C31.0382 3.25844 30.4802 2.66241 29.792 2.66241H25.7775L23.9119 10.6496H29.792C30.4802 10.6496 31.0382 10.0536 31.0382 9.31838Z" fill="white"/>
    <path d="M18.8448 13.3113C18.1454 13.3113 17.5779 12.7155 17.5779 11.9801V9.31776C17.5779 8.58244 18.1454 7.98657 18.8448 7.98657C19.5442 7.98657 20.1117 8.58244 20.1117 9.31776V11.9801C20.1117 12.7156 19.5442 13.3113 18.8448 13.3113Z" fill="#2D3958"/>
    <path d="M32.3161 0H24.7338C24.5906 0 24.4473 0.0266317 24.3125 0.0709647C23.925 0.221825 23.6133 0.567957 23.5037 1.01169L21.2206 10.6496H20.1001C17.3115 10.6496 15.0452 13.0369 15.0452 15.9743V19.9679C15.0452 20.7045 15.6096 21.2991 16.3089 21.2991H34.8436C35.5429 21.2991 36.1073 20.7045 36.1073 19.9679V3.99364C36.1074 1.79278 34.4056 0 32.3161 0Z" fill="#FF658B"/>
    <path d="M36.1068 3.99351V19.9679C36.1068 20.7045 35.546 21.2991 34.8512 21.2991H24.388V0.0709653C24.5219 0.0265521 24.6642 2.65967e-09 24.8065 2.65967e-09H32.34C34.4159 -7.97337e-05 36.1068 1.79271 36.1068 3.99351Z" fill="#FF527C"/>
    <path d="M32.3536 18.6367H16.4242C12.9514 18.6367 10.1363 21.5794 10.1363 25.2095C10.1363 28.8396 12.9514 31.7822 16.4242 31.7822H32.3536C35.8264 31.7822 38.6415 28.8396 38.6415 25.2095C38.6415 21.5794 35.8263 18.6367 32.3536 18.6367Z" fill="#2D3958"/>
    <path d="M32.3527 18.6367H24.388V31.7822H32.3527C35.8255 31.7822 38.6406 28.8396 38.6406 25.2095C38.6406 21.5794 35.8254 18.6367 32.3527 18.6367Z" fill="#2D3958"/>
    <path d="M32.3398 21.2989H16.4357C14.3554 21.2989 12.6689 23.0497 12.6689 25.2093C12.6689 27.3689 14.3554 29.1197 16.4357 29.1197H32.3398C34.4201 29.1197 36.1065 27.3689 36.1065 25.2093C36.1066 23.0497 34.4202 21.2989 32.3398 21.2989Z" fill="#DBDFE3"/>
    <path d="M32.34 21.2989H24.388V29.1197H32.34C34.4203 29.1197 36.1068 27.3689 36.1068 25.2093C36.1069 23.0497 34.4204 21.2989 32.34 21.2989Z" fill="#CAD1D7"/>
    <path d="M6.33519 31.7822H1.26816C0.296338 31.7822 -0.313101 30.6863 0.168031 29.8061L10.3021 11.3138C10.9476 10.1412 12.669 10.6216 12.669 11.9691V25.1778C12.669 28.8198 9.82778 31.7822 6.33519 31.7822Z" fill="#5286FF"/>
    <path d="M16.3916 31.7822C12.9369 31.7822 10.1363 28.8394 10.1363 25.2095C10.1363 21.5794 12.9369 18.6367 16.3916 18.6367C19.8463 18.6367 22.6469 21.5795 22.6469 25.2095C22.6469 28.8396 19.8463 31.7822 16.3916 31.7822Z" fill="#2D3958"/>
    <path d="M22.6469 25.2095C22.6469 21.5794 19.8109 18.6367 16.3124 18.6367V31.7822C19.8108 31.7822 22.6469 28.8396 22.6469 25.2095Z" fill="#2D3958"/>
    <path d="M16.3904 29.1197C14.3351 29.1197 12.6689 27.3689 12.6689 25.2093C12.6689 23.0497 14.3351 21.2989 16.3904 21.2989C18.4458 21.2989 20.112 23.0497 20.112 25.2093C20.112 27.3689 18.4458 29.1197 16.3904 29.1197Z" fill="#DBDFE3"/>
    <path d="M20.1131 25.2093C20.1131 23.0497 18.4114 21.2989 16.3124 21.2989V29.1197C18.4114 29.1197 20.1131 27.3689 20.1131 25.2093Z" fill="#CAD1D7"/>
    <path d="M16.3121 26.4583C15.6124 26.4583 15.0452 25.8622 15.0452 25.1271C15.0452 24.3919 15.6124 23.7959 16.3121 23.7959C17.0117 23.7959 17.579 24.3919 17.579 25.1271C17.579 25.8623 17.0117 26.4583 16.3121 26.4583Z" fill="#2D3958"/>
    <path d="M17.5793 25.1271C17.5793 24.3919 17.012 23.7959 16.3124 23.7959V26.4583C17.012 26.4583 17.5793 25.8623 17.5793 25.1271Z" fill="#2D3958"/>
    <path d="M32.3049 31.7822C28.8064 31.7822 25.9704 28.8394 25.9704 25.2095C25.9704 21.5794 28.8065 18.6367 32.3049 18.6367C35.8033 18.6367 38.6394 21.5795 38.6394 25.2095C38.6395 28.8396 35.8033 31.7822 32.3049 31.7822Z" fill="#2D3958"/>
    <path d="M33.2169 29.5321C31.4202 29.5321 29.9637 28.0016 29.9637 26.1138C29.9637 24.2259 31.4202 22.6955 33.2169 22.6955C35.0135 22.6955 36.4701 24.2259 36.4701 26.1138C36.4701 28.0016 35.0136 29.5321 33.2169 29.5321Z" fill="#DBDFE3"/>
    <path d="M36.4721 26.1138C36.4721 24.2259 35.0156 22.6955 33.2189 22.6955V29.5321C35.0156 29.5321 36.4721 28.0016 36.4721 26.1138Z" fill="#CAD1D7"/>
    <path d="M33.2181 27.253C32.6192 27.253 32.1337 26.7429 32.1337 26.1136C32.1337 25.4843 32.6192 24.9742 33.2181 24.9742C33.8169 24.9742 34.3024 25.4843 34.3024 26.1136C34.3024 26.7429 33.817 27.253 33.2181 27.253Z" fill="#2D3958"/>
    <path d="M34.3033 26.1136C34.3033 25.4843 33.8178 24.9742 33.2189 24.9742V27.253C33.8179 27.253 34.3033 26.7429 34.3033 26.1136Z" fill="#2D3958"/>
    <path d="M31.0382 9.31838V3.99361C31.0382 3.25844 30.4802 2.66241 29.792 2.66241H25.7775L23.9119 10.6496H29.792C30.4802 10.6496 31.0382 10.0536 31.0382 9.31838Z" fill="white"/>
    <path d="M18.8448 13.3113C18.1454 13.3113 17.5779 12.7155 17.5779 11.9801V9.31776C17.5779 8.58244 18.1454 7.98657 18.8448 7.98657C19.5442 7.98657 20.1117 8.58244 20.1117 9.31776V11.9801C20.1117 12.7156 19.5442 13.3113 18.8448 13.3113Z" fill="#2D3958"/>
    <path d="M32.3161 0H24.7338C24.5906 0 24.4473 0.0266317 24.3125 0.0709647C23.925 0.221825 23.6133 0.567957 23.5037 1.01169L21.2206 10.6496H20.1001C17.3115 10.6496 15.0452 13.0369 15.0452 15.9743V19.9679C15.0452 20.7045 15.6096 21.2991 16.3089 21.2991H34.8436C35.5429 21.2991 36.1073 20.7045 36.1073 19.9679V3.99364C36.1074 1.79278 34.4056 0 32.3161 0Z" fill="#5E8EFF"/>
    <path d="M36.1068 3.99351V19.9679C36.1068 20.7045 35.546 21.2991 34.8512 21.2991H24.388V0.0709653C24.5219 0.0265521 24.6642 2.65966e-09 24.8065 2.65966e-09H32.34C34.4159 -7.97336e-05 36.1068 1.79271 36.1068 3.99351Z" fill="#5286FF"/>
    <path d="M32.3536 18.6367H16.4242C12.9514 18.6367 10.1363 21.5794 10.1363 25.2095C10.1363 28.8396 12.9514 31.7822 16.4242 31.7822H32.3536C35.8264 31.7822 38.6415 28.8396 38.6415 25.2095C38.6415 21.5794 35.8263 18.6367 32.3536 18.6367Z" fill="#2D3958"/>
    <path d="M32.3527 18.6367H24.388V31.7822H32.3527C35.8255 31.7822 38.6406 28.8396 38.6406 25.2095C38.6406 21.5794 35.8254 18.6367 32.3527 18.6367Z" fill="#2D3958"/>
    <path d="M32.3398 21.2989H16.4357C14.3554 21.2989 12.6689 23.0497 12.6689 25.2093C12.6689 27.3689 14.3554 29.1197 16.4357 29.1197H32.3398C34.4201 29.1197 36.1065 27.3689 36.1065 25.2093C36.1066 23.0497 34.4202 21.2989 32.3398 21.2989Z" fill="white"/>
    <path d="M32.34 21.2989H24.388V29.1197H32.34C34.4203 29.1197 36.1068 27.3689 36.1068 25.2093C36.1069 23.0497 34.4204 21.2989 32.34 21.2989Z" fill="white"/>
    <path d="M16.3916 31.7822C12.9369 31.7822 10.1363 28.8394 10.1363 25.2095C10.1363 21.5794 12.9369 18.6367 16.3916 18.6367C19.8463 18.6367 22.6469 21.5795 22.6469 25.2095C22.6469 28.8396 19.8463 31.7822 16.3916 31.7822Z" fill="#2D3958"/>
    <path d="M22.6469 25.2095C22.6469 21.5794 19.8109 18.6367 16.3124 18.6367V31.7822C19.8108 31.7822 22.6469 28.8396 22.6469 25.2095Z" fill="#2D3958"/>
    <path d="M16.3904 29.1197C14.3351 29.1197 12.6689 27.3689 12.6689 25.2093C12.6689 23.0497 14.3351 21.2989 16.3904 21.2989C18.4458 21.2989 20.112 23.0497 20.112 25.2093C20.112 27.3689 18.4458 29.1197 16.3904 29.1197Z" fill="white"/>
    <path d="M20.1131 25.2093C20.1131 23.0497 18.4114 21.2989 16.3124 21.2989V29.1197C18.4114 29.1197 20.1131 27.3689 20.1131 25.2093Z" fill="white"/>
    <path d="M16.3121 26.4583C15.6124 26.4583 15.0452 25.8622 15.0452 25.1271C15.0452 24.3919 15.6124 23.7959 16.3121 23.7959C17.0117 23.7959 17.579 24.3919 17.579 25.1271C17.579 25.8623 17.0117 26.4583 16.3121 26.4583Z" fill="#2D3958"/>
    <path d="M32.3049 31.7822C28.8064 31.7822 25.9704 28.8394 25.9704 25.2095C25.9704 21.5794 28.8065 18.6367 32.3049 18.6367C35.8033 18.6367 38.6394 21.5795 38.6394 25.2095C38.6395 28.8396 35.8033 31.7822 32.3049 31.7822Z" fill="#2D3958"/>
    <path d="M38.6414 25.1263C38.6414 21.5421 35.8054 18.6367 32.3069 18.6367V31.6158C35.8053 31.6158 38.6414 28.7105 38.6414 25.1263Z" fill="#2D3958"/>
    <path d="M32.7017 29.1197C30.6464 29.1197 28.9802 27.3689 28.9802 25.2093C28.9802 23.0497 30.6464 21.2989 32.7017 21.2989C34.7571 21.2989 36.4233 23.0497 36.4233 25.2093C36.4233 27.3689 34.7571 29.1197 32.7017 29.1197Z" fill="white"/>
    <path d="M31.0382 9.31838V3.99361C31.0382 3.25844 30.4802 2.66241 29.792 2.66241H25.7775L23.9119 10.6496H29.792C30.4802 10.6496 31.0382 10.0536 31.0382 9.31838Z" fill="white"/>
    <path d="M32.6234 26.6237C31.9237 26.6237 31.3565 26.0277 31.3565 25.2925C31.3565 24.5573 31.9237 23.9613 32.6234 23.9613C33.3231 23.9613 33.8903 24.5573 33.8903 25.2925C33.8903 26.0277 33.3231 26.6237 32.6234 26.6237Z" fill="#2D3958"/>
</svg>
