<svg width="27" height="22" viewBox="0 0 27 22" fill="none" xmlns="http://www.w3.org/2000/svg">
    <path d="M15.8437 10.8986C16.0589 10.8986 16.2333 10.7232 16.2333 10.5069C16.2333 10.2905 16.0589 10.1151 15.8437 10.1151H12.8174V2.80691H15.8437C16.0589 2.80691 16.2333 2.63152 16.2333 2.41517C16.2333 2.19883 16.0589 2.02344 15.8437 2.02344H12.4278C12.2125 2.02344 12.0381 2.19883 12.0381 2.41517V10.1151H8.04976C7.83454 10.1151 7.66016 10.2905 7.66016 10.5069C7.66016 10.7232 7.83454 10.8986 8.04976 10.8986H12.0381V18.5986C12.0381 18.8149 12.2125 18.9903 12.4278 18.9903H15.8437C16.0589 18.9903 16.2333 18.8149 16.2333 18.5986C16.2333 18.3822 16.0589 18.2069 15.8437 18.2069H12.8174V10.8986H15.8437Z" fill="#BDBDBD"/>
    <path d="M8.18936 12.916H0.825762C0.369712 12.916 0 12.5443 0 12.0858V8.93183C0 8.47329 0.369712 8.10156 0.825762 8.10156H8.18936C8.64541 8.10156 9.01512 8.47329 9.01512 8.93183V12.0858C9.01507 12.5443 8.64536 12.916 8.18936 12.916Z" fill="#FF6D94"/>
    <path d="M9.01336 8.93204V12.086C9.01336 12.5443 8.64376 12.9164 8.18792 12.9164H7.08984C7.54569 12.9164 7.91529 12.5443 7.91529 12.086V8.93204C7.91529 8.47371 7.54569 8.10156 7.08984 8.10156H8.18792C8.64376 8.10156 9.01336 8.47371 9.01336 8.93204Z" fill="white"/>
    <path d="M6.11138 10.1936H2.89742C2.6822 10.1936 2.50781 10.0182 2.50781 9.80189C2.50781 9.58555 2.6822 9.41016 2.89742 9.41016H6.11138C6.3266 9.41016 6.50099 9.58555 6.50099 9.80189C6.50099 10.0182 6.3266 10.1936 6.11138 10.1936Z" fill="white"/>
    <path d="M7.26233 11.7678H1.74508C1.52986 11.7678 1.35547 11.5925 1.35547 11.3761C1.35547 11.1598 1.52986 10.9844 1.74508 10.9844H7.26233C7.47755 10.9844 7.65194 11.1598 7.65194 11.3761C7.65194 11.5925 7.47755 11.7678 7.26233 11.7678Z" fill="white"/>
    <path d="M25.7792 4.81449H18.4156C17.9596 4.81449 17.5898 4.44276 17.5898 3.98422V0.830272C17.5898 0.371732 17.9596 0 18.4156 0H25.7792C26.2353 0 26.605 0.371732 26.605 0.830272V3.98422C26.6049 4.44276 26.2352 4.81449 25.7792 4.81449Z" fill="#FF6D94"/>
    <path d="M25.7792 12.9121H18.4156C17.9596 12.9121 17.5898 12.5404 17.5898 12.0819V8.92792C17.5898 8.46939 17.9596 8.09766 18.4156 8.09766H25.7792C26.2353 8.09766 26.605 8.46939 26.605 8.92792V12.0819C26.6049 12.5404 26.2352 12.9121 25.7792 12.9121Z" fill="#FF6D94"/>
    <path d="M25.7792 20.9981H18.4156C17.9596 20.9981 17.5898 20.6264 17.5898 20.1678V17.0139C17.5898 16.5553 17.9596 16.1836 18.4156 16.1836H25.7792C26.2353 16.1836 26.605 16.5553 26.605 17.0139V20.1678C26.6049 20.6264 26.2352 20.9981 25.7792 20.9981Z" fill="#FF6D94"/>
    <path d="M26.6037 0.830481V3.98443C26.6037 4.44276 26.2336 4.81439 25.7778 4.81439H24.6797C25.1355 4.81439 25.5057 4.44276 25.5057 3.98443V0.830481C25.5057 0.37215 25.1355 0 24.6797 0H25.7778C26.2336 0 26.6037 0.37215 26.6037 0.830481Z" fill="#FF5885"/>
    <path d="M26.6037 8.92813V12.0821C26.6037 12.5404 26.2336 12.9125 25.7778 12.9125H24.6797C25.1355 12.9125 25.5057 12.5404 25.5057 12.0821V8.92813C25.5057 8.4698 25.1355 8.09766 24.6797 8.09766H25.7778C26.2336 8.09766 26.6037 8.4698 26.6037 8.92813Z" fill="#FF5885"/>
    <path d="M26.6037 17.0175V20.1714C26.6037 20.6297 26.2336 21.0019 25.7778 21.0019H24.6797C25.1355 21.0019 25.5057 20.6297 25.5057 20.1714V17.0175C25.5057 16.5591 25.1355 16.1875 24.6797 16.1875H25.7778C26.2336 16.1875 26.6037 16.5591 26.6037 17.0175Z" fill="#FF5885"/>
    <path d="M23.7012 10.1038H20.4873C20.272 10.1038 20.0977 9.92839 20.0977 9.71205C20.0977 9.49571 20.272 9.32031 20.4873 9.32031H23.7012C23.9164 9.32031 24.0908 9.49571 24.0908 9.71205C24.0908 9.92839 23.9164 10.1038 23.7012 10.1038Z" fill="white"/>
    <path d="M24.8561 11.6858H19.3388C19.1236 11.6858 18.9492 11.5104 18.9492 11.2941C18.9492 11.0777 19.1236 10.9023 19.3388 10.9023H24.8561C25.0713 10.9023 25.2457 11.0777 25.2457 11.2941C25.2457 11.5104 25.0713 11.6858 24.8561 11.6858Z" fill="white"/>
    <path d="M23.7012 2.01785H20.4873C20.272 2.01785 20.0977 1.84245 20.0977 1.62611C20.0977 1.40977 20.272 1.23438 20.4873 1.23438H23.7012C23.9164 1.23438 24.0908 1.40977 24.0908 1.62611C24.0908 1.84245 23.9164 2.01785 23.7012 2.01785Z" fill="white"/>
    <path d="M24.8561 3.59207H19.3388C19.1236 3.59207 18.9492 3.41667 18.9492 3.20033C18.9492 2.98399 19.1236 2.80859 19.3388 2.80859H24.8561C25.0713 2.80859 25.2457 2.98399 25.2457 3.20033C25.2457 3.41667 25.0713 3.59207 24.8561 3.59207Z" fill="white"/>
    <path d="M23.7012 18.2014H20.4873C20.272 18.2014 20.0977 18.026 20.0977 17.8097C20.0977 17.5934 20.272 17.418 20.4873 17.418H23.7012C23.9164 17.418 24.0908 17.5934 24.0908 17.8097C24.0908 18.026 23.9164 18.2014 23.7012 18.2014Z" fill="white"/>
    <path d="M24.8561 19.7757H19.3388C19.1236 19.7757 18.9492 19.6003 18.9492 19.3839C18.9492 19.1676 19.1236 18.9922 19.3388 18.9922H24.8561C25.0713 18.9922 25.2457 19.1676 25.2457 19.3839C25.2457 19.6003 25.0713 19.7757 24.8561 19.7757Z" fill="white"/>
</svg>
