<svg width="27" height="27" viewBox="0 0 27 27" fill="none" xmlns="http://www.w3.org/2000/svg">
    <path d="M13.5 0C6.04415 0 0 6.04415 0 13.5C0 20.9558 6.04415 26.9999 13.5 26.9999C20.9558 26.9999 26.9999 20.9558 26.9999 13.5C26.992 6.04748 20.9525 0.00796665 13.5 0ZM19.1853 13.9301C19.0919 14.1176 18.94 14.2696 18.7524 14.363V14.3678L11.0382 18.225C10.5617 18.463 9.98261 18.2698 9.74451 17.7934C9.67683 17.658 9.64196 17.5085 9.64281 17.3571V9.64287C9.64259 9.11029 10.0741 8.6784 10.6067 8.67811C10.7564 8.67806 10.9042 8.71286 11.0382 8.77981L18.7524 12.637C19.2291 12.8745 19.4229 13.4535 19.1853 13.9301Z" fill="#BEBEBE"/>
</svg>
