<svg width="20" height="18" viewBox="0 0 20 18" fill="none" xmlns="http://www.w3.org/2000/svg">
    <path d="M16.7634 0.511719H2.87713C1.60071 0.511719 0.5625 1.55008 0.5625 2.82634V15.1695C0.5625 16.4459 1.60071 17.4841 2.87713 17.4841H16.7634C18.0398 17.4841 19.078 16.4459 19.078 15.1695V2.8256C19.0773 1.54918 18.0398 0.511719 16.7634 0.511719Z" fill="#3EDC4E"/>
    <path d="M18.1021 17.2792H1.54042C1.01847 17.2792 0.59375 16.8463 0.59375 16.3137V4.24219H19.0478V16.3137C19.0487 16.8463 18.624 17.2792 18.1021 17.2792Z" fill="#FAFAFA"/>
    <path d="M12.6875 8.64628H12.1811C12.1287 8.64628 12.078 8.62096 12.0199 8.5465L11.4103 7.8608C11.1862 7.60882 10.8647 7.46484 10.5275 7.46484H9.10872C8.77164 7.46484 8.45014 7.60971 8.22512 7.8617L7.58946 8.57931C7.55755 8.62186 7.50766 8.64628 7.45448 8.64628H6.94721C6.29582 8.64628 5.76562 9.17647 5.76562 9.82786V13.0351C5.76562 13.6863 6.29582 14.2165 6.94721 14.2165H12.6867C13.338 14.2165 13.8682 13.6863 13.8682 13.0351V9.82786C13.8691 9.17647 13.3389 8.64628 12.6875 8.64628Z" fill="white"/>
    <path d="M11.1938 10.6457C11.1938 11.4057 10.5776 12.0219 9.8176 12.0219C9.05759 12.0219 8.44141 11.4057 8.44141 10.6457C8.44141 9.88572 9.05759 9.26953 9.8176 9.26953C10.5776 9.26953 11.1938 9.88572 11.1938 10.6457Z" fill="white"/>
    <path d="M9.81885 12.6847C8.69135 12.6847 7.77344 11.7676 7.77344 10.6392C7.77344 9.51181 8.69135 8.59375 9.81885 8.59375C10.9463 8.59375 11.8643 9.51181 11.8643 10.6392C11.8643 11.7676 10.9463 12.6847 9.81885 12.6847ZM9.81885 9.82103C9.36806 9.82103 9.00071 10.1876 9.00071 10.6392C9.00071 11.0908 9.36806 11.4574 9.81885 11.4574C10.2696 11.4574 10.637 11.0908 10.637 10.6392C10.637 10.1876 10.2696 9.82103 9.81885 9.82103Z" fill="#454545"/>
    <path d="M13.2927 14.7248H6.33802C5.5485 14.7248 4.90625 14.0825 4.90625 13.293V9.40651C4.90625 8.61699 5.5485 7.97474 6.33802 7.97474H6.95166C7.01548 7.97474 7.0769 7.94448 7.11451 7.89369L7.8853 7.02402C8.15766 6.71795 8.54718 6.54297 8.95542 6.54297H10.6753C11.0835 6.54297 11.4738 6.71795 11.7454 7.02312L12.4834 7.85369C12.5538 7.94448 12.6152 7.97474 12.679 7.97474H13.2927C14.0822 7.97474 14.7245 8.61699 14.7245 9.40651V13.293C14.7245 14.0825 14.0822 14.7248 13.2927 14.7248ZM6.33802 9.20202C6.22521 9.20202 6.13353 9.2937 6.13353 9.40651V13.293C6.13353 13.4058 6.22521 13.4975 6.33802 13.4975H13.2927C13.4055 13.4975 13.4972 13.4058 13.4972 13.293V9.40651C13.4972 9.2937 13.4055 9.20202 13.2927 9.20202H12.679C12.2298 9.20202 11.8019 8.98763 11.5336 8.62853L10.8282 7.83811C10.7897 7.79481 10.7334 7.77024 10.6753 7.77024H8.95542C8.89729 7.77024 8.84096 7.79556 8.80156 7.83886L8.06448 8.66853C7.82882 8.98763 7.40005 9.20202 6.95166 9.20202H6.33802Z" fill="#454545"/>
    <path d="M17.3864 18H2.25006C1.00885 18 0 16.9913 0 15.7501V2.25006C0 1.00885 1.00885 0 2.25006 0H17.3864C18.6276 0 19.6364 1.00885 19.6364 2.25006V15.7501C19.6364 16.9913 18.6276 18 17.3864 18ZM2.25006 1.22728C1.68631 1.22728 1.22728 1.68631 1.22728 2.25006V15.7501C1.22728 16.3138 1.68631 16.7727 2.25006 16.7727H17.3864C17.9501 16.7727 18.4091 16.3138 18.4091 15.7501V2.25006C18.4091 1.68631 17.9501 1.22728 17.3864 1.22728H2.25006Z" fill="#515151"/>
    <path d="M19.0228 4.60228H0.613638C0.274909 4.60228 0 4.32737 0 3.98864C0 3.64991 0.274909 3.375 0.613638 3.375H19.0228C19.3615 3.375 19.6364 3.64991 19.6364 3.98864C19.6364 4.32737 19.3615 4.60228 19.0228 4.60228Z" fill="#515151"/>
</svg>
