<svg id="Capa_1" enable-background="new 0 0 512 512" viewBox="0 0 512 512" xmlns="http://www.w3.org/2000/svg"><g><g><path d="m269.161 121.419c0 67.058 54.361 121.419 121.419 121.419l21.236-121.089-21.235-121.749c-67.059 0-121.42 54.361-121.42 121.419z" fill="#80d4ff"/><path d="m390.581 0v242.839c67.058 0 121.419-54.361 121.419-121.419s-54.361-121.42-121.419-121.42z" fill="#6daafc"/></g><g><path d="m0 121.419c0 67.058 54.361 121.419 121.419 121.419l21.236-121.089-21.236-121.749c-67.058 0-121.419 54.361-121.419 121.419z" fill="#f37"/><path d="m121.419 0v242.839c67.058 0 121.419-54.361 121.419-121.419s-54.36-121.42-121.419-121.42z" fill="#cc295f"/></g><g><path d="m94.719 73.483-21.236 21.237 26.7 26.699-26.7 26.7 21.236 21.236 26.7-26.699 16.324-21.237-16.324-21.236z" fill="#ecfaff"/><path d="m169.356 94.72-21.237-21.237-26.7 26.7v42.473l26.7 26.699 21.237-21.236-26.7-26.7z" fill="#d6edfe"/></g><g><path d="m225.647 253.181-14.678 127.014 14.678 131.805h73.063v-48.921l19.785-16.529c19.571-16.35 30.882-40.539 30.882-66.041v-84.549z" fill="#febfad"/><path d="m148.988 147.416-.036 147.064-55.409 37.583v46.599c0 26.776 12.464 52.027 33.72 68.312l21.525 16.491-.044 48.535h76.648v-364.574c0-21.098-17.103-38.202-38.202-38.202-21.094 0-38.196 17.098-38.202 38.192z" fill="#fecec0"/></g><g><g><path d="m377.016 127.875-21.785-21.785-21.236 21.237 43.021 43.02 13.565-13.564 10.812-29.784-10.812-12.689z" fill="#73f"/></g><path d="m427.235 77.656-36.654 36.654v42.473l57.89-57.891z" fill="#5f29cc"/></g></g></svg>