<svg width="15" height="14" viewBox="0 0 15 14" fill="none" xmlns="http://www.w3.org/2000/svg">
    <g clip-path="url(#clip0)">
        <path d="M6.08402 11.3753C4.61964 11.3753 3.42773 10.2628 3.42773 8.89609V2.91699H2.33402C1.38588 2.91699 0.615234 3.63615 0.615234 4.52109V12.3961C0.615234 13.281 1.38588 14.0003 2.33402 14.0003H10.1464C11.0946 14.0003 11.8652 13.281 11.8652 12.3961V11.3753H6.08402Z" fill="#292929"/>
        <path d="M14.3652 1.6042C14.3652 0.718094 13.5958 0 12.6465 0H6.08402C5.13462 0 4.36523 0.718094 4.36523 1.6042V8.8958C4.36523 9.78191 5.13462 10.5 6.08402 10.5H12.6465C13.5958 10.5 14.3652 9.78191 14.3652 8.8958V1.6042Z" fill="#292929"/>
    </g>
    <defs>
        <clipPath id="clip0">
            <rect width="15" height="14" fill="white"/>
        </clipPath>
    </defs>
</svg>
