
<svg id="Layer_1" enable-background="new 0 0 512 512" height="512" viewBox="0 0 512 512" width="512" xmlns="http://www.w3.org/2000/svg"><g><path d="m481.101 413.041h-450.202c-17.065 0-30.899-13.834-30.899-30.899v-270.12h512v270.119c0 17.066-13.834 30.9-30.899 30.9z" fill="#a9dbf5"/><path d="m481.095 112.022v301.019c17.069 0 30.905-13.831 30.905-30.893v-270.126z" fill="#88c3e0"/><path d="m466.675 463.5h-162.774c-7.964 0-14.42-6.456-14.42-14.42v-253.319c0-7.964 6.456-14.42 14.42-14.42h162.774c7.964 0 14.42 6.456 14.42 14.42v253.319c0 7.964-6.456 14.42-14.42 14.42z" fill="#f3f3f3"/><path d="m466.672 181.341h-30.905c7.965 0 14.423 6.455 14.423 14.417v253.325c0 7.962-6.457 14.417-14.423 14.417h30.905c7.965 0 14.423-6.455 14.423-14.417v-253.325c0-7.962-6.458-14.417-14.423-14.417z" fill="#e4e4e4"/><path d="m466.675 463.5h-162.774c-7.964 0-14.42-6.456-14.42-14.42v-36.039h191.614v36.039c0 7.964-6.456 14.42-14.42 14.42z" fill="#ffc328"/><path d="m450.189 413.041v36.042c0 7.962-6.457 14.417-14.423 14.417h30.905c7.965 0 14.423-6.455 14.423-14.417v-36.042z" fill="#ffb200"/><g fill="#43809f"><path d="m403.831 197.506h-37.087c-4.143 0-7.5 3.357-7.5 7.5s3.357 7.5 7.5 7.5h37.087c4.143 0 7.5-3.357 7.5-7.5s-3.357-7.5-7.5-7.5z"/><g><path d="m354.514 276.804c-2.93-2.928-7.678-2.928-10.607 0l-29.332 29.332c-1.406 1.407-2.196 3.314-2.196 5.304s.79 3.896 2.197 5.304l28.944 28.943c1.464 1.464 3.384 2.196 5.303 2.196s3.839-.732 5.304-2.197c2.929-2.929 2.929-7.677-.001-10.606l-23.641-23.64 24.029-24.028c2.928-2.931 2.928-7.679 0-10.608z"/><path d="m456.001 306.136-29.332-29.332c-2.93-2.928-7.678-2.928-10.607 0-2.929 2.93-2.929 7.678 0 10.607l24.029 24.028-23.641 23.64c-2.929 2.93-2.929 7.678 0 10.607 1.465 1.464 3.385 2.196 5.304 2.196s3.839-.732 5.304-2.196l28.943-28.943c2.929-2.93 2.929-7.678 0-10.607z"/><path d="m405.306 258.547c-3.871-1.473-8.203.477-9.673 4.351l-34.684 91.373c-1.47 3.872.478 8.203 4.351 9.673.876.333 1.775.49 2.66.49 3.025 0 5.875-1.844 7.013-4.841l34.684-91.373c1.469-3.872-.478-8.203-4.351-9.673z"/></g><g><path d="m89.306 166.585h1.311v33.723c0 4.143 3.358 7.5 7.5 7.5s7.5-3.357 7.5-7.5v-41.223c0-4.143-3.358-7.5-7.5-7.5h-8.811c-4.142 0-7.5 3.357-7.5 7.5s3.358 7.5 7.5 7.5z"/><path d="m52.632 292.287c4.142 0 7.5-3.357 7.5-7.5v-41.222c0-4.143-3.358-7.5-7.5-7.5h-8.811c-4.142 0-7.5 3.357-7.5 7.5s3.358 7.5 7.5 7.5h1.311v33.722c0 4.143 3.358 7.5 7.5 7.5z"/><path d="m48.227 150.744c-10.708 0-19.42 8.712-19.42 19.42v19.064c0 10.708 8.712 19.42 19.42 19.42s19.42-8.712 19.42-19.42v-19.064c0-10.708-8.712-19.42-19.42-19.42zm4.42 38.485c0 2.438-1.983 4.42-4.42 4.42s-4.42-1.982-4.42-4.42v-19.064c0-2.438 1.983-4.42 4.42-4.42s4.42 1.982 4.42 4.42z"/><path d="m98.117 235.224c-10.708 0-19.42 8.712-19.42 19.421v19.063c0 10.709 8.712 19.421 19.42 19.421s19.42-8.712 19.42-19.421v-19.063c0-10.709-8.712-19.421-19.42-19.421zm4.42 38.484c0 2.438-1.983 4.421-4.42 4.421s-4.42-1.983-4.42-4.421v-19.063c0-2.438 1.983-4.421 4.42-4.421s4.42 1.983 4.42 4.421z"/><path d="m147.699 292.287c4.142 0 7.5-3.357 7.5-7.5v-41.222c0-4.143-3.358-7.5-7.5-7.5h-8.811c-4.142 0-7.5 3.357-7.5 7.5s3.358 7.5 7.5 7.5h1.311v33.722c0 4.143 3.358 7.5 7.5 7.5z"/><path d="m242.766 292.287c4.142 0 7.5-3.357 7.5-7.5v-41.222c0-4.143-3.358-7.5-7.5-7.5h-8.811c-4.142 0-7.5 3.357-7.5 7.5s3.358 7.5 7.5 7.5h1.311v33.722c0 4.143 3.358 7.5 7.5 7.5z"/><path d="m193.184 235.224c-10.708 0-19.42 8.712-19.42 19.421v19.063c0 10.709 8.712 19.421 19.42 19.421s19.42-8.712 19.42-19.421v-19.063c0-10.709-8.711-19.421-19.42-19.421zm4.42 38.484c0 2.438-1.983 4.421-4.42 4.421s-4.42-1.983-4.42-4.421v-19.063c0-2.438 1.983-4.421 4.42-4.421s4.42 1.983 4.42 4.421z"/><path d="m184.373 166.585h1.311v33.723c0 4.143 3.358 7.5 7.5 7.5s7.5-3.357 7.5-7.5v-41.223c0-4.143-3.358-7.5-7.5-7.5h-8.811c-4.142 0-7.5 3.357-7.5 7.5s3.358 7.5 7.5 7.5z"/><path d="m143.293 150.744c-10.708 0-19.42 8.712-19.42 19.42v19.064c0 10.708 8.712 19.42 19.42 19.42s19.42-8.712 19.42-19.42v-19.064c.001-10.708-8.711-19.42-19.42-19.42zm4.421 38.485c0 2.438-1.983 4.42-4.42 4.42s-4.42-1.982-4.42-4.42v-19.064c0-2.438 1.983-4.42 4.42-4.42s4.42 1.982 4.42 4.42z"/><path d="m238.361 150.744c-10.708 0-19.42 8.712-19.42 19.42v19.064c0 10.708 8.712 19.42 19.42 19.42s19.42-8.712 19.42-19.42v-19.064c0-10.708-8.712-19.42-19.42-19.42zm4.42 38.485c0 2.438-1.983 4.42-4.42 4.42s-4.42-1.982-4.42-4.42v-19.064c0-2.438 1.983-4.42 4.42-4.42s4.42 1.982 4.42 4.42z"/><path d="m98.117 320.965h-8.811c-4.142 0-7.5 3.357-7.5 7.5s3.358 7.5 7.5 7.5h1.311v33.723c0 4.143 3.358 7.5 7.5 7.5s7.5-3.357 7.5-7.5v-41.223c0-4.143-3.358-7.5-7.5-7.5z"/><path d="m48.227 320.124c-10.708 0-19.42 8.712-19.42 19.42v19.064c0 10.708 8.712 19.42 19.42 19.42s19.42-8.712 19.42-19.42v-19.064c0-10.708-8.712-19.42-19.42-19.42zm4.42 38.484c0 2.438-1.983 4.42-4.42 4.42s-4.42-1.982-4.42-4.42v-19.064c0-2.438 1.983-4.42 4.42-4.42s4.42 1.982 4.42 4.42z"/><path d="m193.184 320.965h-8.811c-4.142 0-7.5 3.357-7.5 7.5s3.358 7.5 7.5 7.5h1.311v33.723c0 4.143 3.358 7.5 7.5 7.5s7.5-3.357 7.5-7.5v-41.223c0-4.143-3.358-7.5-7.5-7.5z"/><path d="m143.293 320.124c-10.708 0-19.42 8.712-19.42 19.42v19.064c0 10.708 8.712 19.42 19.42 19.42s19.42-8.712 19.42-19.42v-19.064c.001-10.708-8.711-19.42-19.42-19.42zm4.421 38.484c0 2.438-1.983 4.42-4.42 4.42s-4.42-1.982-4.42-4.42v-19.064c0-2.438 1.983-4.42 4.42-4.42s4.42 1.982 4.42 4.42z"/><path d="m238.361 320.124c-10.708 0-19.42 8.712-19.42 19.42v19.064c0 10.708 8.712 19.42 19.42 19.42s19.42-8.712 19.42-19.42v-19.064c0-10.708-8.712-19.42-19.42-19.42zm4.42 38.484c0 2.438-1.983 4.42-4.42 4.42s-4.42-1.982-4.42-4.42v-19.064c0-2.438 1.983-4.42 4.42-4.42s4.42 1.982 4.42 4.42z"/></g><path d="m512 122.644h-512v-43.245c0-17.065 13.834-30.899 30.899-30.899h450.201c17.066 0 30.9 13.834 30.9 30.899z"/></g><path d="m481.095 48.5v74.144h30.905v-43.251c0-17.062-13.837-30.893-30.905-30.893z" fill="#3a7190"/><circle cx="49.455" cy="85.887" fill="#29cef6" r="15.453"/><circle cx="109.37" cy="85.887" fill="#f3f3f3" r="15.453"/><circle cx="169.285" cy="85.887" fill="#f78e36" r="15.453"/></g></svg>