<svg width="23" height="23" viewBox="0 0 23 23" fill="none" xmlns="http://www.w3.org/2000/svg">
    <g clip-path="url(#clip0)">
        <path d="M11.4999 22.1144C17.362 22.1144 22.1141 17.3622 22.1141 11.5001C22.1141 5.63802 17.362 0.88586 11.4999 0.88586C5.63779 0.88586 0.88562 5.63802 0.88562 11.5001C0.88562 17.3622 5.63779 22.1144 11.4999 22.1144Z" fill="#FF2C78"/>
        <path d="M11.5001 23.0005C8.5537 23.0005 5.60735 21.8794 3.36418 19.637C-1.12131 15.1515 -1.12131 7.85164 3.36418 3.36525C7.84967 -1.11935 15.1505 -1.12025 19.636 3.36525C24.1215 7.85164 24.1215 15.1506 19.636 19.637C17.3927 21.8794 14.4455 23.0005 11.5001 23.0005ZM4.62435 4.62542C0.834041 8.41663 0.834041 14.5856 4.62435 18.3769C8.41646 22.1672 14.5854 22.1681 18.3758 18.3769C22.1661 14.5856 22.1661 8.41663 18.3758 4.62542C14.5836 0.835106 8.41556 0.835106 4.62435 4.62542Z" fill="#FF2C78"/>
        <path d="M8.40663 15.4839C8.17847 15.4839 7.95035 15.3966 7.77655 15.2228C7.42808 14.8743 7.42808 14.3111 7.77655 13.9626L14.0774 7.66176C14.4259 7.31329 14.9891 7.31329 15.3376 7.66176C15.6861 8.01022 15.6861 8.57346 15.3376 8.92193L9.03672 15.2228C8.86202 15.3966 8.63475 15.4839 8.40663 15.4839Z" fill="white"/>
        <path d="M15.1924 15.0835C14.9642 15.0835 14.7361 14.9962 14.5623 14.8224L8.26141 8.52152C7.91294 8.17306 7.91294 7.60982 8.26141 7.26135C8.60988 6.91288 9.17312 6.91288 9.52158 7.26135L15.8224 13.5622C16.1709 13.9107 16.1709 14.4739 15.8224 14.8224C15.6487 14.9962 15.4205 15.0835 15.1924 15.0835Z" fill="white"/>
    </g>
    <defs>
        <clipPath id="clip0">
            <rect width="23" height="23" fill="white"/>
        </clipPath>
    </defs>
</svg>
