<svg width="22" height="22" viewBox="0 0 22 22" fill="none" xmlns="http://www.w3.org/2000/svg">
    <path d="M11 0C4.92486 0 0 4.92486 0 11C0 17.0751 4.92486 22 11 22C17.0751 22 22 17.0751 22 11C21.9935 4.92758 17.0724 0.00649135 11 0ZM15.6325 11.3505C15.5563 11.5032 15.4326 11.6271 15.2798 11.7032V11.7071L8.99406 14.85C8.60587 15.0439 8.13398 14.8865 7.93997 14.4984C7.88482 14.388 7.85642 14.2662 7.85711 14.1428V7.85715C7.85692 7.4232 8.20851 7.07128 8.64247 7.07105C8.76451 7.07101 8.8849 7.09937 8.99406 7.15392L15.2798 10.2968C15.6681 10.4903 15.8261 10.9621 15.6325 11.3505Z" fill="#BEBEBE"/>
</svg>
