<svg width="14" height="14" viewBox="0 0 14 14" fill="none" xmlns="http://www.w3.org/2000/svg">
    <path d="M2.50002 0H11.5C12.88 0.00164062 13.9984 1.11996 14 2.49999V11.5C13.9984 12.88 12.88 13.9983 11.5 14H2.50002C1.11999 13.9983 0.00166988 12.88 2.95639e-05 11.5V2.49999C0.00166988 1.11996 1.11999 0.00164062 2.50002 0ZM4.5 7.49999H6.50001V9.5C6.50001 9.77616 6.72386 10 7.00001 10C7.27617 10 7.50002 9.77616 7.50002 9.5V7.49999H9.5C9.77615 7.49999 10 7.27614 10 6.99999C10 6.72383 9.77615 6.49998 9.5 6.49998H7.49999V4.5C7.49999 4.22385 7.27614 3.99999 6.99999 3.99999C6.72383 3.99999 6.50001 4.22385 6.50001 4.5V6.50001H4.5C4.22384 6.50001 3.99999 6.72386 3.99999 7.00001C3.99999 7.27617 4.22387 7.49999 4.5 7.49999Z" fill="#636363"/>
</svg>
