<svg width="18" height="20" viewBox="0 0 18 20" fill="none" xmlns="http://www.w3.org/2000/svg">
    <path d="M14.2702 5.6757C12.7837 5.6757 11.5675 4.45949 11.5675 2.97301V0H0.756714V17.2973C0.756714 18.7838 1.97292 20 3.45941 20H14.5405C16.0269 20 17.2432 18.7838 17.2432 17.2973V5.6757H14.2702ZM6.93453 14.683L5.92992 15.587L3.0907 12.4324L5.93015 9.27777L6.93476 10.1816L4.90882 12.4324L6.93453 14.683ZM8.69781 15.6103L7.40996 15.2005L9.30183 9.25457L10.5897 9.6643L8.69781 15.6103ZM12.0696 15.587L11.065 14.683L13.0907 12.4325L11.0653 10.182L12.0699 9.27766L14.9091 12.4323L12.0696 15.587Z" fill="#636363"/>
</svg>
