<svg width="19" height="23" viewBox="0 0 19 23" fill="none" xmlns="http://www.w3.org/2000/svg">
    <path d="M19 2.87857C19 1.53445 17.9138 0.44519 16.5736 0.44519H6.42638C5.0862 0.44519 4 1.53445 4 2.87857V14.824C4 16.1679 5.0862 17.2572 6.42638 17.2572H16.5736C17.9138 17.2572 19 16.1679 19 14.824V2.87857ZM14.8088 13.2754H8.19115C7.82585 13.2754 7.52938 12.9781 7.52938 12.6117C7.52938 12.2454 7.82585 11.9481 8.19115 11.9481H14.8088C15.1741 11.9481 15.4706 12.2454 15.4706 12.6117C15.4706 12.9781 15.1741 13.2754 14.8088 13.2754ZM14.8088 10.6208H8.19115C7.82585 10.6208 7.52938 10.3235 7.52938 9.95721C7.52938 9.59088 7.82585 9.29358 8.19115 9.29358H14.8088C15.1741 9.29358 15.4706 9.59088 15.4706 9.95721C15.4706 10.3235 15.1741 10.6208 14.8088 10.6208ZM14.8088 7.96631H8.19115C7.82585 7.96631 7.52938 7.669 7.52938 7.30268C7.52938 6.93635 7.82585 6.63904 8.19115 6.63904H14.8088C15.1741 6.63904 15.4706 6.93635 15.4706 7.30268C15.4706 7.669 15.1741 7.96631 14.8088 7.96631Z" fill="#636363"/>
    <path d="M7.08568 19.4319C4.94265 19.4319 3.20007 17.7545 3.20007 15.6933V3.81744C3.20007 3.74174 3.21831 3.67135 3.22284 3.59741H2.51435C1.12735 3.59741 0 4.6821 0 6.01663V20.0917C0 21.4262 1.12735 22.5109 2.51435 22.5109H13.4858C14.8728 22.5109 16 21.4262 16 20.0917V19.4319H7.08568Z" fill="#636363"/>
</svg>
