<svg width="19" height="20" viewBox="0 0 512 498" fill="none" xmlns="http://www.w3.org/2000/svg">
    <path d="M495.27 153.5H267.47C253.62 216.17 200.59 264.29 135.5 270.75V420.88C135.5 430.12 142.99 437.61 152.23 437.61H390.36C396.65 437.61 402.27 441.53 404.44 447.43L420.453 490.982C421.893 494.898 425.622 497.5 429.795 497.5C433.968 497.5 437.697 494.898 439.137 490.982L455.15 447.43C457.32 441.53 462.94 437.61 469.23 437.61H495.27C504.51 437.61 512 430.12 512 420.88V170.23C512 161.01 504.5 153.5 495.27 153.5V153.5ZM426.53 357.39H220.97C212.68 357.39 205.97 350.67 205.97 342.39C205.97 334.11 212.68 327.39 220.97 327.39H426.53C434.82 327.39 441.53 334.11 441.53 342.39C441.53 350.67 434.82 357.39 426.53 357.39ZM426.53 263.72H276.38C268.1 263.72 261.38 257.01 261.38 248.72C261.38 240.44 268.1 233.72 276.38 233.72H426.53C434.82 233.72 441.53 240.44 441.53 248.72C441.53 257.01 434.82 263.72 426.53 263.72Z" fill="#636363"/>
    <path d="M241 121C241 54.56 186.94 0.5 120.5 0.5C54.05 0.5 0 54.56 0 121C0 182.36 46.1 233.17 105.5 240.57C177.22 249.46 241 193.64 241 121ZM67.13 93.51C51.42 88.73 53.86 65.92 70.01 64.24C80.62 63.16 88.93 73.38 85.84 83.52C83.16 91.91 74.63 95.9 67.13 93.51ZM162.35 153.5C158.06 166.56 148.03 176.62 135.5 181.15C110.79 190.02 84.09 175.61 77.76 150.44C75.75 142.4 80.63 134.25 88.66 132.24C96.7 130.23 104.85 135.11 106.86 143.14C110.37 157.29 130.71 157.19 134.14 143.14C138.92 124.04 170 130.31 162.35 153.5ZM183.85 83.52C180.14 95.99 162.73 98.29 156.28 86.23C150.48 75.38 159.6 62.05 172.44 64.46C181.61 66.37 186.42 75.65 183.85 83.52Z" fill="#636363"/>
</svg>
