<svg width="18" height="18" viewBox="0 0 18 18" fill="none" xmlns="http://www.w3.org/2000/svg">
    <path d="M12.6084 4.11586V1.08107C12.6084 0.597259 12.2127 0.201416 11.7288 0.201416H0.879658C0.395846 0.201416 0 0.597259 0 1.08107V1.65284V13.1176V13.5136C0 13.836 0.190593 14.1439 0.469151 14.2905L7.15455 17.7506C7.44777 17.8972 7.79963 17.6921 7.79963 17.3548V13.9828H11.7288C12.2127 13.9828 12.6084 13.5871 12.6084 13.1031V8.29435H10.8491V11.7836C10.8491 12.0329 10.6585 12.2235 10.4093 12.2235H7.81429V7.70792V4.84905V4.76109C7.81429 4.43855 7.6237 4.13067 7.34514 3.98406L3.40134 1.96086H10.4093C10.6585 1.96086 10.8491 2.15146 10.8491 2.40069V4.13067H12.6084V4.11586Z" fill="#636363"/>
    <path d="M14.8662 2.67888L17.7251 5.53775C18.0916 5.90427 18.0916 6.44672 17.7251 6.81324L14.8662 9.6721C14.4997 10.0386 13.9424 10.0534 13.5759 9.68691C13.2242 9.3352 13.268 8.74862 13.6053 8.39676L14.8954 7.12126H9.89612C9.64703 7.12126 9.39765 7.01864 9.23638 6.82805C8.82587 6.38822 8.9285 5.6112 9.45629 5.31798C9.58824 5.24468 9.74951 5.20069 9.89612 5.20069H14.8955C14.8955 5.20069 13.6202 3.9252 13.6055 3.9252C13.2681 3.588 13.2242 2.98691 13.576 2.64971C13.9279 2.29785 14.4997 2.31236 14.8662 2.67888Z" fill="#636363"/>
</svg>
