<svg width="19" height="19" viewBox="0 0 19 19" fill="none" xmlns="http://www.w3.org/2000/svg">
    <g clip-path="url(#clip0)">
        <path d="M10.1806 19C10.1806 16.1541 14.9439 11.3907 17.7899 11.3907C14.9439 11.3907 10.1806 6.6274 10.1806 3.78149C10.1806 6.6274 5.41727 11.3907 2.57136 11.3907C5.41727 11.3907 10.1806 16.1541 10.1806 19Z" fill="#FF9C64"/>
        <path d="M10.1806 14.3878C10.1806 13.2673 12.0572 11.3907 13.1777 11.3907C12.0572 11.3907 10.1806 9.51422 10.1806 8.39365C10.1806 9.51422 8.30411 11.3907 7.18354 11.3907C8.30471 11.3907 10.1806 13.2667 10.1806 14.3878Z" fill="#EA7C3E"/>
        <path d="M4.87536 8.39367C4.87536 7.02289 7.16987 4.72837 8.54065 4.72837C7.16987 4.72837 4.87536 2.43386 4.87536 1.06308C4.87536 2.43386 2.58084 4.72837 1.21006 4.72837C2.58084 4.72837 4.87536 7.02289 4.87536 8.39367Z" fill="#FF9C64"/>
        <path d="M15.5547 18.7267C15.5547 18.0205 16.7363 16.8389 17.4424 16.8389C16.7363 16.8389 15.5547 15.6573 15.5547 14.9511C15.5547 15.6573 14.373 16.8389 13.6669 16.8389C14.373 16.8395 15.5547 18.0211 15.5547 18.7267Z" fill="#FF9C64"/>
        <path d="M13.1197 5.24003C13.1197 4.25997 14.7596 2.62001 15.7397 2.62001C14.7596 2.62001 13.1197 0.98006 13.1197 0C13.1197 0.98006 11.4797 2.62001 10.4997 2.62001C11.4797 2.62001 13.1197 4.25997 13.1197 5.24003Z" fill="#FF9C64"/>
    </g>
    <defs>
        <clipPath id="clip0">
            <rect width="19" height="19" fill="white" transform="matrix(-1 0 0 1 19 0)"/>
        </clipPath>
    </defs>
</svg>
