
<svg width="19" height="19" viewBox="0 0 19 19" fill="none" xmlns="http://www.w3.org/2000/svg">
    <path d="M3.39288 0H15.6072C17.4801 0.00222656 18.9978 1.51995 19 3.39284V15.6071C18.9978 17.48 17.4801 18.9977 15.6072 19H3.39288C1.51999 18.9977 0.00226784 17.48 4.00543e-05 15.6071V3.39284C0.00226784 1.51995 1.51999 0.00222656 3.39288 0ZM6.10714 10.1786H8.82144V12.8929C8.82144 13.2676 9.12524 13.5714 9.50002 13.5714C9.8748 13.5714 10.1786 13.2676 10.1786 12.8929V10.1786H12.8929C13.2676 10.1786 13.5714 9.87476 13.5714 9.49998C13.5714 9.1252 13.2676 8.8214 12.8929 8.8214H10.1786V6.10714C10.1786 5.73236 9.87476 5.42855 9.49998 5.42855C9.1252 5.42855 8.82144 5.73236 8.82144 6.10714V8.82144H6.10714C5.73236 8.82144 5.42855 9.12524 5.42855 9.50002C5.42855 9.8748 5.7324 10.1786 6.10714 10.1786Z" fill="white"/>
</svg>
