<svg width="19" height="19" viewBox="0 0 19 19" fill="none" xmlns="http://www.w3.org/2000/svg">
    <path d="M9.38965 10.6133C10.0045 10.6133 10.5029 10.1148 10.5029 9.5C10.5029 8.88515 10.0045 8.38672 9.38965 8.38672C8.7748 8.38672 8.27637 8.88515 8.27637 9.5C8.27637 10.1148 8.7748 10.6133 9.38965 10.6133Z" fill="#636363"/>
    <path d="M9.38965 14.5469C12.1725 14.5469 14.4365 12.2828 14.4365 9.5C14.4365 6.71717 12.1725 4.45312 9.38965 4.45312C6.60682 4.45312 4.34277 6.71717 4.34277 9.5C4.34277 12.2828 6.60682 14.5469 9.38965 14.5469ZM9.38965 7.27344C10.6174 7.27344 11.6162 8.27227 11.6162 9.5C11.6162 10.7277 10.6174 11.7266 9.38965 11.7266C8.16192 11.7266 7.16309 10.7277 7.16309 9.5C7.16309 8.27227 8.16192 7.27344 9.38965 7.27344Z" fill="#636363"/>
    <path d="M17.7764 9.5C17.7764 9.31824 17.7704 9.13447 17.7585 8.95112L18.7794 8.01681L18.7204 7.71096C18.6458 7.32413 18.5463 6.93838 18.4248 6.56443C18.3033 6.19047 18.157 5.8199 17.99 5.46291L17.8579 5.1808L16.4834 5.02505C16.2879 4.71604 16.0717 4.41891 15.8375 4.1374L16.1143 2.78094L15.8869 2.56823C15.5992 2.29926 15.292 2.04562 14.9737 1.81439C14.6555 1.5832 14.3193 1.36934 13.9745 1.17882L13.7019 1.02819L12.4994 1.70952C12.1589 1.57355 11.8087 1.45985 11.4532 1.36982L10.8807 0.111477L10.5716 0.0731426C10.1805 0.0246035 9.78288 0 9.38971 0C8.99654 0 8.59891 0.0246035 8.20785 0.0731426L7.89873 0.111477L7.32624 1.36982C6.9707 1.45988 6.62054 1.57355 6.27998 1.70952L5.07756 1.02819L4.80492 1.17882C4.4601 1.36934 4.12389 1.58316 3.80575 1.81435C3.48743 2.04562 3.1802 2.29926 2.89256 2.56823L2.66512 2.78094L2.94196 4.1374C2.70761 4.41898 2.49141 4.71604 2.29607 5.02509L0.9215 5.1808L0.789465 5.46291C0.622473 5.81975 0.476187 6.19036 0.354654 6.56435C0.233084 6.93849 0.133631 7.32428 0.0590039 7.71103L0 8.01681L1.02092 8.95112C1.009 9.13447 1.00299 9.31824 1.00299 9.5C1.00299 9.6818 1.009 9.86549 1.02092 10.0489L3.71155e-05 10.9832L0.059041 11.289C0.133668 11.6758 0.233084 12.0615 0.354691 12.4356C0.476187 12.8096 0.62251 13.1802 0.789502 13.5371L0.921537 13.8192L2.29611 13.9749C2.49149 14.284 2.70765 14.581 2.94199 14.8626L2.66516 16.2191L2.8926 16.4318C3.18024 16.7007 3.48746 16.9544 3.80575 17.1856C4.12393 17.4168 4.46014 17.6307 4.80496 17.8212L5.0776 17.9718L6.28002 17.2905C6.62061 17.4265 6.97074 17.5402 7.32628 17.6302L7.89877 18.8884L8.20785 18.9268C8.5988 18.9754 8.99639 19 9.38971 19C9.78303 19 10.1806 18.9754 10.5716 18.9268L10.8807 18.8884L11.4532 17.6302C11.8087 17.5401 12.159 17.4265 12.4994 17.2905L13.7019 17.9718L13.9745 17.8212C14.3193 17.6307 14.6555 17.4168 14.9737 17.1856C15.292 16.9544 15.5992 16.7007 15.8869 16.4318L16.1143 16.2191L15.8375 14.8626C16.0717 14.5811 16.288 14.284 16.4834 13.9749L17.8579 13.8192L17.99 13.5371C18.157 13.1801 18.3033 12.8096 18.4247 12.4356C18.5463 12.0616 18.6458 11.6758 18.7204 11.289L18.7794 10.9832L17.7585 10.0489C17.7704 9.86549 17.7764 9.6818 17.7764 9.5ZM3.22955 9.5C3.22955 6.1033 5.99302 3.33984 9.38971 3.33984C12.7864 3.33984 15.5499 6.1033 15.5499 9.5C15.5499 12.8967 12.7864 15.6602 9.38971 15.6602C5.99302 15.6602 3.22955 12.8967 3.22955 9.5Z" fill="#636363"/>
</svg>
