<svg width="19" height="18" viewBox="0 0 19 18" fill="none" xmlns="http://www.w3.org/2000/svg">
    <path d="M1.95651 7.82617C0.878088 7.82617 0 8.70426 0 9.78268V16.0436C0 17.122 0.878088 18.0001 1.95651 18.0001H4.30434C4.74496 18.0001 5.15033 17.8514 5.47826 17.6041V7.82617H1.95651Z" fill="#636363"/>
    <path d="M18.7826 10.7609C18.7826 10.2905 18.5964 9.85226 18.2731 9.52903C18.6386 9.12913 18.8249 8.59302 18.774 8.03504C18.6824 7.04033 17.7863 6.26085 16.733 6.26085H11.8988C12.1383 5.5338 12.5217 4.20104 12.5217 3.13043C12.5217 1.43295 11.0794 0 10.1739 0C9.36077 0 8.78005 0.457827 8.75503 0.476609C8.66269 0.550969 8.60869 0.663665 8.60869 0.782597V3.43641L6.35478 8.31913L6.26086 8.36686V16.7549C6.8979 17.0554 7.70397 17.2174 8.21738 17.2174H15.401C16.2532 17.2174 16.9991 16.643 17.1743 15.8502C17.2643 15.4424 17.2119 15.0316 17.0327 14.6747C17.611 14.3836 18 13.788 18 13.1087C18 12.8317 17.9366 12.5664 17.8161 12.3261C18.3944 12.035 18.7826 11.4394 18.7826 10.7609Z" fill="#636363"/>
</svg>
