<svg width="19" height="19" viewBox="0 0 19 19" fill="none" xmlns="http://www.w3.org/2000/svg">
<g clip-path="url(#clip0)">
<path d="M2.74272 10.1428H4.2121C4.06232 10.5528 3.9805 10.9954 3.9805 11.4566V17.01C3.9805 17.2023 4.01397 17.3869 4.07487 17.5586H1.64565C0.738218 17.5586 2.86102e-06 16.8203 2.86102e-06 15.9129V12.8855C-3.43323e-05 11.3732 1.23036 10.1428 2.74272 10.1428Z" fill="#656565"/>
<path d="M15.0195 11.4566C15.0195 10.9953 14.9376 10.5529 14.7879 10.1428H16.2572C17.7696 10.1428 19 11.3732 19 12.8856V15.913C19 16.8204 18.2618 17.5586 17.3543 17.5586H14.9251C14.986 17.3869 15.0195 17.2023 15.0195 17.01V11.4566Z" fill="#656565"/>
<path d="M7.82032 8.71385H11.1795C12.6919 8.71385 13.9223 9.94425 13.9223 11.4566V17.01C13.9223 17.313 13.6767 17.5586 13.3738 17.5586H5.62612C5.32316 17.5586 5.07757 17.313 5.07757 17.01V11.4566C5.07757 9.94425 6.30797 8.71385 7.82032 8.71385Z" fill="#656565"/>
<path d="M9.49995 1.44133C11.3188 1.44133 12.7985 2.92103 12.7985 4.73988C12.7985 5.97358 12.1175 7.05105 11.1119 7.61675C10.635 7.88505 10.0851 8.03839 9.49995 8.03839C8.91481 8.03839 8.36492 7.88505 7.88795 7.61675C6.88232 7.05105 6.20144 5.97354 6.20144 4.73988C6.20144 2.92107 7.68114 1.44133 9.49995 1.44133Z" fill="#656565"/>
<path d="M15.2921 4.51581C16.6524 4.51581 17.759 5.62241 17.759 6.98266C17.759 8.34291 16.6524 9.44951 15.2921 9.44951C14.9471 9.44951 14.6185 9.37804 14.32 9.24956C13.804 9.02739 13.3785 8.6341 13.1152 8.14148C12.9304 7.79573 12.8253 7.40129 12.8253 6.98266C12.8253 5.62245 13.9319 4.51581 15.2921 4.51581Z" fill="#656565"/>
<path d="M3.70784 4.51581C5.06808 4.51581 6.17468 5.62241 6.17468 6.98266C6.17468 7.40133 6.06955 7.79576 5.88475 8.14148C5.62146 8.63414 5.19596 9.02743 4.67992 9.24956C4.38145 9.37804 4.05288 9.44951 3.70784 9.44951C2.34759 9.44951 1.24099 8.34291 1.24099 6.98266C1.24099 5.62241 2.34759 4.51581 3.70784 4.51581Z" fill="#656565"/>
</g>
<defs>
<clipPath id="clip0">
<rect width="19" height="19" fill="white" transform="matrix(-1 0 0 1 19 0)"/>
</clipPath>
</defs>
</svg>
