<svg width="21" height="22" fill="#8C8C8C"  version="1.1" id="Capa_1" xmlns="http://www.w3.org/2000/svg" xmlns:xlink="http://www.w3.org/1999/xlink" x="0px" y="0px"
	 viewBox="0 0 511.9 511.9" style="enable-background:new 0 0 511.9 511.9;" xml:space="preserve">
<g>
	<g>
		<g>
			<path d="M138.7,64c-5.9,0-10.7,4.8-10.7,10.7c0,5.9,4.8,10.7,10.7,10.7c5.9,0,10.7-4.8,10.7-10.7C149.4,68.8,144.6,64,138.7,64z"
				/>
			<path d="M96,64c-5.9,0-10.7,4.8-10.7,10.7c0,5.9,4.8,10.7,10.7,10.7s10.7-4.8,10.7-10.7C106.7,68.8,101.9,64,96,64z"/>
			<path d="M53.3,64c-5.9,0-10.7,4.8-10.7,10.7c0,5.9,4.8,10.7,10.7,10.7c5.9,0,10.7-4.8,10.7-10.7C64,68.8,59.2,64,53.3,64z"/>
			<path d="M362.7,234.6c-23.6,0-42.7,19.2-42.7,42.7v21.3c0,23.6,19.1,42.7,42.7,42.7c23.5,0,42.7-19.1,42.7-42.7v-21.3
				C405.4,253.8,386.3,234.6,362.7,234.6z M383.9,298.6c0,11.8-9.6,21.3-21.3,21.3c-11.8,0-21.3-9.6-21.3-21.3v-21.3
				c0-11.8,9.6-21.3,21.3-21.3c11.8,0,21.3,9.6,21.3,21.3V298.6z"/>
			<path d="M458.7,21.3H53.3C23.9,21.3,0,45.2,0,74.6v362.7c0,29.4,23.9,53.3,53.3,53.3h405.3c29.4,0,53.3-23.9,53.3-53.3V74.7
				C512,45.3,488.1,21.3,458.7,21.3z M21.3,74.7c0-17.6,14.4-32,32-32h405.3c17.6,0,32,14.4,32,32v32H21.3V74.7z M458.7,469.3H53.3
				c-17.6,0-32-14.4-32-32V128h469.3v309.3h0.1C490.7,454.9,476.3,469.3,458.7,469.3z"/>
			<path d="M170.7,256c12.6,0,20.9,6,21.4,10.3c0.6,5.8,5.6,10.3,11.6,9.6c5.9-0.6,10.2-5.8,9.6-11.6c-1.6-16.9-19.9-29.6-42.6-29.6
				c-23.9,0-42.7,14.1-42.7,32c0,16.6,13.2,27.3,39.4,31.5l3.2,0.5c17.7,2.9,21.4,7.4,21.4,10.6c0,4.2-8.5,10.7-21.4,10.7
				c-12.6,0-20.9-6-21.4-10.3c-0.6-5.8-5.7-10.3-11.6-9.6c-5.9,0.6-10.2,5.8-9.6,11.6c1.6,16.9,19.9,29.6,42.6,29.6
				c23.9,0,42.7-14.1,42.7-32c0-16.7-13.2-27.3-39.3-31.6l-3.2-0.5c-18.7-3.1-21.5-7.9-21.5-10.5C149.3,262.5,157.8,256,170.7,256z"
				/>
			<path d="M298.7,256c5.9,0,10.7-4.8,10.7-10.7s-4.8-10.7-10.7-10.7h-53.3c-5.9,0-10.7,4.8-10.7,10.7v85.3c0,6,4.7,10.7,10.6,10.7
				h53.3c5.9,0,10.7-4.8,10.7-10.7s-4.8-10.7-10.7-10.7H256v-21.3h32c5.9,0,10.7-4.8,10.7-10.7s-4.8-10.7-10.7-10.7h-32V256H298.7z"
				/>
		</g>
	</g>
</g>
<g>
</g>
<g>
</g>
<g>
</g>
<g>
</g>
<g>
</g>
<g>
</g>
<g>
</g>
<g>
</g>
<g>
</g>
<g>
</g>
<g>
</g>
<g>
</g>
<g>
</g>
<g>
</g>
<g>
</g>
</svg>
