<svg width="1415" height="1114" viewBox="0 0 1415 1114" fill="none" xmlns="http://www.w3.org/2000/svg">
<g clip-path="url(#clip0_4062_1175)">
<rect width="1415" height="1114" fill="#101010"/>
<path d="M74.042 542L71.602 549L69.182 542H66.342L70.142 552H73.082L76.882 542H74.042ZM86.1108 544.72C87.0108 544.08 87.5708 543.12 87.5708 541.82C87.5708 539.12 85.4908 537.72 83.0308 537.72C80.5708 537.72 78.4708 539.12 78.4708 541.82C78.4708 543.12 79.0508 544.08 79.9308 544.72C78.7108 545.46 78.0108 546.68 78.0108 548.1C78.0108 550.68 79.9108 552.28 83.0308 552.28C86.1308 552.28 88.0508 550.68 88.0508 548.1C88.0508 546.68 87.3508 545.46 86.1108 544.72ZM83.0308 540.32C84.0708 540.32 84.8308 540.92 84.8308 541.96C84.8308 542.98 84.0708 543.62 83.0308 543.62C81.9908 543.62 81.2308 542.98 81.2308 541.96C81.2308 540.92 81.9908 540.32 83.0308 540.32ZM83.0308 549.68C81.7108 549.68 80.7508 549 80.7508 547.74C80.7508 546.5 81.7108 545.82 83.0308 545.82C84.3508 545.82 85.3108 546.5 85.3108 547.74C85.3108 549 84.3508 549.68 83.0308 549.68Z" fill="#E6E6E6"/>
<path d="M521.246 102.2V108.632H515.966V102.2H512.126V119H515.966V112.328H521.246V119H525.086V102.2H521.246ZM530.37 105.944C531.546 105.944 532.53 104.96 532.53 103.784C532.53 102.608 531.546 101.624 530.37 101.624C529.194 101.624 528.21 102.608 528.21 103.784C528.21 104.96 529.194 105.944 530.37 105.944ZM528.57 119H532.17V107H528.57V119ZM544.333 107V108.224C543.541 107.24 542.389 106.664 540.829 106.664C537.421 106.664 534.925 109.448 534.925 112.76C534.925 116.072 537.421 118.856 540.829 118.856C542.389 118.856 543.541 118.28 544.333 117.296V118.4C544.333 120.104 543.301 120.968 541.621 120.968C540.037 120.968 539.341 120.296 538.885 119.456L535.813 121.232C536.917 123.2 539.005 124.136 541.501 124.136C544.693 124.136 547.837 122.432 547.837 118.4V107H544.333ZM541.429 115.544C539.725 115.544 538.525 114.416 538.525 112.76C538.525 111.104 539.725 109.976 541.429 109.976C543.133 109.976 544.333 111.104 544.333 112.76C544.333 114.416 543.133 115.544 541.429 115.544ZM558.23 106.664C556.646 106.664 555.446 107.24 554.798 108.128V102.2H551.198V119H554.798V112.448C554.798 110.744 555.71 109.976 557.03 109.976C558.182 109.976 559.118 110.672 559.118 112.16V119H562.718V111.632C562.718 108.392 560.654 106.664 558.23 106.664ZM572.63 119H576.23V101.48H572.63V119ZM582.8 114.44H591.32C591.416 113.984 591.464 113.504 591.464 113C591.464 109.376 588.872 106.664 585.368 106.664C581.576 106.664 578.984 109.424 578.984 113C578.984 116.576 581.528 119.336 585.632 119.336C587.912 119.336 589.688 118.496 590.864 116.864L587.984 115.208C587.504 115.736 586.664 116.12 585.68 116.12C584.36 116.12 583.256 115.688 582.8 114.44ZM582.728 111.752C583.064 110.528 583.976 109.856 585.344 109.856C586.424 109.856 587.504 110.36 587.888 111.752H582.728ZM601.413 107L598.917 114.608L596.421 107H592.437L596.877 119H600.957L605.397 107H601.413ZM610.186 114.44H618.706C618.802 113.984 618.85 113.504 618.85 113C618.85 109.376 616.258 106.664 612.754 106.664C608.962 106.664 606.37 109.424 606.37 113C606.37 116.576 608.914 119.336 613.018 119.336C615.298 119.336 617.074 118.496 618.25 116.864L615.37 115.208C614.89 115.736 614.05 116.12 613.066 116.12C611.746 116.12 610.642 115.688 610.186 114.44ZM610.114 111.752C610.45 110.528 611.362 109.856 612.73 109.856C613.81 109.856 614.89 110.36 615.274 111.752H610.114ZM621.611 119H625.211V101.48H621.611V119ZM643.998 107V108.128C643.206 107.216 642.03 106.664 640.422 106.664C637.278 106.664 634.686 109.424 634.686 113C634.686 116.576 637.278 119.336 640.422 119.336C642.03 119.336 643.206 118.784 643.998 117.872V119H647.598V107H643.998ZM641.142 115.928C639.486 115.928 638.286 114.8 638.286 113C638.286 111.2 639.486 110.072 641.142 110.072C642.798 110.072 643.998 111.2 643.998 113C643.998 114.8 642.798 115.928 641.142 115.928ZM654.559 109.136V107H650.959V119H654.559V113.576C654.559 111.2 656.671 110.6 658.159 110.84V106.76C656.647 106.76 655.039 107.528 654.559 109.136ZM665.97 119.336C668.322 119.336 670.362 118.112 671.394 116.24L668.25 114.44C667.866 115.28 666.978 115.784 665.922 115.784C664.362 115.784 663.21 114.656 663.21 113C663.21 111.344 664.362 110.216 665.922 110.216C666.978 110.216 667.842 110.72 668.25 111.56L671.394 109.736C670.362 107.888 668.298 106.664 665.97 106.664C662.322 106.664 659.61 109.424 659.61 113C659.61 116.576 662.322 119.336 665.97 119.336ZM680.595 106.664C679.011 106.664 677.811 107.24 677.163 108.128V102.2H673.563V119H677.163V112.448C677.163 110.744 678.075 109.976 679.395 109.976C680.547 109.976 681.483 110.672 681.483 112.16V119H685.083V111.632C685.083 108.392 683.019 106.664 680.595 106.664ZM690.075 105.944C691.251 105.944 692.235 104.96 692.235 103.784C692.235 102.608 691.251 101.624 690.075 101.624C688.899 101.624 687.915 102.608 687.915 103.784C687.915 104.96 688.899 105.944 690.075 105.944ZM688.275 119H691.875V107H688.275V119ZM702.262 110.456V107H699.79V103.64L696.19 104.72V107H694.27V110.456H696.19V114.704C696.19 118.064 697.558 119.48 702.262 119V115.736C700.678 115.832 699.79 115.736 699.79 114.704V110.456H702.262ZM708.001 114.44H716.521C716.617 113.984 716.665 113.504 716.665 113C716.665 109.376 714.073 106.664 710.569 106.664C706.777 106.664 704.185 109.424 704.185 113C704.185 116.576 706.729 119.336 710.833 119.336C713.113 119.336 714.889 118.496 716.065 116.864L713.185 115.208C712.705 115.736 711.865 116.12 710.881 116.12C709.561 116.12 708.457 115.688 708.001 114.44ZM707.929 111.752C708.265 110.528 709.177 109.856 710.545 109.856C711.625 109.856 712.705 110.36 713.089 111.752H707.929ZM725.07 119.336C727.422 119.336 729.462 118.112 730.494 116.24L727.35 114.44C726.966 115.28 726.078 115.784 725.022 115.784C723.462 115.784 722.31 114.656 722.31 113C722.31 111.344 723.462 110.216 725.022 110.216C726.078 110.216 726.942 110.72 727.35 111.56L730.494 109.736C729.462 107.888 727.398 106.664 725.07 106.664C721.422 106.664 718.71 109.424 718.71 113C718.71 116.576 721.422 119.336 725.07 119.336ZM739.695 110.456V107H737.223V103.64L733.623 104.72V107H731.703V110.456H733.623V114.704C733.623 118.064 734.991 119.48 739.695 119V115.736C738.111 115.832 737.223 115.736 737.223 114.704V110.456H739.695ZM750.44 107V113.552C750.44 115.256 749.528 116.024 748.208 116.024C747.056 116.024 746.12 115.328 746.12 113.84V107H742.52V114.368C742.52 117.608 744.584 119.336 747.008 119.336C748.592 119.336 749.792 118.76 750.44 117.872V119H754.04V107H750.44ZM761 109.136V107H757.4V119H761V113.576C761 111.2 763.112 110.6 764.6 110.84V106.76C763.088 106.76 761.48 107.528 761 109.136ZM769.867 114.44H778.387C778.483 113.984 778.531 113.504 778.531 113C778.531 109.376 775.939 106.664 772.435 106.664C768.643 106.664 766.051 109.424 766.051 113C766.051 116.576 768.595 119.336 772.699 119.336C774.979 119.336 776.755 118.496 777.931 116.864L775.051 115.208C774.571 115.736 773.731 116.12 772.747 116.12C771.427 116.12 770.323 115.688 769.867 114.44ZM769.795 111.752C770.131 110.528 771.043 109.856 772.411 109.856C773.491 109.856 774.571 110.36 774.955 111.752H769.795ZM793.773 119.336C797.301 119.336 800.133 116.576 800.133 113C800.133 109.424 797.301 106.664 793.773 106.664C790.245 106.664 787.413 109.424 787.413 113C787.413 116.576 790.245 119.336 793.773 119.336ZM793.773 115.832C792.213 115.832 791.013 114.704 791.013 113C791.013 111.296 792.213 110.168 793.773 110.168C795.333 110.168 796.533 111.296 796.533 113C796.533 114.704 795.333 115.832 793.773 115.832ZM809.138 105.32V101.864C805.154 101.624 803.306 103.64 803.306 107H801.698V110.456H803.306V119H806.906V110.456H809.138V107H806.906C806.906 105.608 807.794 105.2 809.138 105.32ZM823.66 119.336C826.012 119.336 828.052 118.112 829.084 116.24L825.94 114.44C825.556 115.28 824.668 115.784 823.612 115.784C822.052 115.784 820.9 114.656 820.9 113C820.9 111.344 822.052 110.216 823.612 110.216C824.668 110.216 825.532 110.72 825.94 111.56L829.084 109.736C828.052 107.888 825.988 106.664 823.66 106.664C820.012 106.664 817.3 109.424 817.3 113C817.3 116.576 820.012 119.336 823.66 119.336ZM834.97 109.136V107H831.37V119H834.97V113.576C834.97 111.2 837.082 110.6 838.57 110.84V106.76C837.058 106.76 835.45 107.528 834.97 109.136ZM848.724 107V113.552C848.724 115.256 847.812 116.024 846.492 116.024C845.34 116.024 844.404 115.328 844.404 113.84V107H840.804V114.368C840.804 117.608 842.868 119.336 845.292 119.336C846.876 119.336 848.076 118.76 848.724 117.872V119H852.324V107H848.724ZM858.975 110.504C858.975 110.072 859.359 109.832 859.983 109.832C860.775 109.832 861.255 110.264 861.591 110.888L864.663 109.232C863.655 107.528 861.927 106.664 859.983 106.664C857.487 106.664 855.279 107.984 855.279 110.6C855.279 114.752 861.183 114.056 861.183 115.376C861.183 115.856 860.751 116.12 859.887 116.12C858.831 116.12 858.159 115.616 857.847 114.704L854.727 116.48C855.663 118.424 857.487 119.336 859.887 119.336C862.479 119.336 864.879 118.16 864.879 115.4C864.879 110.96 858.975 111.872 858.975 110.504ZM874.429 106.664C872.845 106.664 871.645 107.24 870.997 108.128V102.2H867.397V119H870.997V112.448C870.997 110.744 871.909 109.976 873.229 109.976C874.381 109.976 875.317 110.672 875.317 112.16V119H878.917V111.632C878.917 108.392 876.853 106.664 874.429 106.664ZM885.325 114.44H893.845C893.941 113.984 893.989 113.504 893.989 113C893.989 109.376 891.397 106.664 887.893 106.664C884.101 106.664 881.509 109.424 881.509 113C881.509 116.576 884.053 119.336 888.157 119.336C890.437 119.336 892.213 118.496 893.389 116.864L890.509 115.208C890.029 115.736 889.189 116.12 888.205 116.12C886.885 116.12 885.781 115.688 885.325 114.44ZM885.253 111.752C885.589 110.528 886.501 109.856 887.869 109.856C888.949 109.856 890.029 110.36 890.413 111.752H885.253ZM900.351 109.136V107H896.751V119H900.351V113.576C900.351 111.2 902.463 110.6 903.951 110.84V106.76C902.439 106.76 900.831 107.528 900.351 109.136Z" fill="#F3F3F3" fill-opacity="0.96"/>
<path d="M1330 591.5V583H1347V600H1330" fill="#007ACC"/>
<path d="M1333.73 591.53V592.222H1335.94V598.512H1337.51V592.222H1339.72V591.542C1339.72 591.16 1339.72 590.85 1339.7 590.841C1339.7 590.828 1338.35 590.824 1336.72 590.824L1333.74 590.837V591.534L1333.73 591.53V591.53ZM1343.66 590.82C1344.09 590.922 1344.42 591.117 1344.72 591.428C1344.88 591.598 1345.11 591.895 1345.13 591.972C1345.13 591.997 1344.4 592.494 1343.95 592.771C1343.93 592.783 1343.86 592.711 1343.8 592.601C1343.57 592.286 1343.35 592.15 1343 592.125C1342.49 592.091 1342.15 592.358 1342.15 592.805C1342.15 592.941 1342.17 593.017 1342.22 593.128C1342.34 593.361 1342.55 593.502 1343.21 593.791C1344.42 594.313 1344.95 594.658 1345.27 595.151C1345.63 595.703 1345.71 596.57 1345.47 597.22C1345.2 597.93 1344.54 598.41 1343.59 598.568C1343.29 598.619 1342.61 598.61 1342.29 598.555C1341.61 598.427 1340.96 598.087 1340.56 597.65C1340.4 597.48 1340.1 597.025 1340.12 596.995L1340.28 596.893L1340.92 596.523L1341.4 596.243L1341.51 596.392C1341.65 596.613 1341.96 596.91 1342.15 597.012C1342.7 597.297 1343.44 597.259 1343.8 596.927C1343.96 596.783 1344.03 596.63 1344.03 596.417C1344.03 596.222 1344 596.132 1343.9 595.984C1343.77 595.797 1343.49 595.644 1342.73 595.304C1341.85 594.93 1341.48 594.692 1341.13 594.326C1340.93 594.105 1340.74 593.761 1340.66 593.476C1340.6 593.23 1340.57 592.626 1340.63 592.384C1340.82 591.534 1341.46 590.939 1342.38 590.769C1342.67 590.709 1343.38 590.735 1343.67 590.811L1343.66 590.82V590.82Z" fill="white"/>
<rect x="1" y="438" width="325" height="60" rx="1" stroke="#2A2A2B" stroke-width="2"/>
<path d="M136.98 475H139.96L136.86 469.72C138.46 468.98 139.56 467.4 139.56 465.64C139.56 463.08 137.48 461 134.9 461H129.3V475H132.06V470.14H134.16L136.98 475ZM132.06 463.58H134.9C135.94 463.58 136.8 464.48 136.8 465.64C136.8 466.8 135.94 467.72 134.9 467.72H132.06V463.58ZM143.737 471.06H151.277C151.337 470.72 151.377 470.38 151.377 470C151.377 467.06 149.277 464.72 146.317 464.72C143.177 464.72 141.037 467.02 141.037 470C141.037 472.98 143.157 475.28 146.517 475.28C148.437 475.28 149.937 474.5 150.877 473.14L148.797 471.94C148.357 472.52 147.557 472.94 146.557 472.94C145.197 472.94 144.097 472.38 143.737 471.06ZM143.697 469.06C143.997 467.78 144.937 467.04 146.317 467.04C147.397 467.04 148.477 467.62 148.797 469.06H143.697ZM158.46 475.28C160.42 475.28 162.12 474.24 162.98 472.68L160.74 471.4C160.34 472.22 159.48 472.72 158.44 472.72C156.9 472.72 155.76 471.58 155.76 470C155.76 468.4 156.9 467.26 158.44 467.26C159.46 467.26 160.32 467.78 160.72 468.6L162.94 467.3C162.12 465.76 160.42 464.72 158.46 464.72C155.42 464.72 153.18 467.02 153.18 470C153.18 472.98 155.42 475.28 158.46 475.28ZM169.549 475.28C172.489 475.28 174.849 472.98 174.849 470C174.849 467.02 172.489 464.72 169.549 464.72C166.609 464.72 164.269 467.02 164.269 470C164.269 472.98 166.609 475.28 169.549 475.28ZM169.549 472.76C168.029 472.76 166.849 471.62 166.849 470C166.849 468.38 168.029 467.24 169.549 467.24C171.089 467.24 172.269 468.38 172.269 470C172.269 471.62 171.089 472.76 169.549 472.76ZM179.844 466.72V465H177.264V475H179.844V470.22C179.844 468.12 181.544 467.52 182.884 467.68V464.8C181.624 464.8 180.364 465.36 179.844 466.72ZM192.201 461V466.18C191.481 465.26 190.421 464.72 188.961 464.72C186.281 464.72 184.081 467.02 184.081 470C184.081 472.98 186.281 475.28 188.961 475.28C190.421 475.28 191.481 474.74 192.201 473.82V475H194.781V461H192.201ZM189.441 472.82C187.841 472.82 186.661 471.68 186.661 470C186.661 468.32 187.841 467.18 189.441 467.18C191.021 467.18 192.201 468.32 192.201 470C192.201 471.68 191.021 472.82 189.441 472.82ZM199.921 471.06H207.461C207.521 470.72 207.561 470.38 207.561 470C207.561 467.06 205.461 464.72 202.501 464.72C199.361 464.72 197.221 467.02 197.221 470C197.221 472.98 199.341 475.28 202.701 475.28C204.621 475.28 206.121 474.5 207.061 473.14L204.981 471.94C204.541 472.52 203.741 472.94 202.741 472.94C201.381 472.94 200.281 472.38 199.921 471.06ZM199.881 469.06C200.181 467.78 201.121 467.04 202.501 467.04C203.581 467.04 204.661 467.62 204.981 469.06H199.881ZM212.542 466.72V465H209.962V475H212.542V470.22C212.542 468.12 214.242 467.52 215.582 467.68V464.8C214.322 464.8 213.062 465.36 212.542 466.72Z" fill="#C15CFF"/>
<rect x="1" y="522" width="153" height="45" rx="22.5" stroke="#D6D6D6" stroke-width="2"/>
<path d="M1228 841.5L1233.77 831.5H1222.23L1228 841.5ZM1228.71 659.293C1228.32 658.902 1227.68 658.902 1227.29 659.293L1220.93 665.657C1220.54 666.047 1220.54 666.681 1220.93 667.071C1221.32 667.462 1221.95 667.462 1222.34 667.071L1228 661.414L1233.66 667.071C1234.05 667.462 1234.68 667.462 1235.07 667.071C1235.46 666.681 1235.46 666.047 1235.07 665.657L1228.71 659.293ZM1229 832.5V660H1227V832.5H1229Z" fill="#2F2F31"/>
<rect x="173" y="522" width="153" height="45" rx="22.5" stroke="#D6D6D6" stroke-width="2"/>
<path d="M233.073 541.72C231.613 541.72 230.553 542.26 229.833 543.18V538H227.253V552H229.833V550.82C230.553 551.74 231.613 552.28 233.073 552.28C235.753 552.28 237.953 549.98 237.953 547C237.953 544.02 235.753 541.72 233.073 541.72ZM232.593 549.82C231.013 549.82 229.833 548.68 229.833 547C229.833 545.32 231.013 544.18 232.593 544.18C234.193 544.18 235.373 545.32 235.373 547C235.373 548.68 234.193 549.82 232.593 549.82ZM240.373 552H242.953V537.4H240.373V552ZM247.194 540.8C248.074 540.8 248.794 540.08 248.794 539.22C248.794 538.36 248.074 537.62 247.194 537.62C246.334 537.62 245.614 538.36 245.614 539.22C245.614 540.08 246.334 540.8 247.194 540.8ZM245.914 552H248.494V542H245.914V552ZM257.016 541.72C255.676 541.72 254.636 542.22 254.036 543.12V542H251.456V552H254.036V546.6C254.036 544.86 254.976 544.12 256.236 544.12C257.396 544.12 258.216 544.82 258.216 546.18V552H260.796V545.86C260.796 543.2 259.136 541.72 257.016 541.72ZM272.819 552L268.679 546.94L272.699 542H269.619L266.179 546.4V538H263.599V552H266.179V547.46L269.819 552H272.819Z" fill="white"/>
<rect x="1038" y="434" width="368" height="223" rx="20" fill="#D9D9D9" fill-opacity="0.1"/>
<rect x="1039" y="435" width="366" height="221" rx="19" stroke="white" stroke-opacity="0.12" stroke-width="2" stroke-linejoin="round" stroke-dasharray="4 4"/>
<rect x="1079.75" y="470.75" width="293.5" height="60.5" rx="1.25" stroke="#A661FF" stroke-width="1.5"/>
<path d="M1341 500.5V492H1358V509H1341" fill="#007ACC"/>
<path d="M1344.73 500.53V501.222H1346.94V507.512H1348.51V501.222H1350.72V500.542C1350.72 500.16 1350.72 499.85 1350.7 499.841C1350.7 499.828 1349.35 499.824 1347.72 499.824L1344.74 499.837V500.534L1344.73 500.53V500.53ZM1354.66 499.82C1355.09 499.922 1355.42 500.117 1355.72 500.428C1355.88 500.598 1356.11 500.895 1356.13 500.972C1356.13 500.997 1355.4 501.494 1354.95 501.771C1354.93 501.783 1354.86 501.711 1354.8 501.601C1354.57 501.286 1354.35 501.15 1354 501.125C1353.49 501.091 1353.15 501.358 1353.15 501.805C1353.15 501.941 1353.17 502.017 1353.22 502.128C1353.34 502.361 1353.55 502.502 1354.21 502.791C1355.42 503.313 1355.95 503.658 1356.27 504.151C1356.63 504.703 1356.71 505.57 1356.47 506.22C1356.2 506.93 1355.54 507.41 1354.59 507.568C1354.29 507.619 1353.61 507.61 1353.29 507.555C1352.61 507.427 1351.96 507.087 1351.56 506.65C1351.4 506.48 1351.1 506.025 1351.12 505.995L1351.28 505.893L1351.92 505.523L1352.4 505.243L1352.51 505.392C1352.65 505.613 1352.96 505.91 1353.15 506.012C1353.7 506.297 1354.44 506.259 1354.8 505.927C1354.96 505.783 1355.03 505.63 1355.03 505.417C1355.03 505.222 1355 505.132 1354.9 504.984C1354.77 504.797 1354.49 504.644 1353.73 504.304C1352.85 503.93 1352.48 503.692 1352.13 503.326C1351.93 503.105 1351.74 502.761 1351.66 502.476C1351.6 502.23 1351.57 501.626 1351.63 501.384C1351.82 500.534 1352.46 499.939 1353.38 499.769C1353.67 499.709 1354.38 499.735 1354.67 499.811L1354.66 499.82V499.82Z" fill="white"/>
<path d="M1108.98 508H1111.96L1108.86 502.72C1110.46 501.98 1111.56 500.4 1111.56 498.64C1111.56 496.08 1109.48 494 1106.9 494H1101.3V508H1104.06V503.14H1106.16L1108.98 508ZM1104.06 496.58H1106.9C1107.94 496.58 1108.8 497.48 1108.8 498.64C1108.8 499.8 1107.94 500.72 1106.9 500.72H1104.06V496.58ZM1120.45 498V503.4C1120.45 505.14 1119.51 505.88 1118.25 505.88C1117.09 505.88 1116.27 505.18 1116.27 503.82V498H1113.69V504.14C1113.69 506.8 1115.35 508.28 1117.47 508.28C1118.81 508.28 1119.85 507.78 1120.45 506.88V508H1123.03V498H1120.45ZM1131.55 497.72C1130.21 497.72 1129.17 498.22 1128.57 499.12V498H1125.99V508H1128.57V502.6C1128.57 500.86 1129.51 500.12 1130.77 500.12C1131.93 500.12 1132.75 500.82 1132.75 502.18V508H1135.33V501.86C1135.33 499.2 1133.67 497.72 1131.55 497.72ZM1143.7 497.72C1142.36 497.72 1141.32 498.22 1140.72 499.12V498H1138.14V508H1140.72V502.6C1140.72 500.86 1141.66 500.12 1142.92 500.12C1144.08 500.12 1144.9 500.82 1144.9 502.18V508H1147.48V501.86C1147.48 499.2 1145.82 497.72 1143.7 497.72ZM1152.46 504.06H1160C1160.06 503.72 1160.1 503.38 1160.1 503C1160.1 500.06 1158 497.72 1155.04 497.72C1151.9 497.72 1149.76 500.02 1149.76 503C1149.76 505.98 1151.88 508.28 1155.24 508.28C1157.16 508.28 1158.66 507.5 1159.6 506.14L1157.52 504.94C1157.08 505.52 1156.28 505.94 1155.28 505.94C1153.92 505.94 1152.82 505.38 1152.46 504.06ZM1152.42 502.06C1152.72 500.78 1153.66 500.04 1155.04 500.04C1156.12 500.04 1157.2 500.62 1157.52 502.06H1152.42ZM1165.08 499.72V498H1162.5V508H1165.08V503.22C1165.08 501.12 1166.78 500.52 1168.12 500.68V497.8C1166.86 497.8 1165.6 498.36 1165.08 499.72Z" fill="white" fill-opacity="0.88"/>
<rect x="1079.75" y="559.75" width="293.5" height="60.5" rx="1.25" stroke="#A661FF" stroke-width="1.5"/>
<path d="M1107.22 595H1110.36L1112.98 585.76L1115.62 595H1118.76L1122.68 581H1119.78L1117.1 591.38L1114.16 581H1111.8L1108.88 591.38L1106.2 581H1103.3L1107.22 595ZM1128.33 595.28C1131.27 595.28 1133.63 592.98 1133.63 590C1133.63 587.02 1131.27 584.72 1128.33 584.72C1125.39 584.72 1123.05 587.02 1123.05 590C1123.05 592.98 1125.39 595.28 1128.33 595.28ZM1128.33 592.76C1126.81 592.76 1125.63 591.62 1125.63 590C1125.63 588.38 1126.81 587.24 1128.33 587.24C1129.87 587.24 1131.05 588.38 1131.05 590C1131.05 591.62 1129.87 592.76 1128.33 592.76ZM1138.62 586.72V585H1136.04V595H1138.62V590.22C1138.62 588.12 1140.32 587.52 1141.66 587.68V584.8C1140.4 584.8 1139.14 585.36 1138.62 586.72ZM1152.99 595L1148.85 589.94L1152.87 585H1149.79L1146.35 589.4V581H1143.77V595H1146.35V590.46L1149.99 595H1152.99ZM1156.34 591.06H1163.88C1163.94 590.72 1163.98 590.38 1163.98 590C1163.98 587.06 1161.88 584.72 1158.92 584.72C1155.78 584.72 1153.64 587.02 1153.64 590C1153.64 592.98 1155.76 595.28 1159.12 595.28C1161.04 595.28 1162.54 594.5 1163.48 593.14L1161.4 591.94C1160.96 592.52 1160.16 592.94 1159.16 592.94C1157.8 592.94 1156.7 592.38 1156.34 591.06ZM1156.3 589.06C1156.6 587.78 1157.54 587.04 1158.92 587.04C1160 587.04 1161.08 587.62 1161.4 589.06H1156.3ZM1168.96 586.72V585H1166.38V595H1168.96V590.22C1168.96 588.12 1170.66 587.52 1172 587.68V584.8C1170.74 584.8 1169.48 585.36 1168.96 586.72Z" fill="white"/>
<rect x="653" y="840" width="753" height="110" fill="#D9D9D9" fill-opacity="0.1" stroke="white" stroke-opacity="0.12" stroke-width="1.5" stroke-linecap="round"/>
<rect x="700" y="866" width="183" height="62" rx="2" fill="#313131"/>
<rect x="700.5" y="866.5" width="182" height="61" rx="1.5" stroke="#232020" stroke-opacity="0.17"/>
<path d="M801.226 893.72V892H798.646V902H801.226V897.22C801.226 895.12 802.926 894.52 804.266 894.68V891.8C803.006 891.8 801.746 892.36 801.226 893.72ZM808.184 898.06H815.724C815.784 897.72 815.824 897.38 815.824 897C815.824 894.06 813.724 891.72 810.764 891.72C807.624 891.72 805.484 894.02 805.484 897C805.484 899.98 807.604 902.28 810.964 902.28C812.884 902.28 814.384 901.5 815.324 900.14L813.244 898.94C812.804 899.52 812.004 899.94 811.004 899.94C809.644 899.94 808.544 899.38 808.184 898.06ZM808.144 896.06C808.444 894.78 809.384 894.04 810.764 894.04C811.844 894.04 812.924 894.62 813.244 896.06H808.144ZM825.726 888V893.18C825.006 892.26 823.946 891.72 822.486 891.72C819.806 891.72 817.606 894.02 817.606 897C817.606 899.98 819.806 902.28 822.486 902.28C823.946 902.28 825.006 901.74 825.726 900.82V902H828.306V888H825.726ZM822.966 899.82C821.366 899.82 820.186 898.68 820.186 897C820.186 895.32 821.366 894.18 822.966 894.18C824.546 894.18 825.726 895.32 825.726 897C825.726 898.68 824.546 899.82 822.966 899.82ZM832.546 890.8C833.426 890.8 834.146 890.08 834.146 889.22C834.146 888.36 833.426 887.62 832.546 887.62C831.686 887.62 830.966 888.36 830.966 889.22C830.966 890.08 831.686 890.8 832.546 890.8ZM831.266 902H833.846V892H831.266V902ZM839.109 894.84C839.109 894.3 839.629 894.02 840.269 894.02C841.009 894.02 841.569 894.4 841.869 895.04L844.069 893.84C843.289 892.46 841.889 891.72 840.269 891.72C838.209 891.72 836.469 892.86 836.469 894.9C836.469 898.42 841.629 897.62 841.629 899.08C841.629 899.66 841.069 899.94 840.249 899.94C839.249 899.94 838.569 899.46 838.289 898.64L836.049 899.9C836.769 901.44 838.249 902.28 840.249 902.28C842.389 902.28 844.269 901.24 844.269 899.08C844.269 895.4 839.109 896.32 839.109 894.84Z" fill="white" fill-opacity="0.9"/>
<rect x="938" y="866" width="183" height="62" rx="2" fill="#313131"/>
<rect x="938.75" y="866.75" width="181.5" height="60.5" rx="1.25" stroke="#232020" stroke-opacity="0.17" stroke-width="1.5"/>
<path d="M1030.59 891.72C1029.13 891.72 1028.07 892.26 1027.35 893.18V892H1024.77V906H1027.35V900.82C1028.07 901.74 1029.13 902.28 1030.59 902.28C1033.27 902.28 1035.47 899.98 1035.47 897C1035.47 894.02 1033.27 891.72 1030.59 891.72ZM1030.11 899.82C1028.53 899.82 1027.35 898.68 1027.35 897C1027.35 895.32 1028.53 894.18 1030.11 894.18C1031.71 894.18 1032.89 895.32 1032.89 897C1032.89 898.68 1031.71 899.82 1030.11 899.82ZM1042.65 902.28C1045.59 902.28 1047.95 899.98 1047.95 897C1047.95 894.02 1045.59 891.72 1042.65 891.72C1039.71 891.72 1037.37 894.02 1037.37 897C1037.37 899.98 1039.71 902.28 1042.65 902.28ZM1042.65 899.76C1041.13 899.76 1039.95 898.62 1039.95 897C1039.95 895.38 1041.13 894.24 1042.65 894.24C1044.19 894.24 1045.37 895.38 1045.37 897C1045.37 898.62 1044.19 899.76 1042.65 899.76ZM1052.53 894.84C1052.53 894.3 1053.05 894.02 1053.69 894.02C1054.43 894.02 1054.99 894.4 1055.29 895.04L1057.49 893.84C1056.71 892.46 1055.31 891.72 1053.69 891.72C1051.63 891.72 1049.89 892.86 1049.89 894.9C1049.89 898.42 1055.05 897.62 1055.05 899.08C1055.05 899.66 1054.49 899.94 1053.67 899.94C1052.67 899.94 1051.99 899.46 1051.71 898.64L1049.47 899.9C1050.19 901.44 1051.67 902.28 1053.67 902.28C1055.81 902.28 1057.69 901.24 1057.69 899.08C1057.69 895.4 1052.53 896.32 1052.53 894.84ZM1065.38 894.48V892H1063.12V889.2L1060.54 889.98V892H1058.8V894.48H1060.54V898.64C1060.54 901.34 1061.76 902.4 1065.38 902V899.66C1063.9 899.74 1063.12 899.72 1063.12 898.64V894.48H1065.38ZM1075.15 892V893.24C1074.45 892.3 1073.37 891.72 1071.95 891.72C1069.11 891.72 1066.97 894.04 1066.97 896.84C1066.97 899.66 1069.11 901.96 1071.95 901.96C1073.37 901.96 1074.45 901.38 1075.15 900.44V901.52C1075.15 903.1 1074.15 903.98 1072.53 903.98C1070.99 903.98 1070.33 903.36 1069.91 902.58L1067.71 903.84C1068.59 905.46 1070.31 906.28 1072.45 906.28C1075.09 906.28 1077.67 904.8 1077.67 901.52V892H1075.15ZM1072.35 899.58C1070.73 899.58 1069.55 898.44 1069.55 896.84C1069.55 895.26 1070.73 894.12 1072.35 894.12C1073.97 894.12 1075.15 895.26 1075.15 896.84C1075.15 898.44 1073.97 899.58 1072.35 899.58ZM1083.19 893.72V892H1080.61V902H1083.19V897.22C1083.19 895.12 1084.89 894.52 1086.23 894.68V891.8C1084.97 891.8 1083.71 892.36 1083.19 893.72ZM1090.14 898.06H1097.68C1097.74 897.72 1097.78 897.38 1097.78 897C1097.78 894.06 1095.68 891.72 1092.72 891.72C1089.58 891.72 1087.44 894.02 1087.44 897C1087.44 899.98 1089.56 902.28 1092.92 902.28C1094.84 902.28 1096.34 901.5 1097.28 900.14L1095.2 898.94C1094.76 899.52 1093.96 899.94 1092.96 899.94C1091.6 899.94 1090.5 899.38 1090.14 898.06ZM1090.1 896.06C1090.4 894.78 1091.34 894.04 1092.72 894.04C1093.8 894.04 1094.88 894.62 1095.2 896.06H1090.1Z" fill="white" fill-opacity="0.9"/>
<rect x="1176" y="866" width="183" height="62" rx="2" fill="#313131"/>
<rect x="1176.5" y="866.5" width="182" height="61" rx="1.5" stroke="#232020" stroke-opacity="0.17"/>
<path d="M1311.76 895.84C1311.76 895.3 1312.28 895.02 1312.92 895.02C1313.66 895.02 1314.22 895.4 1314.52 896.04L1316.72 894.84C1315.94 893.46 1314.54 892.72 1312.92 892.72C1310.86 892.72 1309.12 893.86 1309.12 895.9C1309.12 899.42 1314.28 898.62 1314.28 900.08C1314.28 900.66 1313.72 900.94 1312.9 900.94C1311.9 900.94 1311.22 900.46 1310.94 899.64L1308.7 900.9C1309.42 902.44 1310.9 903.28 1312.9 903.28C1315.04 903.28 1316.92 902.24 1316.92 900.08C1316.92 896.4 1311.76 897.32 1311.76 895.84ZM1325.16 894.68L1327.78 891.28V889H1318.98V891.58H1324.46L1321.7 895.18L1322.76 896.78H1323.36C1324.8 896.78 1325.6 897.56 1325.6 898.68C1325.6 899.82 1324.8 900.58 1323.36 900.58C1322.04 900.58 1321.26 900 1320.92 898.96L1318.56 900.32C1319.36 902.32 1321.26 903.28 1323.36 903.28C1326 903.28 1328.36 901.68 1328.36 898.68C1328.36 896.62 1326.98 895.22 1325.16 894.68Z" fill="#EAEAEA"/>
<rect x="413" y="210" width="532" height="110" rx="12" fill="#D9D9D9" fill-opacity="0.06"/>
<rect x="414" y="211" width="530" height="108" rx="11" stroke="white" stroke-opacity="0.06" stroke-width="2" stroke-linecap="round"/>
<rect x="462" y="232" width="183" height="62" rx="2" fill="#313131"/>
<rect x="462.5" y="232.5" width="182" height="61" rx="1.5" stroke="#232020" stroke-opacity="0.17"/>
<path d="M509.446 257.72C507.986 257.72 506.926 258.26 506.206 259.18V258H503.626V272H506.206V266.82C506.926 267.74 507.986 268.28 509.446 268.28C512.126 268.28 514.326 265.98 514.326 263C514.326 260.02 512.126 257.72 509.446 257.72ZM508.966 265.82C507.386 265.82 506.206 264.68 506.206 263C506.206 261.32 507.386 260.18 508.966 260.18C510.566 260.18 511.746 261.32 511.746 263C511.746 264.68 510.566 265.82 508.966 265.82ZM516.746 268H519.326V253.4H516.746V268ZM529.887 258V259.18C529.167 258.28 528.087 257.72 526.627 257.72C523.967 257.72 521.767 260.02 521.767 263C521.767 265.98 523.967 268.28 526.627 268.28C528.087 268.28 529.167 267.72 529.887 266.82V268H532.467V258H529.887ZM527.107 265.82C525.527 265.82 524.347 264.68 524.347 263C524.347 261.32 525.527 260.18 527.107 260.18C528.707 260.18 529.887 261.32 529.887 263C529.887 264.68 528.707 265.82 527.107 265.82ZM541.927 258L539.707 264.72L537.107 258H534.287L538.387 267.68C537.907 269.02 537.187 269.62 535.767 269.6V272C538.307 272.14 540.007 270.88 541.047 268L544.687 258H541.927ZM557.775 258L556.075 264.16L554.255 258H551.815L549.995 264.14L548.295 258H545.555L548.735 268H551.195L553.035 261.94L554.875 268H557.335L560.515 258H557.775ZM565.085 259.72V258H562.505V268H565.085V263.22C565.085 261.12 566.785 260.52 568.125 260.68V257.8C566.865 257.8 565.605 258.36 565.085 259.72ZM571.514 256.8C572.394 256.8 573.114 256.08 573.114 255.22C573.114 254.36 572.394 253.62 571.514 253.62C570.654 253.62 569.934 254.36 569.934 255.22C569.934 256.08 570.654 256.8 571.514 256.8ZM570.234 268H572.814V258H570.234V268ZM583.436 258V259.24C582.736 258.3 581.656 257.72 580.236 257.72C577.396 257.72 575.256 260.04 575.256 262.84C575.256 265.66 577.396 267.96 580.236 267.96C581.656 267.96 582.736 267.38 583.436 266.44V267.52C583.436 269.1 582.436 269.98 580.816 269.98C579.276 269.98 578.616 269.36 578.196 268.58L575.996 269.84C576.876 271.46 578.596 272.28 580.736 272.28C583.376 272.28 585.956 270.8 585.956 267.52V258H583.436ZM580.636 265.58C579.016 265.58 577.836 264.44 577.836 262.84C577.836 261.26 579.016 260.12 580.636 260.12C582.256 260.12 583.436 261.26 583.436 262.84C583.436 264.44 582.256 265.58 580.636 265.58ZM594.455 257.72C593.115 257.72 592.075 258.22 591.475 259.12V254H588.895V268H591.475V262.6C591.475 260.86 592.415 260.12 593.675 260.12C594.835 260.12 595.655 260.82 595.655 262.18V268H598.235V261.86C598.235 259.2 596.575 257.72 594.455 257.72ZM606.758 260.48V258H604.498V255.2L601.918 255.98V258H600.178V260.48H601.918V264.64C601.918 267.34 603.138 268.4 606.758 268V265.66C605.278 265.74 604.498 265.72 604.498 264.64V260.48H606.758Z" fill="white" fill-opacity="0.65"/>
<rect x="673" y="232" width="210" height="62" rx="2" fill="#7332C7"/>
<path d="M726.064 268.28C728.024 268.28 729.724 267.24 730.584 265.68L728.344 264.4C727.944 265.22 727.084 265.72 726.044 265.72C724.504 265.72 723.364 264.58 723.364 263C723.364 261.4 724.504 260.26 726.044 260.26C727.064 260.26 727.924 260.78 728.324 261.6L730.544 260.3C729.724 258.76 728.024 257.72 726.064 257.72C723.024 257.72 720.784 260.02 720.784 263C720.784 265.98 723.024 268.28 726.064 268.28ZM739.227 258V263.4C739.227 265.14 738.287 265.88 737.027 265.88C735.867 265.88 735.047 265.18 735.047 263.82V258H732.467V264.14C732.467 266.8 734.127 268.28 736.247 268.28C737.587 268.28 738.627 267.78 739.227 266.88V268H741.807V258H739.227ZM747.071 260.84C747.071 260.3 747.591 260.02 748.231 260.02C748.971 260.02 749.531 260.4 749.831 261.04L752.031 259.84C751.251 258.46 749.851 257.72 748.231 257.72C746.171 257.72 744.431 258.86 744.431 260.9C744.431 264.42 749.591 263.62 749.591 265.08C749.591 265.66 749.031 265.94 748.211 265.94C747.211 265.94 746.531 265.46 746.251 264.64L744.011 265.9C744.731 267.44 746.211 268.28 748.211 268.28C750.351 268.28 752.231 267.24 752.231 265.08C752.231 261.4 747.071 262.32 747.071 260.84ZM759.918 260.48V258H757.658V255.2L755.078 255.98V258H753.338V260.48H755.078V264.64C755.078 267.34 756.298 268.4 759.918 268V265.66C758.438 265.74 757.658 265.72 757.658 264.64V260.48H759.918ZM766.784 268.28C769.724 268.28 772.084 265.98 772.084 263C772.084 260.02 769.724 257.72 766.784 257.72C763.844 257.72 761.504 260.02 761.504 263C761.504 265.98 763.844 268.28 766.784 268.28ZM766.784 265.76C765.264 265.76 764.084 264.62 764.084 263C764.084 261.38 765.264 260.24 766.784 260.24C768.324 260.24 769.504 261.38 769.504 263C769.504 264.62 768.324 265.76 766.784 265.76ZM785.559 257.72C784.199 257.72 783.199 258.26 782.579 259.16C782.019 258.24 781.099 257.72 779.859 257.72C778.579 257.72 777.639 258.22 777.079 259.06V258H774.499V268H777.079V262.38C777.079 260.88 777.859 260.12 778.959 260.12C780.039 260.12 780.639 260.84 780.639 262.02V268H783.219V262.38C783.219 260.88 783.939 260.12 785.079 260.12C786.159 260.12 786.759 260.84 786.759 262.02V268H789.339V261.84C789.339 259.34 787.839 257.72 785.559 257.72ZM802.63 268.28C805.61 268.28 807.71 266.68 807.71 264.06C807.71 261.2 805.35 260.46 803.13 259.76C801.01 259.12 800.47 258.66 800.47 257.8C800.47 257 801.15 256.4 802.31 256.4C803.73 256.4 804.49 257.14 804.99 258.2L807.31 256.86C806.37 254.9 804.61 253.72 802.31 253.72C799.91 253.72 797.71 255.24 797.71 257.88C797.71 260.54 799.79 261.44 801.93 262.06C804.01 262.66 804.95 263.06 804.95 264.1C804.95 264.88 804.37 265.58 802.71 265.58C800.97 265.58 799.99 264.74 799.49 263.44L797.13 264.82C797.89 266.9 799.77 268.28 802.63 268.28ZM815.573 254H810.013V268H815.573C819.433 268 822.313 264.94 822.313 261C822.313 257.06 819.433 254 815.573 254ZM815.573 265.36H812.773V256.64H815.573C817.993 256.64 819.673 258.42 819.673 261C819.673 263.58 817.993 265.36 815.573 265.36ZM835.811 268L830.431 260.8L835.611 254H832.431L827.631 260.18V254H824.871V268H827.631V261.44L832.631 268H835.811Z" fill="white"/>
<rect x="503" y="430" width="366" height="221" rx="11" fill="#1C1C1D" stroke="#2A2A2B" stroke-width="2" stroke-dasharray="4 4"/>
<rect x="544" y="466.509" width="291" height="56" rx="1" fill="#994CD6" fill-opacity="0.07"/>
<rect x="544" y="466.509" width="291" height="56" rx="1" stroke="#994CD6" stroke-width="2"/>
<path d="M576.226 500.28C579.206 500.28 581.306 498.68 581.306 496.06C581.306 493.2 578.946 492.46 576.726 491.76C574.606 491.12 574.066 490.66 574.066 489.8C574.066 489 574.746 488.4 575.906 488.4C577.326 488.4 578.086 489.14 578.586 490.2L580.906 488.86C579.966 486.9 578.206 485.72 575.906 485.72C573.506 485.72 571.306 487.24 571.306 489.88C571.306 492.54 573.386 493.44 575.526 494.06C577.606 494.66 578.546 495.06 578.546 496.1C578.546 496.88 577.966 497.58 576.306 497.58C574.566 497.58 573.586 496.74 573.086 495.44L570.726 496.82C571.486 498.9 573.366 500.28 576.226 500.28ZM586.04 496.06H593.58C593.64 495.72 593.68 495.38 593.68 495C593.68 492.06 591.58 489.72 588.62 489.72C585.48 489.72 583.34 492.02 583.34 495C583.34 497.98 585.46 500.28 588.82 500.28C590.74 500.28 592.24 499.5 593.18 498.14L591.1 496.94C590.66 497.52 589.86 497.94 588.86 497.94C587.5 497.94 586.4 497.38 586.04 496.06ZM586 494.06C586.3 492.78 587.24 492.04 588.62 492.04C589.7 492.04 590.78 492.62 591.1 494.06H586ZM598.661 491.72V490H596.081V500H598.661V495.22C598.661 493.12 600.361 492.52 601.701 492.68V489.8C600.441 489.8 599.181 490.36 598.661 491.72ZM610.39 490L607.95 497L605.53 490H602.69L606.49 500H609.43L613.23 490H610.39ZM616.864 496.06H624.404C624.464 495.72 624.504 495.38 624.504 495C624.504 492.06 622.404 489.72 619.444 489.72C616.304 489.72 614.164 492.02 614.164 495C614.164 497.98 616.284 500.28 619.644 500.28C621.564 500.28 623.064 499.5 624.004 498.14L621.924 496.94C621.484 497.52 620.684 497.94 619.684 497.94C618.324 497.94 617.224 497.38 616.864 496.06ZM616.824 494.06C617.124 492.78 618.064 492.04 619.444 492.04C620.524 492.04 621.604 492.62 621.924 494.06H616.824ZM629.485 491.72V490H626.905V500H629.485V495.22C629.485 493.12 631.185 492.52 632.525 492.68V489.8C631.265 489.8 630.005 490.36 629.485 491.72Z" fill="white" fill-opacity="0.93"/>
<rect x="543" y="553.327" width="295" height="61.177" rx="2" fill="#1C1C1D"/>
<rect x="544" y="554.327" width="293" height="59.177" rx="1" stroke="white" stroke-opacity="0.17" stroke-width="2"/>
<path d="M580.3 589H583.3L578.38 575H574.96L570.06 589H573.04L573.88 586.48H579.46L580.3 589ZM574.76 583.9L576.68 578.18L578.6 583.9H574.76ZM590.959 578.72C589.499 578.72 588.439 579.26 587.719 580.18V579H585.139V593H587.719V587.82C588.439 588.74 589.499 589.28 590.959 589.28C593.639 589.28 595.839 586.98 595.839 584C595.839 581.02 593.639 578.72 590.959 578.72ZM590.479 586.82C588.899 586.82 587.719 585.68 587.719 584C587.719 582.32 588.899 581.18 590.479 581.18C592.079 581.18 593.259 582.32 593.259 584C593.259 585.68 592.079 586.82 590.479 586.82ZM604.079 578.72C602.619 578.72 601.559 579.26 600.839 580.18V579H598.259V593H600.839V587.82C601.559 588.74 602.619 589.28 604.079 589.28C606.759 589.28 608.959 586.98 608.959 584C608.959 581.02 606.759 578.72 604.079 578.72ZM603.599 586.82C602.019 586.82 600.839 585.68 600.839 584C600.839 582.32 602.019 581.18 603.599 581.18C605.199 581.18 606.379 582.32 606.379 584C606.379 585.68 605.199 586.82 603.599 586.82Z" fill="#EFEFEF"/>
<path d="M812.088 580.547C811.86 580.469 811.624 580.394 811.38 580.324C811.42 580.161 811.457 580 811.49 579.841C812.026 577.239 811.675 575.142 810.478 574.452C809.331 573.79 807.454 574.48 805.558 576.13C805.376 576.289 805.193 576.457 805.01 576.633C804.888 576.516 804.767 576.404 804.646 576.296C802.659 574.532 800.668 573.789 799.472 574.481C798.325 575.145 797.986 577.116 798.468 579.582C798.515 579.82 798.569 580.063 798.631 580.311C798.349 580.391 798.077 580.476 797.817 580.567C795.488 581.379 794 582.651 794 583.971C794 585.335 795.597 586.702 798.023 587.532C798.214 587.597 798.413 587.659 798.618 587.718C798.551 587.985 798.493 588.247 798.445 588.503C797.985 590.926 798.344 592.851 799.488 593.51C800.669 594.191 802.651 593.491 804.582 591.804C804.734 591.671 804.887 591.529 805.041 591.381C805.239 591.572 805.438 591.753 805.635 591.923C807.505 593.532 809.352 594.182 810.494 593.521C811.674 592.838 812.058 590.77 811.56 588.255C811.522 588.063 811.478 587.867 811.428 587.667C811.567 587.626 811.704 587.584 811.837 587.54C814.359 586.704 816 585.353 816 583.971C816 582.647 814.465 581.365 812.088 580.547ZM811.541 586.648C811.421 586.687 811.298 586.726 811.172 586.763C810.893 585.882 810.518 584.944 810.058 583.976C810.497 583.031 810.858 582.105 811.129 581.23C811.354 581.295 811.572 581.364 811.782 581.436C813.818 582.137 815.06 583.173 815.06 583.971C815.06 584.822 813.719 585.926 811.541 586.648ZM810.638 588.438C810.858 589.55 810.889 590.556 810.744 591.342C810.613 592.048 810.349 592.519 810.023 592.707C809.33 593.109 807.847 592.587 806.248 591.211C806.065 591.053 805.88 590.885 805.695 590.707C806.315 590.029 806.935 589.24 807.539 588.365C808.603 588.271 809.608 588.116 810.519 587.906C810.564 588.087 810.603 588.264 810.638 588.438ZM801.5 592.638C800.823 592.877 800.283 592.884 799.957 592.696C799.263 592.296 798.975 590.751 799.368 588.678C799.413 588.441 799.467 588.197 799.529 587.948C800.43 588.147 801.428 588.291 802.494 588.377C803.102 589.234 803.74 590.021 804.382 590.71C804.242 590.846 804.102 590.975 803.963 591.096C803.109 591.842 802.254 592.372 801.5 592.638ZM798.327 586.642C797.254 586.276 796.368 585.799 795.761 585.279C795.215 584.812 794.94 584.348 794.94 583.971C794.94 583.17 796.134 582.149 798.126 581.454C798.368 581.37 798.621 581.29 798.883 581.216C799.159 582.111 799.52 583.048 799.956 583.994C799.514 584.955 799.148 585.906 798.87 586.812C798.683 586.759 798.501 586.702 798.327 586.642ZM799.391 579.401C798.977 577.288 799.252 575.694 799.943 575.294C800.679 574.868 802.306 575.476 804.022 576.999C804.131 577.096 804.241 577.198 804.352 577.304C803.713 577.99 803.081 578.771 802.478 579.623C801.443 579.719 800.452 579.873 799.542 580.079C799.485 579.849 799.434 579.623 799.391 579.401ZM808.88 581.745C808.663 581.369 808.439 581.001 808.211 580.644C808.913 580.733 809.586 580.851 810.217 580.995C810.028 581.603 809.792 582.238 809.513 582.889C809.314 582.511 809.103 582.129 808.88 581.745ZM805.01 577.975C805.444 578.445 805.878 578.969 806.305 579.538C805.875 579.518 805.439 579.507 805 579.507C804.565 579.507 804.133 579.518 803.705 579.538C804.132 578.974 804.57 578.45 805.01 577.975ZM801.116 581.751C800.898 582.128 800.691 582.508 800.495 582.889C800.221 582.24 799.987 581.601 799.796 580.985C800.423 580.845 801.093 580.73 801.79 580.643C801.559 581.003 801.334 581.373 801.116 581.751V581.751ZM801.81 587.367C801.09 587.287 800.41 587.178 799.783 587.041C799.977 586.414 800.216 585.762 800.496 585.099C800.693 585.479 800.901 585.86 801.12 586.237H801.12C801.342 586.622 801.573 587 801.81 587.367ZM805.036 590.034C804.591 589.553 804.147 589.022 803.713 588.45C804.134 588.466 804.564 588.475 805 588.475C805.448 588.475 805.892 588.465 806.328 588.445C805.9 589.027 805.467 589.56 805.036 590.034ZM809.522 585.065C809.816 585.736 810.064 586.384 810.261 587.001C809.623 587.146 808.934 587.263 808.209 587.35C808.437 586.989 808.663 586.615 808.884 586.231C809.108 585.842 809.321 585.453 809.522 585.065ZM808.07 585.761C807.726 586.358 807.373 586.927 807.015 587.464C806.362 587.511 805.687 587.535 805 587.535C804.315 587.535 803.649 587.514 803.008 587.472C802.635 586.928 802.275 586.357 801.933 585.767H801.933C801.592 585.178 801.278 584.584 800.994 583.994C801.278 583.402 801.591 582.808 801.93 582.22L801.93 582.221C802.27 581.631 802.627 581.063 802.997 580.522C803.651 580.473 804.322 580.447 805 580.447H805C805.681 580.447 806.353 580.473 807.007 580.523C807.371 581.06 807.726 581.626 808.067 582.216C808.412 582.811 808.729 583.402 809.015 583.981C808.73 584.57 808.414 585.166 808.07 585.761ZM810.009 575.266C810.746 575.691 811.032 577.405 810.569 579.651C810.54 579.795 810.506 579.941 810.47 580.089C809.558 579.878 808.566 579.722 807.529 579.624C806.924 578.763 806.298 577.981 805.669 577.303C805.838 577.141 806.007 576.985 806.175 576.839C807.799 575.426 809.317 574.868 810.009 575.266ZM805 582.007C806.085 582.007 806.965 582.886 806.965 583.971C806.965 585.056 806.085 585.936 805 585.936C803.915 585.936 803.035 585.056 803.035 583.971C803.035 582.886 803.915 582.007 805 582.007Z" fill="#0DDAFF"/>
<path d="M952 263L962 268.774V257.226L952 263ZM1228 263H1229V262H1228V263ZM1228 434L1233.77 424H1222.23L1228 434ZM961 264H1228V262H961V264ZM1227 263V425H1229V263H1227Z" fill="#2F2F31"/>
<path d="M414.061 261.939C414.646 262.525 414.646 263.475 414.061 264.061L404.515 273.607C403.929 274.192 402.979 274.192 402.393 273.607C401.808 273.021 401.808 272.071 402.393 271.485L410.879 263L402.393 254.515C401.808 253.929 401.808 252.979 402.393 252.393C402.979 251.808 403.929 251.808 404.515 252.393L414.061 261.939ZM147 263H145.5V261.5H147V263ZM148.061 435.061C147.475 435.646 146.525 435.646 145.939 435.061L136.393 425.515C135.808 424.929 135.808 423.979 136.393 423.393C136.979 422.808 137.929 422.808 138.515 423.393L147 431.879L155.485 423.393C156.071 422.808 157.021 422.808 157.607 423.393C158.192 423.979 158.192 424.929 157.607 425.515L148.061 435.061ZM413 264.5H147V261.5H413V264.5ZM148.5 263V434H145.5V263H148.5Z" fill="#2F2F31"/>
<path d="M656.204 812.556C656.204 812.07 656.672 811.818 657.248 811.818C657.914 811.818 658.418 812.16 658.688 812.736L660.668 811.656C659.966 810.414 658.706 809.748 657.248 809.748C655.394 809.748 653.828 810.774 653.828 812.61C653.828 815.778 658.472 815.058 658.472 816.372C658.472 816.894 657.968 817.146 657.23 817.146C656.33 817.146 655.718 816.714 655.466 815.976L653.45 817.11C654.098 818.496 655.43 819.252 657.23 819.252C659.156 819.252 660.848 818.316 660.848 816.372C660.848 813.06 656.204 813.888 656.204 812.556ZM667.885 809.748C666.679 809.748 665.743 810.198 665.203 811.008V806.4H662.881V819H665.203V814.14C665.203 812.574 666.049 811.908 667.183 811.908C668.227 811.908 668.965 812.538 668.965 813.762V819H671.287V813.474C671.287 811.08 669.793 809.748 667.885 809.748ZM680.65 810V811.062C680.002 810.252 679.03 809.748 677.716 809.748C675.322 809.748 673.342 811.818 673.342 814.5C673.342 817.182 675.322 819.252 677.716 819.252C679.03 819.252 680.002 818.748 680.65 817.938V819H682.972V810H680.65ZM678.148 817.038C676.726 817.038 675.664 816.012 675.664 814.5C675.664 812.988 676.726 811.962 678.148 811.962C679.588 811.962 680.65 812.988 680.65 814.5C680.65 816.012 679.588 817.038 678.148 817.038ZM687.94 811.548V810H685.618V819H687.94V814.698C687.94 812.808 689.47 812.268 690.676 812.412V809.82C689.542 809.82 688.408 810.324 687.94 811.548ZM694.202 815.454H700.988C701.042 815.148 701.078 814.842 701.078 814.5C701.078 811.854 699.188 809.748 696.524 809.748C693.698 809.748 691.772 811.818 691.772 814.5C691.772 817.182 693.68 819.252 696.704 819.252C698.432 819.252 699.782 818.55 700.628 817.326L698.756 816.246C698.36 816.768 697.64 817.146 696.74 817.146C695.516 817.146 694.526 816.642 694.202 815.454ZM694.166 813.654C694.436 812.502 695.282 811.836 696.524 811.836C697.496 811.836 698.468 812.358 698.756 813.654H694.166ZM709.99 806.4V811.062C709.342 810.234 708.388 809.748 707.074 809.748C704.662 809.748 702.682 811.818 702.682 814.5C702.682 817.182 704.662 819.252 707.074 819.252C708.388 819.252 709.342 818.766 709.99 817.938V819H712.312V806.4H709.99ZM707.506 817.038C706.066 817.038 705.004 816.012 705.004 814.5C705.004 812.988 706.066 811.962 707.506 811.962C708.928 811.962 709.99 812.988 709.99 814.5C709.99 816.012 708.928 817.038 707.506 817.038ZM726.838 806.4V811.062C726.19 810.234 725.236 809.748 723.922 809.748C721.51 809.748 719.53 811.818 719.53 814.5C719.53 817.182 721.51 819.252 723.922 819.252C725.236 819.252 726.19 818.766 726.838 817.938V819H729.16V806.4H726.838ZM724.354 817.038C722.914 817.038 721.852 816.012 721.852 814.5C721.852 812.988 722.914 811.962 724.354 811.962C725.776 811.962 726.838 812.988 726.838 814.5C726.838 816.012 725.776 817.038 724.354 817.038ZM733.785 815.454H740.571C740.625 815.148 740.661 814.842 740.661 814.5C740.661 811.854 738.771 809.748 736.107 809.748C733.281 809.748 731.355 811.818 731.355 814.5C731.355 817.182 733.263 819.252 736.287 819.252C738.015 819.252 739.365 818.55 740.211 817.326L738.339 816.246C737.943 816.768 737.223 817.146 736.323 817.146C735.099 817.146 734.109 816.642 733.785 815.454ZM733.749 813.654C734.019 812.502 734.865 811.836 736.107 811.836C737.079 811.836 738.051 812.358 738.339 813.654H733.749ZM748.06 809.748C746.746 809.748 745.792 810.234 745.144 811.062V810H742.822V822.6H745.144V817.938C745.792 818.766 746.746 819.252 748.06 819.252C750.472 819.252 752.452 817.182 752.452 814.5C752.452 811.818 750.472 809.748 748.06 809.748ZM747.628 817.038C746.206 817.038 745.144 816.012 745.144 814.5C745.144 812.988 746.206 811.962 747.628 811.962C749.068 811.962 750.13 812.988 750.13 814.5C750.13 816.012 749.068 817.038 747.628 817.038ZM756.592 815.454H763.378C763.432 815.148 763.468 814.842 763.468 814.5C763.468 811.854 761.578 809.748 758.914 809.748C756.088 809.748 754.162 811.818 754.162 814.5C754.162 817.182 756.07 819.252 759.094 819.252C760.822 819.252 762.172 818.55 763.018 817.326L761.146 816.246C760.75 816.768 760.03 817.146 759.13 817.146C757.906 817.146 756.916 816.642 756.592 815.454ZM756.556 813.654C756.826 812.502 757.672 811.836 758.914 811.836C759.886 811.836 760.858 812.358 761.146 813.654H756.556ZM770.633 809.748C769.427 809.748 768.491 810.198 767.951 811.008V810H765.629V819H767.951V814.14C767.951 812.574 768.797 811.908 769.931 811.908C770.975 811.908 771.713 812.538 771.713 813.762V819H774.035V813.474C774.035 811.08 772.541 809.748 770.633 809.748ZM783.38 806.4V811.062C782.732 810.234 781.778 809.748 780.464 809.748C778.052 809.748 776.072 811.818 776.072 814.5C776.072 817.182 778.052 819.252 780.464 819.252C781.778 819.252 782.732 818.766 783.38 817.938V819H785.702V806.4H783.38ZM780.896 817.038C779.456 817.038 778.394 816.012 778.394 814.5C778.394 812.988 779.456 811.962 780.896 811.962C782.318 811.962 783.38 812.988 783.38 814.5C783.38 816.012 782.318 817.038 780.896 817.038ZM790.327 815.454H797.113C797.167 815.148 797.203 814.842 797.203 814.5C797.203 811.854 795.313 809.748 792.649 809.748C789.823 809.748 787.897 811.818 787.897 814.5C787.897 817.182 789.805 819.252 792.829 819.252C794.557 819.252 795.907 818.55 796.753 817.326L794.881 816.246C794.485 816.768 793.765 817.146 792.865 817.146C791.641 817.146 790.651 816.642 790.327 815.454ZM790.291 813.654C790.561 812.502 791.407 811.836 792.649 811.836C793.621 811.836 794.593 812.358 794.881 813.654H790.291ZM804.368 809.748C803.162 809.748 802.226 810.198 801.686 811.008V810H799.364V819H801.686V814.14C801.686 812.574 802.532 811.908 803.666 811.908C804.71 811.908 805.448 812.538 805.448 813.762V819H807.77V813.474C807.77 811.08 806.276 809.748 804.368 809.748ZM814.577 819.252C816.341 819.252 817.871 818.316 818.645 816.912L816.629 815.76C816.269 816.498 815.495 816.948 814.559 816.948C813.173 816.948 812.147 815.922 812.147 814.5C812.147 813.06 813.173 812.034 814.559 812.034C815.477 812.034 816.251 812.502 816.611 813.24L818.609 812.07C817.871 810.684 816.341 809.748 814.577 809.748C811.841 809.748 809.825 811.818 809.825 814.5C809.825 817.182 811.841 819.252 814.577 819.252ZM821.565 808.92C822.357 808.92 823.005 808.272 823.005 807.498C823.005 806.724 822.357 806.058 821.565 806.058C820.791 806.058 820.143 806.724 820.143 807.498C820.143 808.272 820.791 808.92 821.565 808.92ZM820.413 819H822.735V810H820.413V819ZM827.362 815.454H834.148C834.202 815.148 834.238 814.842 834.238 814.5C834.238 811.854 832.348 809.748 829.684 809.748C826.858 809.748 824.932 811.818 824.932 814.5C824.932 817.182 826.84 819.252 829.864 819.252C831.592 819.252 832.942 818.55 833.788 817.326L831.916 816.246C831.52 816.768 830.8 817.146 829.9 817.146C828.676 817.146 827.686 816.642 827.362 815.454ZM827.326 813.654C827.596 812.502 828.442 811.836 829.684 811.836C830.656 811.836 831.628 812.358 831.916 813.654H827.326ZM838.19 812.556C838.19 812.07 838.658 811.818 839.234 811.818C839.9 811.818 840.404 812.16 840.674 812.736L842.654 811.656C841.952 810.414 840.692 809.748 839.234 809.748C837.38 809.748 835.814 810.774 835.814 812.61C835.814 815.778 840.458 815.058 840.458 816.372C840.458 816.894 839.954 817.146 839.216 817.146C838.316 817.146 837.704 816.714 837.452 815.976L835.436 817.11C836.084 818.496 837.416 819.252 839.216 819.252C841.142 819.252 842.834 818.316 842.834 816.372C842.834 813.06 838.19 813.888 838.19 812.556Z" fill="#DB6D4A"/>
<path d="M501.207 598.707C501.598 598.317 501.598 597.683 501.207 597.293L494.843 590.929C494.453 590.538 493.819 590.538 493.429 590.929C493.038 591.319 493.038 591.953 493.429 592.343L499.086 598L493.429 603.657C493.038 604.047 493.038 604.681 493.429 605.071C493.819 605.462 494.453 605.462 494.843 605.071L501.207 598.707ZM450 598V597H449V598H450ZM450 894H449V895H450V894ZM652 894L642 888.226V899.773L652 894ZM500.5 597H450V599H500.5V597ZM449 598V894H451V598H449ZM450 895H643V893H450V895Z" fill="#2F2F31"/>
<path d="M503 468L493 462.226V473.774L503 468ZM328 469H494V467H328V469Z" fill="#2F2F31"/>
<path d="M982.052 900.666C981.986 900.474 981.867 900.305 981.709 900.178C981.551 900.05 981.36 899.97 981.158 899.947C980.92 899.918 980.678 899.932 980.445 899.987C980.084 900.066 979.716 900.115 979.346 900.131C980.335 898.464 981.09 896.668 981.59 894.795C982.335 891.913 981.937 890.601 981.472 890.006C980.855 889.225 980.065 888.598 979.164 888.174C978.264 887.75 977.277 887.541 976.282 887.562C975.369 887.554 974.459 887.681 973.584 887.941C973.063 887.851 972.535 887.803 972.006 887.797C971.044 887.76 970.092 887.995 969.257 888.474C968.625 888.26 967.976 888.097 967.317 887.987C966.549 887.802 965.752 887.771 964.972 887.895C964.192 888.019 963.444 888.295 962.771 888.709C961.416 889.665 960.788 891.327 960.904 893.65C961.113 895.383 961.48 897.093 962.003 898.758C962.304 899.798 962.699 900.808 963.186 901.776C963.544 902.658 964.227 903.371 965.093 903.767C965.411 903.872 965.751 903.89 966.078 903.819C966.404 903.748 966.706 903.591 966.952 903.364C967.063 903.496 967.195 903.609 967.343 903.7C967.571 903.842 967.82 903.947 968.08 904.012C968.933 904.25 969.84 904.195 970.658 903.856C970.663 903.99 970.667 904.118 970.669 904.229C970.674 904.408 970.679 904.584 970.686 904.748C970.676 905.62 970.792 906.488 971.03 907.327C971.043 907.36 971.059 907.41 971.076 907.464C971.213 907.977 971.48 908.447 971.85 908.827C972.294 909.235 972.881 909.453 973.483 909.434C973.74 909.433 973.996 909.404 974.246 909.349C974.722 909.289 975.18 909.135 975.595 908.895C976.01 908.656 976.372 908.335 976.661 907.953C977.295 907.051 977.604 905.692 977.659 903.551C977.666 903.49 977.673 903.432 977.679 903.377L977.693 903.264L977.842 903.277H977.88C978.725 903.313 979.568 903.167 980.351 902.849C980.844 902.62 982.425 901.786 982.052 900.662" fill="black"/>
<path d="M980.632 900.885C978.161 901.395 977.992 900.559 977.992 900.559C980.6 896.687 981.691 891.773 980.749 890.571C978.182 887.29 973.738 888.842 973.663 888.882L973.639 888.887C973.096 888.778 972.544 888.72 971.991 888.715C971.057 888.668 970.136 888.944 969.381 889.496C969.381 889.496 961.453 886.23 961.822 893.604C961.9 895.173 964.07 905.474 966.659 902.362C967.605 901.225 968.519 900.262 968.519 900.262C968.979 900.573 969.533 900.715 970.086 900.662L970.131 900.625C970.118 900.773 970.124 900.922 970.149 901.068C969.481 901.813 969.68 901.944 968.345 902.218C966.996 902.496 967.788 902.991 968.306 903.12C968.855 903.298 969.447 903.298 969.996 903.119C970.545 902.941 971.024 902.593 971.364 902.127L971.325 902.283C971.586 902.492 971.77 903.644 971.739 904.688C971.654 905.465 971.707 906.251 971.895 907.009C972.102 907.57 972.306 908.829 974.059 908.454C974.682 908.392 975.261 908.107 975.69 907.65C976.118 907.193 976.366 906.596 976.387 905.97C976.465 905.006 976.631 905.148 976.642 904.287L976.778 903.879C976.934 902.572 976.803 902.15 977.704 902.346L977.924 902.366C978.621 902.395 979.317 902.278 979.967 902.022C981.065 901.512 981.716 900.661 980.633 900.885" fill="#336791"/>
<path d="M969.845 894.305C969.666 894.268 969.479 894.295 969.318 894.384C969.297 894.399 969.28 894.418 969.266 894.44C969.253 894.462 969.244 894.486 969.24 894.512C969.24 894.602 969.273 894.689 969.332 894.757C969.436 894.901 969.593 894.999 969.768 895.03C969.792 895.033 969.815 895.034 969.839 895.034C969.955 895.036 970.068 895.002 970.164 894.936C970.26 894.871 970.334 894.778 970.375 894.669C970.403 894.476 970.121 894.346 969.847 894.308L969.845 894.305ZM977.224 894.314C977.203 894.162 976.932 894.119 976.677 894.158C976.422 894.197 976.171 894.309 976.193 894.462C976.232 894.557 976.3 894.639 976.386 894.696C976.472 894.753 976.573 894.783 976.677 894.783C976.699 894.783 976.72 894.781 976.742 894.778C976.877 894.754 977.001 894.686 977.094 894.585C977.172 894.517 977.219 894.42 977.226 894.317" fill="white"/>
<path d="M981.454 900.827C981.36 900.542 981.057 900.451 980.553 900.555C979.057 900.867 978.522 900.649 978.345 900.52C979.53 898.702 980.419 896.707 980.98 894.61C981.207 893.781 981.338 892.928 981.371 892.069C981.431 891.468 981.291 890.864 980.973 890.35C980.41 889.641 979.69 889.073 978.87 888.69C978.05 888.307 977.152 888.12 976.247 888.143C975.318 888.128 974.393 888.274 973.513 888.573C973.01 888.449 972.494 888.383 971.975 888.376C971.043 888.335 970.121 888.589 969.341 889.102C968.647 888.848 967.93 888.66 967.2 888.541C965.806 888.203 964.334 888.429 963.105 889.17C961.933 890.001 961.386 891.487 961.495 893.586C961.7 895.268 962.059 896.928 962.568 898.545C963.404 901.284 964.312 902.834 965.268 903.155C965.392 903.196 965.522 903.218 965.652 903.218C965.895 903.203 966.131 903.133 966.342 903.013C966.554 902.893 966.736 902.726 966.873 902.526C967.416 901.875 967.977 901.24 968.557 900.621C968.929 900.823 969.344 900.934 969.768 900.947V900.98C969.695 901.066 969.624 901.154 969.554 901.244C969.261 901.615 969.201 901.692 968.259 901.887C967.991 901.942 967.279 902.089 967.269 902.59C967.258 903.137 968.111 903.364 968.207 903.388C968.526 903.47 968.853 903.513 969.182 903.515C969.902 903.528 970.601 903.267 971.136 902.785C971.056 904.272 971.156 905.763 971.433 907.226C971.562 907.694 971.839 908.108 972.224 908.404C972.609 908.7 973.08 908.862 973.565 908.866C973.806 908.866 974.046 908.84 974.282 908.788C974.924 908.733 975.526 908.449 975.978 907.989C976.43 907.529 976.703 906.923 976.747 906.279C976.886 905.477 977.123 903.564 977.235 902.538C977.517 902.615 977.809 902.651 978.102 902.645C978.776 902.649 979.445 902.522 980.07 902.27C980.626 902.011 981.632 901.378 981.447 900.827H981.454ZM977.79 893.891C977.78 894.181 977.75 894.47 977.7 894.756C977.642 895.091 977.605 895.431 977.59 895.771C977.588 896.155 977.614 896.539 977.668 896.92C977.837 897.698 977.775 898.509 977.489 899.252C977.429 899.145 977.375 899.034 977.328 898.92C977.282 898.809 977.183 898.632 977.047 898.388C976.516 897.434 975.271 895.202 975.908 894.291C976.098 894.02 976.58 893.744 977.789 893.891H977.79ZM976.324 888.759C977.124 888.742 977.916 888.912 978.639 889.254C979.362 889.596 979.996 890.101 980.491 890.729C981.253 891.702 980.413 896.129 977.987 899.948L977.914 899.855L977.883 899.816C978.365 898.906 978.505 897.853 978.279 896.848C978.226 896.498 978.2 896.145 978.2 895.791C978.215 895.476 978.249 895.161 978.303 894.849C978.373 894.465 978.405 894.074 978.399 893.683C978.412 893.629 978.415 893.574 978.409 893.519C978.15 892.473 977.637 891.507 976.915 890.706C976.267 889.942 975.456 889.332 974.541 888.922C975.127 888.8 975.724 888.744 976.322 888.755L976.324 888.759ZM966.406 902.136C965.916 902.725 965.577 902.613 965.468 902.575C964.743 902.333 963.901 900.8 963.16 898.369C962.668 896.799 962.317 895.189 962.113 893.557C962.019 891.682 962.474 890.374 963.464 889.671C965.076 888.528 967.727 889.213 968.792 889.559C968.776 889.574 968.761 889.588 968.746 889.604C966.998 891.369 967.039 894.384 967.044 894.569C967.044 894.64 967.05 894.741 967.058 894.881C967.122 895.721 967.101 896.566 966.995 897.402C966.922 897.88 966.96 898.369 967.104 898.831C967.249 899.293 967.496 899.716 967.829 900.068C967.898 900.14 967.97 900.208 968.046 900.273C967.747 900.593 967.096 901.302 966.405 902.136H966.406ZM968.273 899.644C968.004 899.359 967.803 899.016 967.686 898.642C967.569 898.268 967.538 897.872 967.597 897.484C967.709 896.609 967.732 895.724 967.665 894.843C967.661 894.769 967.657 894.704 967.654 894.653C968.309 894.16 969.121 893.923 969.938 893.987C970.126 894.029 970.296 894.129 970.424 894.273C970.553 894.417 970.634 894.597 970.655 894.788C971.16 897.123 970.722 898.096 970.37 898.878C970.297 899.039 970.229 899.191 970.171 899.347L970.125 899.469C970.013 899.752 969.917 900.041 969.838 900.335C969.544 900.331 969.254 900.267 968.986 900.148C968.717 900.029 968.476 899.857 968.275 899.642L968.273 899.644ZM968.361 902.792C968.216 902.757 968.078 902.697 967.953 902.616C968.092 902.557 968.238 902.513 968.388 902.487C969.496 902.259 969.667 902.096 970.041 901.623C970.127 901.515 970.224 901.389 970.358 901.241C970.558 901.017 970.65 901.056 970.816 901.124C970.895 901.167 970.963 901.225 971.018 901.296C971.073 901.367 971.113 901.448 971.135 901.534C971.157 901.597 971.164 901.664 971.158 901.731C971.151 901.797 971.13 901.861 971.096 901.918C970.793 902.336 970.364 902.647 969.873 902.804C969.381 902.962 968.852 902.958 968.362 902.793L968.361 902.792ZM974.161 908.188C973.942 908.264 973.709 908.293 973.478 908.273C973.247 908.253 973.022 908.185 972.819 908.072C972.616 907.96 972.439 907.806 972.3 907.62C972.16 907.435 972.061 907.222 972.01 906.995C971.735 905.225 971.656 903.429 971.775 901.641C971.776 901.609 971.772 901.576 971.762 901.545C971.754 901.484 971.741 901.424 971.725 901.365C971.678 901.189 971.594 901.026 971.478 900.886C971.361 900.747 971.216 900.634 971.051 900.557C970.859 900.462 970.641 900.434 970.432 900.479C970.506 900.208 970.595 899.941 970.699 899.681L970.744 899.558C970.796 899.42 970.86 899.277 970.928 899.125C971.296 898.307 971.8 897.186 971.253 894.655C971.218 894.439 971.14 894.233 971.022 894.05C970.905 893.866 970.751 893.708 970.571 893.586C970.39 893.464 970.186 893.38 969.972 893.339C969.758 893.299 969.537 893.303 969.325 893.351C968.81 893.418 968.311 893.574 967.85 893.813C967.789 893.844 967.733 893.873 967.682 893.902C967.741 892.483 968.268 891.123 969.18 890.034C969.547 889.675 969.984 889.397 970.464 889.217C970.945 889.037 971.457 888.96 971.969 888.99C972.834 888.997 973.687 889.195 974.467 889.568C975.247 889.941 975.937 890.48 976.486 891.148C977.021 891.774 977.44 892.491 977.722 893.266C976.579 893.149 975.801 893.375 975.407 893.938C974.548 895.163 975.876 897.541 976.514 898.684C976.631 898.894 976.732 899.075 976.763 899.153C976.931 899.546 977.158 899.912 977.436 900.237C977.496 900.315 977.554 900.384 977.598 900.448C977.252 900.548 976.63 900.779 976.687 901.933C976.642 902.511 976.317 905.218 976.151 906.175C975.933 907.438 975.468 907.909 974.161 908.19L974.161 908.188ZM979.819 901.713C979.338 901.903 978.828 902.009 978.311 902.025C977.966 902.076 977.615 902.031 977.295 901.895C977.26 901.177 977.529 901.102 977.811 901.022C977.855 901.009 977.898 900.997 977.94 900.983C977.968 901.005 977.997 901.026 978.026 901.045C978.525 901.375 979.417 901.41 980.675 901.151H980.689C980.429 901.382 980.135 901.572 979.817 901.713L979.819 901.713Z" fill="white"/>
<g clip-path="url(#clip1_4062_1175)">
<path d="M746.06 902.526C744.779 903.194 738.144 905.922 736.731 906.658C735.319 907.394 734.534 907.387 733.418 906.854C732.303 906.32 725.242 903.468 723.97 902.86C723.334 902.557 723 902.3 723 902.058V899.632C723 899.632 732.192 897.631 733.676 897.099C735.16 896.566 735.675 896.547 736.938 897.01C738.201 897.472 745.752 898.835 747 899.292C747 899.292 746.999 901.458 746.999 901.683C747 901.923 746.712 902.186 746.06 902.526Z" fill="#912626"/>
<path d="M746.059 900.114C744.778 900.782 738.144 903.51 736.731 904.246C735.319 904.983 734.534 904.975 733.418 904.442C732.302 903.909 725.242 901.056 723.97 900.449C722.698 899.841 722.672 899.423 723.921 898.933C725.17 898.444 732.192 895.689 733.676 895.157C735.16 894.624 735.675 894.605 736.938 895.068C738.201 895.53 744.796 898.155 746.044 898.613C747.292 899.07 747.34 899.447 746.059 900.114Z" fill="#C6302B"/>
<path d="M746.06 898.601C744.779 899.268 738.144 901.996 736.731 902.733C735.319 903.469 734.534 903.462 733.418 902.929C732.302 902.395 725.242 899.543 723.97 898.935C723.334 898.631 723 898.375 723 898.133V895.707C723 895.707 732.192 893.706 733.676 893.173C735.16 892.641 735.675 892.622 736.938 893.084C738.201 893.547 745.752 894.909 747 895.366C747 895.366 746.999 897.533 746.999 897.758C747 897.998 746.712 898.261 746.06 898.601Z" fill="#912626"/>
<path d="M746.059 896.189C744.778 896.857 738.144 899.585 736.731 900.321C735.319 901.057 734.534 901.05 733.418 900.517C732.302 899.984 725.242 897.131 723.97 896.524C722.698 895.916 722.672 895.497 723.921 895.008C725.17 894.519 732.192 891.764 733.676 891.232C735.16 890.699 735.675 890.68 736.938 891.143C738.201 891.605 744.796 894.23 746.044 894.687C747.292 895.145 747.34 895.522 746.059 896.189V896.189Z" fill="#C6302B"/>
<path d="M746.06 894.53C744.779 895.198 738.144 897.926 736.731 898.662C735.319 899.399 734.534 899.391 733.418 898.858C732.302 898.325 725.242 895.472 723.97 894.865C723.334 894.561 723 894.304 723 894.062V891.636C723 891.636 732.192 889.635 733.676 889.103C735.16 888.57 735.675 888.551 736.938 889.014C738.201 889.476 745.752 890.839 747 891.296C747 891.296 746.999 893.462 746.999 893.688C747 893.927 746.712 894.19 746.06 894.53Z" fill="#912626"/>
<path d="M746.059 892.118C744.778 892.786 738.144 895.514 736.731 896.25C735.319 896.987 734.534 896.979 733.418 896.446C732.303 895.913 725.242 893.061 723.97 892.453C722.698 891.845 722.672 891.427 723.921 890.937C725.17 890.448 732.192 887.693 733.676 887.161C735.16 886.628 735.675 886.609 736.938 887.072C738.201 887.535 744.796 890.16 746.044 890.617C747.292 891.074 747.34 891.451 746.059 892.118Z" fill="#C6302B"/>
<path d="M737.932 889.758L735.869 889.973L735.407 891.084L734.661 889.844L732.278 889.63L734.056 888.989L733.523 888.004L735.187 888.655L736.756 888.142L736.332 889.159L737.932 889.758Z" fill="white"/>
<path d="M735.285 895.151L731.434 893.554L736.952 892.707L735.285 895.151Z" fill="white"/>
<path d="M729.945 890.376C731.574 890.376 732.895 890.888 732.895 891.519C732.895 892.151 731.574 892.663 729.945 892.663C728.317 892.663 726.996 892.151 726.996 891.519C726.996 890.888 728.317 890.376 729.945 890.376Z" fill="white"/>
<path d="M740.371 890.062L743.637 891.353L740.374 892.642L740.371 890.062Z" fill="#621B1C"/>
<path d="M736.758 891.491L740.371 890.062L740.374 892.642L740.019 892.781L736.758 891.491Z" fill="#9A2928"/>
</g>
<path d="M1197.69 889.156L1196.09 889.955V903.969L1197.69 904.763L1197.7 904.752V889.167L1197.69 889.156Z" fill="#8C3123"/>
<path d="M1206.23 902.729L1197.69 904.763V889.156L1206.23 891.146V902.729Z" fill="#E05243"/>
<path d="M1202.38 899.545L1206 900.006L1206.02 899.953L1206.04 894.01L1206 893.964L1202.38 894.418V899.545" fill="#8C3123"/>
<path d="M1206 902.752L1214.31 904.768L1214.33 904.747L1214.33 889.17L1214.31 889.156L1206 891.169V902.752" fill="#8C3123"/>
<path d="M1209.63 899.545L1206 900.006V893.964L1209.63 894.418V899.545Z" fill="#E05243"/>
<path d="M1209.63 891.939L1206 892.6L1202.38 891.939L1206 890.99L1209.63 891.939Z" fill="#5E1F18"/>
<path d="M1209.63 902.017L1206 901.352L1202.38 902.017L1206 903.027L1209.63 902.017Z" fill="#F2B0A9"/>
<path d="M1202.38 891.939L1206 891.042L1206.03 891.033V885.024L1206 885L1202.38 886.813V891.939Z" fill="#8C3123"/>
<path d="M1209.63 891.939L1206 891.042V885L1209.63 886.813V891.939Z" fill="#E05243"/>
<path d="M1206 908.956L1202.38 907.144V902.017L1206 902.914L1206.05 902.975L1206.04 908.851L1206 908.956Z" fill="#8C3123"/>
<path d="M1206 908.956L1209.63 907.144V902.017L1206 902.914V908.956V908.956ZM1214.31 889.156L1215.91 889.955V903.969L1214.31 904.768V889.156Z" fill="#E05243"/>
<path d="M801 494.5V486H818V503H801" fill="#007ACC"/>
<path d="M804.728 494.53V495.222H806.938V501.512H808.506V495.222H810.716V494.542C810.716 494.16 810.716 493.85 810.699 493.841C810.699 493.828 809.352 493.824 807.715 493.824L804.74 493.837V494.534L804.728 494.53V494.53ZM814.66 493.82C815.093 493.922 815.425 494.117 815.722 494.428C815.88 494.598 816.113 494.895 816.13 494.972C816.13 494.997 815.395 495.494 814.949 495.771C814.932 495.783 814.864 495.711 814.796 495.601C814.575 495.286 814.35 495.15 813.997 495.125C813.487 495.091 813.147 495.358 813.147 495.805C813.147 495.941 813.172 496.017 813.223 496.128C813.338 496.361 813.551 496.502 814.209 496.791C815.425 497.313 815.952 497.658 816.271 498.151C816.632 498.703 816.713 499.57 816.47 500.22C816.198 500.93 815.535 501.41 814.588 501.568C814.29 501.619 813.61 501.61 813.291 501.555C812.611 501.427 811.961 501.087 811.562 500.65C811.404 500.48 811.103 500.025 811.12 499.995L811.281 499.893L811.919 499.523L812.399 499.243L812.509 499.392C812.65 499.613 812.964 499.91 813.147 500.012C813.699 500.297 814.439 500.259 814.804 499.927C814.962 499.783 815.03 499.63 815.03 499.417C815.03 499.222 815 499.132 814.902 498.984C814.766 498.797 814.494 498.644 813.729 498.304C812.849 497.93 812.475 497.692 812.127 497.326C811.927 497.105 811.744 496.761 811.659 496.476C811.596 496.23 811.574 495.626 811.634 495.384C811.817 494.534 812.458 493.939 813.376 493.769C813.674 493.709 814.375 493.735 814.668 493.811L814.66 493.82V493.82Z" fill="white"/>
<path d="M632.149 456.682C631.969 456.682 631.791 456.63 631.635 456.531L630 455.467C629.756 455.317 629.875 455.264 629.956 455.233C630.215 455.145 630.464 455.021 630.695 454.865C630.715 454.855 630.736 454.851 630.757 454.853C630.779 454.855 630.799 454.862 630.817 454.875L632.074 455.696C632.097 455.709 632.123 455.716 632.15 455.716C632.176 455.716 632.202 455.709 632.226 455.696L637.126 452.587C637.149 452.572 637.168 452.55 637.181 452.525C637.194 452.499 637.201 452.47 637.201 452.441V446.223C637.201 446.193 637.194 446.163 637.18 446.137C637.167 446.111 637.148 446.09 637.125 446.074L632.225 442.968C632.201 442.954 632.175 442.946 632.149 442.946C632.122 442.946 632.096 442.954 632.073 442.968L627.176 446.075C627.153 446.09 627.133 446.112 627.12 446.138C627.106 446.164 627.099 446.193 627.099 446.223V452.438C627.099 452.468 627.106 452.497 627.119 452.522C627.133 452.547 627.152 452.568 627.175 452.582L628.519 453.435C629.248 453.835 629.694 453.363 629.694 452.89V446.753C629.694 446.711 629.709 446.671 629.736 446.641C629.763 446.612 629.799 446.595 629.837 446.595H630.458C630.496 446.595 630.532 446.612 630.559 446.641C630.586 446.671 630.601 446.711 630.601 446.753V452.89C630.601 453.959 630.072 454.57 629.15 454.57C628.753 454.578 628.361 454.461 628.022 454.233L626.734 453.421C626.577 453.321 626.448 453.178 626.357 453.005C626.267 452.833 626.22 452.637 626.22 452.438V446.223C626.219 446.023 626.267 445.828 626.357 445.655C626.447 445.482 626.577 445.338 626.734 445.238L631.634 442.129C631.792 442.034 631.969 441.984 632.149 441.984C632.329 441.984 632.506 442.034 632.664 442.129L637.564 445.238C637.721 445.338 637.85 445.481 637.941 445.654C638.031 445.826 638.078 446.021 638.079 446.22V452.438C638.078 452.637 638.031 452.833 637.94 453.005C637.85 453.177 637.72 453.321 637.564 453.421L632.664 456.531C632.507 456.63 632.33 456.682 632.149 456.682V456.682Z" fill="#83CD29"/>
<path d="M631.22 450.358C631.22 450.316 631.235 450.276 631.262 450.247C631.289 450.217 631.325 450.201 631.363 450.201H631.997C632.031 450.201 632.063 450.214 632.089 450.238C632.115 450.262 632.132 450.296 632.138 450.332C632.233 451.042 632.52 451.399 633.815 451.399C634.848 451.399 635.287 451.142 635.287 450.54C635.287 450.193 635.163 449.935 633.559 449.763C632.217 449.617 631.388 449.29 631.388 448.112C631.388 447.026 632.222 446.377 633.619 446.377C635.189 446.377 635.966 446.976 636.064 448.261C636.066 448.283 636.063 448.304 636.057 448.325C636.05 448.345 636.04 448.364 636.027 448.38C636.014 448.396 635.998 448.408 635.98 448.417C635.962 448.426 635.943 448.431 635.923 448.431H635.285C635.253 448.431 635.222 448.418 635.197 448.396C635.172 448.374 635.155 448.343 635.148 448.309C634.995 447.563 634.622 447.325 633.619 447.325C632.492 447.325 632.361 447.756 632.361 448.08C632.361 448.471 632.516 448.586 634.038 448.807C635.543 449.026 636.259 449.335 636.259 450.499C636.259 451.673 635.369 452.344 633.816 452.344C631.669 452.348 631.22 451.266 631.22 450.358Z" fill="#83CD29"/>
<path d="M693.5 524L687.726 534H699.274L693.5 524ZM693.5 554.5L699.274 544.5H687.726L693.5 554.5ZM692.5 533V545.5H694.5V533H692.5Z" fill="#2F2F31"/>
</g>
<defs>
<clipPath id="clip0_4062_1175">
<rect width="1415" height="1114" fill="white"/>
</clipPath>
<clipPath id="clip1_4062_1175">
<rect width="24" height="24" fill="white" transform="translate(723 885)"/>
</clipPath>
</defs>
</svg>
