<svg width="1145" height="968" viewBox="0 0 1145 968" fill="none" xmlns="http://www.w3.org/2000/svg">
<g clip-path="url(#clip0_4075_2059)">
<rect width="1145" height="968" fill="#101010"/>
<path d="M202.042 202L199.602 209L197.182 202H194.342L198.142 212H201.082L204.882 202H202.042ZM214.111 204.72C215.011 204.08 215.571 203.12 215.571 201.82C215.571 199.12 213.491 197.72 211.031 197.72C208.571 197.72 206.471 199.12 206.471 201.82C206.471 203.12 207.051 204.08 207.931 204.72C206.711 205.46 206.011 206.68 206.011 208.1C206.011 210.68 207.911 212.28 211.031 212.28C214.131 212.28 216.051 210.68 216.051 208.1C216.051 206.68 215.351 205.46 214.111 204.72ZM211.031 200.32C212.071 200.32 212.831 200.92 212.831 201.96C212.831 202.98 212.071 203.62 211.031 203.62C209.991 203.62 209.231 202.98 209.231 201.96C209.231 200.92 209.991 200.32 211.031 200.32ZM211.031 209.68C209.711 209.68 208.751 209 208.751 207.74C208.751 206.5 209.711 205.82 211.031 205.82C212.351 205.82 213.311 206.5 213.311 207.74C213.311 209 212.351 209.68 211.031 209.68Z" fill="#E6E6E6"/>
<path d="M957 511.5V503H974V520H957" fill="#007ACC"/>
<path d="M960.728 511.53V512.222H962.938V518.512H964.506V512.222H966.716V511.542C966.716 511.16 966.716 510.85 966.699 510.841C966.699 510.828 965.352 510.824 963.715 510.824L960.74 510.837V511.534L960.728 511.53V511.53ZM970.66 510.82C971.093 510.922 971.425 511.117 971.722 511.428C971.88 511.598 972.113 511.895 972.13 511.972C972.13 511.997 971.395 512.494 970.949 512.771C970.932 512.783 970.864 512.711 970.796 512.601C970.575 512.286 970.35 512.15 969.997 512.125C969.487 512.091 969.147 512.358 969.147 512.805C969.147 512.941 969.172 513.017 969.223 513.128C969.338 513.361 969.551 513.502 970.209 513.791C971.425 514.313 971.952 514.658 972.271 515.151C972.632 515.703 972.713 516.57 972.47 517.22C972.198 517.93 971.535 518.41 970.588 518.568C970.29 518.619 969.61 518.61 969.291 518.555C968.611 518.427 967.961 518.087 967.562 517.65C967.404 517.48 967.103 517.025 967.12 516.995L967.281 516.893L967.919 516.523L968.399 516.243L968.509 516.392C968.65 516.613 968.964 516.91 969.147 517.012C969.699 517.297 970.439 517.259 970.804 516.927C970.962 516.783 971.03 516.63 971.03 516.417C971.03 516.222 971 516.132 970.902 515.984C970.766 515.797 970.494 515.644 969.729 515.304C968.849 514.93 968.475 514.692 968.127 514.326C967.927 514.105 967.744 513.761 967.659 513.476C967.596 513.23 967.574 512.626 967.634 512.384C967.817 511.534 968.458 510.939 969.376 510.769C969.674 510.709 970.375 510.735 970.668 510.811L970.66 510.82V510.82Z" fill="white"/>
<rect x="129" y="98" width="325" height="60" rx="1" stroke="#2A2A2B" stroke-width="2"/>
<path d="M264.98 135H267.96L264.86 129.72C266.46 128.98 267.56 127.4 267.56 125.64C267.56 123.08 265.48 121 262.9 121H257.3V135H260.06V130.14H262.16L264.98 135ZM260.06 123.58H262.9C263.94 123.58 264.8 124.48 264.8 125.64C264.8 126.8 263.94 127.72 262.9 127.72H260.06V123.58ZM271.737 131.06H279.277C279.337 130.72 279.377 130.38 279.377 130C279.377 127.06 277.277 124.72 274.317 124.72C271.177 124.72 269.037 127.02 269.037 130C269.037 132.98 271.157 135.28 274.517 135.28C276.437 135.28 277.937 134.5 278.877 133.14L276.797 131.94C276.357 132.52 275.557 132.94 274.557 132.94C273.197 132.94 272.097 132.38 271.737 131.06ZM271.697 129.06C271.997 127.78 272.937 127.04 274.317 127.04C275.397 127.04 276.477 127.62 276.797 129.06H271.697ZM286.46 135.28C288.42 135.28 290.12 134.24 290.98 132.68L288.74 131.4C288.34 132.22 287.48 132.72 286.44 132.72C284.9 132.72 283.76 131.58 283.76 130C283.76 128.4 284.9 127.26 286.44 127.26C287.46 127.26 288.32 127.78 288.72 128.6L290.94 127.3C290.12 125.76 288.42 124.72 286.46 124.72C283.42 124.72 281.18 127.02 281.18 130C281.18 132.98 283.42 135.28 286.46 135.28ZM297.549 135.28C300.489 135.28 302.849 132.98 302.849 130C302.849 127.02 300.489 124.72 297.549 124.72C294.609 124.72 292.269 127.02 292.269 130C292.269 132.98 294.609 135.28 297.549 135.28ZM297.549 132.76C296.029 132.76 294.849 131.62 294.849 130C294.849 128.38 296.029 127.24 297.549 127.24C299.089 127.24 300.269 128.38 300.269 130C300.269 131.62 299.089 132.76 297.549 132.76ZM307.844 126.72V125H305.264V135H307.844V130.22C307.844 128.12 309.544 127.52 310.884 127.68V124.8C309.624 124.8 308.364 125.36 307.844 126.72ZM320.201 121V126.18C319.481 125.26 318.421 124.72 316.961 124.72C314.281 124.72 312.081 127.02 312.081 130C312.081 132.98 314.281 135.28 316.961 135.28C318.421 135.28 319.481 134.74 320.201 133.82V135H322.781V121H320.201ZM317.441 132.82C315.841 132.82 314.661 131.68 314.661 130C314.661 128.32 315.841 127.18 317.441 127.18C319.021 127.18 320.201 128.32 320.201 130C320.201 131.68 319.021 132.82 317.441 132.82ZM327.921 131.06H335.461C335.521 130.72 335.561 130.38 335.561 130C335.561 127.06 333.461 124.72 330.501 124.72C327.361 124.72 325.221 127.02 325.221 130C325.221 132.98 327.341 135.28 330.701 135.28C332.621 135.28 334.121 134.5 335.061 133.14L332.981 131.94C332.541 132.52 331.741 132.94 330.741 132.94C329.381 132.94 328.281 132.38 327.921 131.06ZM327.881 129.06C328.181 127.78 329.121 127.04 330.501 127.04C331.581 127.04 332.661 127.62 332.981 129.06H327.881ZM340.542 126.72V125H337.962V135H340.542V130.22C340.542 128.12 342.242 127.52 343.582 127.68V124.8C342.322 124.8 341.062 125.36 340.542 126.72Z" fill="#C15CFF"/>
<rect x="129" y="182" width="153" height="45" rx="22.5" stroke="#D6D6D6" stroke-width="2"/>
<path d="M841 759.5L846.774 749.5H835.226L841 759.5ZM841.707 577.293C841.317 576.902 840.683 576.902 840.293 577.293L833.929 583.657C833.538 584.047 833.538 584.681 833.929 585.071C834.319 585.462 834.953 585.462 835.343 585.071L841 579.414L846.657 585.071C847.047 585.462 847.681 585.462 848.071 585.071C848.462 584.681 848.462 584.047 848.071 583.657L841.707 577.293ZM842 750.5V578H840V750.5H842Z" fill="#2F2F31"/>
<rect x="301" y="182" width="153" height="45" rx="22.5" stroke="#D6D6D6" stroke-width="2"/>
<path d="M361.073 201.72C359.613 201.72 358.553 202.26 357.833 203.18V198H355.253V212H357.833V210.82C358.553 211.74 359.613 212.28 361.073 212.28C363.753 212.28 365.953 209.98 365.953 207C365.953 204.02 363.753 201.72 361.073 201.72ZM360.593 209.82C359.013 209.82 357.833 208.68 357.833 207C357.833 205.32 359.013 204.18 360.593 204.18C362.193 204.18 363.373 205.32 363.373 207C363.373 208.68 362.193 209.82 360.593 209.82ZM368.373 212H370.953V197.4H368.373V212ZM375.194 200.8C376.074 200.8 376.794 200.08 376.794 199.22C376.794 198.36 376.074 197.62 375.194 197.62C374.334 197.62 373.614 198.36 373.614 199.22C373.614 200.08 374.334 200.8 375.194 200.8ZM373.914 212H376.494V202H373.914V212ZM385.016 201.72C383.676 201.72 382.636 202.22 382.036 203.12V202H379.456V212H382.036V206.6C382.036 204.86 382.976 204.12 384.236 204.12C385.396 204.12 386.216 204.82 386.216 206.18V212H388.796V205.86C388.796 203.2 387.136 201.72 385.016 201.72ZM400.819 212L396.679 206.94L400.699 202H397.619L394.179 206.4V198H391.599V212H394.179V207.46L397.819 212H400.819Z" fill="white"/>
<path d="M774.946 201.72C773.486 201.72 772.426 202.26 771.706 203.18V202H769.126V216H771.706V210.82C772.426 211.74 773.486 212.28 774.946 212.28C777.626 212.28 779.826 209.98 779.826 207C779.826 204.02 777.626 201.72 774.946 201.72ZM774.466 209.82C772.886 209.82 771.706 208.68 771.706 207C771.706 205.32 772.886 204.18 774.466 204.18C776.066 204.18 777.246 205.32 777.246 207C777.246 208.68 776.066 209.82 774.466 209.82ZM782.246 212H784.826V197.4H782.246V212ZM795.387 202V203.18C794.667 202.28 793.587 201.72 792.127 201.72C789.467 201.72 787.267 204.02 787.267 207C787.267 209.98 789.467 212.28 792.127 212.28C793.587 212.28 794.667 211.72 795.387 210.82V212H797.967V202H795.387ZM792.607 209.82C791.027 209.82 789.847 208.68 789.847 207C789.847 205.32 791.027 204.18 792.607 204.18C794.207 204.18 795.387 205.32 795.387 207C795.387 208.68 794.207 209.82 792.607 209.82ZM807.427 202L805.207 208.72L802.607 202H799.787L803.887 211.68C803.407 213.02 802.687 213.62 801.267 213.6V216C803.807 216.14 805.507 214.88 806.547 212L810.187 202H807.427ZM823.275 202L821.575 208.16L819.755 202H817.315L815.495 208.14L813.795 202H811.055L814.235 212H816.695L818.535 205.94L820.375 212H822.835L826.015 202H823.275ZM830.585 203.72V202H828.005V212H830.585V207.22C830.585 205.12 832.285 204.52 833.625 204.68V201.8C832.365 201.8 831.105 202.36 830.585 203.72ZM837.014 200.8C837.894 200.8 838.614 200.08 838.614 199.22C838.614 198.36 837.894 197.62 837.014 197.62C836.154 197.62 835.434 198.36 835.434 199.22C835.434 200.08 836.154 200.8 837.014 200.8ZM835.734 212H838.314V202H835.734V212ZM848.936 202V203.24C848.236 202.3 847.156 201.72 845.736 201.72C842.896 201.72 840.756 204.04 840.756 206.84C840.756 209.66 842.896 211.96 845.736 211.96C847.156 211.96 848.236 211.38 848.936 210.44V211.52C848.936 213.1 847.936 213.98 846.316 213.98C844.776 213.98 844.116 213.36 843.696 212.58L841.496 213.84C842.376 215.46 844.096 216.28 846.236 216.28C848.876 216.28 851.456 214.8 851.456 211.52V202H848.936ZM846.136 209.58C844.516 209.58 843.336 208.44 843.336 206.84C843.336 205.26 844.516 204.12 846.136 204.12C847.756 204.12 848.936 205.26 848.936 206.84C848.936 208.44 847.756 209.58 846.136 209.58ZM859.955 201.72C858.615 201.72 857.575 202.22 856.975 203.12V198H854.395V212H856.975V206.6C856.975 204.86 857.915 204.12 859.175 204.12C860.335 204.12 861.155 204.82 861.155 206.18V212H863.735V205.86C863.735 203.2 862.075 201.72 859.955 201.72ZM872.258 204.48V202H869.998V199.2L867.418 199.98V202H865.678V204.48H867.418V208.64C867.418 211.34 868.638 212.4 872.258 212V209.66C870.778 209.74 869.998 209.72 869.998 208.64V204.48H872.258Z" fill="white" fill-opacity="0.65"/>
<rect x="658" y="98" width="325" height="60" rx="1" stroke="#2A2A2B" stroke-width="2"/>
<path d="M776.94 135.28C779.52 135.28 781.78 133.98 782.96 131.98L780.58 130.6C779.92 131.82 778.54 132.58 776.94 132.58C774.2 132.58 772.4 130.68 772.4 128C772.4 125.3 774.2 123.4 776.94 123.4C778.54 123.4 779.9 124.16 780.58 125.4L782.96 124.02C781.76 122.02 779.5 120.72 776.94 120.72C772.7 120.72 769.66 123.9 769.66 128C769.66 132.08 772.7 135.28 776.94 135.28ZM791.892 125V130.4C791.892 132.14 790.952 132.88 789.692 132.88C788.532 132.88 787.712 132.18 787.712 130.82V125H785.132V131.14C785.132 133.8 786.792 135.28 788.912 135.28C790.252 135.28 791.292 134.78 791.892 133.88V135H794.472V125H791.892ZM799.737 127.84C799.737 127.3 800.257 127.02 800.897 127.02C801.637 127.02 802.197 127.4 802.497 128.04L804.697 126.84C803.917 125.46 802.517 124.72 800.897 124.72C798.837 124.72 797.097 125.86 797.097 127.9C797.097 131.42 802.257 130.62 802.257 132.08C802.257 132.66 801.697 132.94 800.877 132.94C799.877 132.94 799.197 132.46 798.917 131.64L796.677 132.9C797.397 134.44 798.877 135.28 800.877 135.28C803.017 135.28 804.897 134.24 804.897 132.08C804.897 128.4 799.737 129.32 799.737 127.84ZM812.583 127.48V125H810.323V122.2L807.743 122.98V125H806.003V127.48H807.743V131.64C807.743 134.34 808.963 135.4 812.583 135V132.66C811.103 132.74 810.323 132.72 810.323 131.64V127.48H812.583ZM819.449 135.28C822.389 135.28 824.749 132.98 824.749 130C824.749 127.02 822.389 124.72 819.449 124.72C816.509 124.72 814.169 127.02 814.169 130C814.169 132.98 816.509 135.28 819.449 135.28ZM819.449 132.76C817.929 132.76 816.749 131.62 816.749 130C816.749 128.38 817.929 127.24 819.449 127.24C820.989 127.24 822.169 128.38 822.169 130C822.169 131.62 820.989 132.76 819.449 132.76ZM838.224 124.72C836.864 124.72 835.864 125.26 835.244 126.16C834.684 125.24 833.764 124.72 832.524 124.72C831.244 124.72 830.304 125.22 829.744 126.06V125H827.164V135H829.744V129.38C829.744 127.88 830.524 127.12 831.624 127.12C832.704 127.12 833.304 127.84 833.304 129.02V135H835.884V129.38C835.884 127.88 836.604 127.12 837.744 127.12C838.824 127.12 839.424 127.84 839.424 129.02V135H842.004V128.84C842.004 126.34 840.504 124.72 838.224 124.72ZM855.296 135.28C858.276 135.28 860.376 133.68 860.376 131.06C860.376 128.2 858.016 127.46 855.796 126.76C853.676 126.12 853.136 125.66 853.136 124.8C853.136 124 853.816 123.4 854.976 123.4C856.396 123.4 857.156 124.14 857.656 125.2L859.976 123.86C859.036 121.9 857.276 120.72 854.976 120.72C852.576 120.72 850.376 122.24 850.376 124.88C850.376 127.54 852.456 128.44 854.596 129.06C856.676 129.66 857.616 130.06 857.616 131.1C857.616 131.88 857.036 132.58 855.376 132.58C853.636 132.58 852.656 131.74 852.156 130.44L849.796 131.82C850.556 133.9 852.436 135.28 855.296 135.28ZM868.238 121H862.678V135H868.238C872.098 135 874.978 131.94 874.978 128C874.978 124.06 872.098 121 868.238 121ZM868.238 132.36H865.438V123.64H868.238C870.658 123.64 872.338 125.42 872.338 128C872.338 130.58 870.658 132.36 868.238 132.36ZM888.476 135L883.096 127.8L888.276 121H885.096L880.296 127.18V121H877.536V135H880.296V128.44L885.296 135H888.476Z" fill="#8BD5FF"/>
<rect x="657.75" y="181.75" width="325.5" height="45.5" rx="22.75" stroke="#D6D6D6" stroke-width="1.5"/>
<rect x="657" y="355" width="368" height="223" rx="20" fill="#1C1C1D"/>
<rect x="658" y="356" width="366" height="221" rx="19" stroke="white" stroke-opacity="0.12" stroke-width="2" stroke-linejoin="round" stroke-dasharray="4 4"/>
<rect x="698.75" y="391.75" width="293.5" height="60.5" rx="1.25" fill="#A661FF" fill-opacity="0.05" stroke="#A661FF" stroke-width="1.5"/>
<path d="M960 421.5V413H977V430H960" fill="#007ACC"/>
<path d="M963.728 421.53V422.222H965.938V428.512H967.506V422.222H969.716V421.542C969.716 421.16 969.716 420.85 969.699 420.841C969.699 420.828 968.352 420.824 966.715 420.824L963.74 420.837V421.534L963.728 421.53V421.53ZM973.66 420.82C974.093 420.922 974.425 421.117 974.722 421.428C974.88 421.598 975.113 421.895 975.13 421.972C975.13 421.997 974.395 422.494 973.949 422.771C973.932 422.783 973.864 422.711 973.796 422.601C973.575 422.286 973.35 422.15 972.997 422.125C972.487 422.091 972.147 422.358 972.147 422.805C972.147 422.941 972.172 423.017 972.223 423.128C972.338 423.361 972.551 423.502 973.209 423.791C974.425 424.313 974.952 424.658 975.271 425.151C975.632 425.703 975.713 426.57 975.47 427.22C975.198 427.93 974.535 428.41 973.588 428.568C973.29 428.619 972.61 428.61 972.291 428.555C971.611 428.427 970.961 428.087 970.562 427.65C970.404 427.48 970.103 427.025 970.12 426.995L970.281 426.893L970.919 426.523L971.399 426.243L971.509 426.392C971.65 426.613 971.964 426.91 972.147 427.012C972.699 427.297 973.439 427.259 973.804 426.927C973.962 426.783 974.03 426.63 974.03 426.417C974.03 426.222 974 426.132 973.902 425.984C973.766 425.797 973.494 425.644 972.729 425.304C971.849 424.93 971.475 424.692 971.127 424.326C970.927 424.105 970.744 423.761 970.659 423.476C970.596 423.23 970.574 422.626 970.634 422.384C970.817 421.534 971.458 420.939 972.376 420.769C972.674 420.709 973.375 420.735 973.668 420.811L973.66 420.82V420.82Z" fill="white"/>
<path d="M727.98 429H730.96L727.86 423.72C729.46 422.98 730.56 421.4 730.56 419.64C730.56 417.08 728.48 415 725.9 415H720.3V429H723.06V424.14H725.16L727.98 429ZM723.06 417.58H725.9C726.94 417.58 727.8 418.48 727.8 419.64C727.8 420.8 726.94 421.72 725.9 421.72H723.06V417.58ZM739.45 419V424.4C739.45 426.14 738.51 426.88 737.25 426.88C736.09 426.88 735.27 426.18 735.27 424.82V419H732.69V425.14C732.69 427.8 734.35 429.28 736.47 429.28C737.81 429.28 738.85 428.78 739.45 427.88V429H742.03V419H739.45ZM750.553 418.72C749.213 418.72 748.173 419.22 747.573 420.12V419H744.993V429H747.573V423.6C747.573 421.86 748.513 421.12 749.773 421.12C750.933 421.12 751.753 421.82 751.753 423.18V429H754.333V422.86C754.333 420.2 752.673 418.72 750.553 418.72ZM762.696 418.72C761.356 418.72 760.316 419.22 759.716 420.12V419H757.136V429H759.716V423.6C759.716 421.86 760.656 421.12 761.916 421.12C763.076 421.12 763.896 421.82 763.896 423.18V429H766.476V422.86C766.476 420.2 764.816 418.72 762.696 418.72ZM771.459 425.06H778.999C779.059 424.72 779.099 424.38 779.099 424C779.099 421.06 776.999 418.72 774.039 418.72C770.899 418.72 768.759 421.02 768.759 424C768.759 426.98 770.879 429.28 774.239 429.28C776.159 429.28 777.659 428.5 778.599 427.14L776.519 425.94C776.079 426.52 775.279 426.94 774.279 426.94C772.919 426.94 771.819 426.38 771.459 425.06ZM771.419 423.06C771.719 421.78 772.659 421.04 774.039 421.04C775.119 421.04 776.199 421.62 776.519 423.06H771.419ZM784.08 420.72V419H781.5V429H784.08V424.22C784.08 422.12 785.78 421.52 787.12 421.68V418.8C785.86 418.8 784.6 419.36 784.08 420.72Z" fill="white" fill-opacity="0.88"/>
<rect x="698.75" y="480.75" width="293.5" height="60.5" rx="1.25" stroke="#A661FF" stroke-width="1.5"/>
<path d="M726.22 516H729.36L731.98 506.76L734.62 516H737.76L741.68 502H738.78L736.1 512.38L733.16 502H730.8L727.88 512.38L725.2 502H722.3L726.22 516ZM747.329 516.28C750.269 516.28 752.629 513.98 752.629 511C752.629 508.02 750.269 505.72 747.329 505.72C744.389 505.72 742.049 508.02 742.049 511C742.049 513.98 744.389 516.28 747.329 516.28ZM747.329 513.76C745.809 513.76 744.629 512.62 744.629 511C744.629 509.38 745.809 508.24 747.329 508.24C748.869 508.24 750.049 509.38 750.049 511C750.049 512.62 748.869 513.76 747.329 513.76ZM757.624 507.72V506H755.044V516H757.624V511.22C757.624 509.12 759.324 508.52 760.664 508.68V505.8C759.404 505.8 758.144 506.36 757.624 507.72ZM771.993 516L767.853 510.94L771.873 506H768.793L765.353 510.4V502H762.773V516H765.353V511.46L768.993 516H771.993ZM775.338 512.06H782.878C782.938 511.72 782.978 511.38 782.978 511C782.978 508.06 780.878 505.72 777.918 505.72C774.778 505.72 772.638 508.02 772.638 511C772.638 513.98 774.758 516.28 778.118 516.28C780.038 516.28 781.538 515.5 782.478 514.14L780.398 512.94C779.958 513.52 779.158 513.94 778.158 513.94C776.798 513.94 775.698 513.38 775.338 512.06ZM775.298 510.06C775.598 508.78 776.538 508.04 777.918 508.04C778.998 508.04 780.078 508.62 780.398 510.06H775.298ZM787.959 507.72V506H785.379V516H787.959V511.22C787.959 509.12 789.659 508.52 790.999 508.68V505.8C789.739 505.8 788.479 506.36 787.959 507.72Z" fill="white"/>
<rect x="221" y="761" width="753" height="110" fill="#D9D9D9" fill-opacity="0.1" stroke="white" stroke-opacity="0.12" stroke-width="1.5" stroke-linecap="round"/>
<rect x="268" y="787" width="183" height="62" rx="2" fill="#313131"/>
<rect x="268.5" y="787.5" width="182" height="61" rx="1.5" stroke="#232020" stroke-opacity="0.17"/>
<path d="M369.226 814.72V813H366.646V823H369.226V818.22C369.226 816.12 370.926 815.52 372.266 815.68V812.8C371.006 812.8 369.746 813.36 369.226 814.72ZM376.184 819.06H383.724C383.784 818.72 383.824 818.38 383.824 818C383.824 815.06 381.724 812.72 378.764 812.72C375.624 812.72 373.484 815.02 373.484 818C373.484 820.98 375.604 823.28 378.964 823.28C380.884 823.28 382.384 822.5 383.324 821.14L381.244 819.94C380.804 820.52 380.004 820.94 379.004 820.94C377.644 820.94 376.544 820.38 376.184 819.06ZM376.144 817.06C376.444 815.78 377.384 815.04 378.764 815.04C379.844 815.04 380.924 815.62 381.244 817.06H376.144ZM393.726 809V814.18C393.006 813.26 391.946 812.72 390.486 812.72C387.806 812.72 385.606 815.02 385.606 818C385.606 820.98 387.806 823.28 390.486 823.28C391.946 823.28 393.006 822.74 393.726 821.82V823H396.306V809H393.726ZM390.966 820.82C389.366 820.82 388.186 819.68 388.186 818C388.186 816.32 389.366 815.18 390.966 815.18C392.546 815.18 393.726 816.32 393.726 818C393.726 819.68 392.546 820.82 390.966 820.82ZM400.546 811.8C401.426 811.8 402.146 811.08 402.146 810.22C402.146 809.36 401.426 808.62 400.546 808.62C399.686 808.62 398.966 809.36 398.966 810.22C398.966 811.08 399.686 811.8 400.546 811.8ZM399.266 823H401.846V813H399.266V823ZM407.109 815.84C407.109 815.3 407.629 815.02 408.269 815.02C409.009 815.02 409.569 815.4 409.869 816.04L412.069 814.84C411.289 813.46 409.889 812.72 408.269 812.72C406.209 812.72 404.469 813.86 404.469 815.9C404.469 819.42 409.629 818.62 409.629 820.08C409.629 820.66 409.069 820.94 408.249 820.94C407.249 820.94 406.569 820.46 406.289 819.64L404.049 820.9C404.769 822.44 406.249 823.28 408.249 823.28C410.389 823.28 412.269 822.24 412.269 820.08C412.269 816.4 407.109 817.32 407.109 815.84Z" fill="white" fill-opacity="0.9"/>
<rect x="506" y="787" width="183" height="62" rx="2" fill="#313131"/>
<rect x="506.75" y="787.75" width="181.5" height="60.5" rx="1.25" stroke="#232020" stroke-opacity="0.17" stroke-width="1.5"/>
<path d="M598.595 812.72C597.135 812.72 596.075 813.26 595.355 814.18V813H592.775V827H595.355V821.82C596.075 822.74 597.135 823.28 598.595 823.28C601.275 823.28 603.475 820.98 603.475 818C603.475 815.02 601.275 812.72 598.595 812.72ZM598.115 820.82C596.535 820.82 595.355 819.68 595.355 818C595.355 816.32 596.535 815.18 598.115 815.18C599.715 815.18 600.895 816.32 600.895 818C600.895 819.68 599.715 820.82 598.115 820.82ZM610.654 823.28C613.594 823.28 615.954 820.98 615.954 818C615.954 815.02 613.594 812.72 610.654 812.72C607.714 812.72 605.374 815.02 605.374 818C605.374 820.98 607.714 823.28 610.654 823.28ZM610.654 820.76C609.134 820.76 607.954 819.62 607.954 818C607.954 816.38 609.134 815.24 610.654 815.24C612.194 815.24 613.374 816.38 613.374 818C613.374 819.62 612.194 820.76 610.654 820.76ZM620.534 815.84C620.534 815.3 621.054 815.02 621.694 815.02C622.434 815.02 622.994 815.4 623.294 816.04L625.494 814.84C624.714 813.46 623.314 812.72 621.694 812.72C619.634 812.72 617.894 813.86 617.894 815.9C617.894 819.42 623.054 818.62 623.054 820.08C623.054 820.66 622.494 820.94 621.674 820.94C620.674 820.94 619.994 820.46 619.714 819.64L617.474 820.9C618.194 822.44 619.674 823.28 621.674 823.28C623.814 823.28 625.694 822.24 625.694 820.08C625.694 816.4 620.534 817.32 620.534 815.84ZM633.38 815.48V813H631.12V810.2L628.54 810.98V813H626.8V815.48H628.54V819.64C628.54 822.34 629.76 823.4 633.38 823V820.66C631.9 820.74 631.12 820.72 631.12 819.64V815.48H633.38ZM643.147 813V814.24C642.447 813.3 641.367 812.72 639.947 812.72C637.107 812.72 634.967 815.04 634.967 817.84C634.967 820.66 637.107 822.96 639.947 822.96C641.367 822.96 642.447 822.38 643.147 821.44V822.52C643.147 824.1 642.147 824.98 640.527 824.98C638.987 824.98 638.327 824.36 637.907 823.58L635.707 824.84C636.587 826.46 638.307 827.28 640.447 827.28C643.087 827.28 645.667 825.8 645.667 822.52V813H643.147ZM640.347 820.58C638.727 820.58 637.547 819.44 637.547 817.84C637.547 816.26 638.727 815.12 640.347 815.12C641.967 815.12 643.147 816.26 643.147 817.84C643.147 819.44 641.967 820.58 640.347 820.58ZM651.187 814.72V813H648.607V823H651.187V818.22C651.187 816.12 652.887 815.52 654.227 815.68V812.8C652.967 812.8 651.707 813.36 651.187 814.72ZM658.144 819.06H665.684C665.744 818.72 665.784 818.38 665.784 818C665.784 815.06 663.684 812.72 660.724 812.72C657.584 812.72 655.444 815.02 655.444 818C655.444 820.98 657.564 823.28 660.924 823.28C662.844 823.28 664.344 822.5 665.284 821.14L663.204 819.94C662.764 820.52 661.964 820.94 660.964 820.94C659.604 820.94 658.504 820.38 658.144 819.06ZM658.104 817.06C658.404 815.78 659.344 815.04 660.724 815.04C661.804 815.04 662.884 815.62 663.204 817.06H658.104Z" fill="white" fill-opacity="0.9"/>
<rect x="744" y="787" width="183" height="62" rx="2" fill="#313131"/>
<rect x="744.5" y="787.5" width="182" height="61" rx="1.5" stroke="#232020" stroke-opacity="0.17"/>
<path d="M879.765 816.84C879.765 816.3 880.285 816.02 880.925 816.02C881.665 816.02 882.225 816.4 882.525 817.04L884.725 815.84C883.945 814.46 882.545 813.72 880.925 813.72C878.865 813.72 877.125 814.86 877.125 816.9C877.125 820.42 882.285 819.62 882.285 821.08C882.285 821.66 881.725 821.94 880.905 821.94C879.905 821.94 879.225 821.46 878.945 820.64L876.705 821.9C877.425 823.44 878.905 824.28 880.905 824.28C883.045 824.28 884.925 823.24 884.925 821.08C884.925 817.4 879.765 818.32 879.765 816.84ZM893.162 815.68L895.782 812.28V810H886.982V812.58H892.462L889.702 816.18L890.762 817.78H891.362C892.802 817.78 893.602 818.56 893.602 819.68C893.602 820.82 892.802 821.58 891.362 821.58C890.042 821.58 889.262 821 888.922 819.96L886.562 821.32C887.362 823.32 889.262 824.28 891.362 824.28C894.002 824.28 896.362 822.68 896.362 819.68C896.362 817.62 894.982 816.22 893.162 815.68Z" fill="#EAEAEA"/>
<rect x="121.5" y="350.5" width="367" height="222" rx="11.5" fill="#1C1C1D" stroke="#2A2A2B" stroke-linejoin="round" stroke-dasharray="4 4"/>
<rect x="163" y="387.509" width="291" height="56" rx="1" fill="#994CD6" fill-opacity="0.07"/>
<rect x="163" y="387.509" width="291" height="56" rx="1" stroke="#994CD6" stroke-width="2"/>
<path d="M195.226 421.28C198.206 421.28 200.306 419.68 200.306 417.06C200.306 414.2 197.946 413.46 195.726 412.76C193.606 412.12 193.066 411.66 193.066 410.8C193.066 410 193.746 409.4 194.906 409.4C196.326 409.4 197.086 410.14 197.586 411.2L199.906 409.86C198.966 407.9 197.206 406.72 194.906 406.72C192.506 406.72 190.306 408.24 190.306 410.88C190.306 413.54 192.386 414.44 194.526 415.06C196.606 415.66 197.546 416.06 197.546 417.1C197.546 417.88 196.966 418.58 195.306 418.58C193.566 418.58 192.586 417.74 192.086 416.44L189.726 417.82C190.486 419.9 192.366 421.28 195.226 421.28ZM205.04 417.06H212.58C212.64 416.72 212.68 416.38 212.68 416C212.68 413.06 210.58 410.72 207.62 410.72C204.48 410.72 202.34 413.02 202.34 416C202.34 418.98 204.46 421.28 207.82 421.28C209.74 421.28 211.24 420.5 212.18 419.14L210.1 417.94C209.66 418.52 208.86 418.94 207.86 418.94C206.5 418.94 205.4 418.38 205.04 417.06ZM205 415.06C205.3 413.78 206.24 413.04 207.62 413.04C208.7 413.04 209.78 413.62 210.1 415.06H205ZM217.661 412.72V411H215.081V421H217.661V416.22C217.661 414.12 219.361 413.52 220.701 413.68V410.8C219.441 410.8 218.181 411.36 217.661 412.72ZM229.39 411L226.95 418L224.53 411H221.69L225.49 421H228.43L232.23 411H229.39ZM235.864 417.06H243.404C243.464 416.72 243.504 416.38 243.504 416C243.504 413.06 241.404 410.72 238.444 410.72C235.304 410.72 233.164 413.02 233.164 416C233.164 418.98 235.284 421.28 238.644 421.28C240.564 421.28 242.064 420.5 243.004 419.14L240.924 417.94C240.484 418.52 239.684 418.94 238.684 418.94C237.324 418.94 236.224 418.38 235.864 417.06ZM235.824 415.06C236.124 413.78 237.064 413.04 238.444 413.04C239.524 413.04 240.604 413.62 240.924 415.06H235.824ZM248.485 412.72V411H245.905V421H248.485V416.22C248.485 414.12 250.185 413.52 251.525 413.68V410.8C250.265 410.8 249.005 411.36 248.485 412.72Z" fill="white" fill-opacity="0.93"/>
<rect x="162" y="474.327" width="295" height="61.177" rx="2" fill="#1C1C1D"/>
<rect x="163" y="475.327" width="293" height="59.177" rx="1" stroke="white" stroke-opacity="0.17" stroke-width="2"/>
<path d="M199.3 510H202.3L197.38 496H193.96L189.06 510H192.04L192.88 507.48H198.46L199.3 510ZM193.76 504.9L195.68 499.18L197.6 504.9H193.76ZM209.959 499.72C208.499 499.72 207.439 500.26 206.719 501.18V500H204.139V514H206.719V508.82C207.439 509.74 208.499 510.28 209.959 510.28C212.639 510.28 214.839 507.98 214.839 505C214.839 502.02 212.639 499.72 209.959 499.72ZM209.479 507.82C207.899 507.82 206.719 506.68 206.719 505C206.719 503.32 207.899 502.18 209.479 502.18C211.079 502.18 212.259 503.32 212.259 505C212.259 506.68 211.079 507.82 209.479 507.82ZM223.079 499.72C221.619 499.72 220.559 500.26 219.839 501.18V500H217.259V514H219.839V508.82C220.559 509.74 221.619 510.28 223.079 510.28C225.759 510.28 227.959 507.98 227.959 505C227.959 502.02 225.759 499.72 223.079 499.72ZM222.599 507.82C221.019 507.82 219.839 506.68 219.839 505C219.839 503.32 221.019 502.18 222.599 502.18C224.199 502.18 225.379 503.32 225.379 505C225.379 506.68 224.199 507.82 222.599 507.82Z" fill="#EFEFEF"/>
<path d="M431.088 501.547C430.86 501.469 430.624 501.394 430.38 501.324C430.42 501.161 430.457 501 430.49 500.841C431.026 498.239 430.675 496.142 429.478 495.452C428.331 494.79 426.454 495.48 424.558 497.13C424.376 497.289 424.193 497.457 424.01 497.633C423.888 497.516 423.767 497.404 423.646 497.296C421.659 495.532 419.668 494.789 418.472 495.481C417.325 496.145 416.986 498.116 417.468 500.582C417.515 500.82 417.569 501.063 417.631 501.311C417.349 501.391 417.077 501.476 416.817 501.567C414.488 502.379 413 503.651 413 504.971C413 506.335 414.597 507.702 417.023 508.532C417.214 508.597 417.413 508.659 417.618 508.718C417.551 508.985 417.493 509.247 417.445 509.503C416.985 511.926 417.344 513.851 418.488 514.51C419.669 515.191 421.651 514.491 423.582 512.804C423.734 512.671 423.887 512.529 424.041 512.381C424.239 512.572 424.438 512.753 424.635 512.923C426.505 514.532 428.352 515.182 429.494 514.521C430.674 513.838 431.058 511.77 430.56 509.255C430.522 509.063 430.478 508.867 430.428 508.667C430.567 508.626 430.704 508.584 430.837 508.54C433.359 507.704 435 506.353 435 504.971C435 503.647 433.465 502.365 431.088 501.547ZM430.541 507.648C430.421 507.687 430.298 507.726 430.172 507.763C429.893 506.882 429.518 505.944 429.058 504.976C429.497 504.031 429.858 503.105 430.129 502.23C430.354 502.295 430.572 502.364 430.782 502.436C432.818 503.137 434.06 504.173 434.06 504.971C434.06 505.822 432.719 506.926 430.541 507.648ZM429.638 509.438C429.858 510.55 429.889 511.556 429.744 512.342C429.613 513.048 429.349 513.519 429.023 513.707C428.33 514.109 426.847 513.587 425.248 512.211C425.065 512.053 424.88 511.885 424.695 511.707C425.315 511.029 425.935 510.24 426.539 509.365C427.603 509.271 428.608 509.116 429.519 508.906C429.564 509.087 429.603 509.264 429.638 509.438ZM420.5 513.638C419.823 513.877 419.283 513.884 418.957 513.696C418.263 513.296 417.975 511.751 418.368 509.678C418.413 509.441 418.467 509.197 418.529 508.948C419.43 509.147 420.428 509.291 421.494 509.377C422.102 510.234 422.74 511.021 423.382 511.71C423.242 511.846 423.102 511.975 422.963 512.096C422.109 512.842 421.254 513.372 420.5 513.638ZM417.327 507.642C416.254 507.276 415.368 506.799 414.761 506.279C414.215 505.812 413.94 505.348 413.94 504.971C413.94 504.17 415.134 503.149 417.126 502.454C417.368 502.37 417.621 502.29 417.883 502.216C418.159 503.111 418.52 504.048 418.956 504.994C418.514 505.955 418.148 506.906 417.87 507.812C417.683 507.759 417.501 507.702 417.327 507.642ZM418.391 500.401C417.977 498.288 418.252 496.694 418.943 496.294C419.679 495.868 421.306 496.476 423.022 497.999C423.131 498.096 423.241 498.198 423.352 498.304C422.713 498.99 422.081 499.771 421.478 500.623C420.443 500.719 419.452 500.873 418.542 501.079C418.485 500.849 418.434 500.623 418.391 500.401ZM427.88 502.745C427.663 502.369 427.439 502.001 427.211 501.644C427.913 501.733 428.586 501.851 429.217 501.995C429.028 502.603 428.792 503.238 428.513 503.889C428.314 503.511 428.103 503.129 427.88 502.745ZM424.01 498.975C424.444 499.445 424.878 499.969 425.305 500.538C424.875 500.518 424.439 500.507 424 500.507C423.565 500.507 423.133 500.518 422.705 500.538C423.132 499.974 423.57 499.45 424.01 498.975ZM420.116 502.751C419.898 503.128 419.691 503.508 419.495 503.889C419.221 503.24 418.987 502.601 418.796 501.985C419.423 501.845 420.093 501.73 420.79 501.643C420.559 502.003 420.334 502.373 420.116 502.751V502.751ZM420.81 508.367C420.09 508.287 419.41 508.178 418.783 508.041C418.977 507.414 419.216 506.762 419.496 506.099C419.693 506.479 419.901 506.86 420.12 507.237H420.12C420.342 507.622 420.573 508 420.81 508.367ZM424.036 511.034C423.591 510.553 423.147 510.022 422.713 509.45C423.134 509.466 423.564 509.475 424 509.475C424.448 509.475 424.892 509.465 425.328 509.445C424.9 510.027 424.467 510.56 424.036 511.034ZM428.522 506.065C428.816 506.736 429.064 507.384 429.261 508.001C428.623 508.146 427.934 508.263 427.209 508.35C427.437 507.989 427.663 507.615 427.884 507.231C428.108 506.842 428.321 506.453 428.522 506.065ZM427.07 506.761C426.726 507.358 426.373 507.927 426.015 508.464C425.362 508.511 424.687 508.535 424 508.535C423.315 508.535 422.649 508.514 422.008 508.472C421.635 507.928 421.275 507.357 420.933 506.767H420.933C420.592 506.178 420.278 505.584 419.994 504.994C420.278 504.402 420.591 503.808 420.93 503.22L420.93 503.221C421.27 502.631 421.627 502.063 421.997 501.522C422.651 501.473 423.322 501.447 424 501.447H424C424.681 501.447 425.353 501.473 426.007 501.523C426.371 502.06 426.726 502.626 427.067 503.216C427.412 503.811 427.729 504.402 428.015 504.981C427.73 505.57 427.414 506.166 427.07 506.761ZM429.009 496.266C429.746 496.691 430.032 498.405 429.569 500.651C429.54 500.795 429.506 500.941 429.47 501.089C428.558 500.878 427.566 500.722 426.529 500.624C425.924 499.763 425.298 498.981 424.669 498.303C424.838 498.141 425.007 497.985 425.175 497.839C426.799 496.426 428.317 495.868 429.009 496.266ZM424 503.007C425.085 503.007 425.965 503.886 425.965 504.971C425.965 506.056 425.085 506.936 424 506.936C422.915 506.936 422.035 506.056 422.035 504.971C422.035 503.886 422.915 503.007 424 503.007Z" fill="#0DDAFF"/>
<path d="M129 127L119 132.774V121.226L129 127ZM69 127H68V126H69V127ZM69 415V416H68V415H69ZM120.5 415L110.5 420.774V409.226L120.5 415ZM120 128H69V126H120V128ZM70 127V415H68V127H70ZM69 414H111.5V416H69V414Z" fill="#2F2F31"/>
<path d="M224.204 733.556C224.204 733.07 224.672 732.818 225.248 732.818C225.914 732.818 226.418 733.16 226.688 733.736L228.668 732.656C227.966 731.414 226.706 730.748 225.248 730.748C223.394 730.748 221.828 731.774 221.828 733.61C221.828 736.778 226.472 736.058 226.472 737.372C226.472 737.894 225.968 738.146 225.23 738.146C224.33 738.146 223.718 737.714 223.466 736.976L221.45 738.11C222.098 739.496 223.43 740.252 225.23 740.252C227.156 740.252 228.848 739.316 228.848 737.372C228.848 734.06 224.204 734.888 224.204 733.556ZM235.885 730.748C234.679 730.748 233.743 731.198 233.203 732.008V727.4H230.881V740H233.203V735.14C233.203 733.574 234.049 732.908 235.183 732.908C236.227 732.908 236.965 733.538 236.965 734.762V740H239.287V734.474C239.287 732.08 237.793 730.748 235.885 730.748ZM248.65 731V732.062C248.002 731.252 247.03 730.748 245.716 730.748C243.322 730.748 241.342 732.818 241.342 735.5C241.342 738.182 243.322 740.252 245.716 740.252C247.03 740.252 248.002 739.748 248.65 738.938V740H250.972V731H248.65ZM246.148 738.038C244.726 738.038 243.664 737.012 243.664 735.5C243.664 733.988 244.726 732.962 246.148 732.962C247.588 732.962 248.65 733.988 248.65 735.5C248.65 737.012 247.588 738.038 246.148 738.038ZM255.94 732.548V731H253.618V740H255.94V735.698C255.94 733.808 257.47 733.268 258.676 733.412V730.82C257.542 730.82 256.408 731.324 255.94 732.548ZM262.202 736.454H268.988C269.042 736.148 269.078 735.842 269.078 735.5C269.078 732.854 267.188 730.748 264.524 730.748C261.698 730.748 259.772 732.818 259.772 735.5C259.772 738.182 261.68 740.252 264.704 740.252C266.432 740.252 267.782 739.55 268.628 738.326L266.756 737.246C266.36 737.768 265.64 738.146 264.74 738.146C263.516 738.146 262.526 737.642 262.202 736.454ZM262.166 734.654C262.436 733.502 263.282 732.836 264.524 732.836C265.496 732.836 266.468 733.358 266.756 734.654H262.166ZM277.99 727.4V732.062C277.342 731.234 276.388 730.748 275.074 730.748C272.662 730.748 270.682 732.818 270.682 735.5C270.682 738.182 272.662 740.252 275.074 740.252C276.388 740.252 277.342 739.766 277.99 738.938V740H280.312V727.4H277.99ZM275.506 738.038C274.066 738.038 273.004 737.012 273.004 735.5C273.004 733.988 274.066 732.962 275.506 732.962C276.928 732.962 277.99 733.988 277.99 735.5C277.99 737.012 276.928 738.038 275.506 738.038ZM294.838 727.4V732.062C294.19 731.234 293.236 730.748 291.922 730.748C289.51 730.748 287.53 732.818 287.53 735.5C287.53 738.182 289.51 740.252 291.922 740.252C293.236 740.252 294.19 739.766 294.838 738.938V740H297.16V727.4H294.838ZM292.354 738.038C290.914 738.038 289.852 737.012 289.852 735.5C289.852 733.988 290.914 732.962 292.354 732.962C293.776 732.962 294.838 733.988 294.838 735.5C294.838 737.012 293.776 738.038 292.354 738.038ZM301.785 736.454H308.571C308.625 736.148 308.661 735.842 308.661 735.5C308.661 732.854 306.771 730.748 304.107 730.748C301.281 730.748 299.355 732.818 299.355 735.5C299.355 738.182 301.263 740.252 304.287 740.252C306.015 740.252 307.365 739.55 308.211 738.326L306.339 737.246C305.943 737.768 305.223 738.146 304.323 738.146C303.099 738.146 302.109 737.642 301.785 736.454ZM301.749 734.654C302.019 733.502 302.865 732.836 304.107 732.836C305.079 732.836 306.051 733.358 306.339 734.654H301.749ZM316.06 730.748C314.746 730.748 313.792 731.234 313.144 732.062V731H310.822V743.6H313.144V738.938C313.792 739.766 314.746 740.252 316.06 740.252C318.472 740.252 320.452 738.182 320.452 735.5C320.452 732.818 318.472 730.748 316.06 730.748ZM315.628 738.038C314.206 738.038 313.144 737.012 313.144 735.5C313.144 733.988 314.206 732.962 315.628 732.962C317.068 732.962 318.13 733.988 318.13 735.5C318.13 737.012 317.068 738.038 315.628 738.038ZM324.592 736.454H331.378C331.432 736.148 331.468 735.842 331.468 735.5C331.468 732.854 329.578 730.748 326.914 730.748C324.088 730.748 322.162 732.818 322.162 735.5C322.162 738.182 324.07 740.252 327.094 740.252C328.822 740.252 330.172 739.55 331.018 738.326L329.146 737.246C328.75 737.768 328.03 738.146 327.13 738.146C325.906 738.146 324.916 737.642 324.592 736.454ZM324.556 734.654C324.826 733.502 325.672 732.836 326.914 732.836C327.886 732.836 328.858 733.358 329.146 734.654H324.556ZM338.633 730.748C337.427 730.748 336.491 731.198 335.951 732.008V731H333.629V740H335.951V735.14C335.951 733.574 336.797 732.908 337.931 732.908C338.975 732.908 339.713 733.538 339.713 734.762V740H342.035V734.474C342.035 732.08 340.541 730.748 338.633 730.748ZM351.38 727.4V732.062C350.732 731.234 349.778 730.748 348.464 730.748C346.052 730.748 344.072 732.818 344.072 735.5C344.072 738.182 346.052 740.252 348.464 740.252C349.778 740.252 350.732 739.766 351.38 738.938V740H353.702V727.4H351.38ZM348.896 738.038C347.456 738.038 346.394 737.012 346.394 735.5C346.394 733.988 347.456 732.962 348.896 732.962C350.318 732.962 351.38 733.988 351.38 735.5C351.38 737.012 350.318 738.038 348.896 738.038ZM358.327 736.454H365.113C365.167 736.148 365.203 735.842 365.203 735.5C365.203 732.854 363.313 730.748 360.649 730.748C357.823 730.748 355.897 732.818 355.897 735.5C355.897 738.182 357.805 740.252 360.829 740.252C362.557 740.252 363.907 739.55 364.753 738.326L362.881 737.246C362.485 737.768 361.765 738.146 360.865 738.146C359.641 738.146 358.651 737.642 358.327 736.454ZM358.291 734.654C358.561 733.502 359.407 732.836 360.649 732.836C361.621 732.836 362.593 733.358 362.881 734.654H358.291ZM372.368 730.748C371.162 730.748 370.226 731.198 369.686 732.008V731H367.364V740H369.686V735.14C369.686 733.574 370.532 732.908 371.666 732.908C372.71 732.908 373.448 733.538 373.448 734.762V740H375.77V734.474C375.77 732.08 374.276 730.748 372.368 730.748ZM382.577 740.252C384.341 740.252 385.871 739.316 386.645 737.912L384.629 736.76C384.269 737.498 383.495 737.948 382.559 737.948C381.173 737.948 380.147 736.922 380.147 735.5C380.147 734.06 381.173 733.034 382.559 733.034C383.477 733.034 384.251 733.502 384.611 734.24L386.609 733.07C385.871 731.684 384.341 730.748 382.577 730.748C379.841 730.748 377.825 732.818 377.825 735.5C377.825 738.182 379.841 740.252 382.577 740.252ZM389.565 729.92C390.357 729.92 391.005 729.272 391.005 728.498C391.005 727.724 390.357 727.058 389.565 727.058C388.791 727.058 388.143 727.724 388.143 728.498C388.143 729.272 388.791 729.92 389.565 729.92ZM388.413 740H390.735V731H388.413V740ZM395.362 736.454H402.148C402.202 736.148 402.238 735.842 402.238 735.5C402.238 732.854 400.348 730.748 397.684 730.748C394.858 730.748 392.932 732.818 392.932 735.5C392.932 738.182 394.84 740.252 397.864 740.252C399.592 740.252 400.942 739.55 401.788 738.326L399.916 737.246C399.52 737.768 398.8 738.146 397.9 738.146C396.676 738.146 395.686 737.642 395.362 736.454ZM395.326 734.654C395.596 733.502 396.442 732.836 397.684 732.836C398.656 732.836 399.628 733.358 399.916 734.654H395.326ZM406.19 733.556C406.19 733.07 406.658 732.818 407.234 732.818C407.9 732.818 408.404 733.16 408.674 733.736L410.654 732.656C409.952 731.414 408.692 730.748 407.234 730.748C405.38 730.748 403.814 731.774 403.814 733.61C403.814 736.778 408.458 736.058 408.458 737.372C408.458 737.894 407.954 738.146 407.216 738.146C406.316 738.146 405.704 737.714 405.452 736.976L403.436 738.11C404.084 739.496 405.416 740.252 407.216 740.252C409.142 740.252 410.834 739.316 410.834 737.372C410.834 734.06 406.19 734.888 406.19 733.556Z" fill="#DB6D4A"/>
<path d="M120.707 519.707C121.098 519.317 121.098 518.683 120.707 518.293L114.343 511.929C113.953 511.538 113.319 511.538 112.929 511.929C112.538 512.319 112.538 512.953 112.929 513.343L118.586 519L112.929 524.657C112.538 525.047 112.538 525.681 112.929 526.071C113.319 526.462 113.953 526.462 114.343 526.071L120.707 519.707ZM69 519V518H68V519H69ZM69 815H68V816H69V815ZM221 815L211 809.226V820.774L221 815ZM120 518H69V520H120V518ZM68 519V815H70V519H68ZM69 816H212V814H69V816Z" fill="#2F2F31"/>
<path d="M550.052 821.666C549.986 821.474 549.867 821.305 549.709 821.178C549.551 821.05 549.36 820.97 549.158 820.947C548.92 820.918 548.678 820.932 548.445 820.987C548.084 821.066 547.716 821.115 547.346 821.131C548.335 819.464 549.09 817.668 549.59 815.795C550.335 812.913 549.937 811.601 549.472 811.006C548.855 810.225 548.065 809.598 547.164 809.174C546.264 808.75 545.277 808.541 544.282 808.562C543.369 808.554 542.459 808.681 541.584 808.941C541.063 808.851 540.535 808.803 540.006 808.797C539.044 808.76 538.092 808.995 537.257 809.474C536.625 809.26 535.976 809.097 535.317 808.987C534.549 808.802 533.752 808.771 532.972 808.895C532.192 809.019 531.444 809.295 530.771 809.709C529.416 810.665 528.788 812.327 528.904 814.65C529.113 816.383 529.48 818.093 530.003 819.758C530.304 820.798 530.699 821.808 531.186 822.776C531.544 823.658 532.227 824.371 533.093 824.767C533.411 824.872 533.751 824.89 534.078 824.819C534.404 824.748 534.706 824.591 534.952 824.364C535.063 824.496 535.195 824.609 535.343 824.7C535.571 824.842 535.82 824.947 536.08 825.012C536.933 825.25 537.84 825.195 538.658 824.856C538.663 824.99 538.667 825.118 538.669 825.229C538.674 825.408 538.679 825.584 538.686 825.748C538.676 826.62 538.792 827.488 539.03 828.327C539.043 828.36 539.059 828.41 539.076 828.464C539.213 828.977 539.48 829.447 539.85 829.827C540.294 830.235 540.881 830.453 541.483 830.434C541.74 830.433 541.996 830.404 542.246 830.349C542.722 830.289 543.18 830.135 543.595 829.895C544.01 829.656 544.372 829.335 544.661 828.953C545.295 828.051 545.604 826.692 545.659 824.551C545.666 824.49 545.673 824.432 545.679 824.377L545.693 824.264L545.842 824.277H545.88C546.725 824.313 547.568 824.167 548.351 823.849C548.844 823.62 550.425 822.786 550.052 821.662" fill="black"/>
<path d="M548.632 821.885C546.161 822.395 545.992 821.559 545.992 821.559C548.6 817.687 549.691 812.773 548.749 811.571C546.182 808.29 541.738 809.842 541.663 809.882L541.639 809.887C541.096 809.778 540.544 809.72 539.991 809.715C539.057 809.668 538.136 809.944 537.381 810.496C537.381 810.496 529.453 807.23 529.822 814.604C529.9 816.173 532.07 826.474 534.659 823.362C535.605 822.225 536.519 821.262 536.519 821.262C536.979 821.573 537.533 821.715 538.086 821.662L538.131 821.625C538.118 821.773 538.124 821.922 538.149 822.068C537.481 822.813 537.68 822.944 536.345 823.218C534.996 823.496 535.788 823.991 536.306 824.12C536.855 824.298 537.447 824.298 537.996 824.119C538.545 823.941 539.024 823.593 539.364 823.127L539.325 823.283C539.586 823.492 539.77 824.644 539.739 825.688C539.654 826.465 539.707 827.251 539.895 828.009C540.102 828.57 540.306 829.829 542.059 829.454C542.682 829.392 543.261 829.107 543.69 828.65C544.118 828.193 544.366 827.596 544.387 826.97C544.465 826.006 544.631 826.148 544.642 825.287L544.778 824.879C544.934 823.572 544.803 823.15 545.704 823.346L545.924 823.366C546.621 823.395 547.317 823.278 547.967 823.022C549.065 822.512 549.716 821.661 548.633 821.885" fill="#336791"/>
<path d="M537.845 815.305C537.666 815.268 537.479 815.295 537.318 815.384C537.297 815.399 537.28 815.418 537.266 815.44C537.253 815.462 537.244 815.486 537.24 815.512C537.24 815.602 537.273 815.689 537.332 815.757C537.436 815.901 537.593 815.999 537.768 816.03C537.792 816.033 537.815 816.034 537.839 816.034C537.955 816.036 538.068 816.002 538.164 815.936C538.26 815.871 538.334 815.778 538.375 815.669C538.403 815.476 538.121 815.346 537.847 815.308L537.845 815.305ZM545.224 815.314C545.203 815.162 544.932 815.119 544.677 815.158C544.422 815.197 544.171 815.309 544.193 815.462C544.232 815.557 544.3 815.639 544.386 815.696C544.472 815.753 544.573 815.783 544.677 815.783C544.699 815.783 544.72 815.781 544.742 815.778C544.877 815.754 545.001 815.686 545.094 815.585C545.172 815.517 545.219 815.42 545.226 815.317" fill="white"/>
<path d="M549.454 821.827C549.36 821.542 549.057 821.451 548.553 821.555C547.057 821.867 546.522 821.649 546.345 821.52C547.53 819.702 548.419 817.707 548.98 815.61C549.207 814.781 549.338 813.928 549.371 813.069C549.431 812.468 549.291 811.864 548.973 811.35C548.41 810.641 547.69 810.073 546.87 809.69C546.05 809.307 545.152 809.12 544.247 809.143C543.318 809.128 542.393 809.274 541.513 809.573C541.01 809.449 540.494 809.383 539.975 809.376C539.043 809.335 538.121 809.589 537.341 810.102C536.647 809.848 535.93 809.66 535.2 809.541C533.806 809.203 532.334 809.429 531.105 810.17C529.933 811.001 529.386 812.487 529.495 814.586C529.7 816.268 530.059 817.928 530.568 819.545C531.404 822.284 532.312 823.834 533.268 824.155C533.392 824.196 533.522 824.218 533.652 824.218C533.895 824.203 534.131 824.133 534.342 824.013C534.554 823.893 534.736 823.726 534.873 823.526C535.416 822.875 535.977 822.24 536.557 821.621C536.929 821.823 537.344 821.934 537.768 821.947V821.98C537.695 822.066 537.624 822.154 537.554 822.244C537.261 822.615 537.201 822.692 536.259 822.887C535.991 822.942 535.279 823.089 535.269 823.59C535.258 824.137 536.111 824.364 536.207 824.388C536.526 824.47 536.853 824.513 537.182 824.515C537.902 824.528 538.601 824.267 539.136 823.785C539.056 825.272 539.156 826.763 539.433 828.226C539.562 828.694 539.839 829.108 540.224 829.404C540.609 829.7 541.08 829.862 541.565 829.866C541.806 829.866 542.046 829.84 542.282 829.788C542.924 829.733 543.526 829.449 543.978 828.989C544.43 828.529 544.703 827.923 544.747 827.279C544.886 826.477 545.123 824.564 545.235 823.538C545.517 823.615 545.809 823.651 546.102 823.645C546.776 823.649 547.445 823.522 548.07 823.27C548.626 823.011 549.632 822.378 549.447 821.827H549.454ZM545.79 814.891C545.78 815.181 545.75 815.47 545.7 815.756C545.642 816.091 545.605 816.431 545.59 816.771C545.588 817.155 545.614 817.539 545.668 817.92C545.837 818.698 545.775 819.509 545.489 820.252C545.429 820.145 545.375 820.034 545.328 819.92C545.282 819.809 545.183 819.632 545.047 819.388C544.516 818.434 543.271 816.202 543.908 815.291C544.098 815.02 544.58 814.744 545.789 814.891H545.79ZM544.324 809.759C545.124 809.742 545.916 809.912 546.639 810.254C547.362 810.596 547.996 811.101 548.491 811.729C549.253 812.702 548.413 817.129 545.987 820.948L545.914 820.855L545.883 820.816C546.365 819.906 546.505 818.853 546.279 817.848C546.226 817.498 546.2 817.145 546.2 816.791C546.215 816.476 546.249 816.161 546.303 815.849C546.373 815.465 546.405 815.074 546.399 814.683C546.412 814.629 546.415 814.574 546.409 814.519C546.15 813.473 545.637 812.507 544.915 811.706C544.267 810.942 543.456 810.332 542.541 809.922C543.127 809.8 543.724 809.744 544.322 809.755L544.324 809.759ZM534.406 823.136C533.916 823.725 533.577 823.613 533.468 823.575C532.743 823.333 531.901 821.8 531.16 819.369C530.668 817.799 530.317 816.189 530.113 814.557C530.019 812.682 530.474 811.374 531.464 810.671C533.076 809.528 535.727 810.213 536.792 810.559C536.776 810.574 536.761 810.588 536.746 810.604C534.998 812.369 535.039 815.384 535.044 815.569C535.044 815.64 535.05 815.741 535.058 815.881C535.122 816.721 535.101 817.566 534.995 818.402C534.922 818.88 534.96 819.369 535.104 819.831C535.249 820.293 535.496 820.716 535.829 821.068C535.898 821.14 535.97 821.208 536.046 821.273C535.747 821.593 535.096 822.302 534.405 823.136H534.406ZM536.273 820.644C536.004 820.359 535.803 820.016 535.686 819.642C535.569 819.268 535.538 818.872 535.597 818.484C535.709 817.609 535.732 816.724 535.665 815.843C535.661 815.769 535.657 815.704 535.654 815.653C536.309 815.16 537.121 814.923 537.938 814.987C538.126 815.029 538.296 815.129 538.424 815.273C538.553 815.417 538.634 815.597 538.655 815.788C539.16 818.123 538.722 819.096 538.37 819.878C538.297 820.039 538.229 820.191 538.171 820.347L538.125 820.469C538.013 820.752 537.917 821.041 537.838 821.335C537.544 821.331 537.254 821.267 536.986 821.148C536.717 821.029 536.476 820.857 536.275 820.642L536.273 820.644ZM536.361 823.792C536.216 823.757 536.078 823.697 535.953 823.616C536.092 823.557 536.238 823.513 536.388 823.487C537.496 823.259 537.667 823.096 538.041 822.623C538.127 822.515 538.224 822.389 538.358 822.241C538.558 822.017 538.65 822.056 538.816 822.124C538.895 822.167 538.963 822.225 539.018 822.296C539.073 822.367 539.113 822.448 539.135 822.534C539.157 822.597 539.164 822.664 539.158 822.731C539.151 822.797 539.13 822.861 539.096 822.918C538.793 823.336 538.364 823.647 537.873 823.804C537.381 823.962 536.852 823.958 536.362 823.793L536.361 823.792ZM542.161 829.188C541.942 829.264 541.709 829.293 541.478 829.273C541.247 829.253 541.022 829.185 540.819 829.072C540.616 828.96 540.439 828.806 540.3 828.62C540.16 828.435 540.061 828.222 540.01 827.995C539.735 826.225 539.656 824.429 539.775 822.641C539.776 822.609 539.772 822.576 539.762 822.545C539.754 822.484 539.741 822.424 539.725 822.365C539.678 822.189 539.594 822.026 539.478 821.886C539.361 821.747 539.216 821.634 539.051 821.557C538.859 821.462 538.641 821.434 538.432 821.479C538.506 821.208 538.595 820.941 538.699 820.681L538.744 820.558C538.796 820.42 538.86 820.277 538.928 820.125C539.296 819.307 539.8 818.186 539.253 815.655C539.218 815.439 539.14 815.233 539.022 815.05C538.905 814.866 538.751 814.708 538.571 814.586C538.39 814.464 538.186 814.38 537.972 814.339C537.758 814.299 537.537 814.303 537.325 814.351C536.81 814.418 536.311 814.574 535.85 814.813C535.789 814.844 535.733 814.873 535.682 814.902C535.741 813.483 536.268 812.123 537.18 811.034C537.547 810.675 537.984 810.397 538.464 810.217C538.945 810.037 539.457 809.96 539.969 809.99C540.834 809.997 541.687 810.195 542.467 810.568C543.247 810.941 543.937 811.48 544.486 812.148C545.021 812.774 545.44 813.491 545.722 814.266C544.579 814.149 543.801 814.375 543.407 814.938C542.548 816.163 543.876 818.541 544.514 819.684C544.631 819.894 544.732 820.075 544.763 820.153C544.931 820.546 545.158 820.912 545.436 821.237C545.496 821.315 545.554 821.384 545.598 821.448C545.252 821.548 544.63 821.779 544.687 822.933C544.642 823.511 544.317 826.218 544.151 827.175C543.933 828.438 543.468 828.909 542.161 829.19L542.161 829.188ZM547.819 822.713C547.338 822.903 546.828 823.009 546.311 823.025C545.966 823.076 545.615 823.031 545.295 822.895C545.26 822.177 545.529 822.102 545.811 822.022C545.855 822.009 545.898 821.997 545.94 821.983C545.968 822.005 545.997 822.026 546.026 822.045C546.525 822.375 547.417 822.41 548.675 822.151H548.689C548.429 822.382 548.135 822.572 547.817 822.713L547.819 822.713Z" fill="white"/>
<path d="M314.06 823.526C312.779 824.194 306.144 826.922 304.731 827.658C303.319 828.394 302.534 828.387 301.418 827.854C300.303 827.32 293.242 824.468 291.97 823.86C291.334 823.557 291 823.3 291 823.058V820.632C291 820.632 300.192 818.631 301.676 818.099C303.16 817.566 303.675 817.547 304.938 818.01C306.201 818.472 313.752 819.835 315 820.292C315 820.292 314.999 822.458 314.999 822.683C315 822.923 314.712 823.186 314.06 823.526Z" fill="#912626"/>
<path d="M314.059 821.114C312.778 821.782 306.144 824.51 304.731 825.246C303.319 825.983 302.534 825.975 301.418 825.442C300.302 824.909 293.242 822.056 291.97 821.449C290.698 820.841 290.672 820.423 291.921 819.933C293.17 819.444 300.192 816.689 301.676 816.157C303.16 815.624 303.675 815.605 304.938 816.068C306.201 816.53 312.796 819.155 314.044 819.613C315.292 820.07 315.34 820.447 314.059 821.114Z" fill="#C6302B"/>
<path d="M314.06 819.601C312.779 820.268 306.144 822.996 304.731 823.733C303.319 824.469 302.534 824.462 301.418 823.929C300.302 823.395 293.242 820.543 291.97 819.935C291.334 819.631 291 819.375 291 819.133V816.707C291 816.707 300.192 814.706 301.676 814.173C303.16 813.641 303.675 813.622 304.938 814.084C306.201 814.547 313.752 815.909 315 816.366C315 816.366 314.999 818.533 314.999 818.758C315 818.998 314.712 819.261 314.06 819.601Z" fill="#912626"/>
<path d="M314.059 817.189C312.778 817.857 306.144 820.585 304.731 821.321C303.319 822.057 302.534 822.05 301.418 821.517C300.302 820.984 293.242 818.131 291.97 817.524C290.698 816.916 290.672 816.497 291.921 816.008C293.17 815.519 300.192 812.764 301.676 812.232C303.16 811.699 303.675 811.68 304.938 812.143C306.201 812.605 312.796 815.23 314.044 815.687C315.292 816.145 315.34 816.522 314.059 817.189V817.189Z" fill="#C6302B"/>
<path d="M314.06 815.53C312.779 816.198 306.144 818.926 304.731 819.662C303.319 820.399 302.534 820.391 301.418 819.858C300.302 819.325 293.242 816.472 291.97 815.865C291.334 815.561 291 815.304 291 815.062V812.636C291 812.636 300.192 810.635 301.676 810.103C303.16 809.57 303.675 809.551 304.938 810.014C306.201 810.476 313.752 811.839 315 812.296C315 812.296 314.999 814.462 314.999 814.688C315 814.927 314.712 815.19 314.06 815.53Z" fill="#912626"/>
<path d="M314.059 813.118C312.778 813.786 306.144 816.514 304.731 817.25C303.319 817.987 302.534 817.979 301.418 817.446C300.303 816.913 293.242 814.061 291.97 813.453C290.698 812.845 290.672 812.427 291.921 811.937C293.17 811.448 300.192 808.693 301.676 808.161C303.16 807.628 303.675 807.609 304.938 808.072C306.201 808.535 312.796 811.16 314.044 811.617C315.292 812.074 315.34 812.451 314.059 813.118Z" fill="#C6302B"/>
<path d="M305.932 810.758L303.869 810.973L303.407 812.084L302.661 810.844L300.278 810.63L302.056 809.989L301.523 809.004L303.187 809.655L304.756 809.142L304.332 810.159L305.932 810.758Z" fill="white"/>
<path d="M303.285 816.151L299.434 814.554L304.952 813.707L303.285 816.151Z" fill="white"/>
<path d="M297.945 811.376C299.574 811.376 300.895 811.888 300.895 812.519C300.895 813.151 299.574 813.663 297.945 813.663C296.317 813.663 294.996 813.151 294.996 812.519C294.996 811.888 296.317 811.376 297.945 811.376Z" fill="white"/>
<path d="M308.371 811.062L311.637 812.353L308.374 813.642L308.371 811.062Z" fill="#621B1C"/>
<path d="M304.758 812.491L308.371 811.062L308.374 813.642L308.019 813.781L304.758 812.491Z" fill="#9A2928"/>
<path d="M765.687 810.156L764.09 810.955V824.969L765.687 825.763L765.696 825.752V810.167L765.687 810.156Z" fill="#8C3123"/>
<path d="M774.233 823.729L765.688 825.763V810.156L774.233 812.146V823.729Z" fill="#E05243"/>
<path d="M770.375 820.545L774 821.006L774.022 820.953L774.043 815.01L774 814.964L770.375 815.418V820.545" fill="#8C3123"/>
<path d="M774 823.752L782.313 825.768L782.326 825.747L782.325 810.17L782.312 810.156L774 812.169V823.752" fill="#8C3123"/>
<path d="M777.626 820.545L774 821.006V814.964L777.626 815.418V820.545Z" fill="#E05243"/>
<path d="M777.625 812.939L774 813.6L770.375 812.939L773.995 811.99L777.625 812.939Z" fill="#5E1F18"/>
<path d="M777.625 823.017L774 822.352L770.375 823.017L773.995 824.027L777.625 823.017Z" fill="#F2B0A9"/>
<path d="M770.375 812.939L774 812.042L774.029 812.033V806.024L774 806L770.375 807.813V812.939Z" fill="#8C3123"/>
<path d="M777.626 812.939L774 812.042V806L777.626 807.813V812.939Z" fill="#E05243"/>
<path d="M774 829.956L770.375 828.144V823.017L774 823.914L774.053 823.975L774.039 829.851L774 829.956Z" fill="#8C3123"/>
<path d="M774 829.956L777.625 828.144V823.017L774 823.914V829.956V829.956ZM782.313 810.156L783.91 810.955V824.969L782.313 825.768V810.156Z" fill="#E05243"/>
<path d="M420 415.5V407H437V424H420" fill="#007ACC"/>
<path d="M423.728 415.53V416.222H425.938V422.512H427.506V416.222H429.716V415.542C429.716 415.16 429.716 414.85 429.699 414.841C429.699 414.828 428.352 414.824 426.715 414.824L423.74 414.837V415.534L423.728 415.53V415.53ZM433.66 414.82C434.093 414.922 434.425 415.117 434.722 415.428C434.88 415.598 435.113 415.895 435.13 415.972C435.13 415.997 434.395 416.494 433.949 416.771C433.932 416.783 433.864 416.711 433.796 416.601C433.575 416.286 433.35 416.15 432.997 416.125C432.487 416.091 432.147 416.358 432.147 416.805C432.147 416.941 432.172 417.017 432.223 417.128C432.338 417.361 432.551 417.502 433.209 417.791C434.425 418.313 434.952 418.658 435.271 419.151C435.632 419.703 435.713 420.57 435.47 421.22C435.198 421.93 434.535 422.41 433.588 422.568C433.29 422.619 432.61 422.61 432.291 422.555C431.611 422.427 430.961 422.087 430.562 421.65C430.404 421.48 430.103 421.025 430.12 420.995L430.281 420.893L430.919 420.523L431.399 420.243L431.509 420.392C431.65 420.613 431.964 420.91 432.147 421.012C432.699 421.297 433.439 421.259 433.804 420.927C433.962 420.783 434.03 420.63 434.03 420.417C434.03 420.222 434 420.132 433.902 419.984C433.766 419.797 433.494 419.644 432.729 419.304C431.849 418.93 431.475 418.692 431.127 418.326C430.927 418.105 430.744 417.761 430.659 417.476C430.596 417.23 430.574 416.626 430.634 416.384C430.817 415.534 431.458 414.939 432.376 414.769C432.674 414.709 433.375 414.735 433.668 414.811L433.66 414.82V414.82Z" fill="white"/>
<path d="M312.5 445L306.726 455H318.274L312.5 445ZM312.5 475.5L318.274 465.5H306.726L312.5 475.5ZM311.5 454V466.5H313.5V454H311.5Z" fill="#2F2F31"/>
<path d="M841 159L838.113 164H843.887L841 159ZM841 183L843.887 178H838.113L841 183ZM840.5 163.5V178.5H841.5V163.5H840.5Z" fill="#2F2F31"/>
<path d="M454 128L464 133.774V122.226L454 128ZM657 128L647 122.226V133.774L657 128ZM463 129H648V127L463 127V129Z" fill="#2F2F31"/>
<path d="M403.707 423.698C403.503 423.698 403.303 423.646 403.126 423.547L401.276 422.483C401 422.333 401.135 422.28 401.226 422.249C401.52 422.161 401.801 422.037 402.063 421.881C402.085 421.871 402.109 421.867 402.133 421.869C402.157 421.871 402.18 421.878 402.201 421.891L403.622 422.712C403.649 422.725 403.678 422.733 403.708 422.733C403.738 422.733 403.767 422.725 403.794 422.712L409.337 419.603C409.363 419.588 409.385 419.567 409.399 419.541C409.414 419.515 409.422 419.487 409.422 419.457V413.239C409.422 413.209 409.414 413.18 409.399 413.153C409.384 413.127 409.362 413.106 409.336 413.09L403.793 409.984C403.767 409.97 403.737 409.962 403.707 409.962C403.677 409.962 403.648 409.97 403.622 409.984L398.082 413.091C398.055 413.106 398.033 413.128 398.018 413.154C398.003 413.18 397.994 413.209 397.994 413.239V419.455C397.994 419.484 398.002 419.513 398.018 419.538C398.033 419.563 398.055 419.584 398.081 419.598L399.601 420.451C400.425 420.851 400.93 420.379 400.93 419.906V413.769C400.93 413.727 400.947 413.687 400.977 413.658C401.008 413.628 401.049 413.611 401.092 413.611H401.794C401.837 413.611 401.879 413.628 401.909 413.658C401.939 413.687 401.956 413.727 401.956 413.769V419.907C401.956 420.975 401.358 421.586 400.315 421.586C399.865 421.594 399.422 421.477 399.038 421.249L397.581 420.437C397.404 420.337 397.258 420.194 397.156 420.021C397.054 419.849 397 419.653 397 419.455V413.239C396.999 413.04 397.053 412.844 397.155 412.671C397.257 412.498 397.404 412.354 397.581 412.254L403.125 409.145C403.304 409.05 403.504 409 403.707 409C403.911 409 404.111 409.05 404.29 409.145L409.833 412.254C410.01 412.354 410.157 412.498 410.259 412.67C410.361 412.842 410.415 413.037 410.415 413.236V419.455C410.415 419.653 410.361 419.849 410.259 420.021C410.157 420.194 410.01 420.337 409.833 420.437L404.29 423.547C404.113 423.646 403.912 423.698 403.707 423.698V423.698Z" fill="#83CD29"/>
<path d="M402.656 417.374C402.656 417.332 402.673 417.292 402.704 417.263C402.734 417.233 402.775 417.217 402.818 417.217H403.535C403.574 417.217 403.611 417.23 403.64 417.254C403.669 417.278 403.688 417.312 403.695 417.348C403.803 418.058 404.127 418.415 405.593 418.415C406.76 418.415 407.258 418.158 407.258 417.556C407.258 417.209 407.117 416.952 405.302 416.779C403.785 416.633 402.847 416.306 402.847 415.128C402.847 414.042 403.79 413.394 405.37 413.394C407.146 413.394 408.025 413.993 408.136 415.278C408.138 415.299 408.135 415.321 408.128 415.341C408.121 415.361 408.109 415.38 408.094 415.396C408.079 415.412 408.061 415.424 408.041 415.433C408.021 415.442 407.999 415.447 407.977 415.447H407.255C407.219 415.447 407.184 415.434 407.156 415.412C407.127 415.39 407.108 415.36 407.099 415.325C406.927 414.579 406.505 414.341 405.371 414.341C404.096 414.341 403.948 414.773 403.948 415.096C403.948 415.488 404.123 415.602 405.844 415.823C407.547 416.042 408.357 416.352 408.357 417.515C408.357 418.689 407.35 419.361 405.593 419.361C403.165 419.364 402.656 418.282 402.656 417.374Z" fill="#83CD29"/>
<path d="M985 129L995 134.774V123.226L985 129ZM1076 129H1077V128H1076V129ZM1076 432V433H1077V432H1076ZM1026.5 432L1036.5 437.774V426.226L1026.5 432ZM994 130H1076V128H994V130ZM1075 129V432H1077V129H1075ZM1076 431H1035.5V433H1076V431Z" fill="#2F2F31"/>
<path d="M444.282 43.496V47.9265H440.645V43.496H438V55.0682H440.645V50.4723H444.282V55.0682H446.927V43.496H444.282Z" fill="#F3F3F3" fill-opacity="0.96"/>
<path d="M450.567 46.0749C451.377 46.0749 452.055 45.3971 452.055 44.587C452.055 43.777 451.377 43.0992 450.567 43.0992C449.757 43.0992 449.079 43.777 449.079 44.587C449.079 45.3971 449.757 46.0749 450.567 46.0749ZM449.327 55.0682H451.807V46.8023H449.327V55.0682Z" fill="#F3F3F3" fill-opacity="0.96"/>
<path d="M460.184 46.8023V47.6454C459.639 46.9676 458.845 46.5709 457.771 46.5709C455.423 46.5709 453.704 48.4885 453.704 50.7699C453.704 53.0513 455.423 54.969 457.771 54.969C458.845 54.969 459.639 54.5722 460.184 53.8944V54.6549C460.184 55.8286 459.473 56.4238 458.316 56.4238C457.225 56.4238 456.746 55.9609 456.432 55.3823L454.316 56.6056C455.076 57.9612 456.514 58.606 458.234 58.606C460.432 58.606 462.598 57.4322 462.598 54.6549V46.8023H460.184ZM458.184 52.6876C457.01 52.6876 456.184 51.9106 456.184 50.7699C456.184 49.6292 457.01 48.8522 458.184 48.8522C459.358 48.8522 460.184 49.6292 460.184 50.7699C460.184 51.9106 459.358 52.6876 458.184 52.6876Z" fill="#F3F3F3" fill-opacity="0.96"/>
<path d="M469.757 46.5709C468.666 46.5709 467.839 46.9676 467.393 47.5793V43.496H464.913V55.0682H467.393V50.555C467.393 49.3812 468.021 48.8522 468.93 48.8522C469.724 48.8522 470.369 49.3317 470.369 50.3566V55.0682H472.848V49.9929C472.848 47.7611 471.427 46.5709 469.757 46.5709Z" fill="#F3F3F3" fill-opacity="0.96"/>
<path d="M479.676 55.0682H482.156V43H479.676V55.0682Z" fill="#F3F3F3" fill-opacity="0.96"/>
<path d="M486.682 51.9271H492.55C492.617 51.613 492.65 51.2824 492.65 50.9352C492.65 48.4389 490.864 46.5709 488.451 46.5709C485.839 46.5709 484.053 48.472 484.053 50.9352C484.053 53.3985 485.805 55.2996 488.632 55.2996C490.203 55.2996 491.426 54.721 492.236 53.5968L490.253 52.4562C489.922 52.8198 489.343 53.0844 488.665 53.0844C487.756 53.0844 486.996 52.7868 486.682 51.9271ZM486.632 50.0756C486.864 49.2325 487.492 48.7696 488.434 48.7696C489.178 48.7696 489.922 49.1167 490.186 50.0756H486.632Z" fill="#F3F3F3" fill-opacity="0.96"/>
<path d="M499.503 46.8023L497.784 52.0429L496.064 46.8023H493.32L496.378 55.0682H499.189L502.247 46.8023H499.503Z" fill="#F3F3F3" fill-opacity="0.96"/>
<path d="M505.545 51.9271H511.414C511.48 51.613 511.513 51.2824 511.513 50.9352C511.513 48.4389 509.728 46.5709 507.314 46.5709C504.702 46.5709 502.917 48.472 502.917 50.9352C502.917 53.3985 504.669 55.2996 507.496 55.2996C509.067 55.2996 510.29 54.721 511.1 53.5968L509.116 52.4562C508.785 52.8198 508.207 53.0844 507.529 53.0844C506.62 53.0844 505.859 52.7868 505.545 51.9271ZM505.496 50.0756C505.727 49.2325 506.355 48.7696 507.298 48.7696C508.042 48.7696 508.785 49.1167 509.05 50.0756H505.496Z" fill="#F3F3F3" fill-opacity="0.96"/>
<path d="M513.416 55.0682H515.895V43H513.416V55.0682Z" fill="#F3F3F3" fill-opacity="0.96"/>
<path d="M528.836 46.8023V47.5793C528.29 46.9511 527.48 46.5709 526.373 46.5709C524.207 46.5709 522.422 48.472 522.422 50.9352C522.422 53.3985 524.207 55.2996 526.373 55.2996C527.48 55.2996 528.29 54.9194 528.836 54.2912V55.0682H531.316V46.8023H528.836ZM526.869 52.9521C525.728 52.9521 524.901 52.1751 524.901 50.9352C524.901 49.6954 525.728 48.9184 526.869 48.9184C528.009 48.9184 528.836 49.6954 528.836 50.9352C528.836 52.1751 528.009 52.9521 526.869 52.9521Z" fill="#F3F3F3" fill-opacity="0.96"/>
<path d="M536.111 48.2736V46.8023H533.631V55.0682H536.111V51.332C536.111 49.6954 537.565 49.2821 538.59 49.4474V46.637C537.549 46.637 536.441 47.166 536.111 48.2736Z" fill="#F3F3F3" fill-opacity="0.96"/>
<path d="M543.971 55.2996C545.591 55.2996 546.996 54.4565 547.707 53.167L545.541 51.9271C545.277 52.5057 544.665 52.8529 543.938 52.8529C542.863 52.8529 542.07 52.0759 542.07 50.9352C542.07 49.7945 542.863 49.0175 543.938 49.0175C544.665 49.0175 545.26 49.3647 545.541 49.9433L547.707 48.6869C546.996 47.414 545.575 46.5709 543.971 46.5709C541.458 46.5709 539.59 48.472 539.59 50.9352C539.59 53.3985 541.458 55.2996 543.971 55.2996Z" fill="#F3F3F3" fill-opacity="0.96"/>
<path d="M554.045 46.5709C552.954 46.5709 552.127 46.9676 551.681 47.5793V43.496H549.201V55.0682H551.681V50.555C551.681 49.3812 552.309 48.8522 553.218 48.8522C554.012 48.8522 554.657 49.3317 554.657 50.3566V55.0682H557.136V49.9929C557.136 47.7611 555.715 46.5709 554.045 46.5709Z" fill="#F3F3F3" fill-opacity="0.96"/>
<path d="M560.575 46.0749C561.385 46.0749 562.063 45.3971 562.063 44.587C562.063 43.777 561.385 43.0992 560.575 43.0992C559.765 43.0992 559.087 43.777 559.087 44.587C559.087 45.3971 559.765 46.0749 560.575 46.0749ZM559.335 55.0682H561.815V46.8023H559.335V55.0682Z" fill="#F3F3F3" fill-opacity="0.96"/>
<path d="M568.969 49.1829V46.8023H567.266V44.4879L564.787 45.2318V46.8023H563.464V49.1829H564.787V52.109C564.787 54.4234 565.729 55.3988 568.969 55.0682V52.8198C567.878 52.886 567.266 52.8198 567.266 52.109V49.1829H568.969Z" fill="#F3F3F3" fill-opacity="0.96"/>
<path d="M572.923 51.9271H578.792C578.858 51.613 578.891 51.2824 578.891 50.9352C578.891 48.4389 577.106 46.5709 574.692 46.5709C572.08 46.5709 570.295 48.472 570.295 50.9352C570.295 53.3985 572.047 55.2996 574.874 55.2996C576.444 55.2996 577.668 54.721 578.478 53.5968L576.494 52.4562C576.163 52.8198 575.585 53.0844 574.907 53.0844C573.998 53.0844 573.237 52.7868 572.923 51.9271ZM572.873 50.0756C573.105 49.2325 573.733 48.7696 574.675 48.7696C575.419 48.7696 576.163 49.1167 576.428 50.0756H572.873Z" fill="#F3F3F3" fill-opacity="0.96"/>
<path d="M584.68 55.2996C586.3 55.2996 587.706 54.4565 588.417 53.167L586.251 51.9271C585.986 52.5057 585.375 52.8529 584.647 52.8529C583.573 52.8529 582.779 52.0759 582.779 50.9352C582.779 49.7945 583.573 49.0175 584.647 49.0175C585.375 49.0175 585.97 49.3647 586.251 49.9433L588.417 48.6869C587.706 47.414 586.284 46.5709 584.68 46.5709C582.168 46.5709 580.299 48.472 580.299 50.9352C580.299 53.3985 582.168 55.2996 584.68 55.2996Z" fill="#F3F3F3" fill-opacity="0.96"/>
<path d="M594.754 49.1829V46.8023H593.051V44.4879L590.572 45.2318V46.8023H589.249V49.1829H590.572V52.109C590.572 54.4234 591.514 55.3988 594.754 55.0682V52.8198C593.663 52.886 593.051 52.8198 593.051 52.109V49.1829H594.754Z" fill="#F3F3F3" fill-opacity="0.96"/>
<path d="M602.155 46.8023V51.3155C602.155 52.4892 601.527 53.0182 600.618 53.0182C599.824 53.0182 599.18 52.5388 599.18 51.5138V46.8023H596.7V51.8775C596.7 54.1093 598.122 55.2996 599.791 55.2996C600.882 55.2996 601.709 54.9028 602.155 54.2912V55.0682H604.635V46.8023H602.155Z" fill="#F3F3F3" fill-opacity="0.96"/>
<path d="M609.429 48.2736V46.8023H606.95V55.0682H609.429V51.332C609.429 49.6954 610.884 49.2821 611.909 49.4474V46.637C610.868 46.637 609.76 47.166 609.429 48.2736Z" fill="#F3F3F3" fill-opacity="0.96"/>
<path d="M615.537 51.9271H621.406C621.472 51.613 621.505 51.2824 621.505 50.9352C621.505 48.4389 619.72 46.5709 617.306 46.5709C614.694 46.5709 612.909 48.472 612.909 50.9352C612.909 53.3985 614.661 55.2996 617.488 55.2996C619.059 55.2996 620.282 54.721 621.092 53.5968L619.108 52.4562C618.778 52.8198 618.199 53.0844 617.521 53.0844C616.612 53.0844 615.852 52.7868 615.537 51.9271ZM615.488 50.0756C615.719 49.2325 616.347 48.7696 617.29 48.7696C618.034 48.7696 618.778 49.1167 619.042 50.0756H615.488Z" fill="#F3F3F3" fill-opacity="0.96"/>
<path d="M632.004 55.2996C634.434 55.2996 636.385 53.3985 636.385 50.9352C636.385 48.472 634.434 46.5709 632.004 46.5709C629.574 46.5709 627.623 48.472 627.623 50.9352C627.623 53.3985 629.574 55.2996 632.004 55.2996ZM632.004 52.886C630.93 52.886 630.103 52.109 630.103 50.9352C630.103 49.7615 630.93 48.9845 632.004 48.9845C633.079 48.9845 633.905 49.7615 633.905 50.9352C633.905 52.109 633.079 52.886 632.004 52.886Z" fill="#F3F3F3" fill-opacity="0.96"/>
<path d="M642.588 45.6451V43.2645C639.844 43.0992 638.571 44.4879 638.571 46.8023H637.463V49.1829H638.571V55.0682H641.05V49.1829H642.588V46.8023H641.05C641.05 45.8435 641.662 45.5624 642.588 45.6451Z" fill="#F3F3F3" fill-opacity="0.96"/>
<path d="M652.591 55.2996C654.211 55.2996 655.616 54.4565 656.327 53.167L654.161 51.9271C653.897 52.5057 653.285 52.8529 652.558 52.8529C651.483 52.8529 650.69 52.0759 650.69 50.9352C650.69 49.7945 651.483 49.0175 652.558 49.0175C653.285 49.0175 653.88 49.3647 654.161 49.9433L656.327 48.6869C655.616 47.414 654.194 46.5709 652.591 46.5709C650.078 46.5709 648.21 48.472 648.21 50.9352C648.21 53.3985 650.078 55.2996 652.591 55.2996Z" fill="#F3F3F3" fill-opacity="0.96"/>
<path d="M660.381 48.2736V46.8023H657.902V55.0682H660.381V51.332C660.381 49.6954 661.836 49.2821 662.861 49.4474V46.637C661.82 46.637 660.712 47.166 660.381 48.2736Z" fill="#F3F3F3" fill-opacity="0.96"/>
<path d="M669.856 46.8023V51.3155C669.856 52.4892 669.228 53.0182 668.319 53.0182C667.525 53.0182 666.88 52.5388 666.88 51.5138V46.8023H664.401V51.8775C664.401 54.1093 665.822 55.2996 667.492 55.2996C668.583 55.2996 669.41 54.9028 669.856 54.2912V55.0682H672.336V46.8023H669.856Z" fill="#F3F3F3" fill-opacity="0.96"/>
<path d="M676.917 49.2159C676.917 48.9184 677.182 48.753 677.611 48.753C678.157 48.753 678.488 49.0506 678.719 49.4804L680.835 48.3397C680.141 47.166 678.951 46.5709 677.611 46.5709C675.892 46.5709 674.371 47.4801 674.371 49.2821C674.371 52.142 678.438 51.6626 678.438 52.5719C678.438 52.9025 678.141 53.0844 677.545 53.0844C676.818 53.0844 676.355 52.7372 676.14 52.109L673.991 53.3323C674.636 54.6714 675.892 55.2996 677.545 55.2996C679.331 55.2996 680.984 54.4896 680.984 52.5884C680.984 49.53 676.917 50.1582 676.917 49.2159Z" fill="#F3F3F3" fill-opacity="0.96"/>
<path d="M687.562 46.5709C686.471 46.5709 685.644 46.9676 685.198 47.5793V43.496H682.718V55.0682H685.198V50.555C685.198 49.3812 685.826 48.8522 686.735 48.8522C687.529 48.8522 688.173 49.3317 688.173 50.3566V55.0682H690.653V49.9929C690.653 47.7611 689.231 46.5709 687.562 46.5709Z" fill="#F3F3F3" fill-opacity="0.96"/>
<path d="M695.067 51.9271H700.936C701.002 51.613 701.035 51.2824 701.035 50.9352C701.035 48.4389 699.25 46.5709 696.836 46.5709C694.224 46.5709 692.439 48.472 692.439 50.9352C692.439 53.3985 694.191 55.2996 697.018 55.2996C698.589 55.2996 699.812 54.721 700.622 53.5968L698.638 52.4562C698.308 52.8198 697.729 53.0844 697.051 53.0844C696.142 53.0844 695.381 52.7868 695.067 51.9271ZM695.018 50.0756C695.249 49.2325 695.877 48.7696 696.82 48.7696C697.564 48.7696 698.308 49.1167 698.572 50.0756H695.018Z" fill="#F3F3F3" fill-opacity="0.96"/>
<path d="M705.417 48.2736V46.8023H702.938V55.0682H705.417V51.332C705.417 49.6954 706.872 49.2821 707.897 49.4474V46.637C706.856 46.637 705.748 47.166 705.417 48.2736Z" fill="#F3F3F3" fill-opacity="0.96"/>
</g>
<defs>
<clipPath id="clip0_4075_2059">
<rect width="1145" height="968" fill="white"/>
</clipPath>
</defs>
</svg>
