<svg width="63" height="22" viewBox="0 0 63 22" fill="none" xmlns="http://www.w3.org/2000/svg">
<rect y="0.987015" width="20" height="20.1299" rx="5" fill="url(#paint0_linear_6826_8829)"/>
<path d="M3.68954 7.52794C3.3297 7.47967 3.00977 7.75955 3.00977 8.12262V12.418C3.00977 12.781 3.3297 13.0609 3.68954 13.0127L6.71397 12.6069C7.01185 12.567 7.2342 12.3128 7.2342 12.0123V8.52834C7.2342 8.2278 7.01185 7.97362 6.71397 7.93367L3.68954 7.52794Z" fill="white"/>
<path d="M12.269 15.0696H9.42539C9.20448 15.0696 9.02539 15.2486 9.02539 15.4696V20.698C9.02539 20.919 9.20448 21.098 9.42539 21.098H12.269C12.4899 21.098 12.669 20.919 12.669 20.698V15.4696C12.669 15.2486 12.4899 15.0696 12.269 15.0696Z" fill="white"/>
<path d="M17.4718 13.8406C17.3502 10.1003 14.9805 7.43675 12.0639 7.43675H9.57675C9.53379 7.43675 9.4911 7.44367 9.45034 7.45725L8.08414 7.91232C7.92076 7.96674 7.81055 8.11962 7.81055 8.29182V12.3632C7.81055 12.4742 7.85661 12.5801 7.93772 12.6558L8.84352 13.5006C8.96505 13.6139 9.0258 13.7272 9.0258 13.8972V15.5374C9.0258 15.7583 9.20489 15.9374 9.4258 15.9374H12.2715C12.4925 15.9374 12.6715 15.7583 12.6715 15.5374V13.7839C12.6715 13.7422 12.6715 13.6698 12.6958 13.6119C12.7127 13.5714 12.7429 13.5375 12.7636 13.4989L13.0969 12.8772C13.2184 12.6505 13.4007 12.5371 13.6437 12.5371C14.9805 12.5938 16.2565 13.0472 17.2287 13.9539C17.3583 14.0986 17.4718 14.0191 17.4718 13.8406Z" fill="white"/>
<path d="M35.065 4.75V9.775C34.48 8.995 33.46 8.53 32.365 8.53C30.31 8.53 28.75 10.21 28.75 12.355C28.75 14.5 30.31 16.165 32.365 16.165C33.505 16.165 34.57 15.67 35.125 14.845V16H36.22V4.75H35.065ZM35.08 12.355C35.08 14.2 33.85 15.1 32.53 15.1C31.045 15.1 29.935 13.915 29.935 12.34C29.935 10.765 31.045 9.595 32.53 9.595C33.85 9.595 35.08 10.495 35.08 12.355ZM38.5275 12.34C38.4975 14.395 40.2525 16.195 42.3375 16.15C44.4225 16.195 46.2225 14.395 46.1775 12.34C46.2225 10.255 44.4375 8.5 42.3525 8.53C40.2675 8.485 38.4825 10.255 38.5275 12.34ZM44.9925 12.355C44.9925 13.885 43.8225 15.085 42.3375 15.085C40.8525 15.085 39.7125 13.885 39.7125 12.355C39.7125 10.78 40.8525 9.595 42.3525 9.595C43.8375 9.595 44.9925 10.78 44.9925 12.355ZM47.9828 12.34C47.9828 14.455 49.6928 16.165 51.8078 16.165C53.0828 16.165 54.1478 15.55 54.8078 14.575L53.9828 13.93C53.3978 14.71 52.6778 15.1 51.8228 15.1C50.3078 15.1 49.1678 13.87 49.1678 12.34C49.1678 10.825 50.3078 9.595 51.8228 9.595C52.6778 9.595 53.4128 9.985 53.9978 10.78L54.8228 10.12C54.1628 9.145 53.0828 8.53 51.8078 8.53C49.7228 8.5 47.9378 10.255 47.9828 12.34ZM56.3795 14.74C57.0245 15.58 58.0145 16.165 59.2295 16.165C59.9495 16.165 60.5495 15.985 61.0445 15.61C61.5395 15.235 61.7945 14.695 61.7945 14.02C61.7945 13.015 61.2245 12.445 59.8595 11.86L59.1845 11.575C58.2995 11.2 57.9995 10.975 57.9995 10.51C57.9995 9.925 58.4945 9.595 59.2145 9.595C59.8895 9.595 60.5195 9.91 61.0145 10.405L61.7195 9.685C61.1195 8.965 60.2945 8.53 59.2745 8.53C57.8795 8.53 56.8145 9.295 56.8145 10.57C56.8145 11.545 57.4145 12.1 58.6295 12.595L59.3345 12.895C60.2345 13.255 60.6095 13.48 60.6095 14.065C60.6095 14.71 60.0095 15.1 59.2145 15.1C58.3895 15.1 57.8195 14.695 57.1145 13.975L56.3795 14.74Z" fill="#B9B9B9"/>
<defs>
<linearGradient id="paint0_linear_6826_8829" x1="10" y1="0.987015" x2="10" y2="21.1169" gradientUnits="userSpaceOnUse">
<stop stop-color="#A284FA"/>
<stop offset="1" stop-color="#711BFE"/>
</linearGradient>
</defs>
</svg>
