<svg width="9" height="13" viewBox="0 0 9 13" fill="none" xmlns="http://www.w3.org/2000/svg">
<path d="M4.23277 6.5042L8.29042 2.44637C8.49659 2.24041 8.59944 1.9885 8.59944 1.69067C8.59944 1.39288 8.49656 1.14108 8.29042 0.935145L7.66433 0.308849C7.45847 0.102969 7.20653 0 6.90883 0C6.61112 0 6.3593 0.102969 6.15313 0.308849L0.709386 5.74431C0.503389 5.95028 0.400391 6.20216 0.400391 6.50001C0.400391 6.79787 0.50336 7.04954 0.709386 7.2556L6.1531 12.6911C6.35927 12.897 6.61106 13 6.9088 13C7.20653 13 7.45845 12.897 7.6643 12.6911L8.29039 12.0649C8.49656 11.859 8.59941 11.6086 8.59941 11.3134C8.59941 11.0185 8.49653 10.7652 8.29039 10.5537L4.23277 6.5042Z" fill="#2B2B39"/>
</svg>
