<svg width="31" height="31" viewBox="0 0 31 31" fill="none" xmlns="http://www.w3.org/2000/svg">
<path d="M11.8308 26.3984C11.876 26.6465 11.8672 26.9412 11.8672 27.3126C11.8672 29.3834 13.4656 31 15.5 31C17.498 31 19.1328 29.3652 19.1328 27.3672C19.1328 26.935 19.1243 26.6453 19.1692 26.3984L15.5 24.582L11.8308 26.3984Z" fill="#E6F7FF"/>
<path d="M19.1328 27.3672C19.1328 26.9349 19.1243 26.6452 19.1692 26.3984L15.5 24.582V31C17.498 31 19.1328 29.3652 19.1328 27.3672Z" fill="#CCEEFF"/>
<path d="M22.0209 18.606C20.259 20.931 19.26 23.6193 19.1691 26.3984H11.8309C11.7219 23.7101 10.7228 21.04 8.85194 18.4244C7.59862 16.6806 7.09003 14.5373 7.41698 12.3939C8.13568 7.74635 11.82 5.51096 15.5 5.52549C19.5457 5.54002 23.586 8.27493 23.6726 13.5122C23.6882 15.4189 23.1394 17.1084 22.0209 18.606Z" fill="#FFE666"/>
<path d="M15.5 3.69336C14.998 3.69336 14.5918 3.28715 14.5918 2.78516V0.908203C14.5918 0.406209 14.998 0 15.5 0C16.002 0 16.4082 0.406209 16.4082 0.908203V2.78516C16.4082 3.28715 16.002 3.69336 15.5 3.69336Z" fill="#FFE666"/>
<path d="M24.1528 8.68847C23.9009 8.25386 24.0499 7.69865 24.4845 7.44768L26.0579 6.53948C26.4925 6.2876 27.0477 6.43661 27.2978 6.87206C27.5497 7.30667 27.4007 7.86188 26.9661 8.11285L25.3927 9.02105C24.9542 9.27274 24.3998 9.11944 24.1528 8.68847Z" fill="#FABE2C"/>
<path d="M3.70219 20.4951C3.45032 20.0605 3.59932 19.5053 4.03387 19.2543L5.6073 18.3461C6.04009 18.096 6.59712 18.2441 6.84724 18.6787C7.09911 19.1133 6.95011 19.6685 6.5155 19.9195L4.94207 20.8277C4.50402 21.0793 3.94941 20.9264 3.70219 20.4951Z" fill="#FFE666"/>
<path d="M20.4951 5.03171C20.0605 4.78068 19.9115 4.22552 20.1634 3.79092L21.0716 2.21839C21.3199 1.78294 21.8769 1.63836 22.3115 1.88581C22.7461 2.13684 22.8951 2.69199 22.6433 3.1266L21.7351 4.69912C21.4878 5.13179 20.9322 5.28267 20.4951 5.03171Z" fill="#FABE2C"/>
<path d="M9.26494 4.6991L8.35674 3.12658C8.10486 2.69197 8.25387 2.13676 8.68847 1.88579C9.12126 1.63567 9.67829 1.78201 9.92841 2.21837L10.8366 3.7909C11.0885 4.2255 10.9395 4.78072 10.5049 5.03168C10.0684 5.28229 9.51246 5.13225 9.26494 4.6991Z" fill="#FFE666"/>
<path d="M26.0578 20.8277L24.4844 19.9195C24.0498 19.6685 23.9008 19.1133 24.1527 18.6787C24.4028 18.245 24.9615 18.0987 25.3926 18.3461L26.966 19.2543C27.4006 19.5054 27.5496 20.0605 27.2977 20.4951C27.0511 20.9255 26.4969 21.0798 26.0578 20.8277Z" fill="#FABE2C"/>
<path d="M5.6073 9.02104L4.03387 8.11284C3.59932 7.86181 3.45032 7.30666 3.70219 6.87205C3.95231 6.43745 4.50928 6.29026 4.94207 6.53947L6.5155 7.44767C6.95011 7.6987 7.09911 8.25385 6.84724 8.68846C6.60015 9.11955 6.04572 9.27274 5.6073 9.02104Z" fill="#FFE666"/>
<path d="M28.2148 14.5918H26.3984C25.8964 14.5918 25.4902 14.1856 25.4902 13.6836C25.4902 13.1816 25.8964 12.7754 26.3984 12.7754H28.2148C28.7168 12.7754 29.123 13.1816 29.123 13.6836C29.123 14.1856 28.7168 14.5918 28.2148 14.5918Z" fill="#FABE2C"/>
<path d="M4.60156 14.5918H2.78516C2.28316 14.5918 1.87695 14.1856 1.87695 13.6836C1.87695 13.1816 2.28316 12.7754 2.78516 12.7754H4.60156C5.10356 12.7754 5.50977 13.1816 5.50977 13.6836C5.50977 14.1856 5.10356 14.5918 4.60156 14.5918Z" fill="#FFE666"/>
<path d="M16.4082 2.78516V0.908203C16.4082 0.406209 16.002 0 15.5 0V3.69336C16.002 3.69336 16.4082 3.28715 16.4082 2.78516Z" fill="#FABE2C"/>
<path d="M22.0209 18.606C20.259 20.931 19.26 23.6193 19.1691 26.3984H15.5V5.5255C19.5457 5.54003 23.586 8.27493 23.6726 13.5122C23.6882 15.4189 23.1394 17.1084 22.0209 18.606Z" fill="#FABE2C"/>
<path d="M17.9585 13.0415C17.6038 12.6868 17.029 12.6868 16.6743 13.0415L15.5 14.2157L14.3257 13.0414C13.971 12.6867 13.3962 12.6867 13.0414 13.0414C12.6867 13.3962 12.6867 13.9709 13.0414 14.3257L14.5918 15.8761V19.1328C14.5918 19.6348 14.998 20.041 15.5 20.041C16.002 20.041 16.4082 19.6348 16.4082 19.1328V15.8761L17.9585 14.3258C18.3133 13.9709 18.3133 13.3962 17.9585 13.0415Z" fill="#FABE2C"/>
<path d="M16.4082 19.1328V15.8761L17.9585 14.3258C18.3133 13.971 18.3133 13.3962 17.9585 13.0415C17.6038 12.6868 17.029 12.6868 16.6742 13.0415L15.5 14.2157V20.041C16.002 20.041 16.4082 19.6348 16.4082 19.1328Z" fill="#FF9100"/>
</svg>
