<svg width="19" height="19" viewBox="0 0 19 19" fill="none" xmlns="http://www.w3.org/2000/svg">
    <g clip-path="url(#clip0)">
        <path d="M18.997 9.5C18.997 4.25323 14.7443 0 9.49855 0C4.25265 0 0 4.25323 0 9.5C0 14.7468 4.25265 19 9.49855 19C14.7443 19 18.997 14.7468 18.997 9.5Z" fill="#5B76F7"/>
        <path d="M14.5866 1.477C16.307 3.19635 17.3711 5.57236 17.3711 8.19684C17.3711 13.4436 13.1185 17.6968 7.87259 17.6968C6.0006 17.6968 4.25544 17.155 2.78455 16.2199C4.50317 17.9376 6.87687 19 9.49859 19C14.7443 19 18.997 14.7468 18.997 9.50002C18.997 6.12553 17.2378 3.16228 14.5866 1.477Z" fill="#4363FF"/>
        <g clip-path="url(#clip1)">
            <g opacity="0.1">
                <path opacity="0.1" d="M235.921 -123.112L-62.41 175.22C-70.664 183.473 -81.043 189.102 -92.257 191.611C-82.894 198.246 -71.649 201.891 -60.022 201.891C-45.234 201.891 -31.049 196.015 -20.5919 185.558L262 -97.034L235.921 -123.112Z" fill="black"/>
            </g>
            <path d="M13.3057 5.44177L8.32468 10.4228C8.19042 10.5571 7.97274 10.5571 7.83848 10.4228L5.69428 8.27861L4 9.97289L7.23441 13.2073C7.45909 13.432 7.76383 13.5582 8.08156 13.5582C8.39927 13.5582 8.70403 13.432 8.92869 13.2073L15 7.13603L13.3057 5.44177Z" fill="white"/>
            <g opacity="0.1">
                <path opacity="0.1" d="M14.4397 6.57573L8.03028 12.9852C7.85295 13.1625 7.62996 13.2835 7.38904 13.3374C7.5902 13.4799 7.83179 13.5582 8.08159 13.5582C8.3993 13.5582 8.70405 13.432 8.92872 13.2073L15 7.136L14.4397 6.57573Z" fill="black"/>
            </g>
        </g>
    </g>
    <defs>
        <clipPath id="clip0">
            <rect width="19" height="19" fill="white"/>
        </clipPath>
        <clipPath id="clip1">
            <rect width="512" height="512" fill="white" transform="translate(-250 -243)"/>
        </clipPath>
    </defs>
</svg>
