<svg width="21" height="21" viewBox="0 0 21 21" fill="none" xmlns="http://www.w3.org/2000/svg">
	<g clip-path="url(#clip0)">
		<path d="M0.00352478 10.5C0.00352478 4.70094 4.70366 0 10.5018 0C16.2997 0 21 4.70094 21 10.5C21 16.2991 16.2997 21 10.5018 21C4.70366 21 0.00352478 16.2991 0.00352478 10.5Z" fill="#F36986"/>
		<path d="M4.0032 2.25314C2.59264 4.04101 1.75054 6.29847 1.75054 8.75268C1.75054 14.5516 6.45068 19.2527 12.2488 19.2527C14.7027 19.2527 16.9596 18.4104 18.7472 16.9995C16.8247 19.436 13.8458 21 10.5018 21C4.70367 21 0.00353241 16.2991 0.00353241 10.5C0.00353241 7.15531 1.56725 4.17607 4.0032 2.25314Z" fill="#FC476E"/>
		<path d="M8.74245 10.197L6.10271 7.55692C5.94153 7.39558 5.94153 7.13394 6.10271 6.9726L6.9751 6.10022C7.13627 5.93888 7.39791 5.93888 7.55925 6.10022L10.1988 8.74028C10.3661 8.90771 10.6373 8.90771 10.8046 8.74028L13.4336 6.11096C13.6009 5.94369 13.872 5.94369 14.0392 6.11096L14.8902 6.96203C15.0573 7.1293 15.0573 7.40039 14.8902 7.56765L12.2611 10.197C12.0939 10.3644 12.0939 10.6357 12.2611 10.8029L14.9007 13.443C15.0621 13.6043 15.0621 13.866 14.9007 14.0273L14.0285 14.8997C13.8672 15.061 13.6057 15.061 13.4443 14.8997L10.8046 12.2596C10.6373 12.0923 10.3661 12.0923 10.1988 12.2596L7.56998 14.8891C7.40272 15.0564 7.13163 15.0564 6.96436 14.8891L6.11345 14.038C5.94618 13.8708 5.94618 13.5995 6.11345 13.4324L8.74245 10.8029C8.90972 10.6357 8.90972 10.3642 8.74245 10.197Z" fill="#FFD2E3"/>
		<path d="M8.74251 10.8029C8.90978 10.6357 8.90978 10.3642 8.74251 10.197L6.10277 7.55692C5.94159 7.39558 5.94159 7.13394 6.10277 6.9726L6.97515 6.10022C7.13633 5.93888 7.39797 5.93888 7.5593 6.10022L7.81693 6.35801C7.31625 6.85885 7.31625 7.67083 7.81693 8.17167L9.84208 10.197C10.0093 10.3644 10.0093 10.6357 9.84208 10.8029L7.81693 12.8284C7.31625 13.3292 7.31625 14.1412 7.81693 14.642L7.57004 14.8891C7.40277 15.0564 7.13168 15.0564 6.96442 14.8891L6.11366 14.038C5.9464 13.8708 5.9464 13.5995 6.11366 13.4324L8.74251 10.8029Z" fill="#FFBBD7"/>
	</g>
	<defs>
		<clipPath id="clip0">
			<rect width="21" height="21" fill="white" transform="matrix(-1 0 0 1 21 0)"/>
		</clipPath>
	</defs>
</svg>
