<svg width="14" height="14" viewBox="0 0 14 14" fill="none" xmlns="http://www.w3.org/2000/svg">
<g clip-path="url(#clip0)">
<path d="M13.213 5.90215L13.2349 5.90693H3.86673L6.81174 2.95543C6.95595 2.81133 7.03506 2.61613 7.03506 2.41125C7.03506 2.20637 6.95595 2.01254 6.81174 1.8681L6.3535 1.40962C6.2094 1.26553 6.01739 1.18585 5.81262 1.18585C5.60774 1.18585 5.41561 1.26496 5.27152 1.40906L0.223206 6.45691C0.0785396 6.60158 -0.000566056 6.79428 3.04942e-06 6.99927C-0.000566056 7.2054 0.0785396 7.39821 0.223206 7.54265L5.27152 12.591C5.41561 12.7349 5.60763 12.8142 5.81262 12.8142C6.01739 12.8142 6.2094 12.7348 6.3535 12.591L6.81174 12.1325C6.95595 11.9886 7.03506 11.7965 7.03506 11.5916C7.03506 11.3868 6.95595 11.2048 6.81174 11.0609L3.8335 8.09286H13.2235C13.6455 8.09286 14 7.7292 14 7.3075V6.65906C14 6.23735 13.635 5.90215 13.213 5.90215Z" fill="#323232"/>
</g>
<defs>
<clipPath id="clip0">
<rect width="14" height="14" fill="white"/>
</clipPath>
</defs>
</svg>
