<svg width="14" height="14" viewBox="0 0 14 14" fill="none" xmlns="http://www.w3.org/2000/svg">
<g clip-path="url(#clip0)">
<path d="M7.60083 1.09082L1.19 0.116655C0.8925 0.0699885 0.589167 0.151655 0.361667 0.344156C0.134167 0.542489 0 0.828323 0 1.12582V13.4167C0 13.7375 0.2625 14 0.583333 14H2.47917V10.9375C2.47917 10.3717 2.93417 9.91668 3.5 9.91668H4.95833C5.52417 9.91668 5.97917 10.3717 5.97917 10.9375V14H8.45833V2.09999C8.45833 1.59832 8.09667 1.17249 7.60083 1.09082ZM3.20833 8.60417H2.33333C2.09183 8.60417 1.89583 8.40817 1.89583 8.16667C1.89583 7.92517 2.09183 7.72917 2.33333 7.72917H3.20833C3.44983 7.72917 3.64583 7.92517 3.64583 8.16667C3.64583 8.40817 3.44983 8.60417 3.20833 8.60417ZM3.20833 6.85417H2.33333C2.09183 6.85417 1.89583 6.65817 1.89583 6.41667C1.89583 6.17517 2.09183 5.97917 2.33333 5.97917H3.20833C3.44983 5.97917 3.64583 6.17517 3.64583 6.41667C3.64583 6.65817 3.44983 6.85417 3.20833 6.85417ZM3.20833 5.10417H2.33333C2.09183 5.10417 1.89583 4.90816 1.89583 4.66666C1.89583 4.42516 2.09183 4.22916 2.33333 4.22916H3.20833C3.44983 4.22916 3.64583 4.42516 3.64583 4.66666C3.64583 4.90816 3.44983 5.10417 3.20833 5.10417ZM3.20833 3.35416H2.33333C2.09183 3.35416 1.89583 3.15816 1.89583 2.91666C1.89583 2.67516 2.09183 2.47916 2.33333 2.47916H3.20833C3.44983 2.47916 3.64583 2.67516 3.64583 2.91666C3.64583 3.15816 3.44983 3.35416 3.20833 3.35416ZM6.125 8.60417H5.25C5.0085 8.60417 4.8125 8.40817 4.8125 8.16667C4.8125 7.92517 5.0085 7.72917 5.25 7.72917H6.125C6.3665 7.72917 6.5625 7.92517 6.5625 8.16667C6.5625 8.40817 6.3665 8.60417 6.125 8.60417ZM6.125 6.85417H5.25C5.0085 6.85417 4.8125 6.65817 4.8125 6.41667C4.8125 6.17517 5.0085 5.97917 5.25 5.97917H6.125C6.3665 5.97917 6.5625 6.17517 6.5625 6.41667C6.5625 6.65817 6.3665 6.85417 6.125 6.85417ZM6.125 5.10417H5.25C5.0085 5.10417 4.8125 4.90816 4.8125 4.66666C4.8125 4.42516 5.0085 4.22916 5.25 4.22916H6.125C6.3665 4.22916 6.5625 4.42516 6.5625 4.66666C6.5625 4.90816 6.3665 5.10417 6.125 5.10417ZM6.125 3.35416H5.25C5.0085 3.35416 4.8125 3.15816 4.8125 2.91666C4.8125 2.67516 5.0085 2.47916 5.25 2.47916H6.125C6.3665 2.47916 6.5625 2.67516 6.5625 2.91666C6.5625 3.15816 6.3665 3.35416 6.125 3.35416Z" fill="#323232"/>
<path d="M13.1953 6.32451L9.04199 5.45476V14H12.9795C13.5424 14 14.0003 13.5421 14.0003 12.9792V7.32201C14.0003 6.84017 13.6719 6.43009 13.1953 6.32451ZM11.8128 12.25H10.9378C10.6963 12.25 10.5003 12.054 10.5003 11.8125C10.5003 11.571 10.6963 11.375 10.9378 11.375H11.8128C12.0543 11.375 12.2503 11.571 12.2503 11.8125C12.2503 12.054 12.0543 12.25 11.8128 12.25ZM11.8128 10.5H10.9378C10.6963 10.5 10.5003 10.304 10.5003 10.0625C10.5003 9.82101 10.6963 9.62501 10.9378 9.62501H11.8128C12.0543 9.62501 12.2503 9.82101 12.2503 10.0625C12.2503 10.304 12.0543 10.5 11.8128 10.5ZM11.8128 8.75001H10.9378C10.6963 8.75001 10.5003 8.55401 10.5003 8.31251C10.5003 8.07101 10.6963 7.87501 10.9378 7.87501H11.8128C12.0543 7.87501 12.2503 8.07101 12.2503 8.31251C12.2503 8.55401 12.0543 8.75001 11.8128 8.75001Z" fill="#323232"/>
</g>
<defs>
<clipPath id="clip0">
<rect width="14" height="14" fill="white"/>
</clipPath>
</defs>
</svg>
