<svg width="14" height="14" viewBox="0 0 14 14" fill="none" xmlns="http://www.w3.org/2000/svg">
    <g clip-path="url(#clip0)">
        <path d="M7.50158 14.0003C7.50158 11.9033 11.0114 8.39344 13.1084 8.39344C11.0114 8.39344 7.50158 4.88361 7.50158 2.78662C7.50158 4.88361 3.99175 8.39344 1.89477 8.39344C3.99175 8.39344 7.50158 11.9033 7.50158 14.0003Z" fill="#64D0FF"/>
        <path d="M7.50157 10.6018C7.50157 9.77615 8.88427 8.39345 9.70996 8.39345C8.88427 8.39345 7.50157 7.01075 7.50157 6.18506C7.50157 7.01075 6.11887 8.39345 5.29318 8.39345C6.11931 8.39345 7.50157 9.77571 7.50157 10.6018Z" fill="#3286AA"/>
        <path d="M3.59271 6.18469C3.59271 5.17464 5.28341 3.48395 6.29346 3.48395C5.28341 3.48395 3.59271 1.79325 3.59271 0.783203C3.59271 1.79325 1.90202 3.48395 0.891972 3.48395C1.90202 3.48395 3.59271 5.17464 3.59271 6.18469Z" fill="#64D0FF"/>
        <path d="M11.4615 13.7986C11.4615 13.2783 12.3322 12.4076 12.8525 12.4076C12.3322 12.4076 11.4615 11.5369 11.4615 11.0166C11.4615 11.5369 10.5909 12.4076 10.0705 12.4076C10.5909 12.408 11.4615 13.2787 11.4615 13.7986Z" fill="#64D0FF"/>
        <path d="M9.66761 3.86107C9.66761 3.13893 10.876 1.93054 11.5981 1.93054C10.876 1.93054 9.66761 0.722149 9.66761 0C9.66761 0.722149 8.45922 1.93054 7.73707 1.93054C8.45922 1.93054 9.66761 3.13893 9.66761 3.86107Z" fill="#64D0FF"/>
    </g>
    <defs>
        <clipPath id="clip0">
            <rect width="14" height="14" fill="white" transform="matrix(-1 0 0 1 14 0)"/>
        </clipPath>
    </defs>
</svg>
