<svg width="14" height="14" viewBox="0 0 14 14" fill="none" xmlns="http://www.w3.org/2000/svg">
<path d="M11.9792 7.47361H10.8965C11.0068 7.77576 11.0671 8.10183 11.0671 8.44169V12.5337C11.0671 12.6754 11.0425 12.8114 10.9976 12.9379H12.7876C13.4562 12.9379 14.0001 12.3939 14.0001 11.7253V9.49456C14.0002 8.38022 13.0936 7.47361 11.9792 7.47361Z" fill="#323232"/>
<path d="M2.93303 8.44172C2.93303 8.10183 2.99333 7.77579 3.10369 7.47364H2.02098C0.906611 7.47364 0 8.38025 0 9.49462V11.7254C0 12.394 0.54395 12.9379 1.21259 12.9379H3.00257C2.9577 12.8114 2.93303 12.6754 2.93303 12.5337V8.44172Z" fill="#323232"/>
<path d="M8.23741 6.42073H5.76219C4.64782 6.42073 3.74121 7.32735 3.74121 8.44172V12.5337C3.74121 12.7569 3.92217 12.9379 4.14541 12.9379H9.85419C10.0774 12.9379 10.2584 12.757 10.2584 12.5337V8.44172C10.2584 7.32735 9.35178 6.42073 8.23741 6.42073Z" fill="#323232"/>
<path d="M6.99981 1.06203C5.65964 1.06203 4.56934 2.15234 4.56934 3.49254C4.56934 4.40159 5.07107 5.19551 5.81203 5.61234C6.16348 5.81004 6.56866 5.92302 6.99981 5.92302C7.43097 5.92302 7.83615 5.81004 8.1876 5.61234C8.92859 5.19551 9.43029 4.40156 9.43029 3.49254C9.43029 2.15237 8.33999 1.06203 6.99981 1.06203Z" fill="#323232"/>
<path d="M2.73223 3.32744C1.72994 3.32744 0.914551 4.14283 0.914551 5.14512C0.914551 6.14741 1.72994 6.9628 2.73223 6.9628C2.98647 6.9628 3.22857 6.91013 3.4485 6.81547C3.82874 6.65176 4.14227 6.36197 4.33627 5.99898C4.47244 5.74422 4.54991 5.45358 4.54991 5.14512C4.54991 4.14286 3.73452 3.32744 2.73223 3.32744Z" fill="#323232"/>
<path d="M11.2679 3.32744C10.2656 3.32744 9.4502 4.14283 9.4502 5.14512C9.4502 5.45361 9.52766 5.74425 9.66383 5.99898C9.85784 6.362 10.1714 6.65179 10.5516 6.81547C10.7715 6.91013 11.0136 6.9628 11.2679 6.9628C12.2702 6.9628 13.0856 6.14741 13.0856 5.14512C13.0856 4.14283 12.2702 3.32744 11.2679 3.32744Z" fill="#323232"/>
</svg>
