<svg width="14" height="14" viewBox="0 0 14 14" fill="none" xmlns="http://www.w3.org/2000/svg">
<g clip-path="url(#clip0)">
<path d="M7 0.00100708C3.13441 0.00100708 0 3.1348 0 7.0007C0 10.8666 3.1341 14.0004 7 14.0004C10.8662 14.0004 14 10.8666 14 7.0007C14 3.1348 10.8662 0.00100708 7 0.00100708ZM7 2.094C8.2791 2.094 9.3156 3.13081 9.3156 4.40929C9.3156 5.68808 8.2791 6.72459 7 6.72459C5.72151 6.72459 4.68501 5.68808 4.68501 4.40929C4.68501 3.13081 5.72151 2.094 7 2.094ZM6.99846 12.1703C5.72274 12.1703 4.55434 11.7057 3.65312 10.9367C3.43358 10.7494 3.3069 10.4749 3.3069 10.1868C3.3069 8.89014 4.35632 7.85241 5.65325 7.85241H8.34736C9.6446 7.85241 10.69 8.89014 10.69 10.1868C10.69 10.4752 10.564 10.7491 10.3441 10.9364C9.4432 11.7057 8.27449 12.1703 6.99846 12.1703Z" fill="#323232"/>
</g>
<defs>
<clipPath id="clip0">
<rect width="14" height="14" fill="white"/>
</clipPath>
</defs>
</svg>
