<svg width="11" height="11" viewBox="0 0 11 11" fill="none" xmlns="http://www.w3.org/2000/svg">
    <path d="M3.68501 5.50034L0.282017 2.09735C-0.0939789 1.72135 -0.0939789 1.11177 0.282017 0.736363L0.735679 0.282702C1.11179 -0.0934114 1.72137 -0.0934114 2.09678 0.282702L5.49966 3.68558L8.90265 0.281997C9.27865 -0.0939988 9.88823 -0.0939988 10.2636 0.281997L10.718 0.735658C11.094 1.11177 11.094 1.72135 10.718 2.09676L7.31442 5.50034L10.7173 8.90322C11.0934 9.27933 11.0934 9.88891 10.7173 10.2643L10.2636 10.718C9.88764 11.094 9.27806 11.094 8.90265 10.718L5.49966 7.31499L2.09678 10.718C1.72067 11.094 1.11109 11.094 0.735679 10.718L0.282017 10.2643C-0.0939789 9.88821 -0.0939789 9.27863 0.282017 8.90322L3.68501 5.50034Z" fill="#5A738E"/>
</svg>
