<svg width="21" height="21" viewBox="0 0 21 21" fill="none" xmlns="http://www.w3.org/2000/svg">
    <g clip-path="url(#clip0)">
        <path d="M2.11523 2.99988C1.77521 2.99988 1.5 3.27551 1.5 3.61512V12.8375C1.5 13.1771 1.77521 13.4527 2.11523 13.4527H8.32615L9.10553 8.2263L8.32615 2.99988H2.11523Z" fill="#FF5E94"/>
        <path d="M13.1665 3.00025H8.32617V13.4527H13.7817V3.61548C13.7817 3.27546 13.5061 3.00025 13.1665 3.00025Z" fill="#FF3980"/>
        <path d="M20.5891 15.1108H14.1919C13.9654 15.1108 13.7817 14.9272 13.7817 14.7007V5.88865H20.5891C20.931 5.88865 21.1228 6.28236 20.9121 6.55163L18.0198 10.2469C17.9035 10.3954 17.9035 10.6041 18.0198 10.7525L20.9121 14.4478C21.1228 14.7171 20.931 15.1108 20.5891 15.1108Z" fill="#FF5E94"/>
        <path d="M2.11523 3.00009C1.77546 3.00009 1.5 3.27555 1.5 3.61532V20.3838C1.5 20.7236 1.77546 20.9991 2.11523 20.9991C2.45501 20.9991 2.73047 20.7236 2.73047 20.3838V3.61532C2.73047 3.27551 2.45505 3.00009 2.11523 3.00009Z" fill="#00DDC0"/>
        <path d="M3.54008 19.7686H0.689941C0.350168 19.7686 0.074707 20.044 0.074707 20.3838C0.074707 20.7236 0.350168 20.9991 0.689941 20.9991H3.54004C3.87981 20.9991 4.15527 20.7236 4.15527 20.3838C4.15527 20.044 3.87985 19.7686 3.54008 19.7686Z" fill="#FFEA80"/>
        <path d="M4.22994 2.1159C4.22994 2.68151 4.01051 3.21307 3.61102 3.61215C3.19881 4.02477 2.65699 4.23067 2.11518 4.23067C1.57336 4.23067 1.03154 4.02477 0.618926 3.61215C0.219844 3.21307 0 2.68151 0 2.1159C0 1.5503 0.219844 1.01915 0.618926 0.620064C1.03154 0.207857 1.57336 0.00154877 2.11518 0.00154877C2.65699 0.00154877 3.1984 0.207857 3.61102 0.620064C4.01051 1.01915 4.22994 1.5503 4.22994 2.1159Z" fill="#FFEA80"/>
    </g>
    <defs>
        <clipPath id="clip0">
            <rect width="21" height="21" fill="white"/>
        </clipPath>
    </defs>
</svg>
