<svg width="16" height="16" viewBox="0 0 16 16" fill="none" xmlns="http://www.w3.org/2000/svg">
    <path d="M2.85716 0H13.1429C14.72 0.001875 15.9981 1.27995 16 2.85713V13.1428C15.9981 14.72 14.72 15.9981 13.1429 16H2.85716C1.27999 15.9981 0.0019083 14.72 3.33786e-05 13.1428V2.85713C0.0019083 1.27995 1.27999 0.001875 2.85716 0ZM5.14285 8.57142H7.42858V10.8571C7.42858 11.1727 7.68441 11.4286 8.00002 11.4286C8.31562 11.4286 8.57146 11.1727 8.57146 10.8571V8.57142H10.8571C11.1727 8.57142 11.4286 8.31559 11.4286 7.99998C11.4286 7.68438 11.1727 7.42854 10.8571 7.42854H8.57142V5.14285C8.57142 4.82725 8.31559 4.57141 7.99998 4.57141C7.68438 4.57141 7.42858 4.82725 7.42858 5.14285V7.42858H5.14285C4.82725 7.42858 4.57141 7.68441 4.57141 8.00002C4.57141 8.31562 4.82728 8.57142 5.14285 8.57142Z" fill="white"/>
</svg>
