<svg width="39" height="32" viewBox="0 0 39 32" fill="none" xmlns="http://www.w3.org/2000/svg">
    <path d="M18.8448 13.3113C18.1454 13.3113 17.5779 12.7155 17.5779 11.9801V9.31776C17.5779 8.58244 18.1454 7.98657 18.8448 7.98657C19.5442 7.98657 20.1117 8.58244 20.1117 9.31776V11.9801C20.1117 12.7156 19.5442 13.3113 18.8448 13.3113Z" fill="#2D3958"/>
    <path d="M32.3161 0H24.7338C24.5906 0 24.4473 0.0266317 24.3125 0.0709647C23.925 0.221825 23.6133 0.567957 23.5037 1.01169L21.2206 10.6496H20.1001C17.3115 10.6496 15.0452 13.0369 15.0452 15.9743V19.9679C15.0452 20.7045 15.6096 21.2991 16.3089 21.2991H34.8436C35.5429 21.2991 36.1073 20.7045 36.1073 19.9679V3.99364C36.1074 1.79278 34.4056 0 32.3161 0Z" fill="#FF658B"/>
    <path d="M36.1068 3.99351V19.9679C36.1068 20.7045 35.546 21.2991 34.8512 21.2991H24.388V0.0709653C24.5219 0.0265521 24.6642 2.65967e-09 24.8065 2.65967e-09H32.34C34.4159 -7.97337e-05 36.1068 1.79271 36.1068 3.99351Z" fill="#FF527C"/>
    <path d="M32.3536 18.6367H16.4242C12.9514 18.6367 10.1363 21.5794 10.1363 25.2095C10.1363 28.8396 12.9514 31.7822 16.4242 31.7822H32.3536C35.8264 31.7822 38.6415 28.8396 38.6415 25.2095C38.6415 21.5794 35.8263 18.6367 32.3536 18.6367Z" fill="#2D3958"/>
    <path d="M32.3527 18.6367H24.388V31.7822H32.3527C35.8255 31.7822 38.6406 28.8396 38.6406 25.2095C38.6406 21.5794 35.8254 18.6367 32.3527 18.6367Z" fill="#2D3958"/>
    <path d="M32.3398 21.2989H16.4357C14.3554 21.2989 12.6689 23.0497 12.6689 25.2093C12.6689 27.3689 14.3554 29.1197 16.4357 29.1197H32.3398C34.4201 29.1197 36.1065 27.3689 36.1065 25.2093C36.1066 23.0497 34.4202 21.2989 32.3398 21.2989Z" fill="#DBDFE3"/>
    <path d="M32.34 21.2989H24.388V29.1197H32.34C34.4203 29.1197 36.1068 27.3689 36.1068 25.2093C36.1069 23.0497 34.4204 21.2989 32.34 21.2989Z" fill="#CAD1D7"/>
    <path d="M6.33519 31.7822H1.26816C0.296338 31.7822 -0.313101 30.6863 0.168031 29.8061L10.3021 11.3138C10.9476 10.1412 12.669 10.6216 12.669 11.9691V25.1778C12.669 28.8198 9.82778 31.7822 6.33519 31.7822Z" fill="#FF3C79"/>
    <path d="M16.3916 31.7822C12.9369 31.7822 10.1363 28.8394 10.1363 25.2095C10.1363 21.5794 12.9369 18.6367 16.3916 18.6367C19.8463 18.6367 22.6469 21.5795 22.6469 25.2095C22.6469 28.8396 19.8463 31.7822 16.3916 31.7822Z" fill="#2D3958"/>
    <path d="M22.6469 25.2095C22.6469 21.5794 19.8109 18.6367 16.3124 18.6367V31.7822C19.8108 31.7822 22.6469 28.8396 22.6469 25.2095Z" fill="#2D3958"/>
    <path d="M16.3904 29.1197C14.3351 29.1197 12.6689 27.3689 12.6689 25.2093C12.6689 23.0497 14.3351 21.2989 16.3904 21.2989C18.4458 21.2989 20.112 23.0497 20.112 25.2093C20.112 27.3689 18.4458 29.1197 16.3904 29.1197Z" fill="#DBDFE3"/>
    <path d="M20.1131 25.2093C20.1131 23.0497 18.4114 21.2989 16.3124 21.2989V29.1197C18.4114 29.1197 20.1131 27.3689 20.1131 25.2093Z" fill="#CAD1D7"/>
    <path d="M16.3121 26.4583C15.6124 26.4583 15.0452 25.8622 15.0452 25.1271C15.0452 24.3919 15.6124 23.7959 16.3121 23.7959C17.0117 23.7959 17.579 24.3919 17.579 25.1271C17.579 25.8623 17.0117 26.4583 16.3121 26.4583Z" fill="#2D3958"/>
    <path d="M17.5793 25.1271C17.5793 24.3919 17.012 23.7959 16.3124 23.7959V26.4583C17.012 26.4583 17.5793 25.8623 17.5793 25.1271Z" fill="#2D3958"/>
    <path d="M32.3049 31.7822C28.8064 31.7822 25.9704 28.8394 25.9704 25.2095C25.9704 21.5794 28.8065 18.6367 32.3049 18.6367C35.8033 18.6367 38.6394 21.5795 38.6394 25.2095C38.6395 28.8396 35.8033 31.7822 32.3049 31.7822Z" fill="#2D3958"/>
    <path d="M37.5689 25.9979C37.5689 22.8513 35.1415 20.3007 32.1469 20.3007V31.695C35.1413 31.695 37.5689 29.1444 37.5689 25.9979Z" fill="#2D3958"/>
    <path d="M33.2169 29.5321C31.4202 29.5321 29.9637 28.0016 29.9637 26.1138C29.9637 24.2259 31.4202 22.6955 33.2169 22.6955C35.0135 22.6955 36.4701 24.2259 36.4701 26.1138C36.4701 28.0016 35.0136 29.5321 33.2169 29.5321Z" fill="#DBDFE3"/>
    <path d="M36.4721 26.1138C36.4721 24.2259 35.0156 22.6955 33.2189 22.6955V29.5321C35.0156 29.5321 36.4721 28.0016 36.4721 26.1138Z" fill="#CAD1D7"/>
    <path d="M33.2181 27.253C32.6192 27.253 32.1337 26.7429 32.1337 26.1136C32.1337 25.4843 32.6192 24.9742 33.2181 24.9742C33.8169 24.9742 34.3024 25.4843 34.3024 26.1136C34.3024 26.7429 33.817 27.253 33.2181 27.253Z" fill="#2D3958"/>
    <path d="M34.3033 26.1136C34.3033 25.4843 33.8178 24.9742 33.2189 24.9742V27.253C33.8179 27.253 34.3033 26.7429 34.3033 26.1136Z" fill="#2D3958"/>
    <path d="M31.0382 9.31838V3.99361C31.0382 3.25844 30.4802 2.66241 29.792 2.66241H25.7775L23.9119 10.6496H29.792C30.4802 10.6496 31.0382 10.0536 31.0382 9.31838Z" fill="white"/>
    <path d="M18.8448 13.3113C18.1454 13.3113 17.5779 12.7155 17.5779 11.9801V9.31776C17.5779 8.58244 18.1454 7.98657 18.8448 7.98657C19.5442 7.98657 20.1117 8.58244 20.1117 9.31776V11.9801C20.1117 12.7156 19.5442 13.3113 18.8448 13.3113Z" fill="#2D3958"/>
    <path d="M32.3161 0H24.7338C24.5906 0 24.4473 0.0266317 24.3125 0.0709647C23.925 0.221825 23.6133 0.567957 23.5037 1.01169L21.2206 10.6496H20.1001C17.3115 10.6496 15.0452 13.0369 15.0452 15.9743V19.9679C15.0452 20.7045 15.6096 21.2991 16.3089 21.2991H34.8436C35.5429 21.2991 36.1073 20.7045 36.1073 19.9679V3.99364C36.1074 1.79278 34.4056 0 32.3161 0Z" fill="#FF3C79"/>
    <path d="M36.1068 3.99351V19.9679C36.1068 20.7045 35.546 21.2991 34.8512 21.2991H24.388V0.0709653C24.5219 0.0265521 24.6642 2.65966e-09 24.8065 2.65966e-09H32.34C34.4159 -7.97336e-05 36.1068 1.79271 36.1068 3.99351Z" fill="#EC2E6A"/>
    <path d="M32.3536 18.6367H16.4242C12.9514 18.6367 10.1363 21.5794 10.1363 25.2095C10.1363 28.8396 12.9514 31.7822 16.4242 31.7822H32.3536C35.8264 31.7822 38.6415 28.8396 38.6415 25.2095C38.6415 21.5794 35.8263 18.6367 32.3536 18.6367Z" fill="#2D3958"/>
    <path d="M32.3527 18.6367H24.388V31.7822H32.3527C35.8255 31.7822 38.6406 28.8396 38.6406 25.2095C38.6406 21.5794 35.8254 18.6367 32.3527 18.6367Z" fill="#2D3958"/>
    <path d="M32.3398 21.2989H16.4357C14.3554 21.2989 12.6689 23.0497 12.6689 25.2093C12.6689 27.3689 14.3554 29.1197 16.4357 29.1197H32.3398C34.4201 29.1197 36.1065 27.3689 36.1065 25.2093C36.1066 23.0497 34.4202 21.2989 32.3398 21.2989Z" fill="#DBDFE3"/>
    <path d="M32.34 21.2989H24.388V29.1197H32.34C34.4203 29.1197 36.1068 27.3689 36.1068 25.2093C36.1069 23.0497 34.4204 21.2989 32.34 21.2989Z" fill="#CAD1D7"/>
    <path d="M16.3916 31.7822C12.9369 31.7822 10.1363 28.8394 10.1363 25.2095C10.1363 21.5794 12.9369 18.6367 16.3916 18.6367C19.8463 18.6367 22.6469 21.5795 22.6469 25.2095C22.6469 28.8396 19.8463 31.7822 16.3916 31.7822Z" fill="#2D3958"/>
    <path d="M22.6469 25.2095C22.6469 21.5794 19.8109 18.6367 16.3124 18.6367V31.7822C19.8108 31.7822 22.6469 28.8396 22.6469 25.2095Z" fill="#2D3958"/>
    <path d="M16.3904 29.1197C14.3351 29.1197 12.6689 27.3689 12.6689 25.2093C12.6689 23.0497 14.3351 21.2989 16.3904 21.2989C18.4458 21.2989 20.112 23.0497 20.112 25.2093C20.112 27.3689 18.4458 29.1197 16.3904 29.1197Z" fill="#DBDFE3"/>
    <path d="M20.1131 25.2093C20.1131 23.0497 18.4114 21.2989 16.3124 21.2989V29.1197C18.4114 29.1197 20.1131 27.3689 20.1131 25.2093Z" fill="#CAD1D7"/>
    <path d="M16.3121 26.4583C15.6124 26.4583 15.0452 25.8622 15.0452 25.1271C15.0452 24.3919 15.6124 23.7959 16.3121 23.7959C17.0117 23.7959 17.579 24.3919 17.579 25.1271C17.579 25.8623 17.0117 26.4583 16.3121 26.4583Z" fill="#2D3958"/>
    <path d="M17.5793 25.1271C17.5793 24.3919 17.012 23.7959 16.3124 23.7959V26.4583C17.012 26.4583 17.5793 25.8623 17.5793 25.1271Z" fill="#2D3958"/>
    <path d="M32.3049 31.7822C28.8064 31.7822 25.9704 28.8394 25.9704 25.2095C25.9704 21.5794 28.8065 18.6367 32.3049 18.6367C35.8033 18.6367 38.6394 21.5795 38.6394 25.2095C38.6395 28.8396 35.8033 31.7822 32.3049 31.7822Z" fill="#2D3958"/>
    <path d="M38.6405 25.2097C38.6405 21.6715 36.159 18.8033 33.0978 18.8033V31.616C36.1589 31.616 38.6405 28.7479 38.6405 25.2097Z" fill="#2D3958"/>
    <path d="M33.2169 29.5321C31.4202 29.5321 29.9637 28.0016 29.9637 26.1138C29.9637 24.2259 31.4202 22.6955 33.2169 22.6955C35.0135 22.6955 36.4701 24.2259 36.4701 26.1138C36.4701 28.0016 35.0136 29.5321 33.2169 29.5321Z" fill="#DBDFE3"/>
    <path d="M36.4721 26.1138C36.4721 24.2259 35.0156 22.6955 33.2189 22.6955V29.5321C35.0156 29.5321 36.4721 28.0016 36.4721 26.1138Z" fill="#CAD1D7"/>
    <path d="M33.2181 27.253C32.6192 27.253 32.1337 26.7429 32.1337 26.1136C32.1337 25.4843 32.6192 24.9742 33.2181 24.9742C33.8169 24.9742 34.3024 25.4843 34.3024 26.1136C34.3024 26.7429 33.817 27.253 33.2181 27.253Z" fill="#2D3958"/>
    <path d="M34.3033 26.1136C34.3033 25.4843 33.8178 24.9742 33.2189 24.9742V27.253C33.8179 27.253 34.3033 26.7429 34.3033 26.1136Z" fill="#2D3958"/>
    <path d="M31.0382 9.31838V3.99361C31.0382 3.25844 30.4802 2.66241 29.792 2.66241H25.7775L23.9119 10.6496H29.792C30.4802 10.6496 31.0382 10.0536 31.0382 9.31838Z" fill="white"/>
    <path d="M18.8448 13.3113C18.1454 13.3113 17.5779 12.7155 17.5779 11.9801V9.31776C17.5779 8.58244 18.1454 7.98657 18.8448 7.98657C19.5442 7.98657 20.1117 8.58244 20.1117 9.31776V11.9801C20.1117 12.7156 19.5442 13.3113 18.8448 13.3113Z" fill="#2D3958"/>
    <path d="M32.3161 0H24.7338C24.5906 0 24.4473 0.0266317 24.3125 0.0709647C23.925 0.221825 23.6133 0.567957 23.5037 1.01169L21.2206 10.6496H20.1001C17.3115 10.6496 15.0452 13.0369 15.0452 15.9743V19.9679C15.0452 20.7045 15.6096 21.2991 16.3089 21.2991H34.8436C35.5429 21.2991 36.1073 20.7045 36.1073 19.9679V3.99364C36.1074 1.79278 34.4056 0 32.3161 0Z" fill="#FF658B"/>
    <path d="M36.1068 3.99351V19.9679C36.1068 20.7045 35.546 21.2991 34.8512 21.2991H24.388V0.0709653C24.5219 0.0265521 24.6642 2.65967e-09 24.8065 2.65967e-09H32.34C34.4159 -7.97337e-05 36.1068 1.79271 36.1068 3.99351Z" fill="#FF527C"/>
    <path d="M32.3536 18.6367H16.4242C12.9514 18.6367 10.1363 21.5794 10.1363 25.2095C10.1363 28.8396 12.9514 31.7822 16.4242 31.7822H32.3536C35.8264 31.7822 38.6415 28.8396 38.6415 25.2095C38.6415 21.5794 35.8263 18.6367 32.3536 18.6367Z" fill="#2D3958"/>
    <path d="M32.3527 18.6367H24.388V31.7822H32.3527C35.8255 31.7822 38.6406 28.8396 38.6406 25.2095C38.6406 21.5794 35.8254 18.6367 32.3527 18.6367Z" fill="#2D3958"/>
    <path d="M32.3398 21.2989H16.4357C14.3554 21.2989 12.6689 23.0497 12.6689 25.2093C12.6689 27.3689 14.3554 29.1197 16.4357 29.1197H32.3398C34.4201 29.1197 36.1065 27.3689 36.1065 25.2093C36.1066 23.0497 34.4202 21.2989 32.3398 21.2989Z" fill="#DBDFE3"/>
    <path d="M32.34 21.2989H24.388V29.1197H32.34C34.4203 29.1197 36.1068 27.3689 36.1068 25.2093C36.1069 23.0497 34.4204 21.2989 32.34 21.2989Z" fill="#CAD1D7"/>
    <path d="M6.33519 31.7822H1.26816C0.296338 31.7822 -0.313101 30.6863 0.168031 29.8061L10.3021 11.3138C10.9476 10.1412 12.669 10.6216 12.669 11.9691V25.1778C12.669 28.8198 9.82778 31.7822 6.33519 31.7822Z" fill="#5286FF"/>
    <path d="M16.3916 31.7822C12.9369 31.7822 10.1363 28.8394 10.1363 25.2095C10.1363 21.5794 12.9369 18.6367 16.3916 18.6367C19.8463 18.6367 22.6469 21.5795 22.6469 25.2095C22.6469 28.8396 19.8463 31.7822 16.3916 31.7822Z" fill="#2D3958"/>
    <path d="M22.6469 25.2095C22.6469 21.5794 19.8109 18.6367 16.3124 18.6367V31.7822C19.8108 31.7822 22.6469 28.8396 22.6469 25.2095Z" fill="#2D3958"/>
    <path d="M16.3904 29.1197C14.3351 29.1197 12.6689 27.3689 12.6689 25.2093C12.6689 23.0497 14.3351 21.2989 16.3904 21.2989C18.4458 21.2989 20.112 23.0497 20.112 25.2093C20.112 27.3689 18.4458 29.1197 16.3904 29.1197Z" fill="#DBDFE3"/>
    <path d="M20.1131 25.2093C20.1131 23.0497 18.4114 21.2989 16.3124 21.2989V29.1197C18.4114 29.1197 20.1131 27.3689 20.1131 25.2093Z" fill="#CAD1D7"/>
    <path d="M16.3121 26.4583C15.6124 26.4583 15.0452 25.8622 15.0452 25.1271C15.0452 24.3919 15.6124 23.7959 16.3121 23.7959C17.0117 23.7959 17.579 24.3919 17.579 25.1271C17.579 25.8623 17.0117 26.4583 16.3121 26.4583Z" fill="#2D3958"/>
    <path d="M17.5793 25.1271C17.5793 24.3919 17.012 23.7959 16.3124 23.7959V26.4583C17.012 26.4583 17.5793 25.8623 17.5793 25.1271Z" fill="#2D3958"/>
    <path d="M32.3049 31.7822C28.8064 31.7822 25.9704 28.8394 25.9704 25.2095C25.9704 21.5794 28.8065 18.6367 32.3049 18.6367C35.8033 18.6367 38.6394 21.5795 38.6394 25.2095C38.6395 28.8396 35.8033 31.7822 32.3049 31.7822Z" fill="#2D3958"/>
    <path d="M33.2169 29.5321C31.4202 29.5321 29.9637 28.0016 29.9637 26.1138C29.9637 24.2259 31.4202 22.6955 33.2169 22.6955C35.0135 22.6955 36.4701 24.2259 36.4701 26.1138C36.4701 28.0016 35.0136 29.5321 33.2169 29.5321Z" fill="#DBDFE3"/>
    <path d="M36.4721 26.1138C36.4721 24.2259 35.0156 22.6955 33.2189 22.6955V29.5321C35.0156 29.5321 36.4721 28.0016 36.4721 26.1138Z" fill="#CAD1D7"/>
    <path d="M33.2181 27.253C32.6192 27.253 32.1337 26.7429 32.1337 26.1136C32.1337 25.4843 32.6192 24.9742 33.2181 24.9742C33.8169 24.9742 34.3024 25.4843 34.3024 26.1136C34.3024 26.7429 33.817 27.253 33.2181 27.253Z" fill="#2D3958"/>
    <path d="M34.3033 26.1136C34.3033 25.4843 33.8178 24.9742 33.2189 24.9742V27.253C33.8179 27.253 34.3033 26.7429 34.3033 26.1136Z" fill="#2D3958"/>
    <path d="M31.0382 9.31838V3.99361C31.0382 3.25844 30.4802 2.66241 29.792 2.66241H25.7775L23.9119 10.6496H29.792C30.4802 10.6496 31.0382 10.0536 31.0382 9.31838Z" fill="white"/>
    <path d="M18.8448 13.3113C18.1454 13.3113 17.5779 12.7155 17.5779 11.9801V9.31776C17.5779 8.58244 18.1454 7.98657 18.8448 7.98657C19.5442 7.98657 20.1117 8.58244 20.1117 9.31776V11.9801C20.1117 12.7156 19.5442 13.3113 18.8448 13.3113Z" fill="#2D3958"/>
    <path d="M32.3161 0H24.7338C24.5906 0 24.4473 0.0266317 24.3125 0.0709647C23.925 0.221825 23.6133 0.567957 23.5037 1.01169L21.2206 10.6496H20.1001C17.3115 10.6496 15.0452 13.0369 15.0452 15.9743V19.9679C15.0452 20.7045 15.6096 21.2991 16.3089 21.2991H34.8436C35.5429 21.2991 36.1073 20.7045 36.1073 19.9679V3.99364C36.1074 1.79278 34.4056 0 32.3161 0Z" fill="#5E8EFF"/>
    <path d="M36.1068 3.99351V19.9679C36.1068 20.7045 35.546 21.2991 34.8512 21.2991H24.388V0.0709653C24.5219 0.0265521 24.6642 2.65966e-09 24.8065 2.65966e-09H32.34C34.4159 -7.97336e-05 36.1068 1.79271 36.1068 3.99351Z" fill="#5286FF"/>
    <path d="M32.3536 18.6367H16.4242C12.9514 18.6367 10.1363 21.5794 10.1363 25.2095C10.1363 28.8396 12.9514 31.7822 16.4242 31.7822H32.3536C35.8264 31.7822 38.6415 28.8396 38.6415 25.2095C38.6415 21.5794 35.8263 18.6367 32.3536 18.6367Z" fill="#2D3958"/>
    <path d="M32.3527 18.6367H24.388V31.7822H32.3527C35.8255 31.7822 38.6406 28.8396 38.6406 25.2095C38.6406 21.5794 35.8254 18.6367 32.3527 18.6367Z" fill="#2D3958"/>
    <path d="M32.3398 21.2989H16.4357C14.3554 21.2989 12.6689 23.0497 12.6689 25.2093C12.6689 27.3689 14.3554 29.1197 16.4357 29.1197H32.3398C34.4201 29.1197 36.1065 27.3689 36.1065 25.2093C36.1066 23.0497 34.4202 21.2989 32.3398 21.2989Z" fill="white"/>
    <path d="M32.34 21.2989H24.388V29.1197H32.34C34.4203 29.1197 36.1068 27.3689 36.1068 25.2093C36.1069 23.0497 34.4204 21.2989 32.34 21.2989Z" fill="white"/>
    <path d="M16.3916 31.7822C12.9369 31.7822 10.1363 28.8394 10.1363 25.2095C10.1363 21.5794 12.9369 18.6367 16.3916 18.6367C19.8463 18.6367 22.6469 21.5795 22.6469 25.2095C22.6469 28.8396 19.8463 31.7822 16.3916 31.7822Z" fill="#2D3958"/>
    <path d="M22.6469 25.2095C22.6469 21.5794 19.8109 18.6367 16.3124 18.6367V31.7822C19.8108 31.7822 22.6469 28.8396 22.6469 25.2095Z" fill="#2D3958"/>
    <path d="M16.3904 29.1197C14.3351 29.1197 12.6689 27.3689 12.6689 25.2093C12.6689 23.0497 14.3351 21.2989 16.3904 21.2989C18.4458 21.2989 20.112 23.0497 20.112 25.2093C20.112 27.3689 18.4458 29.1197 16.3904 29.1197Z" fill="white"/>
    <path d="M20.1131 25.2093C20.1131 23.0497 18.4114 21.2989 16.3124 21.2989V29.1197C18.4114 29.1197 20.1131 27.3689 20.1131 25.2093Z" fill="white"/>
    <path d="M16.3121 26.4583C15.6124 26.4583 15.0452 25.8622 15.0452 25.1271C15.0452 24.3919 15.6124 23.7959 16.3121 23.7959C17.0117 23.7959 17.579 24.3919 17.579 25.1271C17.579 25.8623 17.0117 26.4583 16.3121 26.4583Z" fill="#2D3958"/>
    <path d="M32.3049 31.7822C28.8064 31.7822 25.9704 28.8394 25.9704 25.2095C25.9704 21.5794 28.8065 18.6367 32.3049 18.6367C35.8033 18.6367 38.6394 21.5795 38.6394 25.2095C38.6395 28.8396 35.8033 31.7822 32.3049 31.7822Z" fill="#2D3958"/>
    <path d="M38.6414 25.1263C38.6414 21.5421 35.8054 18.6367 32.3069 18.6367V31.6158C35.8053 31.6158 38.6414 28.7105 38.6414 25.1263Z" fill="#2D3958"/>
    <path d="M32.7017 29.1197C30.6464 29.1197 28.9802 27.3689 28.9802 25.2093C28.9802 23.0497 30.6464 21.2989 32.7017 21.2989C34.7571 21.2989 36.4233 23.0497 36.4233 25.2093C36.4233 27.3689 34.7571 29.1197 32.7017 29.1197Z" fill="white"/>
    <path d="M31.0382 9.31838V3.99361C31.0382 3.25844 30.4802 2.66241 29.792 2.66241H25.7775L23.9119 10.6496H29.792C30.4802 10.6496 31.0382 10.0536 31.0382 9.31838Z" fill="white"/>
    <path d="M32.6234 26.6237C31.9237 26.6237 31.3565 26.0277 31.3565 25.2925C31.3565 24.5573 31.9237 23.9613 32.6234 23.9613C33.3231 23.9613 33.8903 24.5573 33.8903 25.2925C33.8903 26.0277 33.3231 26.6237 32.6234 26.6237Z" fill="#2D3958"/>
</svg>
