<svg width="22" height="22" viewBox="0 0 22 22" fill="none" xmlns="http://www.w3.org/2000/svg">
    <path d="M21.8262 11.0001C21.8262 16.9779 16.9779 21.8263 11 21.8263C5.02211 21.8263 0.173767 16.9779 0.173767 11.0001C0.173767 5.02217 5.02211 0.173828 11 0.173828C16.9779 0.173828 21.8262 5.02217 21.8262 11.0001Z" fill="#F7417A"/>
    <path d="M18.5766 4.53537C20.0711 6.27313 20.9573 8.53221 20.9573 10.9998C20.9573 16.5085 16.4913 20.9746 10.9826 20.9746C5.47392 20.9746 1.02527 16.5085 1.02527 10.9998C1.02527 5.49114 5.4913 1.04248 11 1.04248C13.4676 1.04248 15.7267 1.92874 17.4644 3.42321C17.4644 3.40583 18.1422 4.03142 18.5766 4.53537Z" fill="#F7417A"/>
    <path d="M9.24487 16.0742C8.49763 16.5955 7.87204 16.2653 7.87204 15.3443V6.65552C7.87204 5.73451 8.49763 5.40434 9.24487 5.92567L15.2401 10.0615C15.9874 10.5829 15.9874 11.417 15.2401 11.9383L9.24487 16.0742Z" fill="#F4EFEF"/>
    <path d="M8.48026 16.4913C8.32386 16.4913 8.18484 16.4566 8.0632 16.387C7.73302 16.2133 7.54187 15.831 7.54187 15.3444V6.65561C7.54187 6.16904 7.73302 5.78674 8.0632 5.61296C8.41075 5.43918 8.84519 5.49132 9.27963 5.78674L15.3096 9.92259C15.7093 10.2006 15.9352 10.5829 15.9352 10.9826C15.9352 11.3997 15.6919 11.7994 15.2923 12.0774L9.26225 16.2133C9.00159 16.4044 8.72354 16.4913 8.48026 16.4913ZM8.48026 5.85625C8.37599 5.85625 8.28911 5.87362 8.21959 5.92576C8.01106 6.0474 7.87204 6.30806 7.87204 6.65561V15.3444C7.87204 15.6919 7.99369 15.97 8.21959 16.0743C8.4455 16.1959 8.7583 16.1438 9.0711 15.9179L15.0837 11.782C15.4139 11.5561 15.5877 11.278 15.5877 10.9652C15.5877 10.6698 15.4139 10.3918 15.1185 10.1833L9.0711 6.0474C8.86257 5.92576 8.65403 5.85625 8.48026 5.85625Z" fill="black"/>
    <path d="M11 22C4.93523 22 0 17.0648 0 11C0 4.93523 4.93523 0 11 0C17.0648 0 22 4.93523 22 11C22 17.0648 17.0648 22 11 22ZM11 0.347551C5.12638 0.347551 0.347551 5.12638 0.347551 11C0.347551 16.8736 5.12638 21.6524 11 21.6524C16.8736 21.6524 21.6524 16.8736 21.6524 11C21.6524 5.12638 16.8736 0.347551 11 0.347551Z" fill="black"/>
</svg>
