<svg width="17" height="20" viewBox="0 0 17 20" fill="none" xmlns="http://www.w3.org/2000/svg">
    <g clip-path="url(#clip0)">
        <path d="M1.77082 8.75C0.79475 8.75 0 9.685 0 10.8333V17.5C0 18.6483 0.79475 19.5833 1.77082 19.5833H3.89582C4.29462 19.5833 4.66152 19.425 4.95832 19.1616V8.75H1.77082Z" fill="#fff"/>
        <path d="M17.0013 11.8724C17.0013 11.3716 16.8327 10.9049 16.5402 10.5607C16.871 10.1349 17.0395 9.56402 16.9935 8.96988C16.9106 7.9107 16.0996 7.0807 15.1462 7.0807H10.7708C10.9875 6.30652 11.3346 4.88738 11.3346 3.74738C11.3346 1.93988 10.0292 0.414062 9.20961 0.414062C8.47367 0.414062 7.94806 0.901563 7.92542 0.921563C7.84184 1.00074 7.79297 1.12074 7.79297 1.24738V4.0732L5.75297 9.27238L5.66797 9.3232V18.2549C6.24454 18.5749 6.97411 18.7474 7.43879 18.7474H13.9406C14.712 18.7474 15.387 18.1357 15.5457 17.2916C15.6271 16.8574 15.5797 16.4199 15.4175 16.0399C15.9409 15.7299 16.293 15.0957 16.293 14.3724C16.293 14.0774 16.2356 13.7949 16.1265 13.5391C16.65 13.2291 17.0013 12.5949 17.0013 11.8724Z" fill="#fff"/>
        <path d="M17.0013 11.8724C17.0013 11.3716 16.8327 10.9049 16.5402 10.5607C16.871 10.1349 17.0395 9.56402 16.9935 8.96988C16.9106 7.9107 16.0996 7.0807 15.1462 7.0807H10.7708C10.9875 6.30652 11.3346 4.88738 11.3346 3.74738C11.3346 1.93988 10.0292 0.414062 9.20961 0.414062C8.47367 0.414062 7.94806 0.901563 7.92542 0.921563C7.84184 1.00074 7.79297 1.12074 7.79297 1.24738V4.0732L5.75297 9.27238L5.66797 9.3232V18.2549C6.24454 18.5749 6.97411 18.7474 7.43879 18.7474H13.9406C14.712 18.7474 15.387 18.1357 15.5457 17.2916C15.6271 16.8574 15.5797 16.4199 15.4175 16.0399C15.9409 15.7299 16.293 15.0957 16.293 14.3724C16.293 14.0774 16.2356 13.7949 16.1265 13.5391C16.65 13.2291 17.0013 12.5949 17.0013 11.8724Z" fill="#fff"/>
    </g>
    <defs>
        <clipPath id="clip0">
            <rect width="17" height="20" fill="white"/>
        </clipPath>
    </defs>
</svg>
