<svg width="26" height="25" viewBox="0 0 26 25" fill="none" xmlns="http://www.w3.org/2000/svg">
<path d="M13 24.1344C19.731 24.1344 25.1875 18.8877 25.1875 12.4156C25.1875 5.94353 19.731 0.696869 13 0.696869C6.26903 0.696869 0.8125 5.94353 0.8125 12.4156C0.8125 18.8877 6.26903 24.1344 13 24.1344Z" fill="white"/>
<path d="M13 0C5.83213 0 0 5.60781 0 12.5C0 19.3922 5.83213 25 13 25C20.1679 25 26 19.3922 26 12.5C26 5.60781 20.1679 0 13 0ZM24.3701 12.5938C21.6174 11.8953 18.7948 11.8141 16.1054 12.3469C15.7381 11.4656 15.3416 10.5984 14.9159 9.74219C17.3485 8.64844 19.5975 7.16563 21.5702 5.33281C23.3106 7.25313 24.375 9.75625 24.375 12.5C24.375 12.5312 24.3701 12.5609 24.3701 12.5938ZM20.4214 4.22969C18.5786 5.94063 16.4824 7.33438 14.2106 8.35313C12.9967 6.11875 11.5765 3.98438 9.96938 1.96875C10.9363 1.71094 11.9486 1.5625 13 1.5625C15.8356 1.5625 18.4275 2.57188 20.4214 4.22969ZM8.36387 2.52187C10.0132 4.54063 11.4611 6.69063 12.6945 8.94219C9.282 10.1953 5.577 10.6766 1.86713 10.2594C2.6195 6.79688 5.083 3.9375 8.36387 2.52187ZM1.625 12.5C1.625 12.2656 1.64612 12.0359 1.66237 11.8063C2.62438 11.9156 3.58637 11.9875 4.54513 11.9875C7.60337 11.9875 10.608 11.4125 13.4241 10.3578C13.8141 11.1391 14.1814 11.9312 14.521 12.7344C10.5267 13.8875 6.968 16.3469 4.57275 19.8203C2.74787 17.8797 1.625 15.3156 1.625 12.5ZM5.76062 20.9297C7.96413 17.5984 11.3246 15.25 15.106 14.1875C16.133 16.9062 16.8724 19.7297 17.303 22.6187C15.9754 23.1437 14.5226 23.4375 13 23.4375C10.2521 23.4375 7.7285 22.4953 5.76062 20.9297ZM18.8273 21.875C18.3804 19.1219 17.6719 16.4266 16.7017 13.825C19.1571 13.3812 21.7262 13.4859 24.2288 14.1656C23.7039 17.4406 21.671 20.2344 18.8273 21.875Z" fill="#A0A0A0"/>
</svg>
