<svg width="26" height="27" viewBox="0 0 26 27" fill="none" xmlns="http://www.w3.org/2000/svg">
<path d="M22.1914 0H3.80859C1.70871 0 0 1.77443 0 3.95508V23.0449C0 25.2256 1.70871 27 3.80859 27H22.1914C24.2913 27 26 25.2256 26 23.0449V3.95508C26 1.77443 24.2913 0 22.1914 0ZM13.0508 20.5664C9.27055 20.5664 6.19531 17.3729 6.19531 13.4473C6.19531 9.52164 9.27055 6.32812 13.0508 6.32812C16.831 6.32812 19.9062 9.52164 19.9062 13.4473C19.9062 17.3729 16.831 20.5664 13.0508 20.5664ZM20.668 7.91016C19.408 7.91016 18.3828 6.84558 18.3828 5.53711C18.3828 4.22864 19.408 3.16406 20.668 3.16406C21.928 3.16406 22.9531 4.22864 22.9531 5.53711C22.9531 6.84558 21.928 7.91016 20.668 7.91016Z" fill="#A0A0A0"/>
<path d="M20.668 4.74609C20.2476 4.74609 19.9062 5.10061 19.9062 5.53711C19.9062 5.97361 20.2476 6.32812 20.668 6.32812C21.0883 6.32812 21.4297 5.97361 21.4297 5.53711C21.4297 5.10061 21.0883 4.74609 20.668 4.74609Z" fill="#A0A0A0"/>
<path d="M13.0508 7.91016C10.111 7.91016 7.71875 10.3944 7.71875 13.4473C7.71875 16.5001 10.111 18.9844 13.0508 18.9844C15.9905 18.9844 18.3828 16.5001 18.3828 13.4473C18.3828 10.3944 15.9905 7.91016 13.0508 7.91016Z" fill="#A0A0A0"/>
</svg>
