<svg width="25" height="25" viewBox="0 0 25 25" fill="none" xmlns="http://www.w3.org/2000/svg">
<g clip-path="url(#clip0)">
<path d="M23.197 0H1.80302C0.80719 0 0 0.80719 0 1.80302V23.197C0 24.1928 0.80719 25 1.80302 25H23.197C24.1928 25 25 24.1928 25 23.197V1.80302C25 0.80719 24.1928 0 23.197 0V0ZM8.86765 18.8965H5.82333V9.73759H8.86765V18.8965ZM7.34558 8.48694H7.32574C6.30417 8.48694 5.64346 7.7837 5.64346 6.90479C5.64346 6.00605 6.32439 5.32227 7.3658 5.32227C8.40721 5.32227 9.04808 6.00605 9.06792 6.90479C9.06792 7.7837 8.40721 8.48694 7.34558 8.48694ZM19.8448 18.8965H16.8009V13.9967C16.8009 12.7653 16.3601 11.9255 15.2586 11.9255C14.4176 11.9255 13.9168 12.492 13.6967 13.0388C13.6162 13.2345 13.5965 13.508 13.5965 13.7817V18.8965H10.5524C10.5524 18.8965 10.5923 10.5968 10.5524 9.73759H13.5965V11.0344C14.0011 10.4103 14.7249 9.52263 16.3401 9.52263C18.343 9.52263 19.8448 10.8316 19.8448 13.6448V18.8965Z" fill="#A0A0A0"/>
</g>
<defs>
<clipPath id="clip0">
<rect width="25" height="25" fill="white"/>
</clipPath>
</defs>
</svg>
