<svg width="29" height="28" viewBox="0 0 29 28" fill="none" xmlns="http://www.w3.org/2000/svg">
<g clip-path="url(#clip0)">
<path d="M19.6027 1.97634C19.0771 1.7395 19.4553 1.62283 19.3332 21.6825L28.2024 25.9595C28.641 26.1718 28.9999 25.9595 28.9999 25.4777C28.948 5.544 29.1159 6.55434 28.8597 6.44467L19.6027 1.97634Z" fill="#A0A0A0"/>
<path d="M9.66675 17.0217L19.1739 2.10232C19.4881 1.63099 19.6174 2.13265 28.791 6.41782C29.2067 6.63482 29.1064 6.14715 19.3334 21.6825L9.66675 17.0217Z" fill="#A0A0A0"/>
<path d="M0.628359 2.84318L9.66669 17.0217L19.3334 21.693C9.04803 5.59768 9.76698 6.58001 9.55674 6.46451C3.55011 3.76485 -0.512307 1.04885 0.628359 2.84318Z" fill="#A0A0A0"/>
<path d="M9.66656 25.4882C9.66656 25.9607 9.30769 26.1812 8.86906 25.97L0.538814 21.9438C0.239147 21.7992 -0.000102676 21.4235 -0.000102676 21.105C0.227064 2.91433 -0.497936 1.60999 0.538814 2.11049L9.54694 6.46449C9.77773 6.59166 9.6134 5.46466 9.66656 25.4882Z" fill="#A0A0A0"/>
</g>
<defs>
<clipPath id="clip0">
<rect width="29" height="28" fill="white"/>
</clipPath>
</defs>
</svg>
