<svg width="25" height="24" viewBox="0 0 25 24" fill="none" xmlns="http://www.w3.org/2000/svg">
<g clip-path="url(#clip0)">
<path d="M18.3376 20.0102C21.5032 18.1067 23.611 14.6972 23.611 10.8106C23.611 4.84206 18.636 0 12.5 0C6.36241 0 1.38892 4.84206 1.38892 10.8121C1.38892 16.7852 6.36241 21.6243 12.5 21.6243C13.4031 21.6243 14.2781 21.5178 15.1188 21.3198C16.1719 23.1603 17.7813 24.4653 21.1907 23.8428V22.0083C21.1907 22.0083 19.0047 21.4803 18.3376 20.0102ZM18.2594 12.2431C18.2594 14.0477 17.6594 15.6872 16.6875 16.8962C15.4672 15.6467 13.5531 14.6222 11.125 14.7527V14.9717V16.8782C11.125 16.8782 12.7734 16.9412 13.9 18.8012C13.4766 18.9212 13.0391 18.9857 12.5844 18.9857C9.44995 18.9857 6.91086 15.9662 6.91086 12.2416V9.45761C6.91086 5.73157 9.44995 2.71203 12.5844 2.71203C15.7188 2.71203 18.261 5.73157 18.261 9.45761L18.2594 12.2431Z" fill="#A0A0A0"/>
</g>
<defs>
<clipPath id="clip0">
<rect width="25" height="24" fill="white"/>
</clipPath>
</defs>
</svg>
