<svg width="27" height="27" viewBox="0 0 27 27" fill="none" xmlns="http://www.w3.org/2000/svg">
<g clip-path="url(#clip0)">
<path d="M26.9686 5.12309C26.9298 5.07746 26.866 5.06198 26.8115 5.08686C26.0043 5.44498 25.155 5.70243 24.2804 5.85452C25.209 5.156 25.9009 4.18868 26.2557 3.0795C26.2728 3.02641 26.2551 2.96833 26.2117 2.93377C26.168 2.8992 26.1074 2.89478 26.0596 2.92326C25.0137 3.54353 23.8811 3.98073 22.6914 4.22325C21.6372 3.12928 20.1653 2.50348 18.6418 2.50348C15.5435 2.50348 13.0232 5.02382 13.0232 8.12183C13.0232 8.49654 13.0594 8.86764 13.1313 9.22797C8.84006 8.96305 4.82755 6.90287 2.09926 3.55652C2.07133 3.52223 2.02902 3.50315 1.98477 3.50758C1.94081 3.51089 1.90154 3.53578 1.87942 3.57367C1.38165 4.42761 1.11867 5.4046 1.11867 6.39847C1.11867 8.121 1.90126 9.73154 3.23388 10.7943C2.5478 10.7119 1.87776 10.4959 1.27353 10.1604C1.23288 10.1375 1.18227 10.1378 1.14162 10.1613C1.10097 10.1845 1.07525 10.2276 1.07415 10.2747L1.07359 10.3466C1.07359 12.8204 2.70376 14.9926 5.02306 15.7138C4.41219 15.8123 3.77838 15.8056 3.15534 15.6867C3.10944 15.6781 3.06132 15.6939 3.0298 15.7293C2.99855 15.7647 2.98804 15.8142 3.00242 15.859C3.69791 18.0298 5.63033 19.5521 7.87966 19.7418C6.00337 21.1165 3.78557 21.8407 1.44221 21.8407C1.01054 21.8407 0.575832 21.815 0.149968 21.7649C0.0891309 21.758 0.0288464 21.7943 0.00782974 21.8526C-0.0131869 21.9115 0.00921241 21.9773 0.061754 22.0108C2.59757 23.6371 5.52967 24.4963 8.54141 24.4963C18.3929 24.4963 24.2798 16.4939 24.2798 8.75759C24.2798 8.54216 24.2757 8.32785 24.2671 8.11409C25.3298 7.33675 26.2421 6.38519 26.9777 5.28376C27.0106 5.23453 27.007 5.169 26.9686 5.12309Z" fill="#A0A0A0"/>
</g>
<defs>
<clipPath id="clip0">
<rect width="27" height="27" fill="white"/>
</clipPath>
</defs>
</svg>
