<svg width="20" height="19" viewBox="0 0 20 19" fill="none" xmlns="http://www.w3.org/2000/svg">
    <path d="M9.99998 0C4.47715 0 0 4.18293 0 9.34283C0 14.5027 4.47715 18.6857 9.99998 18.6857C15.5228 18.6857 20 14.5027 20 9.34283C19.9941 4.18524 15.5204 0.00551343 9.99998 0ZM10.7143 9.34283C10.7143 9.71141 10.3945 10.0102 9.99998 10.0102H4.28571C3.89121 10.0102 3.57141 9.71141 3.57141 9.34283C3.57141 8.97426 3.89121 8.67548 4.28571 8.67548H9.28573V4.00408C9.28573 3.6355 9.60552 3.33672 10 3.33672C10.3945 3.33672 10.7143 3.6355 10.7143 4.00408V9.34283Z" fill="#586E84"/>
</svg>
