<svg width="13" height="14" viewBox="0 0 13 14" fill="none" xmlns="http://www.w3.org/2000/svg">
    <path d="M11.9328 2.79881C11.4094 1.96729 10.6986 1.31049 9.80037 0.828468C8.9022 0.346508 7.92093 0.105469 6.85691 0.105469C6.06323 0.105469 5.30447 0.247788 4.58062 0.532485C3.85678 0.817153 3.23323 1.20193 2.70994 1.68674C2.18655 2.1716 1.77021 2.74804 1.46055 3.41604C1.1509 4.08407 0.996094 4.78458 0.996094 5.51747C0.996094 6.36307 1.19335 7.1554 1.58802 7.89392C1.9827 8.63235 2.52226 9.25257 3.20695 9.75432C3.15893 9.97975 3.10225 10.194 3.03682 10.3968C2.97141 10.5998 2.91255 10.7663 2.86023 10.896C2.80785 11.0256 2.73706 11.1694 2.6476 11.3273C2.55827 11.4851 2.49069 11.5965 2.44489 11.6612C2.39914 11.7261 2.32392 11.8334 2.2192 11.9826C2.11462 12.1321 2.04698 12.2292 2.01649 12.2744C2.01207 12.2771 1.99466 12.3026 1.96414 12.3505C1.93365 12.3983 1.91834 12.4222 1.91834 12.4222L1.8791 12.4982C1.85727 12.5406 1.84746 12.5674 1.84961 12.5784C1.85181 12.5895 1.84746 12.6179 1.83655 12.6629C1.82563 12.7081 1.82675 12.7419 1.83981 12.7646V12.773C1.85733 12.8745 1.89548 12.9562 1.95431 13.0181C2.01315 13.0801 2.07972 13.1055 2.15381 13.094C2.43733 13.049 2.68586 12.9872 2.8995 12.9081C4.04203 12.5303 5.04501 11.8483 5.90838 10.8616C6.23536 10.9066 6.55152 10.9293 6.85677 10.9293C7.92077 10.9293 8.90199 10.6882 9.80025 10.2061C10.6985 9.72411 11.4093 9.06728 11.9326 8.2359C12.4559 7.40474 12.7175 6.49837 12.7175 5.51745C12.7175 4.53649 12.4559 3.63018 11.9328 2.79881Z" fill="#275580"/>
</svg>
