<svg version="1.1" id="Capa_1" xmlns="http://www.w3.org/2000/svg" xmlns:xlink="http://www.w3.org/1999/xlink" x="0px" y="0px"
     viewBox="0 0 512.001 512.001" style="enable-background:new 0 0 512.001 512.001;" xml:space="preserve">
<path style="fill:#498A68;" d="M381.607,384.335c-1.934,0-3.9-0.346-5.815-1.076c-11.125-4.237-22.584-3.701-26.896-3.503
	l-0.516,0.025c-9.005,0.403-16.659-6.579-17.063-15.599s6.579-16.659,15.599-17.063l0.461-0.021
	c5.581-0.263,22.57-1.05,40.052,5.609c8.437,3.214,12.671,12.658,9.458,21.094C394.402,380.323,388.195,384.334,381.607,384.335z"/>
    <path style="fill:#5CB38E;" d="M233.974,435.467c-76.284,0-164.073,0-228.341-41.032c-10.998-7.021-4.637-23.979,8.296-22.253
	c50.895,6.794,93.645-6.161,118.022-27.146L233.974,435.467z"/>
    <path style="opacity:0.1;enable-background:new    ;" d="M103.176,362.348c0.85,24.362,4.59,48.679,19.607,68.899
	c37.188,4.219,75.452,4.22,111.191,4.22l-102.023-90.431C124.138,351.763,114.428,357.658,103.176,362.348z"/>
    <g>
	<path style="fill:#498A68;" d="M199.776,509.882c-3.875,0-7.809-0.899-11.493-2.795c-12.348-6.358-17.204-21.524-10.845-33.872
		c6.021-11.691,0.174-42.27-4.004-52.595c-5.207-12.865,0.982-27.541,13.84-32.762c12.862-5.218,27.505,0.936,32.741,13.786
		c0.223,0.551,21.587,56.832,2.14,94.598C217.693,504.906,208.895,509.882,199.776,509.882z"/>
        <path style="fill:#498A68;" d="M290.996,509.883c-3.095,0.001-6.239-0.573-9.29-1.788c-12.906-5.134-19.206-19.759-14.07-32.664
		c5.166-12.983-0.13-46.591-3.077-55.013c-5.094-12.813,1.087-27.362,13.881-32.576c12.858-5.241,27.537,0.936,32.781,13.799
		c4.11,10.085,15.744,60.731,3.15,92.384C310.449,503.88,300.993,509.883,290.996,509.883z M264.599,420.517
		c0.015,0.037,0.028,0.073,0.042,0.106C264.627,420.587,264.613,420.553,264.599,420.517z"/>
</g>
    <path style="opacity:0.1;enable-background:new    ;" d="M320.008,462.106c0.658-26.411-5.907-53.397-8.787-60.465
	c-5.243-12.863-19.923-19.04-32.781-13.799c-12.794,5.214-18.975,19.763-13.881,32.576c2.727,7.795,7.461,37.149,4.057,51.774
	C288.663,470.718,305.678,467.385,320.008,462.106z"/>
    <path style="opacity:0.1;enable-background:new    ;" d="M187.274,387.857c-12.858,5.221-19.047,19.897-13.84,32.762
	c3.513,8.679,8.202,31.668,6.031,45.722c14.295,3.68,30.831,5.82,49.831,6.496c4.842-34.012-9.1-70.748-9.28-71.193
	C214.779,388.793,200.136,382.639,187.274,387.857z"/>
    <path style="fill:#5CB38E;" d="M357.729,346.735c0,58.712-7.975,101.195-114.819,101.195s-114.819-42.483-114.819-101.195
	s51.406-106.307,114.819-106.307C306.322,240.428,357.729,288.023,357.729,346.735z"/>
    <path style="fill:#9BDFC1;" d="M357.729,346.735c0-0.468-0.013-0.933-0.019-1.4c-23.915-6.137-71.351-7.922-104.361,27.159
	c-24.055,25.564-27.536,53.151-24.955,75.152c4.624,0.188,9.459,0.284,14.517,0.284C349.754,447.93,357.729,405.447,357.729,346.735
	z"/>
    <path style="opacity:0.05;enable-background:new    ;" d="M221.112,242.349c-52.987,9.43-93.022,52.575-93.022,104.386
	c0,54.364,6.851,94.809,92.686,100.501C173.118,398.863,182.336,298.984,221.112,242.349z"/>
    <path style="fill:#5CB38E;" d="M348.302,87.325L348.302,87.325c-19.607-29.65-52.782-47.485-88.328-47.485h-43.695
	c-62.122,0-112.482,50.36-112.482,112.482v51.715c0,55.754,45.197,100.951,100.951,100.951h231.628
	c41.767,0,75.625-33.858,75.625-75.625v-35.197c0-41.766-33.858-75.625-75.625-75.625H406.37
	C383.001,118.542,361.192,106.817,348.302,87.325z"/>
    <g style="opacity:0.1;">
	<circle cx="164.901" cy="228.62" r="7.741"/>
        <circle cx="219.931" cy="240.43" r="7.741"/>
        <circle cx="188.441" cy="266.83" r="7.741"/>
</g>
    <g>
	<ellipse style="fill:#FFA8CB;" cx="206.931" cy="122.75" rx="19.511" ry="10.01"/>
        <ellipse style="fill:#FFA8CB;" cx="337.921" cy="122.75" rx="19.511" ry="10.01"/>
</g>
    <g>
	<path style="fill:#495059;" d="M421.409,256.686c-8.086,0-15.775-3.502-21.097-9.607c-2.722-3.123-2.395-7.86,0.727-10.582
		c3.122-2.721,7.859-2.396,10.582,0.727c2.472,2.836,6.039,4.463,9.788,4.463s7.316-1.627,9.788-4.463
		c2.722-3.122,7.458-3.447,10.582-0.727c3.122,2.722,3.448,7.459,0.727,10.582C437.185,253.185,429.495,256.686,421.409,256.686z"/>
        <circle style="fill:#495059;" cx="396.741" cy="158.04" r="7.741"/>
        <circle style="fill:#495059;" cx="446.071" cy="158.04" r="7.741"/>
</g>
    <path style="opacity:0.05;enable-background:new    ;" d="M191.29,42.63c-50.094,11.364-87.493,56.159-87.493,109.691v51.715
	c0,55.754,45.197,100.951,100.951,100.951h61.257C176.793,253.081,161.671,110.396,191.29,42.63z"/>
    <path style="fill:#498A68;" d="M254.537,405.535c-5.842,0-11.491-3.139-14.435-8.651c-5.608-10.504-14.608-17.63-17.996-20.313
	l-0.408-0.323c-7.068-5.616-8.245-15.898-2.628-22.968c5.617-7.067,15.899-8.245,22.968-2.628l0.362,0.287
	c4.385,3.471,17.727,14.037,26.541,30.546c4.253,7.965,1.243,17.867-6.721,22.119C259.771,404.913,257.134,405.535,254.537,405.535z
	"/>
    <path style="fill:#80B0E3;" d="M252.766,39.84h7.208c29.662,0,57.666,12.427,77.52,33.767l-11.127-24.266
	c-13.152-28.688-42.042-47.224-73.601-47.224h-41.788c-31.558,0-60.448,18.536-73.601,47.223l-17.053,37.194l34.29,15.723
	l17.053-37.194c7.027-15.323,27.757-25.223,44.613-25.223h19.529C235.808,39.84,252.766,39.84,252.766,39.84z"/>
    <ellipse style="fill:#A3E3FF;" cx="128.271" cy="123.18" rx="48.654" ry="54.98"/>
    <ellipse style="fill:#80B0E3;" cx="107.021" cy="123.18" rx="39.443" ry="44.571"/>
    <path style="fill:#A3E3FF;" d="M262.077,2.665c-3.069-0.358-6.176-0.548-9.311-0.548h-38.279V39.88c0.601-0.024,1.2-0.04,1.792-0.04
	h19.529h16.958h7.208c0.702,0,1.402,0.014,2.103,0.027L262.077,2.665L262.077,2.665z"/>
    <g>
	<path style="fill:#495059;" d="M245.941,109.522c-4.143,0-7.5-3.357-7.5-7.5c0-3.728-3.033-6.761-6.762-6.761
		c-3.727,0-6.761,3.033-6.761,6.761c0,4.143-3.357,7.5-7.5,7.5s-7.5-3.357-7.5-7.5c0-11.999,9.762-21.761,21.761-21.761
		c11.999,0,21.762,9.762,21.762,21.761C253.441,106.165,250.084,109.522,245.941,109.522z"/>
        <path style="fill:#495059;" d="M327.427,109.522c-4.143,0-7.5-3.357-7.5-7.5c0-3.728-3.033-6.761-6.762-6.761
		c-3.728,0-6.761,3.033-6.761,6.761c0,4.143-3.357,7.5-7.5,7.5s-7.5-3.357-7.5-7.5c0-11.999,9.762-21.761,21.761-21.761
		s21.762,9.762,21.762,21.761C334.927,106.165,331.569,109.522,327.427,109.522z"/>
</g>
    <path style="fill:#FF85B6;" d="M77.784,235.268v48.483c0,1.869-1.48,3.401-3.348,3.455c-2.172,0.063-4.426,0.308-6.74,0.752
	c-17.565,3.372-31.805,16.784-31.805,29.957s14.239,21.119,31.805,17.747c17.565-3.372,31.805-16.784,31.805-29.957v-44.409
	c0-2.654,1.884-4.935,4.491-5.435l24.583-4.719c5.225-1.003,9.002-5.574,9.002-10.895v-20.699c0-3.037-2.766-5.323-5.749-4.751
	L87.7,223.268C81.944,224.374,77.784,229.408,77.784,235.268z"/>
    <path style="fill:#A9A6DE;" d="M425.707,365.229v48.483c0,1.869-1.48,3.401-3.348,3.455c-2.172,0.063-4.427,0.308-6.74,0.752
	c-17.565,3.372-31.805,16.785-31.805,29.958s14.24,21.119,31.805,17.747c17.565-3.372,31.805-16.784,31.805-29.957v-44.409
	c0-2.654,1.884-4.935,4.491-5.435l24.583-4.719c5.225-1.003,9.002-5.574,9.002-10.895V349.51c0-3.037-2.766-5.323-5.749-4.751
	l-44.128,8.471C429.867,354.335,425.707,359.37,425.707,365.229z"/>
    <g>
</g>
    <g>
</g>
    <g>
</g>
    <g>
</g>
    <g>
</g>
    <g>
</g>
    <g>
</g>
    <g>
</g>
    <g>
</g>
    <g>
</g>
    <g>
</g>
    <g>
</g>
    <g>
</g>
    <g>
</g>
    <g>
</g>
</svg>
