<svg width="231" height="55" viewBox="0 0 231 55" fill="none" xmlns="http://www.w3.org/2000/svg">
    <rect x="0.5" y="0.5" width="230" height="54" rx="4.5" fill="white" stroke="#2D3958"/>
    <path d="M157.36 35V21H162.14C163.78 21 165.127 21.2933 166.18 21.88C167.247 22.4533 168.033 23.2667 168.54 24.32C169.06 25.36 169.32 26.5867 169.32 28C169.32 29.4133 169.06 30.6467 168.54 31.7C168.033 32.74 167.247 33.5533 166.18 34.14C165.127 34.7133 163.78 35 162.14 35H157.36ZM159.92 32.8H162.02C163.193 32.8 164.12 32.6133 164.8 32.24C165.48 31.8533 165.967 31.3067 166.26 30.6C166.553 29.88 166.7 29.0133 166.7 28C166.7 27 166.553 26.14 166.26 25.42C165.967 24.7 165.48 24.1467 164.8 23.76C164.12 23.3733 163.193 23.18 162.02 23.18H159.92V32.8ZM176.279 35.24C175.319 35.24 174.452 35.02 173.679 34.58C172.919 34.14 172.312 33.5333 171.859 32.76C171.419 31.9733 171.199 31.0667 171.199 30.04C171.199 29.0133 171.425 28.1133 171.879 27.34C172.332 26.5533 172.939 25.94 173.699 25.5C174.472 25.06 175.339 24.84 176.299 24.84C177.245 24.84 178.099 25.06 178.859 25.5C179.632 25.94 180.239 26.5533 180.679 27.34C181.132 28.1133 181.359 29.0133 181.359 30.04C181.359 31.0667 181.132 31.9733 180.679 32.76C180.239 33.5333 179.632 34.14 178.859 34.58C178.085 35.02 177.225 35.24 176.279 35.24ZM176.279 33.02C176.945 33.02 177.525 32.7733 178.019 32.28C178.512 31.7733 178.759 31.0267 178.759 30.04C178.759 29.0533 178.512 28.3133 178.019 27.82C177.525 27.3133 176.952 27.06 176.299 27.06C175.619 27.06 175.032 27.3133 174.539 27.82C174.059 28.3133 173.819 29.0533 173.819 30.04C173.819 31.0267 174.059 31.7733 174.539 32.28C175.032 32.7733 175.612 33.02 176.279 33.02ZM183.648 35V25.08H185.908L186.108 26.76C186.414 26.1733 186.854 25.7067 187.428 25.36C188.014 25.0133 188.701 24.84 189.488 24.84C190.714 24.84 191.668 25.2267 192.348 26C193.028 26.7733 193.368 27.9067 193.368 29.4V35H190.808V29.64C190.808 28.7867 190.634 28.1333 190.288 27.68C189.941 27.2267 189.401 27 188.668 27C187.948 27 187.354 27.2533 186.888 27.76C186.434 28.2667 186.208 28.9733 186.208 29.88V35H183.648ZM200.636 35.24C199.636 35.24 198.749 35.0267 197.976 34.6C197.202 34.1733 196.596 33.5733 196.156 32.8C195.716 32.0267 195.496 31.1333 195.496 30.12C195.496 29.0933 195.709 28.18 196.136 27.38C196.576 26.58 197.176 25.96 197.936 25.52C198.709 25.0667 199.616 24.84 200.656 24.84C201.629 24.84 202.489 25.0533 203.236 25.48C203.982 25.9067 204.562 26.4933 204.976 27.24C205.402 27.9733 205.616 28.7933 205.616 29.7C205.616 29.8467 205.609 30 205.596 30.16C205.596 30.32 205.589 30.4867 205.576 30.66H198.036C198.089 31.4333 198.356 32.04 198.836 32.48C199.329 32.92 199.922 33.14 200.616 33.14C201.136 33.14 201.569 33.0267 201.916 32.8C202.276 32.56 202.542 32.2533 202.716 31.88H205.316C205.129 32.5067 204.816 33.08 204.376 33.6C203.949 34.1067 203.416 34.5067 202.776 34.8C202.149 35.0933 201.436 35.24 200.636 35.24ZM200.656 26.92C200.029 26.92 199.476 27.1 198.996 27.46C198.516 27.8067 198.209 28.34 198.076 29.06H203.016C202.976 28.4067 202.736 27.8867 202.296 27.5C201.856 27.1133 201.309 26.92 200.656 26.92Z" fill="#2D3958"/>
    <path d="M35 17C28.9249 17 24 21.9249 24 28C24 34.0751 28.9249 39 35 39C41.0751 39 46 34.0751 46 28C45.9935 21.9276 41.0724 17.0065 35 17ZM41.0555 24.6269L33.1983 32.4841C32.8915 32.7908 32.3941 32.7908 32.0873 32.4841L28.9445 29.3412C28.6323 29.0397 28.6237 28.5424 28.9251 28.2302C29.2266 27.9181 29.724 27.9094 30.0361 28.2109C30.0427 28.2172 30.0491 28.2236 30.0555 28.2302L32.6428 30.8176L39.9445 23.5159C40.2566 23.2145 40.754 23.2231 41.0555 23.5352C41.3496 23.8397 41.3496 24.3224 41.0555 24.6269Z" fill="#2D3958"/>
</svg>
